<?xml version="1.0" encoding="utf-8"?>
<!-- Generator: Adobe Illustrator 23.0.3, SVG Export Plug-In . SVG Version: 6.00 Build 0)  -->
<svg version="1.2" baseProfile="tiny" id="Calque_1"
	 xmlns="http://www.w3.org/2000/svg" xmlns:xlink="http://www.w3.org/1999/xlink" x="0px" y="0px" width="2449px" height="2448.6px"
	 viewBox="0 0 2449 2448.6" xml:space="preserve">
<g>
	<path fill="#91CF63" d="M2444.9,1328.5c-5.4-10.5-10.1-19.9-15-29.2c-19.4-37.2-41.5-72.7-66.3-106.6c-25.2-34.5-53.1-66.7-83.2-97
		c-28.6-28.9-59.8-54.9-92.6-78.9c-33.3-24.5-68.2-46.5-104.9-65.6c-37.8-19.7-76.6-37.1-117.2-50.2c-27.7-9-56.2-15.7-84.4-23.1
		c-7.1-1.9-11.7-5.1-15.7-11.9c-16.2-27.8-33.5-55.1-50.4-82.5c-1.2-2-2.7-3.8-4.2-5.6c-4.7-5.9-5.2-6.1-11.1-1.8
		c-9.1,6.7-18.2,13.5-27.2,20.3c-6.3,4.8-12.5,9.8-19,14.9c11.1,16.5,21.8,32.4,33.8,50.3c-9.4,0.1-16.5,0.3-23.6,0.2
		c-16.9-0.2-33.9-1.2-50.8-0.8c-23.6,0.6-47.2,2.2-70.8,3.6c-28.9,1.7-57.5,5.5-85.8,11.7c-26.2,5.8-52.7,10.8-78.4,18.5
		c-28.6,8.6-56.6,19.1-84.4,30c-31.6,12.4-61.7,27.9-91.2,44.8c-48.1,27.5-92.8,59.7-134.5,96.2c-27.6,24.2-53.4,50.2-77.3,78
		c-43.4,50.4-80.5,105.1-110.7,164.4c-16.8,32.9-31.5,66.8-43.7,101.6c-11,31.6-20.8,63.7-27,96.8c-4.2,22.5-9.1,44.9-12.4,67.5
		c-2.8,19-4.3,38.3-5.1,57.6c-1.1,26.5-2,53.1-1.1,79.6c0.8,24.2,3.6,48.3,6.3,72.4c2,17.8,4.7,35.6,8.1,53.1
		c3.8,19.9,8.3,39.7,13.3,59.3c5,19.3,11.1,38.2,16.7,57.3c0.2,0.5-0.3,1.2-0.7,3.1c-4.3-1.2-8.7-2.1-12.8-3.7
		c-13.7-5.2-27.3-10.4-40.8-15.9c-4.6-1.9-7.5-1.2-9.5,3.6c-5.7,13.4-11.6,26.8-17.4,40.2c-1.8,4.2-3.7,8.5-5.7,13.3
		c1.9,1.5,3.4,3.4,5.4,4.2c32.2,13.5,64.8,25.5,98.7,34c5.8,1.5,11.4,3.7,17.3,4.6c8.4,1.3,13,6.1,16.6,13.4
		c27,54.9,60.7,105.4,99.4,152.7c23.7,28.9,49.3,55.8,76.6,81.4c56,52.6,118.3,95.9,186.6,130.9c12.7,6.5,25.8,12.2,38.7,18.3
		c1.4,0.7,2.7,1.5,5.5,3.1c-3.2,1.2-5.1,2.5-7.1,2.6c-22.8,2-45.7,3.5-68.5,5.9c-51.9,5.6-103.8,1.8-155.8,2.3
		c-20.2,0.2-40.4-2.9-60.6-4.7c-10.9-0.9-21.8-2-32.6-3.4c-11.5-1.5-22.9-3.4-34.4-5.2c-6.5-1-13-2.1-19.6-3.2
		c-27.4-4.3-54.5-10.1-81.4-16.8c-30.1-7.5-59.9-16-89.5-25.5c-61.6-19.8-120.9-45.1-178.5-74.4c-57.6-29.4-112.2-63.4-164.3-101.7
		c-69.2-50.9-132.7-108.1-189.8-172.2c-61.5-69.1-115-143.7-159.6-224.8c-31.2-56.7-57.9-115.3-79.9-176.2
		c-13.9-38.6-26.1-77.6-36.1-117.3c-7.2-28.8-12.2-58.2-18-87.3c-3.1-15.6-5.9-31.2-8.2-46.8c-1.6-10.8-2-21.8-3.2-32.7
		c-1.8-16.1-3.8-32.2-5.7-48.3c-0.3-2.6-0.3-5.3-0.3-8c0-50.7-0.4-101.3,0.2-152c0.2-15.8,3.3-31.5,5.1-47.3
		c0.2-1.6,0.5-3.3,0.6-4.9c0.9-11.5,1.2-23.2,2.9-34.6c3.1-20.5,7.2-40.9,10.9-61.3c2.9-16.2,5.7-32.3,9.1-48.4
		c2.5-11.9,5.5-23.8,8.7-35.5c3.4-12.3,7.1-24.6,10.9-36.8c6.8-22,13.1-44.2,21-65.8c9.4-25.7,20.1-51,30.6-76.4
		c14.1-34.2,31-67.1,48.6-99.7c27.2-50.3,58.2-98.1,92.4-143.8c21.7-29,45.1-56.8,68.9-84.1c35.9-41.2,75.5-78.7,116.9-114.5
		c50.9-44.1,105.3-83.3,162.7-118.3C638.3,145.7,689,119,742,97.1c28.2-11.7,56.7-23.1,85.5-33.3c22.6-8,45.8-14.2,68.8-20.8
		c17.7-5.1,35.4-9.9,53.2-14.4c9.3-2.3,18.8-3.7,28.2-5.6c14.5-2.9,29-5.9,43.5-8.7c6.1-1.2,12.3-2.1,18.6-2.8
		c11.2-1.3,22.4-2.2,33.6-3.6c10.5-1.2,21-2.8,31.5-4.2c1-0.1,2-0.4,3-0.4c19.5-1.1,38.9-3,58.4-3.2c43-0.5,86-0.2,129-0.1
		c4.9,0,9.8,1.2,14.7,1.8c2.6,0.4,5.3,1,7.9,1.1c14.9,1,29.9,1.5,44.7,2.9c10.5,1,20.9,3.3,31.4,4.7c9.5,1.3,19,2.1,28.5,3.4
		c7.8,1.1,15.6,2.5,23.3,4c11.9,2.4,23.9,4.9,35.8,7.6c11.2,2.5,22.4,5,33.5,7.8c18.2,4.6,36.4,9,54.4,14.5
		c25.5,7.7,50.9,15.6,76,24.6c54.8,19.7,107.6,43.8,158.8,71.4c50.9,27.4,99.5,58.4,146.1,92.6c64.1,47,122.8,100,176.8,158.2
		c38,41,72.7,84.8,104.5,130.9c43,62.3,80.8,127.5,111.4,196.9c14.7,33.2,28.8,66.6,40,101.2c8.5,26.5,17.6,52.9,25.1,79.7
		c5.9,21.2,9.8,43,14.7,64.4c2.8,12.4,6.1,24.8,8.8,37.3c1.3,6.1,2,12.4,2.8,18.6c2,16.1,3.7,32.2,5.9,48.3
		c2.6,19,4.1,38.2,6.3,57.2c3.4,29,1.4,57.8,2,86.6c0.6,29,0.4,58,0,87C2448.5,1310.7,2446.4,1318.5,2444.9,1328.5z M447.2,1082.5
		c-1.2-1.1-1.6-1.8-2.2-1.9c-18.4-4.4-36.8-8.5-55.1-13.1c-4.6-1.1-6.9-0.3-7.8,4.5c-3.3,17.9-6.9,35.7-10.1,53.7
		c-2,11.4-3.8,22.9-5.1,34.4c-1.5,13.5-2.2,27.1-3.5,40.7c-0.4,4.2,0.8,6.5,5.1,6.6c2.6,0.1,5.3-0.5,7.9-0.5c14.5,0.2,29,0.3,43.5,1
		c7.8,0.4,9.7-0.8,10.3-9.2c1.9-28.2,5.3-56.1,10.8-83.8C443.1,1104.3,445.1,1093.5,447.2,1082.5z M1079.3,515
		c42.9-1.3,84.5-2.7,126.3-4c1.1-17,2.5-33.8,3.1-50.7c0.6-14.9,1.6-14.6-14.7-15.2c-38.9-1.4-77.8,0.1-116.6,4.1
		c-1.8,0.2-3.5,1.3-5.9,2.2C1074.1,472.8,1076.7,493.8,1079.3,515z M615.3,1841.6c2.5,2.7,4.2,4.7,6.1,6.4
		c11,9.7,21.7,19.8,33.2,28.8c20.4,16,41.2,31.5,62.1,47c5.4,4,7.2,3.6,11.2-2.4c6.3-9.4,12.4-18.9,18.5-28.4
		c4.3-6.6,8.6-13.2,13.4-20.7c-35.6-23.4-67.7-49.7-98.9-78.9C645.6,1809.5,630.6,1825.4,615.3,1841.6z M1453.4,572.1
		c9.8-20,17.6-40.5,26.7-61.5c-42.8-18.2-85.2-33.4-130.8-43.3c-5.3,22.1-10.2,42.7-15.4,64.2
		C1375.1,542.5,1414.4,554.9,1453.4,572.1z M458.7,1466.2c-4-16.4-7.8-31.2-11.2-46c-3.2-13.9-6.2-27.9-8.9-41.9
		c-1.9-9.8-2.9-19.7-4.5-29.5c-1-6.1-2.5-7.2-8.8-6.6c-5.3,0.5-10.5,1.3-15.8,1.9c-10.6,1.1-21.2,1.8-31.8,3.2
		c-9.1,1.2-10.7,3.9-9.3,11.7c3.2,17.3,5.9,34.6,9.4,51.8c3.6,18.2,7.7,36.3,12,54.4c1.5,6.4,4,12.5,6.4,19.9
		C417.2,1478.7,437.7,1472.5,458.7,1466.2z M506.9,1587.4c-17.8,9.2-34.1,17.6-50.3,25.9c-8,4.1-8.3,4.9-4.1,12.8
		c17.3,32.6,36.2,64.2,57.3,94.4c3.4,4.8,7.3,9.3,11.5,14.7c8.5-6.3,16.2-12,23.8-17.7c7.7-5.8,15.5-11.5,23.1-17.5
		c5.2-4,5.2-5.2,1.6-10.6c-0.9-1.4-2.1-2.6-3.1-3.9c-17.1-23.8-32.6-48.4-46.4-74.3C516.1,1603.5,511.6,1595.9,506.9,1587.4z
		 M1712.6,665.2c-34.3-32.7-69.2-60.9-108-86.5c-12.2,18.5-24,36.4-36.5,55.4c35,24.2,67.7,50.1,99.2,79.1
		C1682.5,697,1697.2,681.5,1712.6,665.2z M932.6,478c-18.4,6.6-35.1,11.9-51.3,18.5C858,505.9,835,516,812,526.2
		c-5.9,2.6-6.4,5.1-3.4,11.1c7.4,14.9,14.8,29.7,22.3,44.5c1.1,2.3,2.8,4.3,3.8,5.8c39.4-15.8,78-31.2,116.9-46.7
		C945.4,520.4,939.2,500,932.6,478z M724,657.9c-5.1-7-9.1-12.7-13.3-18.3c-7.1-9.6-14.2-19.3-21.5-28.7c-4.1-5.3-5.4-5.4-10.7-2
		c-1.1,0.7-2.2,1.6-3.2,2.4c-23.5,20.5-47.2,40.9-70.5,61.6c-8.1,7.2-15.3,15.5-23.4,23.8c16.6,15.6,32.4,30.5,48.5,45.6
		C659.1,711,690.4,684,724,657.9z M493.7,808.4c-25.9,39.5-47.3,79.4-65.4,121.5c3.6,1.8,6.1,3.3,8.8,4.5
		c14.2,6.3,28.5,12.6,42.8,18.9c7.9,3.4,8.6,2.8,12.7-5.2c13.3-25.7,26.6-51.3,40.2-76.8c4.7-8.7,10.2-17,15.8-26.2
		C530.3,832.9,512.5,820.9,493.7,808.4z"/>
	<path fill="#91CF63" d="M1121.9,1152.9c7.7-13.3,56.8-61.4,82.5-81c2.5,1.8,5.6,3.7,8.1,6c71.9,65.1,143.6,130.2,215.5,195.3
		c69.1,62.6,138.3,125.2,207.4,187.8c54.3,49.2,108.6,98.5,162.9,147.7c2,1.8,4.3,3.1,7.2,5.2c-20.9,36-40.1,71.1-67.9,102.2
		C1531.8,1527.9,1326.8,1340.4,1121.9,1152.9z"/>
	<path fill="#91CF63" d="M1720.5,1738.3c-26.3,28.9-53.4,55.7-82.9,81.2c-10.4-9.3-20.3-18.1-30.1-27c-48-43.7-96.1-87.4-144-131.2
		c-46-42-92-83.9-138-126c-33.9-31-67.7-62.2-101.5-93.2c-48.6-44.6-97.1-89.2-145.7-133.8c-12.5-11.5-25.2-22.8-37.8-34.2
		c-6.4-5.8-6.5-6.1-1.9-13.2c17.6-27.5,37.7-53.2,58.7-78.2c4.9-5.9,6.2-5.9,11.9-0.7c29.7,26.8,59.3,53.6,88.9,80.5
		c93.8,85.4,187.6,170.9,281.5,256.3c79.1,71.9,158.2,143.8,237.3,215.7C1717.9,1735.3,1718.7,1736.4,1720.5,1738.3z"/>
	<path fill="#91CF63" d="M1616.1,1836.5c-31.2,27.7-64,47.6-98,67c-4-3.4-7.5-6.4-10.9-9.4c-46.7-42.3-93.3-84.5-139.9-126.8
		c-52.2-47.5-104.4-95.1-156.6-142.7c-52.9-48.2-105.9-96.4-158.8-144.7c-25.1-22.9-50-46-75.1-68.9c-8.5-7.8-8.4-7.8-4-18.7
		c12-30.3,25.6-59.8,41.1-88.5c0.8-1.5,1.5-3,2.4-4.4c3-4.6,5.3-5.1,9.6-1.5c4.6,3.8,9,8,13.4,12c50.4,46,100.8,92.1,151.2,138.1
		c34.7,31.7,69.3,63.4,104,95.1c36.4,33.3,72.8,66.5,109.1,99.8c35.6,32.6,71.1,65.3,106.7,98c31.7,29,63.3,58.1,95.1,87
		C1608.3,1830.6,1611.6,1832.9,1616.1,1836.5z"/>
	<path fill="#91CF63" d="M1227.2,1054.4c3.1-2.9,5.1-5.1,7.4-6.8c27-20.1,55-38.5,84.4-54.9c8.4-4.7,9.2-4.6,16.4,2
		c26.4,24.4,52.7,49,79.3,73.1c76.9,69.9,154,139.5,231,209.3c41.9,38,83.9,76.1,125.7,114.2c29.3,26.7,58.5,53.5,87.7,80.2
		c2,1.8,4.5,3,6,4c-11.2,40.7-28,76.6-45.8,112.3c-1.5-0.4-2.7-0.3-3.4-0.9C1620.1,1409.9,1424.2,1232.7,1227.2,1054.4z"/>
	<path fill="#91CF63" d="M957.6,1432.4c4.5,3,7.6,4.6,10.1,6.8c30.4,27.9,60.6,56.1,91.2,83.9c40.9,37.3,82.1,74.2,122.9,111.4
		c39.1,35.7,78,71.6,117.1,107.3c60.6,55.2,121.2,110.3,181.9,165.4c3.1,2.9,6.2,5.8,10.6,9.9c-20,8.8-38.2,17.4-57,24.8
		c-19.1,7.6-38.9,13.7-58.1,21c-4.9,1.9-7.6,1.1-11.3-2.3c-29.3-27.2-58.8-54.1-88.3-81.1c-22.6-20.7-45.4-41.2-68.1-61.8
		c-44.6-40.6-89.1-81.2-133.7-121.8c-47-42.9-93.9-85.9-141.1-128.5c-5.2-4.7-6.9-9.3-5.5-15.7c5-23,9.6-46.2,15.1-69.1
		C947.3,1466.6,952.4,1450.8,957.6,1432.4z"/>
	<path fill="#91CF63" d="M1873.1,1445.3c-2.7-1.7-4.8-2.6-6.4-4.1c-170.6-155.2-341.2-310.5-512-465.9c1.6-2,2.2-3.5,3.2-4
		c33.4-16.3,67.9-30.1,102.9-42.7c7.6-2.7,13.9-2.2,20.6,4c39.2,36.5,78.9,72.6,118.4,108.7c33.4,30.6,66.8,61.1,100.3,91.7
		c33.2,30.3,66.3,60.7,99.4,91.1c30.2,27.7,60.2,55.6,90.5,83c4.8,4.3,6.1,8.2,5.1,14.6c-3.4,21.6-5.4,43.5-8.8,65.1
		c-2.9,18-6.9,35.9-10.6,53.8C1875.6,1442,1874.5,1443,1873.1,1445.3z"/>
	<path fill="#91CF63" d="M921.9,1598.5c2.5-0.4,3.1-0.6,3.7-0.5c0.6,0,1.4,0.2,1.9,0.5c1.3,1,2.6,2.1,3.8,3.2
		c134.6,123.1,269.1,246.3,403.7,369.5c0.6,0.6,0.7,1.7,1.3,3.2c-2.4,0.7-4.4,1.6-6.6,2c-18.2,3.7-36.4,7.3-54.7,10.8
		c-3.6,0.7-7.2,0.9-10.9,1.1c-21.9,1.5-43.8,2.9-65.7,4.5c-7.9,0.6-13.9-1-20.4-6.9c-40.7-37.9-82.1-75-123.1-112.5
		c-34.2-31.2-68.3-62.4-102.4-93.8c-9.1-8.3-17.7-17.1-26.8-25.4c-3.4-3.1-5.2-6.5-5.3-11.2c-1-24.3-3.2-48.5-3-72.8
		C917.7,1646.3,920.3,1622.5,921.9,1598.5z"/>
	<path fill="#91CF63" d="M1897.5,1276.5c-6.4-5.6-11.2-9.6-15.8-13.8c-49.5-45.1-99-90.2-148.4-135.3
		c-33.2-30.3-66.2-60.9-99.3-91.3c-33.1-30.4-66.3-60.7-99.5-91.1c-7.8-7.2-15.5-14.6-23.3-21.9c-5.2-4.9-4.7-7.7,2-9.4
		c7.7-2,15.4-4,23.3-5.4c18.6-3.5,37.2-7.1,55.9-9.9c16.4-2.5,33-3.9,49.5-5.9c6.7-0.8,11.3,2.5,15.9,6.7
		c17.2,15.7,34.5,31.4,51.8,47c55.4,50,110.7,100.1,166.3,149.8c6.7,5.9,9,12.9,10.3,20.8c3.5,21.3,7.3,42.6,10,63.9
		c1.7,13.5,2.2,27.2,2.6,40.8c0.4,15.6,0.1,31.2,0,46.8C1898.6,1270.1,1898.1,1271.9,1897.5,1276.5z"/>
	<path fill="#91CF63" d="M969.6,1967.6c-17.3-42.2-43.9-151.2-41.8-171.1c0.3-0.1,0.6-0.3,0.9-0.4c0.3-0.1,0.7-0.3,0.9-0.1
		c1.3,0.9,2.8,1.7,3.9,2.8c70,64.3,139.9,128.6,209.4,194C1083.9,1993,1026.3,1985.2,969.6,1967.6z"/>
	<path fill="#91CF63" d="M1692.5,891c3.4-0.4,5.6-0.8,7.8-0.8c27.6,0.5,55.2,0.7,82.7,1.6c22.5,0.8,22.3,1.3,33.2,21
		c17.5,31.5,30.7,64.8,42.7,98.5c4.2,11.8,7.4,24.1,10.8,36.2c0.7,2.6,0.5,5.5,0.8,8.9C1861.4,1052,1697.6,899.9,1692.5,891z"/>
</g>
</svg>
