<?xml version="1.0" encoding="utf-8"?>
<!-- Generator: Adobe Illustrator 23.0.3, SVG Export Plug-In . SVG Version: 6.00 Build 0)  -->
<svg version="1.2" baseProfile="tiny" id="Calque_1"
	 xmlns="http://www.w3.org/2000/svg" xmlns:xlink="http://www.w3.org/1999/xlink" x="0px" y="0px" width="2474px" height="2475px"
	 viewBox="0 0 2474 2475" xml:space="preserve">
<path fill="#A761D7" d="M2464.3,1238.1c0,18,0.3,36-0.1,54c-0.5,20.9-1.3,41.8-2.8,62.7c-0.8,11.4-3.5,22.7-5.1,34.2
	c-1.6,11.5-2.6,23-4.1,34.5c-1.4,10.8-2.7,21.6-4.8,32.2c-2.5,12.5-5.9,24.8-8.7,37.3c-2.9,12.8-5.5,25.7-8.5,38.5
	c-2.3,9.9-4.5,19.7-7.2,29.5c-5,18-10,35.9-15.6,53.7c-4.5,14.4-9.3,28.7-14.9,42.7c-10,25.4-20.4,50.6-30.9,75.7
	c-15.2,36.2-33,71.2-52.5,105.3c-21.4,37.6-44.1,74.5-69.7,109.5c-16.1,21.9-32.8,43.3-49.6,64.7c-24.8,31.7-51.7,61.6-80.6,89.6
	c-23.2,22.4-46.8,44.4-71,65.8c-37,32.8-76.7,62.4-117.8,89.9c-26.4,17.7-53.8,33.9-81.3,49.9c-29.9,17.4-60.7,33.1-92.6,46.8
	c-26.6,11.4-53.2,22.9-80.1,33.4c-21.6,8.4-43.7,15.7-65.7,22.7c-14.3,4.6-29,7.7-43.5,11.6c-13.3,3.6-26.5,7.5-39.8,10.8
	c-11.4,2.8-23,4.9-34.5,7.2c-12.6,2.5-25.1,4.9-37.7,7.3c-6.4,1.2-12.8,2.8-19.3,3.6c-10.8,1.3-21.7,2-32.5,3.2
	c-10.5,1.1-21,2.5-31.5,3.8c-4.6,0.6-9.2,1.3-13.8,1.6c-16.5,0.9-33.1,2.3-49.6,2.4c-37.7,0.4-75.3,0.4-113,0
	c-20.2-0.2-40.5-1.4-60.7-2.9c-15.8-1.1-31.6-3-47.3-5.1c-10-1.3-19.9-3.9-29.9-5.5c-8.1-1.3-16.3-2.1-24.4-3.3
	c-6.2-0.9-12.3-2.1-18.4-3.3c-13.2-2.6-26.4-4.8-39.4-8c-16.3-3.9-32.4-8.4-48.4-13.1c-19.5-5.6-38.8-11.8-58.2-17.6
	c-44-13.1-86.5-30.4-128.1-49.6c-54.9-25.3-108.1-54.1-158.6-87.6c-33.5-22.3-65.9-45.8-97.4-70.8c-49.3-39.2-95.1-82-137.7-128.3
	c-23.4-25.4-45.4-51.9-66.6-79.3c-23.9-31-46.2-63-67.4-95.9c-27.4-42.5-51.6-86.7-72.9-132.5c-12.7-27.3-23.5-55.6-35-83.5
	c-13.5-32.8-24.4-66.5-33.8-100.7c-5-18-10.3-35.7-13.9-54.1c-2.2-11.2-6-22.1-8.6-33.3c-1.5-6.7-2-13.6-3.1-20.4
	c-1.1-7.1-2.5-14.2-3.6-21.4c-1.5-10.1-2.8-20.2-4.4-30.3c-1.6-10.4-3.6-20.7-5.3-31.1c-0.4-2.3-0.6-4.6-0.6-6.9
	c-0.1-7,0.6-14-2.9-20.5c-0.4-0.8-0.4-1.9-0.5-2.9c-0.9-18.2-2.4-36.4-2.6-54.7c-0.4-46-1.1-92,0.4-138c0.5-16.2-0.2-33.1,5-49.1
	c0.3-0.9,0.4-2,0.5-2.9c0.9-11.9,1.6-23.7,2.8-35.6c0.8-8.1,2.4-16,3.6-24.1c1.4-9.1,2.8-18.2,4.3-27.3c1.2-7.1,2.6-14.2,4.1-21.2
	c2.6-12.5,5-24.9,7.9-37.3c3.1-13,6.6-25.9,10.2-38.7c4.1-14.8,7.9-29.7,12.6-44.3c8.4-26,16.9-52,26.2-77.7
	c6.6-18.2,14.6-35.9,22.1-53.8c13.9-33.1,29.5-65.3,47.3-96.4c14.5-25.4,29.1-50.9,44.7-75.6c19.4-30.8,40.8-60.3,63.1-89.1
	c24.4-31.6,49.9-62.2,77.5-91c21.1-22.1,42.7-43.9,65.4-64.4c37.5-33.8,76.5-65.7,117.9-94.9c30.3-21.4,61.4-41.6,93.4-60.4
	c36.7-21.5,74.6-40.6,113.2-58.4c32.5-14.9,65.9-27.4,99.4-39.7C852,74.3,867,69.8,882,65.3c19.5-5.8,38.9-11.8,58.6-16.7
	c17.8-4.5,35.9-7.7,53.8-11.5c13.8-2.9,27.5-6.1,41.3-8.7c8.4-1.6,17-2.1,25.4-3.3c12.1-1.6,24.1-3.3,36.1-5c2-0.3,3.9-0.7,5.9-0.9
	c9.2-0.8,18.3-1.6,27.5-2.2c3.3-0.2,6.5,0,9.8,0c3.3,0,7,0.7,9.9-0.4c8.7-3.2,17.7-2.5,26.6-2.5c44.7,0,89.3-0.1,134,0.1
	c5.2,0,10.4,1.2,15.6,1.8c3.6,0.4,7.3,1.1,10.9,1.2c17.3,0.1,34.4,1.3,51.4,4.6c11,2.1,22.3,2,33.4,3.6c8.7,1.2,17.2,3.5,25.8,5.2
	c6.1,1.2,12.3,2.3,18.4,3.3c11.1,1.9,22.2,3.2,33.2,5.5c10.5,2.2,20.7,5.4,31.1,8.1c14.6,3.8,29.2,7.2,43.7,11.2
	c15.1,4.2,30.1,8.6,45,13.4c32.1,10.4,63.6,22.3,94.7,35.5c28.5,12.1,56.3,25.3,83.9,39.3c29.7,15.1,58.9,31.1,86.9,49.1
	c26.9,17.4,53.6,35.3,79.7,53.9c21,15,41.4,31.1,61.3,47.6c35.6,29.5,69.4,61.1,101,94.8c22.7,24.2,44.5,49.3,65.7,74.8
	c25,30.1,47.8,61.9,69.5,94.4c21.1,31.6,40.4,64.2,58.5,97.5c12.1,22.2,23.1,45.2,33.8,68.1c8.6,18.5,16.2,37.5,24.1,56.3
	c9.6,23.2,18.5,46.6,25.7,70.7c3,10,6.9,19.7,9.8,29.7c3.7,12.5,6.7,25.2,10.1,37.7c3.3,12.6,7,25.2,10,37.9
	c2.8,12.1,4.8,24.4,7.4,36.6c1.6,7.3,3.9,14.4,5.6,21.7c1.2,5.4,2,11,2.7,16.5c2,15.7,3.6,31.5,5.7,47.1c1.6,12.1,3.5,24.1,5.3,36.1
	c0.2,1.3,0.6,2.6,0.6,3.9c0.1,25.5,4.2,50.9,2.8,76.6C2463.7,1211.4,2464.3,1224.7,2464.3,1238.1z M1169.7,1184
	c0,182,0,363.9,0,545.9c0,3.7-0.2,7.4,0.2,11c0.9,8,6.6,14.6,13.9,16.6c7.7,2.1,14.8-0.7,20.1-7.6c4.4-5.7,4.5-12.2,4.5-19
	c0-364.6,0-729.2,0-1093.8c0-2.7,0.3-5.4-0.2-8c-2.1-10.3-7.4-19.3-22-18c-10.2,1-16.1,7.9-16.5,20c-0.1,3,0,6,0,9
	C1169.7,821.5,1169.7,1002.8,1169.7,1184z M1569.7,1184.1c0,139.6,0,279.3,0,418.9c0,3-0.3,6,0.1,9c1.2,9.1,9.1,16.8,17.8,17.7
	c7.7,0.8,16.6-4.7,19.3-13c1.4-4.3,1.4-9.2,1.4-13.8c0.1-279.3,0.1-558.5,0-837.8c0-3,0-6-0.4-9c-1.2-8.6-8.1-15.7-16.1-16.8
	c-9.1-1.3-17.1,3.2-20.5,12.3c-1.4,3.9-1.7,8.4-1.7,12.6C1569.6,904.2,1569.7,1044.1,1569.7,1184.1z M1269.7,1183.8
	c0,139.6,0,279.2,0,418.8c0,3-0.2,6,0.1,9c0.6,8.6,5.7,14,13.3,17c7,2.7,13.7,0.3,19.6-6c5.1-5.4,5-12,5-18.6
	c0-280.2,0-560.4,0-840.6c0-2.3,0.2-4.7-0.1-7c-1.1-10.4-9.4-17.5-19.8-17.1c-9.7,0.3-17.4,7.8-18.1,17.8c-0.2,3-0.1,6-0.1,9
	C1269.7,905.2,1269.7,1044.5,1269.7,1183.8z M1708.3,1184c0-96.3,0-192.6,0-288.9c0-3.7,0.1-7.4-0.4-11
	c-1.4-9.3-10.7-17.1-19.5-16.8c-8.9,0.3-16.8,7.5-18.2,16.9c-0.5,3.3-0.5,6.6-0.5,10c0,193.3,0,386.6,0,579.9c0,3.3,0,6.7,0.5,10
	c1.3,8.1,8.3,15.2,16.4,16.8c6.1,1.2,13.9-3.1,18.5-9.5c3.6-5.1,3.3-10.7,3.3-16.3C1708.3,1377.9,1708.3,1281,1708.3,1184z
	 M1407.7,1185c0-97.3,0-194.6,0-291.9c0-3,0.2-6-0.1-9c-1-7.8-7.5-14.6-15.5-16.4c-7.2-1.7-15.7,1.7-19.3,9.2c-2.1,4.3-3,9.5-3,14.3
	c-0.1,195-0.1,389.9-0.1,584.9c0,2.7-0.1,5.4,0.2,8c1.2,8.3,9.5,16.3,17.4,17.1c7.7,0.8,17.4-5.9,19.6-14.2
	c0.9-3.4,0.8-7.2,0.8-10.9C1407.7,1379,1407.7,1282,1407.7,1185z M1069.7,1183c0,97.3,0,194.6,0,291.9c0,2.7-0.2,5.3,0.1,8
	c0.7,8.4,7.8,16,16.5,17.8c6.4,1.3,14.9-2.4,18.3-9.3c2.1-4.2,3-9.5,3-14.3c0.1-195.3,0.1-390.5,0.1-585.8c0-2,0.2-4-0.1-6
	c-1-8.4-5.7-14-13.6-16.9c-7.1-2.7-12.9-0.1-18.3,4.6c-5.7,4.9-6.2,11.3-6.2,18.2C1069.7,988.4,1069.7,1085.7,1069.7,1183z
	 M1007.7,1184.6c0-75.3,0-150.5-0.1-225.8c0-4.6-0.3-9.3-1.6-13.7c-2.1-7.7-10.8-13.8-17.9-13.6c-7.8,0.2-16.3,6.9-18.2,14.8
	c-1,4.2-1.6,8.5-1.6,12.8c-0.1,149.9-0.1,299.7,0,449.6c0,4.6,0.6,9.3,1.7,13.8c2,8,10.7,14.6,18.4,14.6c7.6,0,15.8-6.5,17.8-14.9
	c1-4.1,1.3-8.5,1.3-12.8C1007.7,1334.5,1007.7,1259.5,1007.7,1184.6z M1769.7,1183.8c0,75.3,0,150.5,0,225.8c0,3.7-0.1,7.4,0.5,10.9
	c1.3,8,8.9,15,16.9,16.3c6,1,14.8-3.4,18-10.3c2-4.3,3.1-9.5,3.1-14.3c0.2-152.2,0.1-304.4,0.1-456.6c0-2,0.1-4-0.1-6
	c-1.1-9.4-9.4-17.7-18.4-18.3c-8.5-0.6-17.9,7.2-19.7,16.6c-0.6,3.2-0.5,6.6-0.5,9.9C1769.7,1033.3,1769.7,1108.6,1769.7,1183.8z
	 M1508.3,1183.9c0-75,0-150,0-225c0-2.7,0.1-5.3-0.1-8c-0.7-9.8-7.8-17.6-17.3-19.3c-6.6-1.1-15.8,4-19.1,11.8
	c-1.7,4.1-2.1,9-2.2,13.5c-0.1,151.3-0.1,302.6-0.1,453.9c0,3,0,6,0.5,9c1.3,8.6,9,16,17.3,17.1c6.7,0.9,16-4.8,18.8-12.5
	c1.5-4.2,2-9.1,2-13.7C1508.4,1335.2,1508.3,1259.6,1508.3,1183.9z M707.7,1191c0-39,0-77.9-0.1-116.9c0-4.3-0.4-8.7-1.5-12.7
	c-2.1-7.6-10.5-14-17.6-14.1c-7.8-0.2-16.3,6-18.5,14.2c-1.2,4.4-1.7,9.2-1.7,13.8c-0.1,77.3-0.1,154.5-0.1,231.8c0,2-0.1,4,0.1,6
	c1,11.5,10.4,20.9,20.4,20.7c10.4-0.2,18.5-9.6,18.8-21.9c0.1-2,0-4,0-6C707.7,1267.6,707.7,1229.3,707.7,1191z M907.7,1184.6
	c0-32.6,0-65.3,0-97.9c0-2.3,0.1-4.7,0-7c-0.7-9.3-8.6-18.1-17.3-19.4c-8.3-1.3-17.1,4.9-20.2,14.4c-1,3.1-1.7,6.5-1.7,9.7
	c-0.1,66.6-0.1,133.3,0,199.9c0,4.2,0.9,8.7,2.8,12.5c3.2,6.6,8.6,11,16.4,11.3c7.3,0.3,13.2-3,16.4-9.4c2.1-4.3,3.5-9.4,3.6-14.1
	C907.8,1251.2,907.7,1217.9,907.7,1184.6z M168.3,1183.8c0,33-0.1,66,0.1,98.9c0,3.9,0.4,8,1.6,11.7c2.7,8.6,10.4,13.9,18.7,13.6
	c7.7-0.3,15.2-6.1,17.4-14.2c1.1-4.1,1.6-8.5,1.6-12.8c0.1-64.6,0.1-129.2,0-193.9c0-4.3-0.5-8.7-1.6-12.8
	c-2.1-7.7-7.8-12.4-15.4-14c-6.8-1.4-12.2,2-16.7,6.9c-4.3,4.7-5.6,10.3-5.6,16.5C168.4,1117.1,168.3,1150.5,168.3,1183.8z
	 M1869.7,1184c0,32.6,0,65.3,0,97.9c0,3-0.2,6,0.2,9c1.4,9.6,9,16.8,18,17.1c9.6,0.4,17.9-6.3,19.9-16.2c0.5-2.3,0.5-4.6,0.5-7
	c0-66.9,0.1-133.9,0-200.8c0-14.1-8.6-24.2-19.9-24c-10.5,0.2-18.8,10.6-18.8,24C1869.6,1117.4,1869.7,1150.7,1869.7,1184z
	 M2308.3,1185c0-33,0-65.9,0-98.9c0-2.7,0.2-5.4-0.1-8c-1.4-13-14.6-21.3-26.1-16.1c-8.4,3.8-11.9,10.8-11.9,20.1
	c0.1,67.9,0.1,135.9,0.1,203.8c0,1.3-0.1,2.7,0,4c0.7,9.1,8.2,17,17.1,18.1c8.1,1,16.7-4.1,19.7-12.3c1.1-3,1.2-6.5,1.2-9.8
	C2308.4,1252.2,2308.3,1218.6,2308.3,1185z M2408.3,1184c0-33,0-66,0-99c0-3,0.1-6-0.4-9c-1.4-8.1-9.1-15.1-17.1-15.9
	c-7.3-0.7-16.3,4.7-18.9,12.2c-1.5,4.3-2.2,9.1-2.2,13.6c-0.1,65.3-0.1,130.6-0.1,195.9c0,3.6-0.1,7.5,0.9,10.9
	c2.3,7.9,7.5,13.5,15.7,15c7.9,1.4,14.9-1.8,18.8-8.6c2.3-4,3-9.4,3.1-14.2C2408.5,1251.3,2408.3,1217.6,2408.3,1184z M68.3,1183.4
	c0,18,0,35.9,0,53.9c0,2.7-0.2,5.4,0.2,8c1.6,9.7,11.1,18.2,19.9,17.9c8.5-0.3,17.4-8.6,19-17.8c0.3-1.9,0.2-4,0.2-6
	c0-36.6,0-73.1,0-109.7c0-3.3-0.5-6.6-1.3-9.7c-2.2-7.7-9.7-14.2-17.2-14.5c-8.1-0.4-14.2,3.9-17.7,10.8c-2,3.9-2.9,8.8-2.9,13.3
	C68.1,1147.5,68.3,1165.4,68.3,1183.4z M807.7,1185c0-9,0-18,0-27c0-11,0.2-22-0.1-32.9c-0.2-9.6-9-19-17.8-19.8
	c-9.2-0.8-18.2,6.6-20.1,16.9c-0.7,3.9-1.3,7.9-1.3,11.8c-0.1,33.3-0.1,66.6,0,99.8c0,4.9,0.5,10,1.6,14.8
	c1.5,6.9,9.5,13.6,16.3,14.4c6.9,0.9,15.7-3.8,18.7-10.8c1.6-3.8,2.5-8.3,2.5-12.4C807.8,1221.6,807.7,1203.3,807.7,1185z
	 M607.7,1190.5c0-16,0-31.9,0-47.9c0-2.3,0.2-4.7-0.2-7c-1.2-8.8-8.4-16.1-16.9-17.4c-7.9-1.2-16.7,4-19.7,12.2
	c-1.1,3-1.2,6.5-1.2,9.8c-0.1,33.3-0.1,66.5,0,99.8c0,2-0.1,4,0.1,6c0.9,8.2,8.1,15.7,16,17c7.1,1.1,16.4-3.8,19.5-11.1
	c1.5-3.5,2.3-7.6,2.3-11.5C607.8,1223.8,607.7,1207.2,607.7,1190.5z M307.7,1184.9c0-13,0.2-25.9-0.1-38.9
	c-0.2-11.5-8.1-20.2-18.5-20.8c-10.7-0.6-18.1,5.7-20.3,17.6c-0.5,2.6-0.4,5.3-0.4,7.9c0,22.3-0.1,44.5,0,66.8
	c0,3.9,0.6,7.9,1.4,11.7c1.9,8.6,8.3,12.7,16.1,14.3c7.2,1.5,12.8-2.5,17.1-8c3.3-4.3,4.8-9.3,4.7-14.8
	C307.5,1208.8,307.7,1196.8,307.7,1184.9z M507.7,1185.2c0-11.3,0.1-22.7-0.1-34c-0.1-3.9-0.5-8-1.5-11.8
	c-2.3-8.9-9.4-14.2-18.1-14.3c-9.1,0-15.6,4.8-18.2,13.9c-0.9,3.1-1.4,6.5-1.4,9.8c-0.1,23.3-0.1,46.6,0,70c0,3.9,0.5,8,1.7,11.7
	c4.2,13.1,20.6,17,30.7,7.7c5.7-5.3,6.7-12,6.8-19.1C507.8,1207.9,507.7,1196.6,507.7,1185.2z M1970.3,1183.4
	c0,13.6-0.1,27.3,0,40.9c0.1,9,5.2,15.4,14,18.4c7.1,2.4,13.5,0.3,19.4-6.4c3.6-4,4.6-8.6,4.6-13.8c-0.1-25.6,0-51.2-0.1-76.9
	c-0.1-12.2-7.5-20.3-18.4-20.5c-11.6-0.2-19.5,7.8-19.6,20.2C1970.2,1158.1,1970.3,1170.7,1970.3,1183.4z M406.3,1184.9
	c0-14,0.2-28-0.1-41.9c-0.2-10.9-7.7-17.9-18.6-17.8c-10.7,0.1-19,8.4-19.3,20c-0.3,12.6-0.1,25.3-0.1,37.9
	c0,13.6-0.3,27.3,0.1,40.9c0.3,10.5,10.6,20.8,20,19.8c10.4-1,18.8-9.7,18.1-20C405.7,1210.9,406.3,1197.9,406.3,1184.9z
	 M2108.3,1184.5c0-13.3,0.2-26.6-0.1-39.9c-0.2-9.3-5.8-16.7-13.6-18.8c-8.1-2.2-16.2,0.4-20.8,7.9c-2.4,4-3.9,9.3-4,14
	c-0.4,24.3-0.4,48.6,0,72.9c0.1,5,2,10.6,4.7,14.8c6.1,9.5,17.2,11.2,26,4.4c5.2-4,8-9.5,7.8-16.4
	C2108.2,1210.5,2108.3,1197.5,2108.3,1184.5z M2208.3,1184.4c0-13,0.1-25.9,0-38.9c-0.2-12.2-7.7-20.2-18.6-20.3
	c-11.4-0.1-19.2,8-19.4,20.6c-0.2,13,0,25.9,0,38.9c0,13.3-0.2,26.6,0.1,39.9c0.2,8.9,5.1,14.9,13.4,17.9c7.9,2.9,13.6,0.8,20.2-6.3
	c3.4-3.8,4.3-8.1,4.3-12.8C2208.3,1210.4,2208.3,1197.4,2208.3,1184.4z"/>
</svg>
