<?xml version="1.0" encoding="utf-8"?>
<!-- Generator: Adobe Illustrator 23.0.3, SVG Export Plug-In . SVG Version: 6.00 Build 0)  -->
<svg version="1.1" id="Calque_1" xmlns="http://www.w3.org/2000/svg" xmlns:xlink="http://www.w3.org/1999/xlink" x="0px" y="0px"
	 width="1920px" height="1920px" viewBox="0 0 1920 1920" style="enable-background:new 0 0 1920 1920;" xml:space="preserve">
<style type="text/css">
	.st0{fill:#35BDDB;}
</style>
<g>
	<path class="st0" d="M960.8,1915C433.4,1915,5.9,1487.2,6,959.5C6.1,432,434.2,4.6,962.2,5c527.2,0.4,954.2,428.6,953.8,956.5
		C1915.5,1488,1487.8,1915,960.8,1915z M1136,1702.2c26.7,0.1,50.5-1.9,74.2-6c65.9-11.1,125.9-36.5,180.2-75.2
		c43.5-31.1,79.9-69.2,108.9-114.2c19.1-29.5,34.2-60.9,45.5-94.2c8.5-25,14.6-50.6,18.4-76.8c3.4-23.9,5.1-47.9,3.8-72
		c-1-17.9-1.9-35.9-4.9-53.5c-3.4-19.9-8-39.7-14.1-59c-6.4-20.2-13.9-40.3-23-59.4c-19.3-40.7-44.4-77.7-75.7-110.3
		c-21-21.8-43.8-41.9-69.2-58.2c-19.5-12.5-39.8-23.8-60.6-34.2c-23.8-11.9-49-20.3-74.8-26.8c-42.5-10.7-85.6-15.2-129.4-12.7
		c-29.5,1.6-58.6,6-87,13.9c-85.3,23.7-156.8,69.3-214.1,136.8c-31.7,37.3-55.9,79-73.1,124.9c-8.4,22.4-15.3,45.2-19.2,68.8
		c-2.6,15.5-5.3,31.1-6.6,46.7c-1.3,15.3-1.4,30.8-1.2,46.3c0.1,12.8,0.6,25.6,2.5,38.2c2.9,19.5,6.4,39,11.1,58.2
		c6.1,24.9,15.1,48.8,26,72.1c13.6,29.3,30.1,56.9,49.9,82.2c12.9,16.4,27.7,31.3,42.1,46.5c17.4,18.4,37.6,33.8,58.7,47.5
		c15.7,10.2,32.3,18.9,48.9,27.6c27.3,14.3,56.4,24,86.3,31.2C1072.1,1698.3,1105.1,1702.4,1136,1702.2z M1220.9,127.3
		c-479.8-35.4-922,243-1109.3,634.9c13.5,6.9,27,13.8,40.6,20.9C252.3,582.7,399.2,427,593,316.3
		C786.5,205.6,995.1,157.9,1218.3,173C1219.2,157.6,1220,142.6,1220.9,127.3z M366,891.3c78.3-156.6,193.2-278,344.5-364.5
		s314.1-124.1,488.9-112.3c0.8-15.1,1.6-30.2,2.5-46.1c-172.5-10.8-334.9,23.2-487,103.8c-171.9,91.1-301.5,224.2-390,397.9
		C338.9,877.3,352.2,884.2,366,891.3z M1181.9,655c0.4-2.2,0.8-3.8,0.9-5.5c0.7-12.3,1.3-24.5,2.1-36.8c0.2-3.3-1.3-4-4.1-4
		c-23.7-0.2-47.4-1.3-71.1-0.5c-41.1,1.3-81.7,7.3-121.8,16.7c-76.7,18-147.9,48.8-213.7,92c-64.8,42.5-120.5,94.7-167.1,156.6
		c-24.9,33.1-46.5,68.3-65,105.7c11.9,6.2,23.6,12.3,35.4,18.3c1.7,0.9,3.6,1.6,5.8,2.6c57-111.6,139.1-199.6,247.8-261.9
		C939.5,676.1,1056.3,647.5,1181.9,655z"/>
	<path class="st0" d="M904.2,983.4c-1.6,6-3.1,12-4.8,18.1c-5.7,21.1-11.5,42.2-17.1,63.4c-2.2,8.3,3.5,19,11.5,22.9
		s15.6,3.9,23.7-0.8c44.4-25.6,89-51,133.5-76.4c1.4-0.8,2.8-1.5,5-2.7c-4.7,17.2-9.2,33.6-13.7,50c-7.3,26.8-14.4,53.7-21.7,80.5
		c-7.3,27-14.9,53.9-22.3,80.9c-1.9,7-3.6,14.1-5.8,21c-0.6,1.9-2.3,4-4.1,5c-16.4,9.6-32.9,18.9-49.3,28.4
		c-11.4,6.5-15.4,19.9-9,31.4c10.8,19.3,21.9,38.5,33,57.7c0.2,0.4,0.6,0.8,1.1,1.5c13.1-7.5,26.1-14.9,39.5-22.6
		c-7.5-13.2-14.9-26-22.4-39.3c1.5-0.9,2.8-1.8,4.2-2.6c12.1-7,24.2-14,36.4-20.8c6.7-3.7,10-9.4,11.9-16.4
		c5.4-20,10.8-39.9,16.2-59.9c5.3-19.6,10.6-39.3,15.9-58.9c4.7-17.3,9.5-34.5,14.1-51.8c6-22.2,12-44.4,18-66.6
		c5.2-19.4,10.5-38.7,15.8-58c2.6-9.4,0.7-17.7-5.6-22.8c-9.4-7.6-18.2-8.8-27.7-3.5c-24.3,13.8-48.6,27.7-72.8,41.6
		c-21.1,12.1-42.2,24.1-63.3,36.2c-1.3,0.7-2.6,1.4-5.1,2.7c1.3-5.2,2.3-9.4,3.5-13.6c5.4-19.8,10.7-39.7,16.4-59.4
		c0.6-2.2,2.6-4.7,4.6-5.8c27.1-14.5,55.5-25.4,85.3-33c36.1-9.1,72.7-12.5,109.8-10.7c27.7,1.4,55.2,5.3,81.9,13.4
		c10.8,3.3,21.5,6.8,32.3,10c4.4,1.3,5.4,3.3,4,7.9c-6.6,21.5-12.9,43.1-19.3,64.7c-5.6,18.8-11.3,37.5-16.8,56.3
		c-2.3,7.9-1.2,15.4,5.3,21c7.4,6.5,15.7,10,25.6,5.5c1.8-0.8,3.6-1.8,5.3-2.8c21.7-12.4,43.4-24.8,65.1-37.2
		c1.6-0.9,3.1-1.8,4.8-2.9c-7.6-13.3-15.1-26.3-22.6-39.5c-8.2,4.6-15.9,9-23.7,13.4c-0.4-0.2-0.9-0.4-1.3-0.5
		c6.2-23,12.5-46.1,18.8-69.5c45.4,24.3,84,55.9,117.2,95.1c-13.8,7.9-27.1,15.5-40.3,23.1c-45.4,26-90.7,51.9-136.1,77.9
		c-7.2,4.1-12.9,9.6-12.8,18.3c0.1,5,1.6,10.6,4.1,15c15.3,27.4,31,54.5,46.5,81.7c15.4,26.9,30.8,53.8,46.2,80.7
		c8.4,14.7,19.5,17.8,34.2,9.5c17.9-10.2,35.8-20.4,53.6-30.7c1.7-1,3.5-1.9,5.6-3.1c7.2,12.5,14.3,24.9,21.4,37.3
		c11.8,20.6,23.6,41.3,35.3,62c0.9,1.6,1.6,4.2,1,5.8c-11.3,27.9-25.4,54.5-42.5,79.3c-31.7,45.9-71.7,82.8-119.6,111.4
		c-14.3,8.5-28.7,16.8-45.2,22.8c1.6-6.3,3.1-12.1,4.7-17.8c7.5-27.5,14.9-55,22.4-82.5c7.1-26.2,14.3-52.4,21.5-78.6
		c3.8-13.6-2.9-25.1-16.5-28.8c-24.6-6.8-49.1-13.9-73.7-20.8c-19.6-5.5-39.3-10.8-59-16.3c-22.7-6.3-45.3-12.8-68-19.1
		c-1.4-0.4-2.9-0.6-4.7-1c-3.9,14.5-7.7,28.7-11.8,43.5c61.1,16.6,122,33.2,183,49.8c-3.4,13.7-6.7,26.8-10.1,39.9
		c-5.8,22.6-11.6,45.2-17.4,67.7c-5.3,20.7-10.6,41.4-15.8,62.1c-1.4,5.4-3,10.9-4.1,16.4c-0.6,2.8-1.5,4.3-4.5,4.8
		c-15.1,2.5-30.1,5-45.2,7.8c-3.4,0.6-4.3-1.5-5.6-3.7c-19.5-34.1-39-68.2-58.5-102.4c-24.1-42.2-48.3-84.4-72.4-126.6
		c-3.7-6.4-8.8-10.6-16-12.5c-23.6-6.3-47.1-12.6-70.7-19.1c-40.3-11.1-80.5-22.9-121-32.9c-12-3-18.5-8.9-24.1-19.1
		c-15.7-28.8-32-57.3-48.9-85.4c-4.8-8.1-5.9-15.8-4.5-24.5c3.4-21.7,7.6-43.1,14.3-64c12.9-40.8,32.2-78.1,58-112.2
		c17.7-23.3,37.8-44.2,60.4-62.9c1.5-1.2,3-2.4,4.6-3.6C903.6,983.1,903.9,983.2,904.2,983.4z"/>
	<path class="st0" d="M1130.6,1655.8c-167.1-4.8-333.6-123.7-363.9-315.4c1.9,3.2,3.7,6.4,5.6,9.6c5.8,10.1,11.7,20.2,17.3,30.4
		c3.6,6.5,8.9,10.5,16,12.5c27.9,7.5,55.7,15,83.6,22.6c29.1,7.9,58.2,16,87.3,24c10.4,2.8,20.9,5.4,31.2,8.5
		c2.4,0.7,5.3,2.4,6.5,4.5c38.5,67,76.9,134,115.2,201.1C1129.8,1654,1130,1654.6,1130.6,1655.8z"/>
	<path class="st0" d="M1512.7,1351.3c-8-13.9-15.3-26.7-22.6-39.5c-8.4-14.6-16.6-29.2-25-43.8c-7.9-13.7-19.6-16.7-33.4-8.9
		c-19.8,11.3-39.5,22.6-59.9,34.3c-24.1-42.1-48-83.9-72.2-126.2c54-30.9,107.9-61.7,161.9-92.7
		C1514.9,1159.8,1531.3,1251.6,1512.7,1351.3z"/>
</g>
</svg>
