<svg xmlns="http://www.w3.org/2000/svg" baseProfile="tiny" width="2452.9" height="2451" xmlns:v="https://vecta.io/nano"><path d="M1225.8 2451C551.7 2451.6-.5 1905 0 1224.4.6 541.6 558.3-6.5 1238.1.1c670.3 6.5 1217.5 551.1 1214.8 1230.7-2.7 677.3-553.2 1220.9-1227.1 1220.2zm785.3-797.4c.4-15.8-1.6-32.6-5.7-49.2l-39.1-159.1c-5.7-23.3-10.3-46.9-17.4-69.7-38.7-123.3-173.8-185.7-293-135.2-99.8 42.3-150.8 152.7-127.3 247.2l29.5 122.3c8.9 36.5 16.7 73.4 27.4 109.5 25.8 87.3 103.9 148.8 194.7 155.4 34.7 2.5 67.7-4.3 99.4-17.7 79.2-33.5 133.1-114.5 131.5-203.5zM315.6 1393.4c3.9 1.3 7 2.2 9.9 3.4 42.1 16.9 85.2 19.9 129.4 9.4 108.8-25.7 185-132.5 165.4-246.8-22.3-129.1-143.9-199.8-256.2-178.6-110.8 20.9-200.2 131.9-171.1 260.7 31.9 141.2 68 281.5 102.4 422.2.6 2.5 1.8 4.8 2.9 7.6 3.8-.7 7.1-1.2 10.3-2l54.4-12.8c14.9-3.5 14.9-3.4 11.2-18.4l-58.6-237.5c-.4-1.9 0-3.8 0-7.2zm989.6-61.1l-16.7 4-66.9 16.3c-6.6 1.5-10.6 4.8-12 11.5-.9 4.2-2.3 8.3-3.5 12.5l-97.9 336.5c-8.8 30.2-10.3 60.8-5.6 91.9 16.7 112.3 127.6 210.2 264.2 180.1 111.5-24.6 186.7-132.5 168.2-245.4-14.8-90.1-68.4-149.3-155.1-176.9-42-13.4-84.8-11.3-126.9 2-4.6 1.5-9.3 2.7-16 4.6l68.2-237.1zm-587.9 585.6l-24.5 5.7-41.8 10c-10.6 2.7-11.5 4.6-8.3 14.7 1.3 4.1 2.8 8.2 4.3 12.2 39.9 105.1 147.6 163.1 255 137.7 129.1-30.5 206-170.1 152.8-295.8-27.6-65.4-76-108.1-144.9-127-4.2-1.1-8.4-2-12.7-2.9-3.6-.8-5.1-3-4.6-6.5.3-2.6.9-5.3 1.6-7.8l13.6-49.1 47.7-166.1c.9-3 1.3-6.2 2.3-11.2l-338.3 82.6c-.7 9.5 14.4 71.7 19.6 80.8 3.5-.7 7.4-1.3 11.2-2.2l179.6-43.6c2.4-.6 5-.7 8.6-1.3l-62.1 214.2 38.7-9.5c21.3-5.9 42.7-7 64.3-2.7 70.7 14.2 121.9 79.2 108.2 159.3-10.3 60-54.9 102-115.5 111.3-66.2 10.1-128.5-27.4-150.5-90.7-1.3-3.4-2.6-7.1-4.3-12.1zm986.2-917.6l5.5-10.1 24.7-41.1 142.7-237.3c5.3-8.8 5.1-9.8-2.4-15.7-79.2-62.5-184-63.5-263.7-8.6-89.9 62-118.9 186.8-66.5 284.3 53.6 99.5 177.8 148.3 290.9 91.3 70.9-35.7 110.8-95 119.7-174.1 2.3-20.5 1.9-41.3-2.9-61.7-2.2-9.4-2.5-9.6-12.2-7.2l-60.1 14.8c-3.2.8-6.2 1.9-9.8 3 9.4 49.2-1.4 92.5-37.2 127-35.7 34.3-78.6 46.1-128.7 35.4zm-833.6 23.4c-1 126.4 101.4 219.9 215.2 221.1 126.5 1.3 221.5-99.1 222.6-216.6 1.2-129.7-104.4-220.9-216.3-222.4-118.6-1.7-222.3 95.9-221.5 217.9zM2265 963.3c0-1.6.3-2.9 0-4.2l-16.3-66.9c-1.7-7-2.5-7.5-9.8-6.1-13.5 2.7-27.3 4-40.7 1.4-58.7-11.1-99.3-43.2-115.2-102.5-7.2-26.7-13.4-53.6-20.1-80.4l-9.7-38.7c-1.6-6.9-.9-7.7 6-9.9 1.6-.5 3.2-1 4.8-1.4l107.7-26.2c3.5-.9 6.9-1.9 11.7-3.2-5.5-27.2-12.7-53.1-19.6-80.3l-131.9 31.7-20-80.1c-2.9.5-4.6.8-6.1 1.2l-61.1 14.8c-12.8 3.1-12.8 3-9.5 16 .1.3.2.6.2 1l63.7 261.9c7.3 30.3 17.1 59.7 35.5 85.2 49.6 68.6 117.1 99.2 201.3 93 9.8-.7 19.9-1.3 29.1-6.3zm-946.4-213.5c.9 4.3 1.4 7.5 2.2 10.7l97.2 400.9c7.8 34.2 4.7 67.7-12.9 98.8-17.6 31.2-43.4 52.7-77.7 63.6-8.6 2.7-9.4 3.8-7.6 10.9l15.8 63c2.2 8.5 4.5 9.9 13 6.6 13.6-5.4 27.4-10.7 40.3-17.4 93.7-49.2 131.4-157 110.6-240.7l-98.9-406.6c-.6-2.5-1.9-4.8-3.3-8.4l-78.7 18.6zm-541.8 577l-4.8-21-45.8-188.2c-18.7-76.9 27-144.7 89.8-163.5 3.3-1 6.5-2.8 10.1-4.3L806.8 871c-49.6 11.9-88.5 38.8-121.3 77.4l-10.8-40.1c-2.1-.6-2.8-1-3.4-.9l-70 16.3c-5.4 1.3-6.3 4-4.9 9.9l6.7 28.2 92.1 377.4c.6 2.4 1.8 4.7 2.8 7.3l78.8-19.7zm608.1-706.1c0-30.5-25.7-56.3-55.8-56.2-31.4.2-56.3 25.4-56.2 56.8.2 30.9 25.1 55.5 56.3 55.5 30.5.2 55.7-25.3 55.7-56.1zM1800 1793.2c-47.3-2.1-85.3-18.2-113.8-54-10.9-13.7-18.7-29.2-22.9-46.2l-53.3-218.3c-10.4-43.7-3-84.6 26.2-119.4 34.2-40.8 78.6-57.9 131.2-47.5 53.2 10.6 89.4 42.5 104 95.1 15.2 54.8 27.8 110.4 41.4 165.6l13 53.4c19.4 78.1-28.3 153.6-107.3 169.2-6.9 1.5-13.9 1.6-18.5 2.1zm-1530-600c-.3-74.2 59.6-133.1 135.6-133.4 75.6-.3 134.8 59 135 135.1.2 76.4-58.7 134.9-136 134.9-75.9 0-134.4-59.3-134.6-136.6zm912.4 579.2c-.3-75.4 60-136.1 135.4-136.3 75.3-.2 136.9 60.4 137.1 135 .3 75.9-60.3 137-136 137.1-76.9.2-136.2-58.8-136.5-135.8zm585-1038.9l-133.7 222.3c-30.9-27.1-44.3-94.6-22.1-145.7 24.6-56.6 84.8-90.8 155.8-76.6zm-815 291.2c0-76.4 60-136.2 136.2-136.5 74.3-.3 137.6 61 136.6 138.6-1 75.4-61 135.8-136.4 135.4-76.8-.3-136.5-60.5-136.4-137.5z"/></svg>