<?xml version="1.0" encoding="utf-8"?>
<!-- Generator: Adobe Illustrator 23.0.3, SVG Export Plug-In . SVG Version: 6.00 Build 0)  -->
<svg version="1.2" baseProfile="tiny" id="Calque_1"
	 xmlns="http://www.w3.org/2000/svg" xmlns:xlink="http://www.w3.org/1999/xlink" x="0px" y="0px" width="1299.1px"
	 height="1301.1px" viewBox="0 0 1299.1 1301.1" xml:space="preserve">
<g>
	<path fill="#E89B4D" d="M623.8,1288.9c-10.9-0.9-21.9-1.8-32.8-2.7c-69.6-6.1-136.4-23.4-200.3-51.6
		c-70.1-30.9-132.5-73.2-187.5-126.5c-0.7-0.7-1.3-1.4-2.7-2.9c3.9,0.2,6.9,0.3,9.9,0.5c43.8,1.7,86.7-4.8,129.1-15.3
		c67.6-16.6,132-41.9,194.9-71c85.7-39.6,167.8-85.8,247-137.2c1.6-1,2.9-2.7,3.8-4.3c36.8-63.6,73.5-127.2,110.2-190.8
		c0.8-1.4,1.7-2.8,3.1-5.1c0.3,2.3,0.5,3.7,0.6,5c2.8,82.9,1.2,165.6-6.5,248.2c-6,63.8-15.4,127-32.7,188.8
		c-12.3,44-28.1,86.5-53.1,125c-3.6,5.6-8,10.7-11.4,16.4c-4,6.7-9.8,9-17,10.4c-32.9,6.4-66.1,10.9-99.6,12.3
		c-1.3,0.1-2.6,0.5-3.9,0.7C657.8,1288.9,640.8,1288.9,623.8,1288.9z"/>
	<path fill="#E89B4D" d="M673.8,8.9c7.8,0.6,15.6,1.3,23.4,1.9c102.3,7.8,197.3,38.4,285,91.7c40,24.3,76.8,52.9,110.6,85.4
		c1.3,1.3,2.9,2.2,4.3,3.4c-0.2,0.4-0.4,0.8-0.7,1.2c-2.8-0.1-5.7-0.3-8.5-0.4c-46-1.8-91,5.3-135.4,16.6
		c-75.4,19.2-146.9,48.8-216.7,82.6c-75.3,36.5-148,77.8-218.2,123.3c-2.1,1.4-4.1,3.4-5.3,5.6c-36.7,63.4-73.4,126.9-110,190.3
		c-0.8,1.4-1.7,2.8-3.1,5.1c-0.3-2.1-0.5-3.3-0.5-4.5c-2.7-81-1.3-161.9,6-242.7c5.6-62,14.4-123.4,30.2-183.7
		c11.2-42.8,25.5-84.5,48.1-122.9c6.9-11.7,15.1-22.7,23.1-33.8c1.7-2.4,5.1-4.3,8-4.9c34.3-7.4,68.9-12,103.9-13.5
		c1.6-0.1,3.2-0.5,4.9-0.8C639.8,8.9,656.8,8.9,673.8,8.9z"/>
	<path fill="#E89B4D" d="M8.8,623.9c1-12.1,1.8-24.2,2.9-36.3c3-32.4,8.6-64.4,16.5-95.9c0.2-0.8,0.5-1.5,0.9-2.6
		c0.6,0.7,1.1,1.1,1.4,1.6c20.2,41.1,48.3,76.5,79.7,109.5c48.4,50.8,102.9,94.3,160,134.6c77.3,54.5,158.5,102.7,242.8,145.6
		c1.9,1,4.4,1.2,6.7,1.2c73,0.1,146,0.1,219,0.1c1.7,0,3.3,0,6.1,0c-1.7,1.4-2.6,2.2-3.5,2.8c-97.3,60.2-197.9,114.1-305.1,154.9
		c-45.1,17.1-91,31.3-138.5,39.8c-36.6,6.6-73.3,9.4-110.4,4.7c-6.1-0.8-10.6-2.8-14.9-7.6C93.7,987.8,42.8,885.6,20.2,769.5
		c-5.8-30-9.4-60.2-10.6-90.8c-0.1-1.6-0.5-3.2-0.7-4.9C8.8,657.2,8.8,640.5,8.8,623.9z"/>
	<path fill="#E89B4D" d="M476.2,32.4c-9.7,18.5-20.3,36.9-29.1,56c-20.8,45.5-33.6,93.6-43.3,142.6
		c-12.8,64.3-19.6,129.4-23.2,194.8c-4,72.3-4.1,144.6-0.5,216.8c0.2,4.1,1.5,8.5,3.5,12.1C419.7,717.6,456,780.3,492.2,843
		c0.9,1.6,1.8,3.1,3.3,5.7c-2-0.9-3.1-1.3-4.2-1.8c-91.9-49.2-180.5-103.7-263-167.8c-50.5-39.2-98.1-81.6-138.1-131.9
		c-20.8-26.2-38.9-54.1-50.7-85.6c-0.9-2.4-1-5.6-0.3-8C104.1,250.3,268.5,91.1,473.6,33.1C474.7,32.8,475.8,32.6,476.2,32.4z"/>
	<path fill="#E89B4D" d="M821.3,1265c9.3-17.6,19.5-35.2,28.1-53.6c20.7-44.6,33.5-91.9,43.3-140c11.4-55.6,18.1-111.8,22.2-168.3
		c5.4-74,6.2-148.2,3.7-222.3c-0.1-4-0.9-8-0.5-12c1.1-14.4-4-26.5-11.2-38.8c-34.3-58.4-68-117.3-101.9-176c-0.8-1.4-1.5-2.9-3-5.6
		c6.7,3.6,12.2,6.5,17.6,9.4c86.9,47.3,170.7,99.4,248.9,160.1c48.2,37.4,93.6,77.7,132.6,124.8c23.4,28.4,43.8,58.8,56.9,93.5
		c0.8,2.2,1,5.3,0.2,7.5c-62.4,184.9-183.1,316.6-361.8,394.9c-23.3,10.2-47.9,17.1-72,25.5C823.3,1264.7,821.8,1264.9,821.3,1265z"
		/>
	<path fill="#E89B4D" d="M1268.4,808.8c-0.7-0.9-1.1-1.4-1.4-1.9c-22.3-45.2-53.9-83.5-89.1-119.1c-51.4-52-108.9-96.5-169.1-137.7
		C937.1,501,862.4,457,785,417.6c-2.1-1.1-4.8-1.4-7.1-1.4c-73.2-0.1-146.3-0.1-219.5-0.1c-1.5,0-3,0-5.6,0c1.7-1.4,2.6-2.2,3.6-2.8
		c85-52.7,172.8-100.4,265.2-139c54.6-22.8,110.4-42.3,168.6-53.8c39.4-7.8,79.1-11.6,119.2-6.7c6.8,0.8,11.9,3.1,16.6,8.4
		c78.2,88.3,129.2,190.2,151.5,306.1c17.8,92.5,15,184.6-7.6,276.1C1269.4,805.6,1269,806.9,1268.4,808.8z"/>
</g>
</svg>
