<svg xmlns="http://www.w3.org/2000/svg" baseProfile="tiny" viewBox="0 0 4063 4063"><path d="M2047.8 57.4l72 .1c34.6 1 69.1 3.7 103.7 6.8 33.9 3 67.6 7.1 101.2 11.7 77.4 10.7 153.6 26.5 229.1 46.3 98.2 25.8 193.7 59.3 286.6 100.3 97.2 42.8 190.5 92.7 279.7 150.4 81.8 53 159.2 111.8 232.5 176 32.1 28.1 63.4 57.2 93.3 87.5 40.3 40.7 79.3 82.8 115.9 126.9 48.9 59.1 94.9 120.4 136.9 184.6 64.8 98.9 120.4 202.8 167 311.5 42.6 99.5 76.7 201.8 102.6 306.8 18.4 74.5 32.1 149.8 41.7 225.9 4.2 33.7 7.2 67.5 9.7 101.4 2.3 30.6 3.1 61.2 3.8 91.8.3 14 2.6 27.9 2.2 41.9-1.5 48.6-2.1 97.2-5.8 145.7-2.3 30.6-4.9 61.1-8.4 91.5-6.4 56.3-15.6 112.1-26.6 167.7-15.5 77.9-36.2 154.4-61.1 229.8-26.7 81.1-58.7 160.2-95.8 237.1-39.1 81.2-83.2 159.6-132.8 234.8-40.4 61.2-84.1 120.1-131.3 176.3-41.6 49.5-85 97.5-131.2 142.7-77.4 75.6-160 144.9-248.7 206.9-72.2 50.5-147.5 95.8-225.5 136.7-120.9 63.4-247.1 113-378.4 150.3-75.1 21.3-151.2 38.3-228.3 50.2-52 8-104.2 14.4-156.8 18.2-65.8 4.7-131.7 8.6-197.7 5.8-33.2-1.4-66.5-2.6-99.7-5.3-34.5-2.8-69.1-5.9-103.4-10.3-41.6-5.4-83.1-12.2-124.3-19.9-96.5-18.1-190.9-43.8-283.5-76.2-115.4-40.4-226-91.4-332.2-152.2-84.6-48.5-165.1-103.1-241.2-164-37.5-30-73.8-61.3-109.1-93.9-24.9-23.1-49.4-46.7-73.2-71-11.6-11.9-22.4-24.6-33.5-37-1.3-1.5-1.6-3.8.4-5.1.9-.7 2.6-.9 3.7-.5 3.7 1.4 7.4 3 11 4.7 83.8 39.4 171.6 66 262.8 81.1 67.9 11.2 136.2 16.5 205.1 14a426.93 426.93 0 0 1 16-.3c71.6.1 142.2-8.6 212.4-22.1 49.8-9.6 98.9-21.6 146.7-38.8 81-29.1 155.4-70 222.4-124.1 36.3-29.3 71.4-60 104.8-92.7l42-39.9c8.7-8.4 18.5-15.3 29.3-20.7 24.5-12.2 46.7-7.5 64.1 14.1 8.8 10.9 15.8 23.1 21.7 35.8 9.6 20.6 17.5 41.8 23.5 63.7 2.7 9.6 5.2 19.3 8.4 28.8 3.4 10.2 8.1 13 18.1 11 11.7-2.3 23.5-4.7 35-8 10.4-3 13-7.2 12.4-17.6-.3-5.3-1.4-10.5-2.5-15.8l-71.9-354.6c-19.7-101.4-37.6-203.1-54.3-305-2.1-13.1-4.5-26.3-7.2-39.3-2.5-11.8-5.4-13.4-16.4-10.8l-23.4 5.4c-5.2 1.3-10.4 2.5-15.3 4.5-11.5 4.7-15.3 11.1-14.7 23.2.1 1.3.1 2.7.4 4 8.1 29.4 6.2 59.5 6.8 89.4.9 42.6 5.5 85.1 3.9 127.8-2.8 70.9-10.9 140.8-34.7 208.2-17 48.2-41 92.5-73.2 132.3-24.3 30.1-48.8 59.9-75.3 88.1-44.7 47.5-98.3 81.3-157.3 107.7-52.8 23.5-107.9 38.5-165.1 45.9-111.5 14.3-214.5-9.1-309.1-70-42.3-27.2-80.1-59.7-115.2-95.5-54.1-55.1-98.7-117.1-136.2-184.4-49.6-88.8-87.4-182.7-118.6-279.3-31.2-96.5-54.9-195-71.5-295.1-8.3-49.9-15.2-100.1-20-150.5-3.9-41.1-5.4-82.4-9.6-123.5-5.3-51.9-4.8-103.9-2.8-155.8 3.3-88.7 11.5-176.8 34.9-262.9 20.1-73.8 48.1-144.2 88.4-209.2 37.4-60.3 84.9-111.1 145.4-149 46.8-29.3 97.7-48.6 151.4-60.8 38.5-8.7 77.5-12.8 116.8-15.4 22.7-1.5 45.3 1.4 67.8 3.8 57.9 6.3 114.1 20.1 167.6 43.8 26.9 11.9 52.3 26.6 77.1 42.2 32.7 20.6 65.2 41.4 95.1 66.2 33.2 27.6 59.4 61 83.1 96.7 34.9 52.5 61 109.4 82.2 168.5l47.3 138.1c2.2 6.3 4.2 12.7 7 18.7 2.8 6.1 6.6 7.9 12.9 6.7l41.1-8.1c11.5-2.4 14.2-6.3 12.1-18.6l-13.2-72.8c-15.5-80.5-28.8-161.3-41.6-242.3l-29.8-181.4c-7.5-46-13.6-92.2-18.6-138.6-2.1-19.2-5.6-38.2-8.7-57.3-.9-5.6-4.3-8.3-9.9-7.5-15.2 2.1-30.3 4.4-45.4 7-6 1-9.2 5.2-9.7 11.1-.4 5.3-.3 10.6-.3 16l.4 72c-.2 23-5.6 44.9-15.7 65.6-11.8 23.9-27.3 31.5-53.8 26.6-13.9-2.6-26.8-8.1-39.4-14.1-24.6-11.8-48.8-24.6-74-35.3-65.1-27.7-131.6-51.2-201.5-64.3-35.4-6.6-71.2-10.4-107-13.7-19.9-1.9-39.9-1-59.9 1.5-19.2 2.4-38.5 3.4-57.7 5.2-100.7 9.7-198.6 31.8-293.4 67-80.3 29.8-156.5 67.9-227.1 116.5-66.1 45.5-126.4 97.7-180.1 157.7-63.7 71.1-115.4 149.8-155.8 236.1-28.3 60.5-50.1 123.4-66.6 188.2l-4.4 17.4c-.9 3-1.3 7.5-5.8 6.5-3.9-.9-3.6-5.2-3.6-8.3l-.2-62c.3-44.7 3.5-89.2 7.2-133.7 9.2-108.5 28.2-215.3 56-320.5 29.2-110.4 67.6-217.5 114.9-321.5 42.1-92.4 91.3-180.9 146.8-265.8 44.9-68.7 94.3-134.1 147.3-196.7 52.2-61.7 108.9-119 167.6-174.3 36.4-34.3 74.8-66.3 114.1-97.2 80.9-63.3 166.4-120 256.2-170.1 82.2-45.9 167.4-85.3 255.3-119 86.6-33.1 175.2-60.1 265.6-81.2 72.7-17 146.2-30.1 220.4-38.7 36.4-4.2 72.9-7.2 109.5-9.9 41.8-3 83.8-2.9 125.7-3zM1297.2 2246c-.5-27.7 4.3-42.8 15.7-56.6 8.4-10.1 19-16.7 31.8-19.5 16.9-3.7 30.8 3.7 37.1 19.4 2 4.9 3.5 10.1 4.4 15.3l35.7 192.5c1.1 5.9 1.2 11.9 1.4 17.9.3 9.3-3.2 16.9-10.5 22.7-3.1 2.5-6.3 4.9-9.2 7.5-1.7 1.6-.2 6.3 2.1 6.5 2.6.3 5.3.6 7.9.2 40.6-7.3 80.9-16.8 122.1-20.6 4.6-.4 9.5-1.1 12.9-4.7 1.2-1.2 1.9-3.5 1.8-5.3-.1-2.1-2-3.4-4.1-3.7-1.3-.2-2.6-.1-4-.2-21.4-.8-26.6-4.6-33.7-24.1-1.4-3.8-2.7-7.6-3.5-11.4l-7.8-41.2-24.6-137.7c-1.9-10.4-4.9-20.8-8.9-30.6-7.6-18.4-21.2-29.6-41.3-34-28.7-6.3-55.6-1.3-81.7 10.6-16.9 7.7-29.8 19.9-39.4 35.7-2.4 4-4.5 8.2-7.1 12.1-2.7 4.1-6.8 4.6-10 1.2-3.1-3.4-6-7.1-8.9-10.8-9.7-12.1-22.8-18.4-37.9-19.8-21.4-2-42.5.1-63 7.6-18.2 6.7-32.3 18.2-43.3 34-2.6 3.8-4.8 8-7.5 11.8s-7.9 3-9.3-1.6c-2.1-7-3.6-14.2-5.5-21.2-2.1-7.9-5.1-9.4-13.2-7.1-1.9.6-3.8 1.3-5.7 2-26.4 9.7-53.4 16.4-81.5 18.7-6 .5-12 1.3-17.2 4.6-1.8 1.1-2.9 3-2.1 5.1.4 1 1.9 2.4 2.9 2.4 12.4-.4 21.5 5.5 29.4 14.4 7.9 8.8 11.3 19.5 13.4 30.7l34.4 190.7c.9 5.2 1.4 10.6 1.5 15.9.3 10.9-4.3 19.3-13.7 25-4.5 2.7-9.3 5.1-13.8 7.9-.9.5-1.7 2.5-1.4 3.4.7 1.7 1.9 3.8 3.4 4.4 5.2 2.2 10.4.5 15.6-.8 34.3-8.2 68.9-15.3 104.1-19 6.5-.7 13-2.6 19.4-4.3.9-.2 2-2 2.1-3.1s-.5-2.9-1.4-3.4c-2.3-1.3-4.8-2.2-7.3-2.9-9.7-2.8-16.3-9-19.8-18.2-2.1-5.6-3.6-11.4-4.7-17.3l-10-55-19.9-112.1c-3.4-18.6-.2-35.9 9.4-51.9 7.8-12.9 18.6-22.6 33.2-27.4 16.5-5.4 30.9 1.1 37.5 17.2 2.2 5.5 3.4 11.5 4.5 17.3l36.7 198.4c3.2 16.7.8 30.3-14.4 40-2.8 1.8-5.3 4.7-3 8.4 2 3.3 5.6 3.2 8.9 2.7 2.6-.3 5.2-.9 7.8-1.5 33.1-7.8 66.5-14 100.1-19 5.9-.9 11.8-2.2 17.6-3.8 1.6-.4 3.4-2.3 3.9-3.9.7-1.9-.9-3.6-2.9-4.5-.6-.3-1.3-.5-1.9-.6-19.9-1.7-28.8-14.5-32.6-32.4-.7-3.3-1.6-6.5-2.2-9.8l-22.9-125.8c-2.7-14.6-4.6-29.2-5.9-37.4zm567.6 4.3c0-4 .2-8 0-12-1.6-29.3-4.3-58.5-15.3-86.1-10.9-27.4-28.6-49.6-53-66-24.5-16.4-51.6-16.4-78.8-9.2-23.3 6.2-42.5 18.9-55.7 39.6-2.5 3.9-4.9 7.9-7.8 11.6-1.1 1.3-3.2 2.3-5 2.5-2.2.3-3.3-1.7-3.8-3.7l-4.7-19.4c-1.6-5.9-5.9-9-11.8-8.9-5.3.1-10.7.7-15.8 2-26.4 6.9-52.8 13.9-80.1 16.9-2 .2-4 .5-5.9 1.1-3.3 1-6.3 2.5-6.2 6.6 0 3 1.9 5 4.4 6.1 3 1.3 6.2 2.4 9.4 3.2 17.5 4.6 26.9 16.3 29.9 33.6.6 3.3 1.4 6.5 1.9 9.8l50.5 279.2c1.8 8.5 3.2 17.1 4 25.7 1.6 16.2-3.5 24.8-17.9 32.1-2.4 1.2-4.9 2.1-7.1 3.5-2.4 1.5-3.9 3.8-2.7 6.7 1.2 2.8 3.9 3.4 6.6 3.2 2-.2 4-.4 5.9-.9 44.7-10.9 90.1-17.8 135.6-24.6 6.7-1 15.2 1.3 19.7-6.7-4-9.6-12.4-4.5-18.7-5.2-14.2-1.6-25.5-7.2-32.6-19.9-11.6-21-13.8-44.3-15.7-67.5-.3-3.7 2.6-6.2 6.4-6.1 3.3.1 6.6.8 9.8 1.6 36 8 68.8-1 99-20.4 15.9-10.2 27.8-24.4 36.9-41.3 14.9-27.4 19.5-56.7 18.6-87.1zm944.9-277.1c-.5-36.8 17.8-58 44.7-68.4 16.9-6.5 29.7-1.6 39.2 13.9 4.9 8.1 7.8 17 9.6 26.1l10.4 57 23.5 131.8c3.4 18.8-.3 34.4-18.2 44.4-2.9 1.6-6 3.9-3.7 7.9 1.4 2.5 4.3 3.1 7 2.7 3.9-.5 7.9-1.3 11.7-2.3 24.6-6 49.3-11.4 74.4-15l49.5-6.7c2.9-.4 4.9-2 5-5.1 0-2.3-1.7-3.5-3.6-4.2-1.9-.6-3.8-1.1-5.8-1.4-17.7-2.5-26.6-13.9-30.4-30.2-2.1-9.1-4.1-18.2-5.7-27.4l-25-141.6c-3.1-17-7.6-33.8-14.9-49.6-9.1-19.7-24.4-31.5-46.1-33.5-22.8-2.2-45.2.3-67 7.8-18.2 6.3-32.7 17.5-44.1 32.9-3.9 5.2-5.7 14.8-12.5 14.2-8.8-.7-6.7-11.5-9.6-17.7-.6-1.2-.5-2.6-.9-3.9-2.9-9-7.3-11.4-16.6-8.8-1.3.3-2.5.8-3.8 1.3-25.6 10.2-52.2 15.9-79.5 18.3-5.9.5-12 1.3-17 5-1 .7-1.8 2.2-1.8 3.3s.9 2.7 1.8 3.2c1.7.9 3.7 1.3 5.7 1.5 17.4 1.9 27.1 13 33 28.2 2.4 6.2 3.6 12.8 4.8 19.3 11.7 62.2 20.6 124.8 34.1 186.7.8 3.9 1.1 7.9 1.3 11.9.5 12.3-4.1 22.1-14.9 28.5l-12.1 7.1c-2.4 1.5-3.8 3.8-2.4 6.7 1.3 2.7 3.9 3.4 6.7 3.3 2-.1 4-.3 5.9-.7 41.1-8.5 82.2-16.9 123.9-21.9 3.2-.4 6.6-1.2 9.5-2.6 1.4-.7 2.8-3.1 2.8-4.7s-1.3-3.8-2.8-4.8c-2.1-1.4-4.8-2.2-7.4-2.8-14.8-3.2-22.4-13.5-26.5-27-1.5-5.1-2.6-10.3-3.6-15.6l-23.4-135.8c-2.4-11.6-4-23.5-5.2-31.3zM981.6 2426.3c.1-46.9-10.2-85.4-27.2-122-20.4-44-56.6-66.1-104.3-69.2-37.5-2.5-72.7 6.5-105.9 23.9-20.9 10.9-36.1 27.2-46.1 48.3-9.5 20.1-14.3 41.4-15.3 63.7-.7 15.5 1.5 30.6 4.3 45.7 5.2 28.9 11.4 57.5 26 83.5 16.6 29.4 40.9 48.4 73.6 57 19.1 5 38.4 4.5 57.6 3.4 30.4-1.8 58.9-10.7 84.4-27.8 25-16.7 40.7-39.9 47.7-69 3.8-14.4 5.7-28.9 5.2-37.5zm924.5-256.7c-.4 31 5.9 60.8 16.5 89.8 5.5 15.1 13 29.2 22.8 42 15.1 19.8 34.5 33 58.8 38.9 20.3 5 40.9 5.9 61.5 3.8 21.5-2.2 41.3-9.2 59-22.5 26-19.5 39.5-46.1 47-76.7 1-4 1.3-7.9-2.4-10.9-2.8-2.2-6.5-.1-9.9 7-8.4 17.4-21.3 30.5-37.7 40.2-26.8 15.9-65.2 14.6-91-14.1-8-9-14.5-19-19.6-30-8.9-18.9-13.8-38.9-16.6-59.4-1.6-11.7 2.7-17.2 14.3-20.2 2.6-.7 5.3-.8 7.9-1.3l92.5-15.6c12.4-2.2 24.9-4.5 37.2-7.5 7.9-1.9 10.3-5.7 8.8-13.1-6-29.9-16.4-57.5-39.4-79-12.8-11.9-27.4-18.7-44.8-19.3-12.6-.4-25.3 0-37.9.1-14.2.1-27.8 3.4-40.9 8.4-43.4 16.8-71.6 47-81.6 93.4-3.4 15.6-4.3 30.7-4.5 46zm1588.4-79.8h17.2c42.9 1 97.5-27.7 112.3-93.3 1.1-5 3-10.5-1.7-15-1.9-1.8-5.4-.6-10.8 9-12.6 22.3-30.8 38.3-56.1 45-22.2 5.9-42.3 1.3-60-13-12.1-9.8-21.6-21.8-28.5-35.7-8.7-17.4-14.1-36-17.1-55.2-3.3-21.2.4-26.2 21.4-29.9l55.2-9 68.9-12.1c11.9-2.3 15.3-7 13.2-18-5.7-29.4-17.4-55.8-40-76.6-12.8-11.8-27.5-18.5-44.8-19.4-20-1-39.9-.2-59.6 4.3-50.2 11.5-91.2 49.1-101.2 106.2-4.9 28.2-3.7 55.8 1.5 83.4 5.5 29 14.6 56.8 31.5 81.4 14.9 21.7 34.8 36.2 60.2 43.6 13.7 4.2 27.7 3.9 38.4 4.3zm-1084.3-12.2c-.4 35.5 5.5 63.1 15.6 91.8 4.9 13.9 11.5 26.9 19.8 39.1 10.4 15.1 23.5 27.1 39.5 36 31.6 17.5 103.4 17.7 136.7-5.3 29.7-20.4 46.8-48.4 54.1-83.1.4-1.9.5-4.1-.1-5.9-.6-1.7-2.1-3.8-3.6-4.2-1.4-.4-4.1.6-5 1.8-2.4 3.1-4.2 6.8-6.2 10.2-6.7 11.7-15.6 21.6-26.2 29.8-29.8 23-77.1 24.5-104.2-13.5-4.6-6.5-9-13.2-12.7-20.2-10.2-19-15-39.8-18.9-60.8-2.5-13.7 1.9-20.1 15-23.6 3.2-.8 6.6-1.2 9.8-1.7l112.2-19c5.2-.9 10.5-1.8 15.5-3.5 6.3-2 8.7-5.8 7.5-12.2-5.5-30.8-16.4-58.8-40.2-80.7-11.8-10.8-25.2-17.3-41.1-18.2-11.9-.7-23.9-.2-35.9-.3-20.4-.2-39.7 5.1-57.7 14.1-33.8 16.8-57.2 42.7-67.3 79.8-4.8 17.6-7 35.3-6.6 49.6zm741.7-143.5c.9-18.6.8-37.3 6.3-55.4 3.3-11 7.6-21.4 15-30.2 15.6-18.8 36-23.9 59.3-19.9 6.3 1.1 8.4 6.9 4.5 12.1-3.6 4.8-8.1 8.8-11.8 13.6-16.2 20.9-10.3 53.4 11.8 66.4 18.4 10.8 48.9 5 61.8-12 2.4-3.1 4.6-6.8 5.4-10.6 5.9-26.9-1.7-55.7-28.2-70.9-7-4-14.3-7.1-22.2-8.7-35-7.1-69-3.7-101.9 9.6-32.2 13-57.1 34.7-70.7 67-11.8 28-16.2 57.7-12.8 88.1 2.1 19.2 6.2 38.1 11.9 56.6 6 19.2 14.4 37.3 26.1 53.7 12.8 17.9 29.8 30.6 50.3 38 35.1 12.6 70.5 12.7 105.7-.2 19.3-7.1 35.1-19.1 47.1-35.7 11.8-16.4 19.3-34.9 23.2-54.8.4-1.9.7-4.1.3-5.9-.4-1.7-1.4-3.7-2.8-4.8-1.8-1.3-4-.3-5.2 1.4-2.3 3.2-4.3 6.7-6.4 10.1-7.2 11.4-15.8 21.5-26.6 29.6-35 26.5-80.1 19.6-105.5-16-6.2-8.7-11.2-18.1-15.5-27.9-13-29.6-19.7-60.6-19.1-93.2zm613-215.8c-5.3 0-10.7-.4-16 .1-32.8 2.5-60.2 16-81.9 40.7-10.6 12-15.6 26-16.4 41.9-1.5 29.1 11 51.6 32.3 69.9 14.2 12.2 30.5 21.5 46.7 30.6l55.6 31.7c16.2 9.6 26.1 24.4 31.9 42.1 2.7 8.5 3 17 .2 25.5-6.6 19.7-23.2 31.4-44.6 29.7-26.8-2.1-48.6-13.7-62.8-37.2-4.8-7.9-8.6-16.6-12.3-25.1-3.8-8.5-6.9-17.3-10.5-25.9-1-2.4-2.7-4.9-5.9-4.4-3.9.6-5.6 3.6-5.6 7.1 0 5.3.2 10.7 1 15.9l11.6 67c1.2 6.5 2.9 13 4.6 19.4.6 2.5 5.1 3.2 6.7 1.2 1.6-2.1 3-4.3 4.5-6.5 8.3-12.3 12.3-13.8 26.7-10.2 2.6.7 5.2 1.3 7.7 2.3 14.6 5.4 29.5 6.9 45.1 6.7 32.7-.5 61.4-10.9 86.6-31.3 27.9-22.6 38.3-59.1 26.2-91.8-4.4-12-11.7-22.3-20.4-31.8-13.3-14.6-29.8-24.5-47-33.4l-51.8-26.1c-10-5.3-19.7-11.3-29-17.7-8.3-5.7-15.2-13-19.8-22.1-9.7-19-5.3-36.8 12.2-49 19-13.2 45-13.3 63.7.6 16.8 12.5 30.2 28.1 37.9 48 1.9 5 3.7 10 6.1 14.7 1.2 2.5 4.2 3.6 6.9 2.5 1.6-.7 3.2-2.4 4-4.1 1.9-3.8.7-7.8.1-11.8l-10.1-69.2c-.7-5.1.7-12.1-5.6-13.7-8.5-2.2-8.5 6.3-11.1 11.2-4.1 7.8-7.6 9.9-15.9 8.9-4-.5-7.9-1.2-11.8-2.4-13.1-3.9-26.5-4.1-39.8-4zM2323.6 2301c24.2.2 48.5-9.2 64.9-25 12.3-11.9 19.1-27.1 23.8-43.2 1-3.3-1.3-6.6-5-7.5-2.9-.7-5.3 1.1-6.4 3.6-2.5 5.4-4 11.4-6.9 16.5-7.3 13-19.3 17.9-33.7 16.9-14-.9-18.4-11.4-21.2-23-3-12.3-6.7-24.4-8.9-36.9l-31.5-185c-3.2-18.6-1.1-22.1 18-24.7 13.8-1.8 27.4-5.4 41.1-8.2 2-.4 3.8-1.9 3.8-4-.1-3.1-2.6-4.6-5.4-4.7-3.3-.1-6.6.2-9.9.8-7.9 1.4-15.6 3.4-23.5 4.7-5.2.9-10.6 1.6-15.8 1.5-9.9-.1-15-3.9-17.1-13.4-2.1-9.1-3.1-18.4-4.7-27.6l-7.2-39.3c-2.2-10.3-4.9-11.6-13.4-6.5-18.4 11.1-37.5 20.1-58.9 23.9-.7.1-1.3.3-1.9.6-5.9 2.2-8.4 5.8-7.2 12.4 2.3 12.4 5.2 24.8 7.7 37.2 1.1 5.2 2.3 10.5 2.5 15.7.5 9.7-3.3 15.2-12.6 17.7-6.4 1.7-13.1 2.2-19.6 3.4-3.2.6-6.4 1.7-9.4 2.9-.8.3-1.5 2.2-1.3 3.3s1.2 2.5 2.2 3c3.8 1.8 7.8 1.2 11.8.5 5.2-.9 10.4-2.5 15.7-3.1 10.4-1.1 16.7 2.6 19.8 12.7 2.5 8.2 4 16.8 5.4 25.4l29 167.2c2.2 12.4 4.9 24.9 8.7 36.9 6.4 20.5 20.7 33.8 41 40.4 8.8 3 17.9 5.3 26.1 4.9zm-254.8-437.8c.2-14.6-13.3-26.9-34.3-24.5-14.8 1.7-24.2 10.9-29.3 24-4.3 11.1-7.4 22.8-10 34.5-5.3 24-9.7 48.3-18 71.6-1.1 3.1-2 6.3-1.1 9.7.6 2.2 4.6 4.5 6.3 3 3.5-3 6.9-6.1 10-9.6l23.5-27.2 37.8-41.1c9-9.5 15-20.3 15.1-40.4zm-286 435c1.6 18.1-2.3 35.5-8.3 52.6-6.3 18.1-19.3 29.8-36.7 37.1-5.6 2.3-11.5 3.2-17.6 3.1-18.1-.4-30.3-9.5-34.6-27.2-3.3-13.6-5.2-27.4-7.7-41.2l-23.2-129.6c-1.2-6.5-2.3-13.1-2.9-19.7-1.9-21.9 5.5-40.7 21-56 19.9-19.7 49.2-17.4 66.5 4.5 7.1 9 11.6 19.4 15.9 29.9 9.6 23.5 15.2 48.1 19.5 73.1l7.2 43.3c1.7 9.9 1.5 19.9.9 30.1zM894.9 2463v25.9c-.2 11.5-3.3 22.3-7.4 32.9-2.7 6.9-6.8 13-12.4 17.9-12.3 10.9-28.7 12.1-42.3 2.9-7.3-4.9-13-11.4-17.9-18.6-8.1-11.5-14.2-24-19.1-37.2-10.5-28.2-16.6-57.5-21.9-87-5.2-28.9-5.8-58.2-5.1-87.5.3-14.9 4-28.9 10.5-42.3 13.1-27.2 42.9-25.5 58.5-10.5 5.2 5 9.6 11.1 13.6 17.2 12.8 19.7 21 41.5 27.2 64 7.7 28.3 11.9 57.3 16 86.3 1.6 11.7.3 23.9.3 35.9-.2.1-.1.1 0 .1zM1985 2110.9c-.1-14.1 1.7-26.6 5.2-38.7 3.6-12.3 9.3-23.5 19.7-31.6 13.5-10.5 27.3-9.5 39.2 2.9 6 6.3 10.7 13.6 14.2 21.5 7.6 17.1 13.1 34.8 16.8 53.1 2.3 11.3-.6 16.9-11.5 19.3-21.4 4.6-43 8.3-64.7 11.8-7.8 1.3-12.1-2.2-14.7-10.3-3.1-9.5-5.7-19.2-4.2-28zm1473.5-215.2c-8.8-.9-11.9-2.9-15.1-11.2-4.4-11.3-7.1-22.7-4.5-35 2.4-11 2.4-22.4 6.1-33.2s8.6-20.9 17.3-28.7c13.4-12.1 27.9-11.7 40.5 1.2 3.6 3.8 6.7 8.2 9.4 12.8 11.6 19.7 17.3 41.6 22.1 63.6 2 9.1-1.1 15.1-9.5 17-22 5.1-44.2 9.1-66.3 13.5zm-969.5 127c0-18.5 4.1-37.2 13.3-54.6 14.7-27.7 40.4-31.6 58.2-2.3 12.6 20.8 19.4 43.7 24.2 67.3 1.8 9-1.4 14.3-10.4 16.2-21.5 4.5-43 8.6-64.7 12.2-9.4 1.6-14.5-2.5-17.9-12-3.1-8.3-2.5-17-2.7-26.8z"/></svg>