<svg id="svg" xmlns="http://www.w3.org/2000/svg" xmlns:xlink="http://www.w3.org/1999/xlink" width="400" height="400" viewBox="0, 0, 400,400"><g id="svgg"><path id="path0" d="M194.378 10.022 C 194.352 10.045,193.323 10.095,192.090 10.132 C 190.858 10.170,189.755 10.215,189.640 10.232 C 189.525 10.250,188.869 10.292,188.182 10.325 C 187.495 10.359,186.760 10.404,186.548 10.425 C 186.337 10.447,185.753 10.490,185.251 10.522 C 184.749 10.554,184.144 10.599,183.906 10.622 C 183.668 10.644,182.738 10.730,181.840 10.812 C 135.051 15.060,90.759 37.115,58.928 72.015 L 57.350 73.745 190.890 73.795 C 318.658 73.842,324.469 73.852,325.336 74.016 C 335.461 75.936,342.714 83.127,344.784 93.298 L 344.989 94.307 345.038 208.913 L 345.088 323.519 346.741 321.524 C 413.753 240.686,402.584 121.148,321.739 53.949 C 291.027 28.421,251.575 12.646,212.875 10.421 C 212.294 10.387,211.725 10.346,211.610 10.328 C 211.495 10.311,210.652 10.268,209.736 10.232 C 208.820 10.197,207.963 10.146,207.831 10.120 C 207.528 10.059,194.442 9.963,194.378 10.022 M46.570 86.980 C 44.103 90.304,39.202 97.397,39.202 97.644 C 39.202 97.685,93.373 97.718,159.581 97.718 C 279.146 97.718,279.965 97.719,280.702 97.908 C 286.546 99.403,286.408 107.771,280.519 109.008 C 279.929 109.131,264.583 109.149,156.089 109.152 L 32.332 109.155 31.597 110.523 C 0.755 167.916,1.683 237.753,34.039 294.355 C 37.614 300.609,41.455 306.503,46.266 313.113 L 46.841 313.903 178.261 313.906 L 309.681 313.908 309.681 211.530 L 309.681 109.152 306.294 109.150 C 302.484 109.149,302.028 109.096,300.864 108.523 C 296.073 106.166,296.974 99.025,302.210 97.865 C 303.447 97.591,316.227 97.689,317.080 97.979 C 318.827 98.573,320.113 99.832,320.815 101.634 L 321.067 102.282 321.091 211.287 C 321.112 308.324,321.099 320.355,320.970 320.871 C 320.442 322.977,318.818 324.619,316.737 325.152 C 315.995 325.341,315.364 325.342,186.092 325.342 C 107.741 325.342,56.206 325.377,56.225 325.430 C 56.368 325.820,62.025 331.836,65.428 335.215 L 68.161 337.930 195.767 337.904 L 323.373 337.878 324.289 337.619 C 328.995 336.287,332.143 333.136,333.383 328.513 L 333.654 327.504 333.654 211.530 L 333.654 95.556 333.382 94.547 C 332.087 89.745,328.821 86.571,323.904 85.339 C 323.325 85.194,312.731 85.180,185.610 85.156 L 47.943 85.130 46.570 86.980 M70.958 134.053 C 71.715 134.307,71.038 133.873,80.567 140.217 C 90.305 146.700,90.140 146.577,91.528 148.411 C 91.956 148.977,93.041 151.060,93.155 151.535 L 93.216 151.784 94.914 151.849 C 95.849 151.884,97.391 151.954,98.343 152.005 C 99.294 152.056,101.153 152.142,102.474 152.197 C 103.795 152.252,105.741 152.340,106.798 152.393 C 108.954 152.500,114.124 152.734,117.463 152.875 C 118.679 152.926,120.516 153.012,121.547 153.066 C 122.577 153.119,124.519 153.206,125.861 153.257 C 127.203 153.309,129.084 153.395,130.041 153.448 C 130.997 153.500,132.900 153.587,134.269 153.640 C 135.638 153.693,137.540 153.779,138.497 153.832 C 139.453 153.885,141.355 153.971,142.724 154.024 C 144.093 154.077,145.996 154.163,146.952 154.216 C 147.908 154.269,149.810 154.355,151.179 154.408 C 152.547 154.461,154.471 154.549,155.454 154.603 C 156.438 154.657,158.302 154.742,159.596 154.793 C 160.891 154.843,162.794 154.929,163.824 154.984 C 164.855 155.039,166.757 155.126,168.052 155.176 C 169.347 155.227,171.211 155.312,172.194 155.366 C 173.177 155.420,175.123 155.507,176.518 155.560 C 179.223 155.662,180.594 155.728,181.600 155.804 C 181.943 155.830,183.435 155.894,184.915 155.946 C 187.647 156.043,188.931 156.103,190.055 156.188 C 190.399 156.214,191.890 156.278,193.370 156.330 C 195.963 156.421,196.967 156.468,198.511 156.573 C 198.907 156.600,200.377 156.663,201.778 156.714 C 203.178 156.764,205.643 156.871,207.254 156.952 C 212.339 157.204,216.446 157.393,218.929 157.488 C 224.298 157.693,226.429 157.851,227.134 158.097 C 229.994 159.097,231.504 161.919,230.840 165.025 C 230.642 165.950,225.328 192.485,225.221 193.082 C 225.147 193.493,224.713 195.670,223.870 199.856 C 223.759 200.411,223.587 201.254,223.489 201.730 C 223.391 202.205,223.219 203.070,223.106 203.651 C 222.993 204.233,222.822 205.097,222.725 205.573 C 222.628 206.049,222.455 206.913,222.340 207.495 C 222.224 208.076,222.051 208.941,221.955 209.416 C 221.859 209.892,221.685 210.757,221.569 211.338 C 219.826 220.031,214.246 226.607,206.127 229.537 C 204.358 230.175,202.491 230.566,199.664 230.890 C 198.686 231.002,197.194 231.175,196.349 231.275 C 195.503 231.375,194.033 231.548,193.082 231.660 C 192.131 231.771,190.661 231.944,189.815 232.044 C 188.969 232.144,187.499 232.316,186.548 232.427 C 185.597 232.538,184.300 232.690,183.666 232.766 C 181.836 232.984,179.386 233.273,177.564 233.484 C 176.639 233.591,175.158 233.765,174.273 233.869 C 173.388 233.974,171.929 234.146,171.030 234.251 C 170.132 234.357,168.662 234.530,167.763 234.636 C 166.865 234.741,165.395 234.914,164.496 235.020 C 163.598 235.126,162.117 235.300,161.206 235.407 C 160.294 235.514,158.835 235.686,157.963 235.790 C 157.091 235.894,155.621 236.067,154.696 236.174 C 153.771 236.282,152.290 236.456,151.405 236.561 C 150.520 236.666,149.061 236.839,148.162 236.945 C 147.264 237.050,145.805 237.222,144.920 237.326 C 144.034 237.431,142.553 237.604,141.629 237.712 C 140.704 237.819,139.234 237.992,138.362 238.096 C 137.490 238.200,136.031 238.372,135.119 238.479 C 134.207 238.586,132.737 238.760,131.852 238.865 C 130.967 238.970,129.486 239.145,128.561 239.253 C 125.849 239.570,123.695 239.825,122.456 239.975 C 120.332 240.233,117.933 240.127,115.830 239.683 L 115.542 239.622 112.070 246.579 C 109.425 251.880,108.620 253.574,108.688 253.696 C 108.771 253.844,112.424 253.855,161.307 253.857 C 218.312 253.858,214.360 253.822,215.566 254.357 C 219.085 255.917,220.106 260.290,217.641 263.251 C 217.226 263.750,217.179 263.847,217.283 264.004 C 217.813 264.808,218.586 267.346,218.830 269.082 C 220.528 281.180,209.703 291.371,197.751 288.927 C 187.521 286.836,181.227 276.126,184.422 266.247 L 184.731 265.289 159.245 265.289 L 133.760 265.289 133.895 265.613 C 135.047 268.371,135.225 272.864,134.314 276.191 C 130.722 289.312,114.346 293.689,104.727 284.099 C 99.421 278.809,97.996 270.460,101.279 263.903 L 101.771 262.920 100.764 261.919 C 98.352 259.522,97.284 256.956,97.288 253.567 C 97.291 250.580,97.137 250.981,102.078 241.099 L 105.962 233.331 105.286 232.327 C 103.943 230.335,103.365 228.885,102.029 224.165 C 101.917 223.769,101.750 223.185,101.657 222.868 C 101.565 222.551,101.392 221.946,101.273 221.523 C 101.154 221.100,100.981 220.495,100.889 220.178 C 100.797 219.861,100.624 219.255,100.504 218.833 C 100.385 218.410,100.212 217.804,100.120 217.487 C 100.028 217.170,99.855 216.565,99.736 216.142 C 99.616 215.719,99.444 215.114,99.351 214.797 C 99.259 214.480,99.086 213.875,98.967 213.452 C 98.848 213.029,98.675 212.424,98.583 212.107 C 98.491 211.790,98.323 211.206,98.210 210.810 C 98.097 210.413,97.849 209.548,97.658 208.888 C 97.467 208.227,97.289 207.600,97.262 207.495 C 97.236 207.389,97.063 206.784,96.878 206.149 C 96.693 205.515,96.508 204.867,96.467 204.708 C 96.329 204.167,96.104 203.364,95.770 202.210 C 95.586 201.576,95.414 200.970,95.387 200.865 C 95.361 200.759,95.188 200.154,95.003 199.520 C 94.818 198.885,94.645 198.280,94.619 198.174 C 94.592 198.069,94.414 197.442,94.223 196.781 C 94.032 196.121,93.784 195.256,93.671 194.859 C 93.558 194.463,93.390 193.879,93.298 193.562 C 93.206 193.245,93.033 192.640,92.914 192.217 C 92.794 191.794,92.622 191.189,92.529 190.872 C 92.437 190.555,92.264 189.950,92.145 189.527 C 92.026 189.104,91.852 188.499,91.758 188.182 C 91.665 187.865,91.416 187.000,91.205 186.260 C 90.994 185.520,90.664 184.374,90.473 183.714 C 90.281 183.053,90.065 182.296,89.992 182.032 C 89.919 181.768,89.682 180.936,89.465 180.183 C 89.248 179.429,88.901 178.219,88.694 177.492 C 88.091 175.376,87.741 174.149,87.329 172.712 C 87.116 171.972,86.795 170.848,86.614 170.214 C 86.433 169.580,86.128 168.520,85.936 167.860 C 85.745 167.199,85.566 166.572,85.540 166.466 C 85.513 166.361,85.340 165.755,85.155 165.121 C 84.971 164.487,84.798 163.882,84.771 163.776 C 84.745 163.670,84.572 163.065,84.387 162.431 C 84.202 161.797,84.029 161.191,84.002 161.086 C 83.976 160.980,83.803 160.375,83.618 159.741 C 83.433 159.106,83.260 158.501,83.234 158.395 C 83.207 158.290,83.034 157.684,82.849 157.050 C 82.663 156.416,82.470 155.710,82.419 155.481 L 82.325 155.064 74.119 149.603 C 65.052 143.569,65.311 143.752,64.725 142.989 C 61.301 138.531,65.663 132.278,70.958 134.053 M96.565 163.455 C 96.565 163.532,96.646 163.852,96.745 164.166 C 96.844 164.480,97.023 165.083,97.142 165.506 C 97.261 165.928,97.434 166.534,97.526 166.851 C 97.618 167.168,97.791 167.773,97.910 168.196 C 98.029 168.619,98.202 169.224,98.294 169.541 C 98.387 169.858,98.560 170.464,98.679 170.886 C 98.798 171.309,98.971 171.914,99.063 172.232 C 99.155 172.549,99.328 173.154,99.448 173.577 C 99.567 174.000,99.740 174.605,99.832 174.922 C 99.924 175.239,100.092 175.823,100.204 176.219 C 100.317 176.615,100.566 177.480,100.757 178.141 C 100.948 178.801,101.125 179.428,101.150 179.534 C 101.175 179.640,101.272 179.986,101.366 180.303 C 101.460 180.620,101.634 181.225,101.754 181.648 C 101.873 182.071,102.046 182.676,102.138 182.993 C 102.230 183.310,102.403 183.915,102.522 184.338 C 102.642 184.761,102.815 185.366,102.908 185.683 C 103.001 186.000,103.179 186.616,103.304 187.052 L 103.531 187.844 113.126 187.845 C 120.762 187.845,122.711 187.821,122.675 187.725 C 122.650 187.659,122.577 187.281,122.513 186.884 C 122.329 185.743,121.890 183.081,121.451 180.447 C 121.345 179.813,121.172 178.775,121.067 178.141 C 120.629 175.517,120.489 174.669,120.297 173.481 C 120.187 172.794,120.013 171.734,119.911 171.127 C 119.810 170.519,119.638 169.481,119.529 168.821 C 119.420 168.160,119.248 167.122,119.146 166.515 C 119.044 165.907,118.933 165.184,118.900 164.908 C 118.823 164.272,119.299 164.329,111.410 164.017 C 110.142 163.966,108.218 163.881,107.134 163.826 C 106.051 163.771,103.694 163.661,101.898 163.582 C 100.101 163.503,98.166 163.410,97.598 163.376 C 96.729 163.325,96.565 163.337,96.565 163.455 M130.483 165.030 C 130.483 165.128,130.572 165.729,130.680 166.366 C 130.936 167.870,131.171 169.268,131.583 171.751 C 131.972 174.091,131.952 173.970,132.213 175.595 C 132.324 176.282,132.499 177.341,132.602 177.949 C 132.706 178.556,133.096 180.913,133.470 183.185 C 133.844 185.458,134.173 187.436,134.202 187.581 L 134.254 187.845 143.923 187.845 L 153.591 187.845 153.566 176.901 L 153.542 165.957 152.317 165.895 C 151.644 165.861,150.358 165.791,149.460 165.740 C 148.561 165.689,146.702 165.606,145.328 165.555 C 143.954 165.504,141.554 165.398,139.995 165.319 C 138.436 165.240,136.080 165.129,134.759 165.073 C 133.437 165.017,131.935 164.945,131.420 164.912 C 130.550 164.857,130.483 164.865,130.483 165.030 M164.977 177.123 L 164.977 187.845 175.007 187.845 L 185.036 187.845 185.094 187.629 C 185.126 187.510,185.153 187.222,185.154 186.988 C 185.154 186.755,185.238 185.717,185.340 184.682 C 185.442 183.647,185.617 181.763,185.730 180.495 C 185.843 179.227,186.000 177.519,186.080 176.699 C 186.159 175.880,186.265 174.670,186.316 174.009 C 186.367 173.349,186.453 172.419,186.506 171.943 C 186.560 171.468,186.644 170.538,186.693 169.877 C 186.743 169.217,186.810 168.410,186.844 168.085 L 186.905 167.494 186.102 167.438 C 184.806 167.346,179.779 167.104,177.853 167.040 C 176.875 167.008,175.902 166.965,175.691 166.945 C 175.285 166.907,172.293 166.771,168.292 166.609 C 166.971 166.555,165.685 166.486,165.434 166.456 L 164.977 166.400 164.977 177.123 M198.284 168.261 C 198.258 168.437,198.189 169.207,198.129 169.974 C 198.069 170.740,197.981 171.756,197.932 172.232 C 197.883 172.707,197.754 174.091,197.646 175.306 C 197.456 177.446,197.291 179.280,196.880 183.810 C 196.773 184.999,196.651 186.393,196.609 186.908 L 196.534 187.845 205.594 187.845 C 210.576 187.845,214.653 187.824,214.653 187.799 C 214.653 187.773,215.497 183.530,216.529 178.369 C 217.561 173.208,218.386 168.967,218.363 168.944 C 218.288 168.868,215.489 168.716,211.674 168.580 C 210.855 168.551,209.861 168.507,209.464 168.483 C 208.142 168.401,204.919 168.252,203.267 168.196 C 202.368 168.165,201.331 168.122,200.961 168.099 C 200.591 168.076,199.848 168.031,199.309 167.999 L 198.330 167.941 198.284 168.261 M106.957 199.880 C 107.065 200.263,107.213 200.793,107.287 201.057 C 107.361 201.321,107.501 201.818,107.600 202.162 C 107.698 202.505,107.919 203.284,108.090 203.891 C 108.262 204.499,108.481 205.256,108.577 205.573 C 108.674 205.890,108.847 206.495,108.963 206.918 C 109.079 207.341,109.252 207.946,109.347 208.263 C 109.599 209.100,109.861 210.008,110.890 213.620 C 111.097 214.347,111.439 215.546,111.650 216.286 C 111.862 217.026,112.208 218.237,112.419 218.977 C 112.630 219.717,112.972 220.916,113.179 221.643 C 113.970 224.422,114.066 224.714,114.414 225.413 C 115.762 228.113,118.147 229.027,122.460 228.498 C 124.409 228.258,126.890 227.964,128.249 227.810 C 128.799 227.748,129.234 227.654,129.234 227.598 C 129.234 227.543,129.151 227.040,129.051 226.480 C 128.829 225.246,128.640 224.116,127.887 219.505 C 127.568 217.550,127.223 215.453,127.120 214.845 C 126.943 213.798,126.771 212.756,126.356 210.233 C 126.256 209.625,126.082 208.566,125.969 207.879 C 125.856 207.192,125.703 206.284,125.628 205.861 C 125.553 205.438,125.470 204.941,125.443 204.756 C 125.348 204.112,124.613 199.614,124.567 199.399 L 124.522 199.183 115.642 199.183 L 106.762 199.183 106.957 199.880 M136.108 199.351 C 136.127 199.444,136.230 200.038,136.336 200.673 C 136.522 201.777,136.663 202.628,137.115 205.381 C 137.227 206.068,137.380 206.976,137.453 207.399 C 137.527 207.821,137.608 208.319,137.634 208.503 C 137.678 208.819,137.787 209.483,138.271 212.371 C 138.769 215.348,138.920 216.260,139.414 219.265 C 139.925 222.376,140.017 222.934,140.150 223.713 C 140.230 224.178,140.353 224.949,140.424 225.426 C 140.585 226.503,140.391 226.416,142.121 226.191 C 142.934 226.086,144.333 225.914,145.232 225.809 C 149.529 225.306,150.428 225.199,151.814 225.025 C 152.633 224.922,153.357 224.838,153.422 224.838 C 153.517 224.838,153.547 222.155,153.566 212.011 L 153.591 199.183 144.832 199.183 C 136.542 199.183,136.076 199.192,136.108 199.351 M164.977 211.346 L 164.977 223.508 165.241 223.456 C 165.387 223.428,165.765 223.379,166.082 223.347 C 166.399 223.315,167.350 223.208,168.196 223.107 C 170.819 222.796,175.173 222.283,177.997 221.954 C 178.948 221.843,180.216 221.690,180.816 221.614 C 181.415 221.537,181.944 221.475,181.993 221.475 C 182.041 221.475,182.080 221.291,182.081 221.067 C 182.081 220.842,182.146 219.988,182.225 219.169 C 182.305 218.350,182.412 217.182,182.464 216.575 C 182.516 215.967,182.626 214.735,182.708 213.836 C 182.922 211.505,183.192 208.528,183.431 205.861 C 183.545 204.593,183.733 202.571,183.849 201.369 L 184.060 199.183 174.518 199.183 L 164.977 199.183 164.977 211.346 M195.459 199.496 C 195.449 199.667,195.376 200.500,195.295 201.345 C 195.215 202.191,195.082 203.596,194.999 204.468 C 194.916 205.340,194.809 206.572,194.761 207.206 C 194.712 207.840,194.607 209.030,194.528 209.849 C 194.448 210.668,194.297 212.289,194.192 213.452 C 194.087 214.614,193.907 216.571,193.791 217.801 C 193.675 219.030,193.598 220.052,193.619 220.072 C 193.641 220.092,194.329 220.030,195.148 219.935 C 195.967 219.840,197.437 219.670,198.415 219.558 C 201.134 219.245,202.740 218.779,204.429 217.812 C 207.067 216.303,209.222 213.526,210.032 210.591 C 210.177 210.062,212.347 199.409,212.347 199.222 C 212.347 199.201,208.551 199.183,203.912 199.183 L 195.477 199.183 195.459 199.496 M115.830 265.432 C 109.940 267.024,109.140 274.703,114.593 277.306 C 118.683 279.258,123.497 276.164,123.497 271.583 C 123.497 267.578,119.564 264.423,115.830 265.432 M199.904 265.427 C 197.135 266.203,195.389 268.135,195.067 270.779 C 194.461 275.752,199.527 279.407,204.036 277.249 C 209.101 274.824,208.626 267.443,203.286 265.597 C 202.425 265.300,200.673 265.212,199.904 265.427 M82.161 350.000 C 86.090 353.094,97.104 360.869,97.291 360.680 C 97.330 360.641,97.687 357.907,98.199 353.735 C 98.495 351.325,98.678 349.925,98.738 349.628 L 98.790 349.363 90.072 349.363 L 81.353 349.363 82.161 350.000 M110.080 350.733 C 109.986 351.486,109.824 352.772,109.721 353.591 C 109.286 357.039,108.887 360.224,108.576 362.719 C 108.467 363.591,108.298 364.910,108.199 365.650 C 107.987 367.249,107.759 366.938,110.017 368.143 C 124.592 375.924,140.935 382.042,156.729 385.630 L 158.234 385.972 179.532 385.972 L 200.831 385.972 200.769 385.419 C 200.735 385.115,200.648 384.434,200.576 383.906 C 200.503 383.377,200.418 382.686,200.385 382.368 C 200.353 382.051,200.285 381.511,200.234 381.167 C 200.183 380.824,200.078 380.002,200.001 379.342 C 199.831 377.900,199.618 376.152,199.421 374.586 C 199.341 373.951,199.190 372.752,199.087 371.919 C 198.903 370.449,198.731 369.070,198.319 365.794 C 198.209 364.922,198.035 363.528,197.931 362.695 C 197.827 361.863,197.657 360.501,197.553 359.669 C 196.916 354.564,196.641 352.359,196.429 350.685 L 196.263 349.363 186.005 349.363 L 175.747 349.363 175.551 350.022 C 175.443 350.385,175.354 350.734,175.354 350.799 C 175.354 350.864,175.271 351.227,175.168 351.606 C 175.066 351.984,174.893 352.651,174.784 353.087 C 174.675 353.523,174.499 354.225,174.393 354.648 C 173.525 358.120,173.423 358.507,173.220 359.068 C 169.439 369.534,159.094 375.256,148.403 372.795 C 140.948 371.078,134.764 365.070,132.890 357.723 C 132.683 356.908,132.480 356.104,132.116 354.648 C 132.011 354.225,131.835 353.523,131.726 353.087 C 131.617 352.651,131.444 351.984,131.341 351.606 C 131.239 351.227,131.155 350.864,131.155 350.799 C 131.155 350.734,131.067 350.385,130.959 350.022 L 130.763 349.363 120.507 349.363 L 110.251 349.363 110.080 350.733 M142.589 349.433 C 142.589 349.940,144.110 355.537,144.463 356.330 C 148.009 364.295,159.902 363.534,162.481 355.177 C 162.658 354.602,163.920 349.566,163.920 349.433 C 163.920 349.395,159.121 349.363,153.255 349.363 C 147.389 349.363,142.589 349.395,142.589 349.433 M207.772 349.628 C 207.832 349.928,208.018 351.348,208.310 353.735 C 208.420 354.634,208.593 356.017,208.694 356.810 C 208.795 357.603,208.969 358.986,209.080 359.885 C 209.270 361.430,209.396 362.438,209.855 366.106 C 209.962 366.965,210.134 368.338,210.236 369.157 C 210.581 371.926,210.818 373.812,210.954 374.874 C 211.028 375.455,211.114 376.169,211.145 376.459 C 211.176 376.750,211.244 377.269,211.295 377.612 C 211.347 377.956,211.452 378.777,211.528 379.438 C 211.605 380.098,211.734 381.158,211.814 381.792 C 211.894 382.426,212.027 383.485,212.109 384.146 C 212.192 384.807,212.281 385.488,212.307 385.659 L 212.356 385.972 222.049 385.972 C 233.337 385.972,233.016 385.945,234.564 387.010 L 234.976 387.294 237.954 386.689 C 266.958 380.795,294.283 368.184,317.455 349.998 L 318.263 349.363 262.991 349.363 L 207.720 349.363 207.772 349.628 " stroke="none" fill="#000000" fill-rule="evenodd"></path></g></svg>