<svg id="svg" xmlns="http://www.w3.org/2000/svg" xmlns:xlink="http://www.w3.org/1999/xlink" width="400" height="400" viewBox="0, 0, 400,400"><g id="svgg"><path id="path0" d="M194.378 10.022 C 194.352 10.045,193.323 10.095,192.090 10.132 C 190.858 10.170,189.755 10.215,189.640 10.232 C 189.525 10.250,188.869 10.292,188.182 10.325 C 187.495 10.359,186.760 10.404,186.548 10.425 C 186.337 10.447,185.753 10.490,185.251 10.522 C 184.749 10.554,184.144 10.599,183.906 10.622 C 183.668 10.644,182.738 10.730,181.840 10.812 C 98.564 18.373,29.230 80.689,12.826 162.719 C -5.013 251.921,42.446 340.891,126.580 375.971 C 129.927 377.367,136.133 379.726,136.456 379.726 C 136.669 379.726,136.489 375.726,136.213 374.297 C 134.471 365.312,127.698 358.742,118.669 357.280 C 118.129 357.193,116.604 357.098,114.965 357.050 C 105.273 356.763,97.206 354.203,89.503 348.969 C 87.329 347.492,83.648 344.408,82.472 343.079 C 82.281 342.863,81.858 342.405,81.532 342.061 C 80.309 340.773,78.577 338.602,77.428 336.917 C 73.836 331.649,71.226 325.397,70.150 319.481 C 69.358 315.124,69.354 315.054,69.305 301.697 L 69.262 289.917 66.795 289.857 C 62.490 289.753,60.190 289.264,57.218 287.823 C 50.226 284.431,46.016 277.544,44.856 267.595 C 44.683 266.109,44.681 259.929,44.854 258.227 C 45.206 254.755,45.679 252.013,46.518 248.571 C 47.307 245.337,47.795 243.748,49.722 238.146 C 51.248 233.709,51.886 231.848,52.173 230.987 C 52.323 230.538,52.798 229.154,53.229 227.913 C 53.661 226.671,54.203 225.092,54.435 224.405 C 54.666 223.718,55.272 221.946,55.781 220.466 C 56.290 218.986,56.742 217.668,56.786 217.535 C 56.830 217.403,57.282 216.085,57.792 214.605 C 58.301 213.125,58.908 211.352,59.140 210.665 C 59.373 209.978,59.914 208.400,60.342 207.158 C 60.771 205.916,61.224 204.598,61.348 204.228 C 61.473 203.858,61.927 202.539,62.356 201.297 C 62.786 200.055,63.393 198.282,63.706 197.358 C 64.019 196.433,64.537 194.920,64.856 193.995 C 66.002 190.673,66.798 188.352,67.212 187.125 C 67.444 186.438,67.985 184.859,68.415 183.618 C 68.845 182.376,69.236 181.230,69.285 181.072 C 69.333 180.914,69.373 180.157,69.373 179.390 C 69.372 177.524,69.606 172.750,69.860 169.445 C 69.997 167.661,70.421 163.258,70.483 162.979 C 70.510 162.858,70.572 162.361,70.621 161.874 C 70.725 160.836,71.067 158.241,71.200 157.483 C 71.250 157.192,71.380 156.370,71.488 155.657 C 71.772 153.780,72.459 149.954,72.781 148.451 C 72.855 148.107,73.007 147.394,73.119 146.865 C 73.428 145.408,73.686 144.238,73.840 143.598 C 74.444 141.086,74.857 139.459,75.352 137.641 C 75.668 136.479,75.949 135.441,75.976 135.335 C 76.004 135.229,76.261 134.365,76.548 133.413 C 78.183 127.995,79.917 123.022,81.723 118.568 C 82.183 117.432,82.637 116.308,82.731 116.070 C 82.948 115.522,84.612 111.739,85.080 110.730 C 86.115 108.499,86.528 107.643,87.646 105.405 C 93.604 93.481,100.977 82.222,109.653 71.798 C 110.884 70.320,113.925 66.826,114.775 65.914 C 119.398 60.953,122.114 58.237,125.970 54.718 C 141.265 40.759,158.462 29.833,177.420 22.027 C 179.959 20.982,183.492 19.638,185.972 18.775 C 188.860 17.770,193.610 16.272,196.157 15.563 C 196.579 15.446,197.206 15.270,197.550 15.173 C 198.375 14.940,203.064 13.749,203.555 13.648 C 203.891 13.578,204.658 13.408,207.254 12.825 C 208.342 12.581,212.449 11.803,214.317 11.487 C 216.730 11.078,217.547 10.953,217.839 10.946 C 219.037 10.918,216.211 10.619,212.875 10.421 C 212.347 10.390,211.785 10.348,211.626 10.328 C 211.468 10.309,210.603 10.265,209.705 10.230 C 208.806 10.196,207.963 10.146,207.831 10.120 C 207.527 10.059,194.442 9.964,194.378 10.022 M235.311 34.552 C 230.086 34.850,223.786 35.517,219.986 36.175 C 219.563 36.248,219.022 36.334,218.785 36.367 C 217.151 36.593,211.714 37.681,209.416 38.241 C 208.994 38.344,208.258 38.521,207.783 38.633 C 196.980 41.186,183.507 46.340,173.625 51.701 C 173.228 51.916,172.580 52.267,172.184 52.482 C 171.007 53.119,169.763 53.815,169.301 54.094 C 169.063 54.238,168.328 54.673,167.668 55.062 C 153.409 63.451,139.980 74.882,129.180 87.821 C 128.060 89.163,127.604 89.726,125.914 91.857 C 123.576 94.804,119.901 100.030,117.636 103.627 C 116.155 105.978,114.188 109.287,113.237 111.026 C 113.035 111.396,112.632 112.131,112.343 112.659 C 111.637 113.946,109.298 118.569,108.746 119.769 C 108.503 120.298,108.154 121.055,107.971 121.451 C 106.900 123.767,104.387 129.808,104.054 130.867 C 104.012 130.999,103.886 131.345,103.773 131.636 C 102.711 134.373,100.825 140.246,99.868 143.791 C 99.783 144.108,99.655 144.562,99.584 144.799 C 99.369 145.524,98.364 149.694,97.998 151.381 C 95.907 161.023,94.829 170.298,94.642 180.255 C 94.536 185.882,94.850 184.517,91.281 194.859 C 90.798 196.260,90.258 197.838,90.080 198.367 C 89.903 198.895,89.363 200.473,88.880 201.874 C 88.397 203.274,87.878 204.787,87.726 205.237 C 87.573 205.686,87.053 207.199,86.570 208.600 C 86.087 210.000,85.569 211.513,85.419 211.963 C 85.269 212.412,84.795 213.795,84.364 215.037 C 83.934 216.279,83.458 217.663,83.308 218.112 C 83.157 218.561,82.551 220.334,81.962 222.051 C 81.372 223.769,80.616 225.974,80.281 226.952 C 79.947 227.929,79.494 229.248,79.274 229.882 C 79.054 230.516,78.751 231.403,78.600 231.852 C 78.301 232.740,77.747 234.354,76.389 238.290 C 75.906 239.690,75.388 241.203,75.238 241.653 C 75.087 242.102,74.547 243.680,74.037 245.160 C 70.798 254.547,70.107 257.464,69.980 262.281 L 69.921 264.509 76.685 264.550 C 83.897 264.593,83.923 264.595,85.603 265.095 C 89.621 266.291,92.835 269.513,94.072 273.585 C 94.607 275.345,94.574 274.150,94.644 294.595 C 94.714 315.402,94.661 313.563,95.255 316.022 C 96.245 320.129,99.034 324.436,102.479 327.182 C 104.772 329.010,106.943 330.114,110.113 331.067 C 111.447 331.468,113.857 331.777,115.686 331.781 C 117.075 331.784,120.494 332.008,121.547 332.164 C 143.212 335.375,158.881 351.396,161.579 373.096 C 161.710 374.150,161.748 375.550,161.780 380.558 L 161.820 386.723 162.029 386.774 C 165.575 387.646,177.629 389.373,182.897 389.764 C 183.320 389.796,183.795 389.839,183.954 389.861 C 184.112 389.883,184.675 389.927,185.203 389.959 C 185.731 389.991,186.294 390.034,186.452 390.053 C 186.611 390.073,187.367 390.119,188.134 390.156 C 188.900 390.193,189.602 390.236,189.693 390.253 C 191.030 390.498,208.002 390.493,209.993 390.248 C 210.151 390.228,210.800 390.185,211.434 390.153 C 240.220 388.673,270.350 379.547,296.061 364.521 L 297.862 363.468 297.862 346.475 C 297.862 328.974,297.876 328.279,298.251 326.784 C 299.262 322.749,301.579 320.050,305.741 318.059 C 310.551 315.758,313.308 314.332,316.887 312.293 C 328.235 305.826,338.905 297.676,348.163 288.402 C 350.529 286.033,352.228 284.247,353.931 282.341 C 359.405 276.211,364.208 269.856,368.885 262.551 C 369.937 260.908,373.000 255.759,373.000 255.634 C 373.000 255.611,373.136 255.364,373.302 255.085 C 374.766 252.613,378.262 245.509,379.818 241.845 C 380.143 241.079,380.556 240.106,380.736 239.683 C 381.014 239.027,381.664 237.374,382.682 234.735 C 383.284 233.173,384.636 229.195,385.424 226.663 C 387.319 220.576,389.122 212.876,390.059 206.870 C 390.195 205.998,390.347 205.077,390.397 204.824 C 390.604 203.769,390.484 194.378,390.198 189.287 C 387.635 143.704,368.539 100.390,336.590 67.692 C 333.437 64.464,325.925 59.146,317.785 54.379 C 317.068 53.959,316.466 53.615,316.448 53.615 C 316.430 53.615,316.186 53.480,315.906 53.315 C 311.974 50.994,302.576 46.498,298.150 44.820 C 297.965 44.750,297.598 44.609,297.334 44.508 C 292.141 42.507,286.866 40.752,282.777 39.663 C 282.380 39.558,281.840 39.412,281.576 39.340 C 280.723 39.107,276.890 38.161,276.147 38.001 C 275.751 37.915,275.037 37.761,274.562 37.658 C 266.920 36.004,259.297 34.999,250.925 34.543 C 247.562 34.359,238.602 34.365,235.311 34.552 M245.832 81.178 C 248.873 81.820,251.508 83.486,253.389 85.958 C 254.054 86.831,254.402 87.461,255.852 90.416 C 256.592 91.922,258.180 95.143,259.382 97.574 C 260.583 100.005,262.183 103.248,262.936 104.780 C 263.689 106.313,265.288 109.556,266.490 111.987 C 268.794 116.646,271.289 121.701,273.649 126.495 C 274.430 128.081,276.266 131.799,277.729 134.759 C 279.193 137.718,280.474 140.315,280.577 140.530 L 280.764 140.921 281.891 141.088 C 284.266 141.440,284.885 141.531,286.236 141.726 C 287.002 141.837,288.040 141.989,288.542 142.063 C 289.044 142.137,290.082 142.288,290.848 142.399 C 291.614 142.509,292.630 142.659,293.106 142.732 C 293.582 142.804,294.209 142.891,294.499 142.925 C 294.790 142.958,295.395 143.047,295.844 143.121 C 296.589 143.244,299.993 143.737,301.513 143.941 C 301.857 143.988,302.873 144.136,303.771 144.272 C 304.670 144.407,305.707 144.558,306.077 144.608 C 306.447 144.658,307.485 144.809,308.383 144.944 C 309.282 145.080,310.319 145.231,310.689 145.281 C 311.059 145.330,312.097 145.482,312.995 145.617 C 313.894 145.752,314.939 145.903,315.319 145.952 C 315.698 146.002,316.412 146.106,316.904 146.184 C 317.397 146.262,318.297 146.395,318.905 146.480 C 319.512 146.565,320.572 146.719,321.259 146.822 C 321.946 146.925,323.286 147.118,324.237 147.252 C 325.189 147.385,326.226 147.534,326.543 147.583 C 326.860 147.631,327.617 147.742,328.225 147.829 C 328.833 147.917,329.870 148.067,330.531 148.164 C 331.191 148.261,332.229 148.411,332.837 148.498 C 333.445 148.584,334.482 148.736,335.143 148.836 C 335.804 148.935,336.863 149.087,337.497 149.174 C 340.156 149.538,341.276 149.817,342.701 150.472 C 349.223 153.468,351.929 161.369,348.619 167.753 C 347.772 169.387,346.873 170.368,340.908 176.171 C 339.825 177.225,338.160 178.849,337.209 179.779 C 336.258 180.709,332.907 183.971,329.762 187.029 C 324.344 192.297,322.770 193.832,318.136 198.364 C 313.557 202.843,305.514 210.678,304.470 211.677 L 303.920 212.203 304.106 213.260 C 304.700 216.653,304.803 217.248,304.877 217.728 C 304.922 218.018,305.073 218.905,305.213 219.697 C 305.354 220.490,305.505 221.376,305.550 221.667 C 305.594 221.958,305.746 222.844,305.886 223.637 C 306.027 224.429,306.176 225.294,306.218 225.558 C 306.260 225.823,306.496 227.206,306.743 228.633 C 306.990 230.060,307.299 231.854,307.428 232.621 C 307.558 233.387,307.726 234.360,307.803 234.783 C 307.880 235.205,308.008 235.940,308.087 236.416 C 308.167 236.892,308.321 237.800,308.429 238.434 C 308.538 239.068,308.693 239.976,308.774 240.452 C 308.855 240.927,309.003 241.792,309.104 242.373 C 309.205 242.955,309.352 243.819,309.432 244.295 C 309.512 244.771,309.666 245.679,309.775 246.313 C 309.883 246.947,310.038 247.855,310.119 248.331 C 310.199 248.806,310.328 249.541,310.405 249.964 C 310.570 250.866,311.193 254.532,311.312 255.297 C 311.357 255.587,311.486 256.344,311.600 256.978 C 311.824 258.231,312.192 260.377,312.713 263.464 C 312.896 264.547,313.108 265.779,313.184 266.202 C 313.261 266.625,313.393 267.382,313.478 267.884 C 313.563 268.386,313.724 269.251,313.837 269.805 C 315.447 277.715,309.821 284.915,301.850 285.147 C 298.782 285.236,297.632 284.879,292.962 282.392 C 292.354 282.068,291.230 281.476,290.464 281.076 C 289.697 280.676,288.854 280.231,288.590 280.088 C 288.326 279.945,287.591 279.556,286.957 279.224 C 286.322 278.891,285.371 278.392,284.843 278.114 C 278.483 274.772,276.327 273.639,275.474 273.193 C 274.920 272.903,274.120 272.481,273.697 272.257 C 273.274 272.032,272.409 271.578,271.775 271.246 C 271.141 270.915,270.319 270.484,269.950 270.287 C 268.658 269.601,267.442 268.961,266.202 268.316 C 265.515 267.958,264.650 267.504,264.281 267.306 C 263.911 267.108,261.857 266.027,259.717 264.905 C 257.576 263.783,255.522 262.703,255.153 262.505 C 254.783 262.307,253.961 261.874,253.327 261.543 C 252.693 261.211,251.763 260.723,251.261 260.459 C 250.283 259.944,249.236 259.395,247.586 258.529 C 245.808 257.596,244.509 256.912,243.895 256.585 L 243.303 256.269 241.109 257.424 C 239.902 258.060,238.374 258.863,237.713 259.209 C 236.584 259.801,236.194 260.007,234.158 261.083 C 233.382 261.494,232.525 261.942,229.954 263.285 C 229.333 263.609,228.523 264.035,228.153 264.232 C 227.783 264.429,226.961 264.861,226.327 265.192 C 225.693 265.524,224.958 265.914,224.694 266.058 C 224.429 266.203,223.608 266.637,222.868 267.021 C 222.128 267.406,220.788 268.108,219.890 268.582 C 218.991 269.055,217.759 269.703,217.151 270.022 C 214.732 271.291,214.185 271.578,213.308 272.040 C 212.806 272.304,212.049 272.704,211.626 272.928 C 210.933 273.295,208.878 274.375,205.813 275.981 C 204.760 276.533,202.443 277.754,200.577 278.740 C 200.101 278.991,199.193 279.468,198.559 279.799 C 197.925 280.130,197.103 280.561,196.733 280.758 C 195.444 281.443,194.226 282.083,192.986 282.729 C 192.299 283.087,191.477 283.522,191.160 283.697 C 187.474 285.730,182.582 285.668,178.865 283.541 C 174.301 280.930,171.679 275.326,172.686 270.334 C 172.771 269.911,172.863 269.414,172.889 269.229 C 172.916 269.044,173.052 268.244,173.192 267.451 C 173.332 266.659,173.483 265.772,173.529 265.482 C 173.574 265.191,173.726 264.305,173.866 263.512 C 174.006 262.719,174.157 261.833,174.201 261.542 C 174.245 261.252,174.369 260.516,174.477 259.909 C 174.661 258.875,174.837 257.853,175.552 253.663 C 175.710 252.738,175.927 251.485,176.033 250.877 C 176.140 250.269,176.289 249.404,176.365 248.955 C 176.714 246.897,176.910 245.770,177.049 245.016 C 177.132 244.566,177.236 243.961,177.279 243.670 C 177.357 243.150,177.940 239.729,178.336 237.473 C 178.447 236.839,178.575 236.082,178.620 235.791 C 178.665 235.501,178.817 234.614,178.957 233.822 C 179.097 233.029,179.249 232.143,179.296 231.852 C 179.397 231.220,179.705 229.436,179.977 227.913 C 180.086 227.305,180.211 226.570,180.256 226.279 C 180.300 225.988,180.451 225.102,180.590 224.309 C 180.898 222.558,181.193 220.842,181.307 220.130 C 181.354 219.839,181.507 218.953,181.647 218.160 C 181.787 217.367,181.939 216.481,181.983 216.190 C 182.028 215.900,182.179 215.013,182.319 214.221 C 182.459 213.428,182.596 212.650,182.623 212.491 C 182.668 212.229,182.588 212.121,181.728 211.290 C 181.208 210.788,179.010 208.649,176.844 206.536 C 174.677 204.423,172.171 201.980,171.274 201.107 C 170.377 200.234,168.713 198.610,167.575 197.497 C 166.437 196.385,163.755 193.772,161.614 191.690 C 159.474 189.608,156.858 187.058,155.801 186.024 C 154.744 184.989,152.107 182.415,149.940 180.304 C 138.502 169.158,138.986 169.664,138.041 167.869 C 134.733 161.583,137.208 153.781,143.496 150.672 C 145.323 149.769,146.129 149.569,150.132 149.027 C 150.502 148.977,151.540 148.825,152.438 148.690 C 153.337 148.555,154.374 148.404,154.744 148.354 C 155.114 148.304,156.152 148.152,157.050 148.017 C 157.949 147.881,159.008 147.732,159.404 147.685 C 159.801 147.637,160.536 147.534,161.038 147.454 C 161.540 147.374,162.448 147.239,163.055 147.153 C 163.663 147.067,164.701 146.916,165.362 146.817 C 166.022 146.718,167.060 146.567,167.668 146.481 C 168.275 146.395,169.313 146.244,169.974 146.145 C 170.634 146.046,171.672 145.894,172.280 145.808 C 172.887 145.722,173.925 145.572,174.586 145.475 C 176.014 145.264,177.414 145.061,179.246 144.800 C 180.880 144.567,182.196 144.373,183.473 144.177 C 184.002 144.096,184.759 143.988,185.155 143.937 C 185.551 143.885,186.611 143.733,187.509 143.598 C 188.407 143.462,189.445 143.311,189.815 143.261 C 190.185 143.212,191.223 143.060,192.121 142.925 C 193.019 142.790,194.057 142.639,194.427 142.589 C 194.797 142.540,195.835 142.389,196.733 142.254 C 197.632 142.119,198.669 141.967,199.039 141.917 C 199.409 141.866,201.052 141.630,202.690 141.392 C 204.329 141.153,205.703 140.957,205.745 140.957 C 205.814 140.956,206.719 139.145,211.242 129.954 C 212.048 128.316,213.777 124.814,215.085 122.172 C 216.392 119.529,218.057 116.157,218.784 114.677 C 219.511 113.197,221.024 110.127,222.148 107.855 C 223.271 105.583,224.892 102.296,225.752 100.552 C 230.613 90.685,232.444 87.040,232.799 86.524 C 235.738 82.254,240.899 80.137,245.832 81.178 M241.359 126.021 C 240.291 128.185,238.737 131.338,237.905 133.029 C 237.073 134.720,235.560 137.790,234.543 139.851 C 233.526 141.912,231.948 145.112,231.036 146.961 C 224.603 160.011,224.721 159.794,223.262 161.277 C 221.014 163.561,218.728 164.612,214.797 165.169 C 214.004 165.281,213.090 165.414,212.765 165.465 C 212.440 165.515,211.856 165.598,211.468 165.648 C 211.079 165.699,210.026 165.852,209.128 165.987 C 208.230 166.122,207.192 166.273,206.822 166.323 C 206.452 166.373,205.414 166.524,204.516 166.659 C 203.618 166.795,202.580 166.946,202.210 166.996 C 201.840 167.045,200.802 167.197,199.904 167.332 C 199.006 167.467,197.989 167.616,197.646 167.662 C 196.685 167.791,193.036 168.317,191.641 168.527 C 190.954 168.630,189.894 168.785,189.287 168.870 C 188.679 168.955,187.641 169.106,186.981 169.205 C 186.320 169.304,185.282 169.455,184.675 169.541 C 184.067 169.627,183.029 169.778,182.368 169.877 C 181.708 169.975,180.713 170.121,180.159 170.201 C 177.261 170.618,176.315 170.779,176.408 170.836 C 176.465 170.872,177.278 171.656,178.215 172.580 C 179.152 173.505,183.334 177.585,187.509 181.648 C 191.684 185.711,195.900 189.819,196.877 190.778 C 197.855 191.736,199.649 193.487,200.865 194.669 C 206.618 200.263,207.136 200.889,208.071 203.373 C 209.077 206.045,209.113 207.801,208.259 212.491 C 208.182 212.914,207.992 214.016,207.836 214.941 C 207.110 219.251,206.864 220.694,206.778 221.139 C 206.727 221.403,206.616 222.030,206.533 222.532 C 206.449 223.034,206.297 223.920,206.194 224.502 C 205.943 225.924,205.420 228.999,205.327 229.594 C 205.286 229.858,205.138 230.723,204.998 231.516 C 204.857 232.308,204.706 233.195,204.661 233.485 C 204.616 233.776,204.465 234.663,204.325 235.455 C 204.184 236.248,204.033 237.134,203.988 237.425 C 203.944 237.716,203.793 238.602,203.654 239.395 C 203.515 240.187,203.276 241.571,203.123 242.469 C 202.600 245.551,202.252 247.563,202.118 248.282 C 202.044 248.679,201.967 249.113,201.946 249.248 C 201.906 249.506,202.078 249.422,207.399 246.607 C 207.927 246.327,208.878 245.827,209.512 245.496 C 210.147 245.165,210.968 244.732,211.338 244.534 C 212.133 244.108,217.219 241.440,219.073 240.476 C 219.786 240.105,220.500 239.727,220.658 239.635 C 220.817 239.544,221.509 239.176,222.196 238.818 C 222.883 238.460,223.791 237.984,224.213 237.761 C 224.636 237.538,225.458 237.106,226.039 236.801 C 226.620 236.496,227.485 236.042,227.961 235.791 C 229.197 235.139,232.397 233.458,233.582 232.837 C 234.695 232.255,236.117 231.507,237.250 230.908 C 240.539 229.171,244.012 228.900,247.533 230.105 C 248.208 230.336,251.632 232.070,255.441 234.110 C 256.329 234.586,257.717 235.316,259.092 236.031 C 260.442 236.734,261.720 237.405,262.935 238.050 C 263.358 238.274,265.001 239.139,266.587 239.971 C 268.172 240.803,269.772 241.646,270.142 241.843 C 270.512 242.041,271.376 242.495,272.063 242.853 C 272.750 243.211,273.615 243.665,273.985 243.862 C 274.355 244.060,275.177 244.492,275.811 244.823 C 277.070 245.481,278.363 246.161,279.558 246.795 C 279.981 247.019,280.802 247.451,281.384 247.755 C 281.965 248.058,282.929 248.566,283.527 248.882 C 284.124 249.198,284.625 249.441,284.640 249.422 C 284.654 249.403,284.588 248.933,284.491 248.379 C 284.395 247.824,284.278 247.132,284.230 246.841 C 284.183 246.551,283.942 245.145,283.694 243.718 C 283.447 242.292,283.207 240.886,283.163 240.596 C 283.118 240.305,282.989 239.548,282.877 238.914 C 282.764 238.280,282.584 237.264,282.476 236.656 C 282.368 236.049,282.244 235.313,282.199 235.023 C 282.155 234.732,282.003 233.846,281.863 233.053 C 281.723 232.260,281.573 231.374,281.530 231.083 C 281.487 230.793,281.384 230.187,281.302 229.738 C 281.219 229.289,281.087 228.532,281.007 228.057 C 280.928 227.581,280.774 226.673,280.665 226.039 C 280.556 225.405,280.401 224.497,280.320 224.021 C 280.240 223.546,280.087 222.659,279.980 222.051 C 279.720 220.568,279.561 219.641,279.319 218.208 C 279.208 217.547,279.033 216.531,278.932 215.950 C 278.466 213.296,278.239 211.970,278.166 211.482 C 278.123 211.191,278.014 210.568,277.925 210.097 C 277.127 205.880,278.615 201.555,281.977 198.319 C 283.139 197.200,289.716 190.790,291.932 188.616 C 292.927 187.640,293.784 186.815,293.836 186.782 C 293.888 186.750,294.870 185.795,296.017 184.661 C 297.599 183.095,307.002 173.933,309.906 171.126 L 310.276 170.769 308.849 170.558 C 305.268 170.029,303.174 169.723,301.850 169.535 C 301.268 169.452,300.252 169.304,299.592 169.205 C 298.931 169.106,297.893 168.955,297.286 168.869 C 296.678 168.783,295.640 168.631,294.980 168.532 C 294.319 168.433,293.281 168.282,292.674 168.196 C 292.066 168.111,291.179 167.979,290.704 167.904 C 290.228 167.829,289.342 167.700,288.734 167.618 C 287.020 167.384,285.921 167.226,283.065 166.805 C 281.612 166.591,280.120 166.374,279.750 166.324 C 279.380 166.274,278.343 166.122,277.444 165.987 C 276.546 165.852,275.508 165.700,275.138 165.650 C 274.768 165.601,273.730 165.449,272.832 165.314 C 271.934 165.179,270.918 165.031,270.574 164.985 C 267.713 164.605,264.871 163.048,262.859 160.759 C 261.762 159.511,261.585 159.187,257.889 151.669 C 257.109 150.084,255.532 146.884,254.383 144.559 C 253.235 142.234,251.506 138.732,250.541 136.776 C 249.577 134.821,247.890 131.405,246.792 129.186 C 245.695 126.966,244.461 124.461,244.049 123.619 L 243.300 122.088 241.359 126.021 M342.638 325.889 C 338.229 329.063,330.154 333.979,324.381 337.003 L 323.180 337.633 323.155 341.493 C 323.132 345.140,323.139 345.346,323.296 345.220 C 327.976 341.478,336.400 333.267,342.290 326.704 C 343.597 325.247,343.627 325.177,342.638 325.889 " stroke="none" fill="#000000" fill-rule="evenodd"></path></g></svg>