<svg id="svg" xmlns="http://www.w3.org/2000/svg" xmlns:xlink="http://www.w3.org/1999/xlink" width="400" height="400" viewBox="0, 0, 400,400"><g id="svgg"><path id="path0" d="M194.283 10.019 C 194.257 10.043,193.305 10.092,192.169 10.127 C 177.966 10.571,161.711 13.159,147.346 17.264 C 140.654 19.176,135.745 20.865,127.889 23.957 L 127.360 24.165 163.616 24.189 C 183.557 24.203,216.158 24.203,236.064 24.189 L 272.256 24.165 271.727 23.957 C 250.586 15.635,229.814 11.038,209.705 10.230 C 208.912 10.198,208.134 10.150,207.975 10.124 C 207.604 10.062,194.347 9.960,194.283 10.019 M295.556 35.682 C 295.556 35.699,295.682 36.077,295.836 36.522 C 296.178 37.507,296.452 38.566,296.680 39.779 C 296.844 40.649,296.854 44.040,296.901 111.458 L 296.949 182.224 297.921 183.618 C 316.122 209.719,331.110 240.405,336.967 263.563 C 340.740 278.479,340.836 288.115,337.305 297.478 C 337.116 297.980,334.306 307.406,331.060 318.424 C 327.815 329.443,324.707 339.993,324.154 341.868 C 323.600 343.744,323.160 345.292,323.176 345.307 C 323.191 345.323,324.258 344.412,325.546 343.282 C 362.403 310.967,385.262 266.256,389.713 217.776 C 390.292 211.469,390.437 207.958,390.437 200.240 C 390.437 192.522,390.292 189.012,389.713 182.705 C 384.123 121.816,349.482 67.411,296.397 36.146 C 295.934 35.874,295.556 35.665,295.556 35.682 M101.345 37.260 L 100.120 38.001 100.120 166.394 L 100.120 294.787 154.744 294.787 C 184.787 294.787,209.368 294.770,209.368 294.749 C 209.368 294.649,210.252 290.361,210.514 289.191 L 210.810 287.871 210.810 260.582 L 210.810 233.293 179.693 233.293 C 149.039 233.293,148.566 233.290,147.837 233.104 C 141.830 231.568,141.576 223.502,147.463 221.254 L 148.018 221.043 179.399 221.018 L 210.780 220.993 210.843 219.740 C 211.740 202.029,230.678 191.033,246.505 199.034 C 253.759 202.700,258.275 209.005,259.828 217.632 C 259.912 218.096,259.956 226.684,260.000 251.165 L 260.059 284.074 260.261 284.939 C 261.647 290.857,266.415 294.736,272.304 294.734 C 278.139 294.733,282.864 290.946,284.344 285.083 L 284.551 284.266 284.577 163.171 C 284.600 57.233,284.586 41.992,284.463 41.402 C 283.970 39.038,282.069 37.158,279.669 36.662 C 279.012 36.527,270.403 36.512,190.756 36.516 L 102.570 36.520 101.345 37.260 M85.117 48.226 C 41.943 80.808,14.803 129.333,9.902 182.705 C 9.326 188.986,9.179 192.522,9.178 200.192 C 9.166 253.269,30.539 302.544,69.424 339.089 C 97.706 365.668,134.162 383.145,172.715 388.605 C 177.866 389.335,183.948 389.945,188.134 390.151 C 188.741 390.181,189.390 390.224,189.575 390.246 C 191.952 390.534,206.437 390.501,210.822 390.199 C 211.528 390.150,212.176 390.109,212.261 390.107 C 212.391 390.104,212.364 389.974,212.099 389.311 C 211.292 387.288,209.634 381.478,208.747 377.564 C 206.783 368.891,205.759 361.167,205.120 350.180 C 204.952 347.304,204.953 333.893,205.121 330.819 C 205.581 322.387,206.644 311.037,207.314 307.399 L 207.372 307.086 150.503 307.083 C 89.518 307.079,92.916 307.106,91.682 306.615 C 90.023 305.954,88.689 304.504,88.093 302.714 L 87.869 302.042 87.821 174.132 L 87.773 46.221 85.117 48.226 M196.445 61.215 C 232.354 63.547,260.005 92.928,260.005 128.753 C 260.005 166.153,229.794 196.375,192.409 196.372 C 151.494 196.369,119.983 160.426,125.296 119.817 C 129.420 88.297,155.630 63.512,187.173 61.306 C 187.992 61.249,188.835 61.189,189.046 61.173 C 189.909 61.109,195.282 61.140,196.445 61.215 M190.757 73.549 C 179.452 75.632,169.335 96.891,167.995 121.379 L 167.928 122.604 177.070 122.604 L 186.212 122.604 186.212 106.986 C 186.212 89.497,186.169 90.587,186.911 89.070 C 189.080 84.633,195.637 84.635,197.825 89.074 C 198.550 90.545,198.507 89.422,198.509 106.918 L 198.511 122.604 207.652 122.604 L 216.794 122.604 216.729 121.427 C 216.389 115.285,215.297 108.270,213.732 102.173 C 212.700 98.149,212.652 97.762,213.013 96.350 C 214.412 90.882,221.859 90.039,224.418 95.060 C 226.125 98.409,229.066 115.774,229.066 122.504 C 229.066 122.572,231.946 122.604,238.194 122.604 L 247.322 122.604 247.321 122.388 C 247.321 122.269,247.234 121.588,247.128 120.874 C 243.380 95.647,223.387 76.437,198.030 73.700 C 195.370 73.413,191.888 73.341,190.757 73.549 M165.025 80.675 C 150.139 89.211,140.077 103.954,137.592 120.874 C 137.488 121.588,137.402 122.269,137.401 122.388 L 137.401 122.604 146.515 122.604 L 155.628 122.604 155.693 121.139 C 156.177 110.118,158.275 99.994,162.182 89.814 C 163.233 87.079,165.405 82.221,166.281 80.647 C 166.850 79.626,166.855 79.626,165.025 80.675 M137.401 135.071 C 137.403 135.461,137.817 138.053,138.128 139.611 C 143.203 165.071,165.684 183.789,191.545 184.086 C 198.682 184.168,205.208 177.856,210.212 166.031 C 213.759 157.647,216.767 143.603,216.767 135.421 L 216.767 134.903 207.639 134.903 L 198.511 134.903 198.509 150.589 C 198.507 168.084,198.550 166.962,197.825 168.433 C 195.636 172.874,189.096 172.872,186.904 168.430 C 186.172 166.947,186.212 167.985,186.212 150.508 L 186.212 134.903 177.084 134.903 L 167.956 134.903 167.956 135.215 C 167.958 139.867,169.553 150.033,171.291 156.474 C 172.139 159.618,172.033 161.107,170.831 162.903 C 168.283 166.714,162.420 166.447,160.341 162.427 C 159.210 160.238,157.158 150.461,156.340 143.358 C 156.078 141.082,155.657 135.920,155.657 134.980 C 155.657 134.938,151.549 134.903,146.529 134.903 C 137.899 134.903,137.401 134.912,137.401 135.071 M228.986 137.313 C 228.322 150.902,224.848 164.111,218.719 176.349 C 217.998 177.790,217.998 177.793,218.852 177.322 C 234.113 168.899,244.391 154.207,247.081 136.969 C 247.213 136.123,247.321 135.312,247.321 135.167 L 247.322 134.903 238.213 134.903 L 229.104 134.903 228.986 137.313 M296.877 244.984 C 296.847 289.764,296.918 285.402,296.169 288.446 C 292.777 302.225,278.290 310.256,264.713 305.882 C 255.891 303.040,249.520 295.512,247.965 286.092 L 247.759 284.843 247.705 252.030 C 247.646 215.806,247.705 219.035,247.072 217.103 C 243.455 206.058,227.450 206.010,223.785 217.034 C 223.101 219.092,223.168 215.362,223.111 254.528 L 223.060 289.743 222.705 291.232 C 221.138 297.808,219.382 308.888,218.455 318.040 C 216.058 341.707,217.283 363.048,222.007 379.942 L 222.269 380.879 241.078 380.879 L 259.886 380.879 261.891 380.198 C 272.265 376.677,283.219 371.757,293.490 366.006 C 297.386 363.825,306.400 358.229,306.638 357.844 C 306.688 357.764,308.230 352.539,318.470 317.752 C 322.149 305.253,325.349 294.507,325.580 293.871 C 328.357 286.233,328.272 279.534,325.244 267.307 C 321.608 252.624,314.499 235.683,304.185 217.124 C 301.473 212.245,297.222 205.039,297.014 204.970 C 296.931 204.942,296.897 214.815,296.877 244.984 M194.343 252.054 C 199.986 254.233,199.904 261.608,194.213 263.780 L 193.658 263.992 183.473 264.020 C 172.037 264.051,172.576 264.080,171.099 263.345 C 166.409 261.010,166.781 254.147,171.705 252.158 C 172.684 251.763,172.776 251.760,183.377 251.775 L 193.658 251.790 194.343 252.054 " stroke="none" fill="#000000" fill-rule="evenodd"></path></g></svg>