<svg id="svg" xmlns="http://www.w3.org/2000/svg" xmlns:xlink="http://www.w3.org/1999/xlink" width="400" height="400" viewBox="0, 0, 400,400"><g id="svgg"><path id="path0" d="M194.378 10.021 C 194.352 10.045,193.323 10.095,192.090 10.132 C 190.858 10.170,189.755 10.215,189.640 10.233 C 189.525 10.251,188.847 10.292,188.134 10.325 C 187.420 10.358,186.663 10.403,186.452 10.426 C 186.241 10.448,185.700 10.491,185.251 10.521 C 184.802 10.551,184.218 10.595,183.954 10.619 C 183.690 10.643,182.738 10.729,181.840 10.811 C 178.624 11.105,173.825 11.688,171.079 12.120 L 170.310 12.241 170.838 12.319 C 174.383 12.843,180.799 14.111,184.867 15.091 C 185.791 15.314,186.786 15.550,187.077 15.616 C 187.699 15.757,190.389 16.457,191.352 16.729 C 191.722 16.833,192.328 17.003,192.698 17.106 C 195.293 17.831,199.121 19.013,202.210 20.043 C 204.199 20.706,208.149 22.141,209.993 22.870 C 210.680 23.141,211.350 23.400,211.482 23.444 C 211.708 23.520,212.099 23.678,213.524 24.271 C 213.854 24.409,214.319 24.598,214.557 24.693 C 218.794 26.376,227.726 30.636,232.284 33.150 C 232.549 33.295,233.024 33.555,233.341 33.727 C 257.234 46.699,279.694 66.282,295.986 88.350 C 296.610 89.195,297.281 90.103,297.476 90.368 C 298.919 92.318,302.120 97.015,303.681 99.474 C 303.942 99.885,304.336 100.501,304.557 100.842 C 305.374 102.104,308.301 107.011,309.195 108.617 C 309.285 108.779,309.708 109.539,310.135 110.305 C 311.432 112.633,311.918 113.564,313.890 117.511 C 315.866 121.467,316.213 122.194,317.482 125.054 C 317.904 126.005,318.308 126.913,318.381 127.072 C 318.453 127.230,318.818 128.095,319.193 128.994 C 319.567 129.892,319.955 130.822,320.055 131.059 C 320.748 132.710,322.341 136.917,323.128 139.178 C 323.349 139.813,323.588 140.485,323.659 140.673 C 323.730 140.861,324.008 141.683,324.276 142.499 C 324.544 143.315,324.849 144.242,324.953 144.559 C 325.058 144.876,325.426 146.065,325.771 147.202 C 326.117 148.338,326.492 149.570,326.606 149.940 C 326.719 150.310,326.844 150.742,326.883 150.901 C 326.922 151.059,327.092 151.686,327.262 152.294 C 327.630 153.619,328.234 155.945,328.620 157.531 C 328.774 158.165,328.985 159.030,329.088 159.452 C 329.191 159.875,329.388 160.740,329.526 161.374 C 329.663 162.008,329.835 162.786,329.907 163.104 C 329.979 163.421,330.149 164.242,330.284 164.929 C 330.419 165.616,330.615 166.589,330.719 167.091 C 330.822 167.593,330.934 168.177,330.966 168.388 C 330.999 168.600,331.104 169.205,331.201 169.733 C 331.636 172.117,332.437 177.311,332.593 178.765 C 332.621 179.030,332.728 179.916,332.831 180.735 C 333.030 182.319,333.316 185.182,333.552 187.941 C 333.689 189.545,333.733 190.199,333.842 192.265 C 333.869 192.767,333.944 194.000,334.010 195.004 C 334.171 197.481,334.171 210.014,334.010 212.491 C 333.944 213.495,333.869 214.727,333.843 215.229 C 333.743 217.127,333.696 217.824,333.554 219.505 C 332.846 227.899,331.840 234.950,330.238 242.758 C 329.648 245.634,329.563 246.033,329.433 246.553 C 329.360 246.844,329.207 247.492,329.092 247.994 C 328.978 248.496,328.817 249.166,328.734 249.484 C 328.651 249.801,328.530 250.298,328.466 250.589 C 328.328 251.206,327.613 253.964,327.409 254.668 C 327.105 255.711,326.469 257.954,326.399 258.227 C 326.078 259.477,324.041 265.742,322.962 268.797 C 321.936 271.700,320.217 276.090,318.841 279.318 C 318.447 280.243,318.066 281.129,317.994 281.288 C 317.922 281.446,317.692 281.965,317.483 282.441 C 317.273 282.916,316.931 283.673,316.722 284.122 C 316.512 284.571,316.196 285.263,316.018 285.659 C 315.631 286.522,312.193 293.395,311.500 294.691 C 309.057 299.259,306.212 304.081,303.165 308.816 C 290.533 328.447,274.016 345.903,254.384 360.368 C 251.077 362.805,245.683 366.434,242.032 368.680 C 240.447 369.655,238.029 371.100,236.872 371.764 C 236.701 371.863,236.420 372.024,236.248 372.123 C 235.239 372.705,234.034 373.385,234.010 373.385 C 233.995 373.385,233.687 373.552,233.326 373.756 C 232.964 373.960,232.290 374.327,231.828 374.573 C 231.366 374.818,230.609 375.219,230.147 375.466 C 229.093 376.027,224.075 378.536,223.108 378.985 C 219.446 380.687,219.496 380.665,216.334 382.034 C 213.585 383.226,210.392 384.488,206.606 385.882 C 206.328 385.984,205.874 386.153,205.597 386.257 C 203.200 387.154,196.948 389.164,193.514 390.141 L 192.698 390.374 193.610 390.418 C 194.793 390.475,207.501 390.422,207.879 390.358 C 208.037 390.331,208.816 390.283,209.608 390.251 C 210.401 390.220,211.677 390.152,212.443 390.100 C 316.943 383.106,396.194 293.554,390.197 189.239 C 384.911 97.293,314.190 22.280,222.436 11.294 C 219.615 10.957,215.319 10.564,212.923 10.424 C 212.368 10.391,211.785 10.349,211.626 10.329 C 211.468 10.310,210.625 10.265,209.753 10.231 C 208.881 10.196,208.059 10.147,207.927 10.120 C 207.622 10.060,194.442 9.963,194.378 10.021 M135.960 63.441 C 135.933 63.466,135.155 63.515,134.230 63.551 C 126.310 63.858,118.142 64.903,110.497 66.589 C 109.995 66.700,109.282 66.855,108.912 66.935 C 108.542 67.014,107.915 67.160,107.519 67.259 C 107.122 67.359,106.366 67.548,105.837 67.680 C 104.457 68.025,103.427 68.295,102.866 68.460 C 102.598 68.539,101.989 68.716,101.513 68.853 C 98.815 69.631,95.190 70.796,93.270 71.502 C 92.836 71.662,92.373 71.828,92.241 71.871 C 92.109 71.914,91.590 72.108,91.088 72.301 C 90.586 72.495,90.067 72.688,89.935 72.731 C 89.803 72.774,88.787 73.179,87.677 73.631 C 66.947 82.070,49.029 94.920,34.071 112.076 C 31.634 114.872,27.682 119.905,25.768 122.652 C 24.497 124.476,20.053 136.063,17.587 143.983 C 1.770 194.788,8.469 252.023,35.478 296.833 C 37.514 300.209,49.539 311.181,57.987 317.369 C 66.933 323.922,77.682 329.856,88.206 334.052 C 92.736 335.858,97.681 337.561,101.513 338.634 C 101.989 338.767,102.638 338.949,102.955 339.038 C 104.210 339.390,108.013 340.354,108.816 340.523 C 109.027 340.568,109.719 340.717,110.353 340.856 C 117.216 342.351,125.013 343.443,131.348 343.795 C 147.430 344.689,162.158 343.214,176.916 339.231 C 177.220 339.149,177.695 339.022,177.973 338.949 C 179.357 338.583,183.202 337.390,185.443 336.631 C 187.457 335.949,187.544 335.918,189.719 335.087 C 190.512 334.784,191.312 334.481,191.497 334.415 C 191.681 334.348,192.373 334.069,193.034 333.795 C 193.694 333.521,194.444 333.214,194.699 333.112 C 200.053 330.986,208.828 326.409,214.941 322.553 C 230.876 312.502,244.562 299.448,255.484 283.882 C 255.900 283.289,258.284 279.700,259.059 278.501 C 262.118 273.766,266.290 265.946,268.723 260.389 C 268.804 260.204,268.948 259.880,269.043 259.669 C 269.468 258.720,270.163 257.043,270.734 255.585 C 271.835 252.771,271.870 252.678,272.406 251.189 C 272.516 250.885,272.685 250.420,272.784 250.156 C 273.006 249.556,274.012 246.508,274.368 245.352 C 274.827 243.863,275.070 243.053,275.118 242.854 C 275.144 242.748,275.299 242.203,275.463 241.643 C 276.011 239.776,276.691 237.074,277.304 234.326 C 277.408 233.864,277.576 233.107,277.680 232.645 C 277.879 231.748,278.216 230.003,278.538 228.201 C 281.717 210.371,281.288 190.675,277.341 173.288 C 276.952 171.575,276.238 168.629,276.049 167.956 C 275.953 167.612,275.671 166.596,275.423 165.698 C 275.175 164.799,274.918 163.891,274.852 163.680 C 274.786 163.469,274.611 162.907,274.464 162.431 C 273.842 160.430,272.825 157.435,271.853 154.744 C 271.777 154.533,271.476 153.755,271.184 153.015 C 270.892 152.275,270.543 151.388,270.409 151.045 C 270.275 150.701,270.089 150.247,269.996 150.036 C 269.904 149.825,269.691 149.327,269.523 148.931 C 259.919 126.253,243.928 105.959,223.973 91.121 C 218.530 87.073,213.925 84.144,206.390 79.934 C 204.647 78.960,197.556 75.544,195.724 74.796 C 195.434 74.677,194.763 74.398,194.235 74.175 C 189.413 72.142,182.676 69.805,177.901 68.508 C 167.820 65.771,158.525 64.228,148.595 63.642 C 146.316 63.508,136.062 63.344,135.960 63.441 M144.992 115.185 C 156.325 115.795,165.847 117.907,175.402 121.930 C 200.771 132.611,214.162 158.402,210.125 188.806 C 209.537 193.236,208.432 197.944,207.091 201.730 C 205.638 205.835,203.665 210.086,202.000 212.703 C 201.825 212.977,201.681 213.228,201.681 213.259 C 201.681 213.290,201.600 213.433,201.500 213.576 C 201.401 213.719,200.919 214.442,200.430 215.181 C 196.264 221.482,190.152 227.465,183.642 231.614 C 183.313 231.824,183.042 232.032,183.042 232.076 C 183.041 232.144,183.869 233.294,186.165 236.416 C 186.437 236.786,187.431 238.148,188.373 239.443 C 189.316 240.737,190.311 242.099,190.584 242.469 C 191.302 243.441,194.079 247.248,194.475 247.802 C 194.660 248.061,195.546 249.278,196.445 250.505 C 198.018 252.655,199.692 254.947,203.707 260.452 C 204.742 261.871,206.489 264.264,207.591 265.770 C 208.692 267.276,210.255 269.416,211.065 270.526 C 212.518 272.518,214.970 275.874,217.904 279.888 C 218.732 281.020,219.604 282.217,219.841 282.548 C 220.079 282.879,220.948 284.071,221.771 285.197 C 226.080 291.090,226.952 292.291,226.952 292.336 C 226.952 292.363,216.447 292.385,203.608 292.385 L 180.264 292.385 179.971 291.960 C 179.810 291.725,179.050 290.677,178.282 289.630 C 176.808 287.618,174.993 285.134,174.338 284.230 C 173.307 282.810,172.668 281.934,170.934 279.562 C 169.904 278.153,168.909 276.789,168.724 276.533 C 168.360 276.027,166.849 273.956,163.817 269.805 C 160.040 264.636,157.910 261.718,157.579 261.259 C 157.394 261.003,156.963 260.410,156.621 259.943 C 153.892 256.209,151.830 253.384,150.036 250.925 C 148.880 249.339,147.694 247.715,147.400 247.314 C 147.106 246.914,146.260 245.755,145.520 244.739 C 144.272 243.025,144.157 242.896,143.935 242.956 C 143.803 242.992,136.376 243.041,127.432 243.065 L 111.170 243.109 111.170 267.747 L 111.170 292.385 92.337 292.385 L 73.505 292.385 73.505 203.695 L 73.505 115.005 108.359 115.047 C 129.663 115.073,143.905 115.126,144.992 115.185 M111.170 179.052 L 111.170 205.338 127.576 205.308 C 143.631 205.278,144.025 205.273,145.952 205.068 C 150.028 204.637,153.616 203.912,156.502 202.938 C 158.071 202.408,159.107 201.980,160.464 201.302 C 168.055 197.508,172.251 191.232,172.948 182.627 C 173.097 180.797,173.071 175.850,172.905 174.249 C 171.662 162.289,163.539 155.371,148.308 153.299 C 144.953 152.843,144.917 152.842,127.576 152.803 L 111.170 152.766 111.170 179.052 " stroke="none" fill="#000000" fill-rule="evenodd"></path></g></svg>