<svg id="svg" xmlns="http://www.w3.org/2000/svg" xmlns:xlink="http://www.w3.org/1999/xlink" width="400" height="400" viewBox="0, 0, 400,400"><g id="svgg"><path id="path0" d="M209.062 11.098 C 209.045 11.114,208.571 11.152,208.007 11.183 C 207.041 11.236,206.474 11.284,205.573 11.391 C 205.362 11.417,204.929 11.461,204.612 11.491 C 204.295 11.520,203.927 11.564,203.795 11.589 C 203.509 11.643,203.118 11.705,202.594 11.779 C 201.506 11.933,200.966 12.019,200.817 12.060 C 200.737 12.082,200.521 12.124,200.336 12.155 C 200.151 12.185,199.935 12.228,199.856 12.251 C 199.777 12.273,199.560 12.317,199.375 12.348 C 199.190 12.378,198.866 12.449,198.655 12.506 C 198.443 12.562,198.162 12.627,198.030 12.650 C 197.898 12.672,197.470 12.780,197.080 12.888 C 196.689 12.996,196.257 13.105,196.119 13.129 C 195.470 13.242,190.882 14.747,190.656 14.920 C 190.590 14.971,190.536 14.981,190.536 14.941 C 190.536 14.902,190.482 14.912,190.416 14.965 C 190.350 15.017,190.123 15.115,189.911 15.183 C 189.700 15.250,189.255 15.429,188.924 15.580 C 188.592 15.730,188.294 15.854,188.261 15.854 C 188.227 15.854,187.980 15.957,187.710 16.083 C 187.441 16.209,187.005 16.408,186.740 16.525 C 185.714 16.979,183.854 17.915,183.787 18.011 C 183.748 18.066,183.716 18.079,183.715 18.039 C 183.714 17.998,183.542 18.074,183.331 18.207 C 183.121 18.340,182.919 18.448,182.884 18.448 C 182.848 18.448,182.246 18.794,181.546 19.217 C 180.846 19.640,180.226 19.986,180.168 19.986 C 180.110 19.986,180.062 20.024,180.062 20.070 C 180.062 20.117,179.987 20.182,179.894 20.215 C 179.802 20.248,179.419 20.480,179.043 20.730 C 178.667 20.981,178.104 21.355,177.793 21.560 C 177.482 21.765,177.206 21.961,177.180 21.994 C 177.153 22.028,177.002 22.137,176.844 22.237 C 176.588 22.398,174.914 23.628,174.613 23.877 C 174.549 23.930,174.441 24.016,174.373 24.069 C 174.136 24.253,173.192 25.028,173.144 25.077 C 173.118 25.104,172.902 25.285,172.664 25.480 C 170.755 27.041,167.611 30.147,166.261 31.804 C 166.110 31.989,165.887 32.248,165.764 32.380 C 165.642 32.513,165.339 32.875,165.091 33.185 C 164.844 33.495,164.445 33.992,164.206 34.290 C 163.967 34.587,163.600 35.068,163.391 35.359 C 163.181 35.650,162.930 35.974,162.833 36.080 C 162.735 36.185,162.588 36.402,162.506 36.560 C 162.423 36.719,162.243 36.985,162.105 37.152 C 161.967 37.318,161.643 37.794,161.384 38.209 C 161.125 38.623,160.802 39.135,160.666 39.347 C 160.530 39.558,160.336 39.882,160.236 40.067 C 160.135 40.252,160.020 40.425,159.980 40.452 C 159.939 40.478,159.834 40.651,159.745 40.836 C 159.512 41.321,159.146 41.981,159.036 42.114 C 158.869 42.317,157.483 45.091,157.483 45.224 C 157.483 45.294,157.442 45.352,157.393 45.352 C 157.344 45.352,157.274 45.449,157.237 45.568 C 157.201 45.687,157.025 46.099,156.846 46.483 C 156.668 46.867,156.522 47.221,156.522 47.268 C 156.522 47.315,156.460 47.477,156.383 47.626 C 156.307 47.776,156.175 48.071,156.089 48.282 C 156.003 48.494,155.895 48.753,155.850 48.859 C 155.805 48.965,155.693 49.267,155.601 49.532 C 155.508 49.796,155.397 50.053,155.353 50.103 C 155.309 50.153,155.273 50.285,155.273 50.396 C 155.273 50.507,155.233 50.639,155.185 50.689 C 155.054 50.825,154.120 53.698,154.120 53.964 C 154.120 54.089,154.081 54.192,154.034 54.192 C 153.987 54.192,153.926 54.332,153.898 54.504 C 153.870 54.676,153.774 55.076,153.685 55.393 C 153.596 55.710,153.427 56.380,153.310 56.882 C 153.193 57.384,153.071 57.860,153.039 57.939 C 152.954 58.150,152.478 60.682,152.433 61.163 C 152.412 61.390,152.352 61.765,152.300 61.996 C 152.248 62.228,152.177 62.696,152.143 63.037 C 152.066 63.800,152.052 63.920,151.972 64.521 C 151.909 65.000,151.891 65.198,151.751 67.019 C 151.607 68.876,151.679 75.236,151.854 76.156 C 151.873 76.257,151.918 76.685,151.953 77.108 C 152.013 77.808,152.236 79.520,152.329 79.990 C 152.350 80.096,152.399 80.420,152.438 80.711 C 152.477 81.002,152.527 81.326,152.550 81.432 C 152.573 81.537,152.614 81.732,152.641 81.864 C 152.668 81.996,152.778 82.515,152.887 83.017 C 152.995 83.519,153.103 84.038,153.126 84.170 C 153.149 84.302,153.214 84.583,153.269 84.794 C 153.325 85.005,153.385 85.243,153.403 85.323 C 153.477 85.659,153.825 86.952,153.985 87.485 C 154.080 87.802,154.163 88.083,154.170 88.110 C 154.176 88.136,154.263 88.417,154.362 88.734 C 154.461 89.051,154.548 89.332,154.555 89.359 C 154.563 89.385,154.601 89.479,154.640 89.567 C 154.679 89.656,154.720 89.785,154.730 89.856 C 154.741 89.926,154.775 90.026,154.806 90.079 C 154.837 90.132,154.960 90.478,155.079 90.848 C 155.198 91.218,155.352 91.650,155.420 91.809 C 155.602 92.232,156.041 93.372,156.041 93.421 C 156.041 93.445,156.179 93.762,156.348 94.126 C 156.517 94.490,156.661 94.809,156.669 94.835 C 156.704 94.958,156.876 95.344,157.303 96.254 C 157.557 96.797,157.759 97.251,157.751 97.263 C 157.744 97.275,157.854 97.469,157.996 97.694 C 158.138 97.919,158.234 98.102,158.209 98.102 C 158.185 98.102,158.330 98.394,158.531 98.751 C 158.732 99.108,159.062 99.702,159.263 100.072 C 160.179 101.757,162.031 104.649,163.140 106.125 C 163.458 106.548,163.870 107.113,164.057 107.381 C 164.243 107.649,164.602 108.106,164.855 108.398 C 165.107 108.690,165.702 109.401,166.177 109.977 C 167.148 111.155,171.281 115.322,172.380 116.230 C 172.774 116.556,173.334 117.021,173.625 117.264 C 176.057 119.293,179.856 121.903,182.224 123.173 C 182.436 123.286,182.998 123.590,183.473 123.847 C 184.573 124.443,185.879 125.098,186.740 125.487 C 187.930 126.024,188.172 126.130,188.710 126.344 C 189.001 126.459,189.325 126.589,189.431 126.633 C 189.536 126.677,189.817 126.788,190.055 126.880 C 190.293 126.972,190.574 127.081,190.680 127.124 C 191.480 127.444,193.689 128.188,194.667 128.468 C 195.064 128.581,195.518 128.711,195.676 128.757 C 196.475 128.988,197.609 129.270,198.559 129.473 C 199.140 129.598,199.767 129.746,199.952 129.804 C 200.137 129.861,200.520 129.931,200.803 129.959 C 201.086 129.987,201.626 130.075,202.004 130.155 C 202.617 130.286,203.468 130.410,204.612 130.535 C 204.823 130.558,205.104 130.598,205.237 130.623 C 205.369 130.649,205.801 130.697,206.197 130.732 C 206.594 130.766,207.048 130.806,207.206 130.822 C 210.218 131.110,215.851 131.018,218.736 130.633 C 218.895 130.612,219.292 130.568,219.618 130.535 C 219.944 130.502,220.294 130.459,220.396 130.439 C 220.498 130.419,220.815 130.374,221.100 130.338 C 221.385 130.301,221.642 130.258,221.669 130.241 C 221.697 130.224,221.913 130.183,222.150 130.149 C 222.838 130.050,223.146 129.998,223.301 129.954 C 223.380 129.932,223.596 129.888,223.781 129.858 C 223.966 129.827,224.269 129.762,224.454 129.714 C 224.638 129.666,224.941 129.602,225.126 129.571 C 225.311 129.541,225.592 129.475,225.751 129.426 C 225.909 129.376,226.169 129.314,226.328 129.288 C 226.487 129.261,227.092 129.103,227.673 128.936 C 228.254 128.770,228.794 128.620,228.873 128.605 C 228.953 128.589,229.018 128.569,229.018 128.561 C 229.018 128.553,229.082 128.533,229.162 128.517 C 229.586 128.429,230.475 128.141,230.579 128.057 C 230.645 128.004,230.699 127.993,230.699 128.033 C 230.699 128.072,230.764 128.050,230.843 127.985 C 230.922 127.919,230.987 127.897,230.987 127.937 C 230.987 127.976,231.052 127.954,231.131 127.889 C 231.211 127.823,231.276 127.801,231.276 127.840 C 231.276 127.880,231.340 127.858,231.420 127.792 C 231.499 127.727,231.564 127.705,231.564 127.744 C 231.564 127.784,231.629 127.762,231.708 127.696 C 231.787 127.631,231.852 127.609,231.852 127.648 C 231.852 127.688,231.917 127.666,231.996 127.600 C 232.075 127.535,232.140 127.513,232.140 127.552 C 232.140 127.592,232.205 127.570,232.284 127.504 C 232.364 127.438,232.429 127.417,232.429 127.456 C 232.429 127.496,232.483 127.485,232.549 127.432 C 232.615 127.380,232.842 127.281,233.053 127.213 C 233.264 127.145,233.589 127.023,233.774 126.942 C 233.959 126.861,234.132 126.789,234.158 126.781 C 234.299 126.740,236.167 125.962,236.848 125.661 C 237.690 125.289,240.174 124.043,240.908 123.624 C 241.318 123.390,241.653 123.214,241.653 123.232 C 241.653 123.395,247.352 119.678,247.881 119.171 C 247.951 119.104,248.037 119.048,248.073 119.047 C 248.109 119.045,248.305 118.894,248.509 118.710 C 248.713 118.527,248.908 118.376,248.942 118.376 C 248.975 118.376,249.117 118.279,249.257 118.160 C 249.396 118.041,249.676 117.814,249.879 117.656 C 250.204 117.402,250.819 116.879,251.123 116.599 C 251.180 116.546,251.436 116.330,251.690 116.118 C 252.679 115.298,253.090 114.915,254.576 113.428 C 256.120 111.884,256.624 111.348,257.603 110.213 C 257.893 109.876,258.252 109.467,258.400 109.304 C 258.548 109.141,258.804 108.813,258.970 108.576 C 259.136 108.338,259.343 108.078,259.430 107.999 C 259.517 107.920,259.821 107.531,260.105 107.134 C 260.389 106.738,260.649 106.392,260.682 106.366 C 260.830 106.248,262.511 103.761,262.816 103.209 C 262.914 103.032,263.078 102.797,263.180 102.688 C 263.282 102.578,263.393 102.399,263.426 102.289 C 263.459 102.180,263.546 102.022,263.618 101.940 C 263.690 101.858,263.847 101.613,263.967 101.397 C 265.159 99.247,265.544 98.522,266.183 97.220 C 266.590 96.391,266.923 95.688,266.923 95.659 C 266.923 95.629,267.046 95.334,267.196 95.004 C 267.346 94.673,267.546 94.209,267.641 93.971 C 267.735 93.733,267.867 93.409,267.934 93.250 C 268.181 92.666,268.257 92.471,268.421 92.001 C 268.513 91.737,268.624 91.479,268.668 91.429 C 268.712 91.379,268.748 91.241,268.748 91.123 C 268.748 91.004,268.792 90.881,268.845 90.848 C 268.897 90.815,268.941 90.686,268.941 90.560 C 268.941 90.434,268.984 90.304,269.037 90.271 C 269.090 90.239,269.133 90.109,269.133 89.983 C 269.133 89.857,269.176 89.728,269.229 89.695 C 269.282 89.662,269.325 89.533,269.325 89.407 C 269.325 89.281,269.368 89.151,269.421 89.118 C 269.474 89.086,269.517 88.932,269.517 88.776 C 269.517 88.621,269.556 88.494,269.603 88.494 C 269.650 88.494,269.710 88.353,269.738 88.182 C 269.800 87.784,269.989 87.062,270.096 86.812 C 270.187 86.601,270.244 86.362,270.732 84.170 C 270.914 83.351,271.082 82.533,271.104 82.353 C 271.127 82.172,271.232 81.588,271.337 81.055 C 271.443 80.522,271.552 79.892,271.579 79.654 C 271.606 79.416,271.673 78.876,271.728 78.453 C 271.783 78.030,271.848 77.468,271.873 77.204 C 271.897 76.940,271.939 76.529,271.965 76.291 C 272.209 74.059,272.212 67.896,271.971 65.962 C 271.951 65.804,271.909 65.391,271.877 65.046 C 271.846 64.700,271.800 64.315,271.776 64.189 C 271.752 64.063,271.707 63.740,271.677 63.471 C 271.646 63.203,271.601 62.854,271.576 62.695 C 271.552 62.537,271.515 62.277,271.494 62.119 C 271.474 61.960,271.410 61.560,271.351 61.230 C 271.292 60.900,271.228 60.532,271.207 60.413 C 271.072 59.625,271.021 59.370,270.906 58.900 C 270.834 58.609,270.753 58.242,270.725 58.083 C 270.504 56.820,268.896 51.415,268.410 50.300 C 268.340 50.142,268.133 49.623,267.949 49.147 C 267.579 48.193,267.059 46.984,266.607 46.025 C 266.445 45.681,266.307 45.378,266.301 45.352 C 266.261 45.195,264.638 42.098,264.509 41.932 C 264.464 41.875,264.292 41.576,264.128 41.268 C 263.210 39.548,261.130 36.459,259.457 34.332 C 257.618 31.994,256.897 31.184,254.581 28.862 C 251.487 25.759,248.840 23.541,245.937 21.619 C 245.410 21.270,244.876 20.915,244.404 20.601 C 243.602 20.067,242.402 19.354,240.773 18.444 C 240.082 18.058,237.951 17.002,236.800 16.476 C 236.004 16.112,235.964 16.094,235.167 15.758 C 234.389 15.430,234.107 15.317,233.245 14.989 C 233.140 14.949,232.880 14.849,232.669 14.766 C 232.457 14.684,232.111 14.565,231.900 14.503 C 231.689 14.440,231.441 14.351,231.349 14.305 C 231.257 14.258,231.098 14.221,230.994 14.221 C 230.891 14.221,230.780 14.177,230.747 14.124 C 230.714 14.072,230.585 14.028,230.459 14.028 C 230.333 14.028,230.203 13.985,230.171 13.932 C 230.138 13.879,230.027 13.836,229.923 13.836 C 229.820 13.836,229.660 13.797,229.569 13.749 C 229.348 13.633,228.407 13.356,228.237 13.356 C 228.163 13.356,228.027 13.314,227.935 13.264 C 227.844 13.213,227.552 13.124,227.288 13.066 C 227.024 13.008,226.462 12.877,226.039 12.775 C 224.309 12.359,222.158 11.923,221.587 11.873 C 221.252 11.844,220.946 11.800,220.907 11.776 C 220.868 11.752,220.450 11.681,219.979 11.618 C 218.662 11.443,218.812 11.459,216.959 11.293 C 216.615 11.262,216.140 11.215,215.902 11.188 C 215.429 11.135,209.111 11.052,209.062 11.098 M165.842 12.976 C 155.192 14.901,144.879 17.680,134.518 21.418 L 132.356 22.198 134.408 24.282 C 135.536 25.428,136.864 26.865,137.358 27.475 C 137.852 28.086,138.355 28.699,138.477 28.838 C 139.342 29.828,142.306 34.189,143.021 35.524 C 143.157 35.777,143.378 36.178,143.514 36.416 C 143.873 37.046,145.197 39.554,145.238 39.683 C 145.247 39.709,145.312 39.870,145.383 40.041 L 145.512 40.351 145.969 39.407 C 146.221 38.889,146.472 38.360,146.527 38.233 C 146.583 38.106,146.749 37.785,146.896 37.521 C 147.043 37.257,147.360 36.673,147.601 36.224 C 148.164 35.171,148.783 34.092,149.172 33.485 C 149.342 33.221,149.497 32.962,149.518 32.909 C 149.561 32.798,150.511 31.335,151.032 30.575 C 151.224 30.295,151.426 29.987,151.480 29.891 C 151.534 29.795,151.754 29.483,151.969 29.198 C 152.184 28.914,152.486 28.500,152.639 28.278 C 153.025 27.721,154.246 26.118,154.418 25.943 C 154.495 25.864,154.687 25.627,154.844 25.416 C 155.219 24.912,155.369 24.727,155.657 24.411 C 155.981 24.055,156.486 23.477,156.970 22.907 C 157.687 22.063,157.776 21.964,158.489 21.235 C 160.242 19.439,162.858 16.942,163.873 16.094 C 164.190 15.830,164.470 15.589,164.497 15.559 C 164.523 15.528,164.785 15.312,165.080 15.078 C 165.374 14.844,165.938 14.393,166.334 14.076 C 166.729 13.759,167.174 13.413,167.322 13.308 C 168.513 12.457,168.604 12.477,165.842 12.976 M266.757 23.086 C 268.047 24.554,269.409 26.218,270.392 27.528 C 271.238 28.657,272.926 31.053,273.235 31.565 C 273.299 31.670,273.498 31.994,273.678 32.284 C 274.601 33.774,275.385 35.078,275.642 35.551 C 275.800 35.842,276.019 36.231,276.129 36.416 C 276.460 36.974,278.409 40.922,278.785 41.797 C 278.978 42.246,279.174 42.684,279.221 42.771 C 279.267 42.857,279.518 43.462,279.777 44.116 C 280.036 44.769,280.283 45.390,280.326 45.496 C 280.368 45.602,280.420 45.771,280.439 45.873 C 280.459 45.974,280.511 46.104,280.556 46.161 C 280.601 46.218,280.906 47.086,281.234 48.090 C 281.563 49.094,281.856 49.981,281.886 50.060 C 281.916 50.139,281.951 50.247,281.963 50.300 C 281.976 50.353,282.170 51.023,282.396 51.790 C 282.622 52.556,282.818 53.269,282.832 53.375 C 282.845 53.481,282.926 53.827,283.011 54.144 C 283.096 54.461,283.188 54.850,283.215 55.008 C 283.243 55.167,283.305 55.448,283.353 55.633 C 283.402 55.818,283.466 56.117,283.497 56.297 C 283.528 56.478,283.569 56.651,283.587 56.682 C 283.606 56.713,283.650 56.951,283.684 57.212 C 283.719 57.472,283.765 57.713,283.785 57.746 C 283.806 57.779,283.892 58.236,283.976 58.762 C 284.060 59.287,284.147 59.822,284.170 59.952 C 284.223 60.249,284.478 62.060,284.557 62.695 C 284.668 63.600,284.684 63.753,284.749 64.569 C 284.784 65.018,284.830 65.515,284.850 65.674 C 285.093 67.549,285.088 73.825,284.842 76.772 C 284.755 77.806,284.695 78.459,284.645 78.885 C 284.617 79.123,284.578 79.469,284.558 79.654 C 284.456 80.577,284.301 81.712,284.269 81.764 C 284.249 81.796,284.207 82.080,284.175 82.396 C 284.050 83.629,282.984 88.559,282.433 90.451 C 282.358 90.708,282.296 90.997,282.296 91.094 C 282.296 91.190,282.253 91.296,282.200 91.328 C 282.147 91.361,282.104 91.458,282.104 91.545 C 282.104 91.729,281.646 93.271,281.519 93.513 C 281.471 93.605,281.432 93.764,281.432 93.868 C 281.432 93.971,281.388 94.082,281.336 94.115 C 281.283 94.147,281.239 94.259,281.239 94.362 C 281.239 94.465,281.200 94.625,281.152 94.717 C 281.104 94.808,280.992 95.100,280.904 95.364 C 280.816 95.628,280.698 95.952,280.643 96.085 C 280.485 96.457,280.410 96.654,280.129 97.430 C 279.985 97.826,279.785 98.345,279.684 98.583 C 279.582 98.821,279.454 99.123,279.399 99.255 C 279.343 99.387,279.240 99.625,279.169 99.784 C 279.099 99.942,278.949 100.288,278.836 100.552 C 278.365 101.656,277.228 103.983,276.630 105.068 C 276.368 105.544,276.063 106.106,275.952 106.318 C 275.556 107.073,275.315 107.491,275.108 107.782 C 274.992 107.944,274.898 108.116,274.898 108.165 C 274.898 108.213,274.769 108.423,274.612 108.630 C 274.455 108.838,274.326 109.044,274.324 109.089 C 274.323 109.134,274.224 109.306,274.105 109.472 C 273.844 109.836,273.688 110.093,273.563 110.368 C 273.511 110.482,273.425 110.601,273.372 110.634 C 273.320 110.667,273.142 110.920,272.977 111.196 C 272.812 111.472,272.444 112.023,272.158 112.419 C 271.872 112.815,271.478 113.377,271.283 113.668 C 271.088 113.959,270.816 114.331,270.679 114.495 C 270.373 114.862,270.222 115.053,269.855 115.544 C 269.566 115.929,269.358 116.191,269.181 116.393 C 269.128 116.453,268.914 116.719,268.705 116.983 C 268.399 117.369,267.629 118.270,266.971 119.010 C 266.918 119.070,266.639 119.395,266.351 119.732 C 265.060 121.243,261.263 124.864,258.754 126.976 C 257.741 127.828,257.752 127.819,257.122 128.286 C 256.538 128.718,256.000 129.134,255.835 129.282 C 255.776 129.335,255.472 129.550,255.160 129.761 C 254.848 129.971,254.545 130.191,254.486 130.250 C 254.428 130.309,254.189 130.477,253.957 130.624 C 253.724 130.770,253.488 130.930,253.431 130.979 C 253.080 131.279,248.183 134.326,248.052 134.326 C 248.018 134.326,247.814 134.437,247.599 134.573 C 247.174 134.841,244.292 136.361,244.151 136.391 C 244.124 136.397,243.757 136.570,243.334 136.775 C 242.911 136.980,242.544 137.155,242.517 137.162 C 242.441 137.185,241.536 137.586,241.220 137.738 C 241.062 137.815,240.971 137.878,241.019 137.879 C 241.300 137.886,284.969 146.459,285.106 146.534 C 285.197 146.584,285.357 146.625,285.460 146.625 C 285.564 146.625,285.675 146.668,285.707 146.721 C 285.740 146.774,285.851 146.817,285.955 146.817 C 286.058 146.817,286.217 146.856,286.309 146.903 C 286.401 146.951,286.671 147.064,286.908 147.156 C 290.292 148.455,293.605 150.973,295.757 153.879 C 296.148 154.408,296.511 154.872,296.565 154.911 C 296.618 154.950,296.627 154.982,296.584 154.983 C 296.542 154.984,296.634 155.168,296.789 155.393 C 296.943 155.617,297.243 156.132,297.454 156.536 C 297.666 156.941,297.876 157.330,297.921 157.401 C 297.966 157.472,298.008 157.552,298.013 157.579 C 298.026 157.647,298.211 158.088,298.426 158.564 C 298.671 159.107,299.046 160.314,299.294 161.357 C 299.505 162.247,299.544 162.447,299.639 163.152 C 299.671 163.389,299.719 163.658,299.746 163.749 C 299.839 164.063,299.859 167.239,299.772 167.908 C 299.724 168.278,299.666 168.753,299.643 168.965 C 299.621 169.176,299.403 170.365,299.160 171.607 C 298.713 173.889,298.160 176.709,297.290 181.143 C 297.028 182.478,296.641 184.456,296.430 185.539 C 296.219 186.623,295.847 188.525,295.604 189.767 C 295.361 191.009,294.993 192.890,294.787 193.947 C 294.581 195.004,294.213 196.884,293.970 198.126 C 293.726 199.368,293.419 200.946,293.287 201.633 C 293.155 202.320,293.025 202.956,292.999 203.046 C 292.955 203.198,295.016 202.599,295.700 202.261 C 295.806 202.208,296.584 201.927,297.430 201.635 C 298.275 201.343,299.032 201.076,299.111 201.041 C 299.190 201.006,299.288 200.968,299.327 200.957 C 299.367 200.946,299.421 200.926,299.448 200.913 C 299.474 200.900,299.539 200.878,299.592 200.865 C 299.644 200.852,299.709 200.830,299.736 200.817 C 299.762 200.804,299.827 200.782,299.880 200.769 C 299.933 200.755,299.998 200.734,300.024 200.721 C 300.050 200.707,300.104 200.687,300.144 200.676 C 300.184 200.665,300.281 200.628,300.360 200.595 C 300.440 200.561,301.239 200.278,302.138 199.966 C 304.222 199.242,306.516 198.429,306.702 198.349 C 306.781 198.315,306.878 198.278,306.918 198.267 C 306.958 198.256,307.012 198.236,307.038 198.222 C 307.065 198.209,307.129 198.188,307.182 198.174 C 307.235 198.161,307.300 198.140,307.326 198.126 C 307.353 198.113,307.418 198.092,307.471 198.078 C 307.523 198.065,307.588 198.043,307.615 198.030 C 307.641 198.017,307.695 197.997,307.735 197.986 C 307.774 197.975,307.872 197.938,307.951 197.904 C 308.030 197.871,308.895 197.564,309.873 197.223 C 312.591 196.275,314.421 195.629,314.581 195.562 C 314.660 195.528,314.757 195.491,314.797 195.480 C 314.837 195.469,314.891 195.449,314.917 195.436 C 314.944 195.423,315.008 195.401,315.061 195.388 C 315.114 195.375,315.179 195.353,315.205 195.340 C 315.232 195.327,315.286 195.307,315.325 195.296 C 315.365 195.284,315.462 195.248,315.542 195.214 C 315.621 195.181,316.507 194.870,317.511 194.524 C 318.515 194.179,319.467 193.837,319.625 193.765 C 319.784 193.693,320.540 193.428,321.307 193.177 C 322.073 192.925,322.761 192.672,322.835 192.613 C 322.909 192.554,322.996 192.511,323.027 192.517 C 323.059 192.524,323.128 192.514,323.180 192.496 C 324.760 191.953,326.385 191.385,326.495 191.337 C 326.575 191.303,326.697 191.264,326.767 191.249 C 326.837 191.235,326.967 191.191,327.055 191.152 C 327.144 191.113,327.248 191.072,327.288 191.060 C 327.328 191.049,327.382 191.029,327.408 191.016 C 327.435 191.003,327.489 190.983,327.528 190.972 C 327.568 190.961,327.665 190.923,327.744 190.888 C 327.824 190.853,328.451 190.632,329.138 190.396 C 330.563 189.908,333.870 188.737,334.086 188.644 C 334.165 188.610,334.263 188.573,334.302 188.562 C 334.342 188.551,334.396 188.531,334.422 188.518 C 334.449 188.505,334.514 188.483,334.566 188.470 C 334.619 188.457,334.684 188.435,334.711 188.422 C 334.737 188.409,334.802 188.387,334.855 188.374 C 334.908 188.361,334.972 188.339,334.999 188.326 C 335.025 188.313,335.079 188.293,335.119 188.281 C 335.159 188.270,335.256 188.232,335.335 188.197 C 335.414 188.162,336.041 187.943,336.728 187.710 C 337.901 187.311,341.360 186.083,341.677 185.952 C 341.756 185.919,341.853 185.883,341.893 185.872 C 341.933 185.861,341.987 185.841,342.013 185.828 C 342.039 185.814,342.104 185.793,342.157 185.779 C 342.210 185.766,342.275 185.745,342.301 185.731 C 342.328 185.718,342.393 185.697,342.445 185.683 C 342.498 185.670,342.563 185.649,342.589 185.635 C 342.616 185.622,342.670 185.602,342.710 185.591 C 342.749 185.580,342.847 185.543,342.926 185.509 C 343.074 185.446,345.960 184.431,348.355 183.601 C 349.094 183.344,349.765 183.106,349.844 183.072 C 349.923 183.038,350.020 183.000,350.060 182.989 C 350.100 182.978,350.154 182.958,350.180 182.945 C 350.207 182.932,350.261 182.912,350.300 182.901 C 350.340 182.889,350.437 182.853,350.516 182.819 C 350.596 182.786,351.417 182.497,352.342 182.178 C 353.267 181.859,354.067 181.582,354.120 181.563 C 354.172 181.544,354.241 181.533,354.273 181.540 C 354.305 181.546,354.391 181.504,354.465 181.445 C 354.539 181.386,355.227 181.132,355.993 180.880 C 356.760 180.629,357.516 180.366,357.675 180.295 C 357.833 180.224,358.655 179.926,359.500 179.633 C 360.346 179.340,361.103 179.072,361.182 179.037 C 361.261 179.003,361.358 178.965,361.398 178.954 C 361.438 178.943,361.492 178.923,361.518 178.909 C 361.545 178.896,361.609 178.875,361.662 178.861 C 361.715 178.848,361.780 178.827,361.806 178.813 C 361.833 178.800,361.887 178.780,361.926 178.769 C 361.966 178.758,362.063 178.720,362.143 178.685 C 362.222 178.650,362.979 178.387,363.824 178.101 C 364.670 177.815,365.718 177.448,366.154 177.286 C 366.590 177.123,366.947 177.016,366.947 177.049 C 366.947 177.081,367.012 177.054,367.091 176.988 C 367.170 176.922,367.235 176.892,367.235 176.921 C 367.235 176.950,367.372 176.935,367.538 176.887 C 367.705 176.840,368.019 176.776,368.235 176.745 C 368.451 176.715,368.693 176.671,368.773 176.648 C 370.393 176.183,374.192 176.602,376.505 177.501 C 377.030 177.705,378.811 178.636,379.006 178.808 C 379.111 178.902,379.457 179.154,379.774 179.368 C 381.454 180.505,383.774 183.451,384.520 185.395 C 384.642 185.712,384.776 186.058,384.818 186.164 C 384.989 186.590,385.112 186.942,385.152 187.125 C 385.176 187.230,385.287 187.728,385.399 188.230 C 385.658 189.390,385.736 192.254,385.535 193.226 C 385.464 193.570,385.233 194.737,385.022 195.820 C 384.810 196.904,384.247 199.779,383.772 202.210 C 383.296 204.641,382.536 208.532,382.083 210.858 C 381.630 213.183,381.218 215.280,381.168 215.518 C 381.117 215.755,380.683 217.961,380.205 220.418 C 379.726 222.875,379.143 225.859,378.911 227.048 C 378.678 228.237,378.137 231.004,377.709 233.197 C 377.281 235.390,376.870 237.487,376.796 237.857 C 376.722 238.227,376.268 240.540,375.788 242.998 C 374.295 250.637,372.828 258.134,371.942 262.647 C 371.683 263.968,371.143 266.736,370.742 268.797 C 370.341 270.858,369.931 272.955,369.829 273.457 C 369.647 274.358,368.610 279.653,367.185 286.957 C 366.783 289.018,366.327 291.346,366.172 292.130 C 365.841 293.804,365.836 293.869,366.066 293.490 C 370.489 286.217,376.845 272.009,380.450 261.336 C 407.362 181.653,379.155 94.380,310.666 45.421 C 297.183 35.782,280.942 27.158,266.283 21.851 L 265.385 21.526 266.757 23.086 M215.277 23.673 C 215.489 23.698,215.964 23.744,216.334 23.776 C 217.438 23.870,217.859 23.918,218.099 23.976 C 218.225 24.006,218.549 24.052,218.820 24.079 C 222.812 24.468,225.221 26.172,226.028 29.174 C 226.304 30.200,226.237 32.072,225.897 32.813 C 225.849 32.919,225.676 33.297,225.514 33.654 C 224.971 34.847,223.311 36.302,221.995 36.739 C 221.536 36.892,221.399 36.928,220.802 37.053 C 220.177 37.184,219.068 37.109,217.583 36.836 C 217.161 36.758,216.578 36.672,216.289 36.644 C 216.000 36.616,215.740 36.579,215.710 36.560 C 215.579 36.479,213.499 36.379,211.914 36.378 C 210.171 36.376,208.380 36.480,207.158 36.653 C 206.920 36.686,206.661 36.733,206.582 36.755 C 206.503 36.778,206.286 36.816,206.101 36.840 C 205.658 36.897,205.128 36.989,204.948 37.041 C 204.869 37.063,204.653 37.107,204.468 37.137 C 204.283 37.167,203.812 37.281,203.422 37.389 C 203.031 37.498,202.604 37.606,202.474 37.630 C 202.179 37.683,200.420 38.241,200.288 38.323 C 200.235 38.356,200.160 38.389,200.120 38.396 C 200.080 38.404,200.026 38.421,200.000 38.434 C 199.974 38.447,199.909 38.469,199.856 38.482 C 199.803 38.495,199.738 38.517,199.712 38.530 C 199.685 38.543,199.631 38.563,199.592 38.574 C 199.552 38.585,199.433 38.630,199.327 38.674 C 199.222 38.717,198.941 38.828,198.703 38.921 C 198.465 39.014,198.022 39.201,197.718 39.337 C 197.413 39.474,197.154 39.583,197.141 39.580 C 197.032 39.560,193.188 41.681,192.968 41.883 C 192.872 41.971,192.556 42.188,192.265 42.365 C 191.975 42.542,191.715 42.715,191.689 42.749 C 191.662 42.784,191.403 42.983,191.112 43.192 C 188.062 45.383,184.924 48.669,182.809 51.887 C 182.549 52.283,182.262 52.716,182.173 52.849 C 182.083 52.983,181.916 53.264,181.802 53.474 C 181.688 53.684,181.475 54.072,181.330 54.336 C 180.777 55.344,180.545 55.799,180.252 56.450 C 179.749 57.571,179.618 57.872,179.441 58.323 C 179.347 58.561,179.236 58.842,179.192 58.948 C 179.071 59.246,178.756 60.218,178.523 61.014 C 178.407 61.410,178.253 61.929,178.182 62.167 C 178.022 62.703,177.385 65.982,177.315 66.635 C 177.286 66.899,177.246 67.266,177.226 67.451 C 176.947 69.967,177.005 73.083,177.379 75.636 C 177.489 76.393,177.598 77.141,177.621 77.299 C 177.644 77.457,177.690 77.673,177.724 77.779 C 177.758 77.886,177.797 78.059,177.809 78.165 C 177.822 78.270,177.906 78.638,177.996 78.982 C 178.086 79.325,178.175 79.671,178.193 79.750 C 178.348 80.432,178.905 82.236,179.096 82.681 C 179.142 82.786,179.320 83.240,179.492 83.690 C 179.665 84.139,179.967 84.852,180.164 85.275 C 180.361 85.698,180.533 86.087,180.546 86.140 C 180.560 86.193,180.673 86.398,180.798 86.596 C 180.923 86.794,181.003 86.957,180.975 86.957 C 180.948 86.957,181.033 87.129,181.166 87.339 C 181.299 87.549,181.408 87.765,181.408 87.819 C 181.408 87.873,181.446 87.917,181.492 87.917 C 181.539 87.917,181.629 88.044,181.693 88.198 C 181.811 88.485,182.372 89.406,182.560 89.623 C 182.618 89.689,182.633 89.743,182.596 89.743 C 182.558 89.743,182.613 89.840,182.717 89.959 C 182.822 90.078,183.031 90.370,183.183 90.608 C 185.150 93.694,188.876 97.366,192.505 99.795 C 194.253 100.965,195.211 101.512,196.973 102.348 C 198.030 102.850,198.390 103.004,199.303 103.349 C 199.528 103.433,199.787 103.542,199.879 103.589 C 199.970 103.636,200.124 103.675,200.220 103.675 C 200.316 103.675,200.435 103.711,200.485 103.755 C 200.535 103.798,200.771 103.890,201.009 103.958 C 201.247 104.026,201.528 104.115,201.633 104.157 C 201.739 104.199,202.085 104.303,202.402 104.389 C 202.719 104.476,203.108 104.586,203.267 104.635 C 203.687 104.764,206.915 105.378,207.591 105.457 C 208.181 105.526,208.250 105.532,209.656 105.646 C 211.124 105.764,214.372 105.710,215.518 105.548 C 215.703 105.522,216.049 105.478,216.286 105.451 C 216.881 105.384,217.545 105.294,217.776 105.252 C 217.956 105.218,218.099 105.188,218.688 105.062 C 218.821 105.033,219.015 104.998,219.121 104.982 C 219.227 104.967,219.399 104.928,219.505 104.895 C 219.611 104.862,219.849 104.810,220.034 104.779 C 220.689 104.671,223.791 103.694,224.790 103.282 C 224.948 103.216,225.100 103.156,225.126 103.147 C 225.466 103.033,226.490 102.565,227.720 101.962 C 228.621 101.520,231.369 99.892,231.869 99.503 C 232.011 99.393,232.284 99.195,232.476 99.063 C 232.667 98.931,232.876 98.778,232.939 98.723 C 233.002 98.668,233.144 98.560,233.254 98.483 C 233.479 98.326,234.186 97.748,234.777 97.238 C 237.053 95.274,239.291 92.754,240.878 90.368 C 241.159 89.945,241.465 89.489,241.556 89.356 C 241.648 89.222,241.818 88.941,241.933 88.731 C 242.049 88.521,242.358 87.961,242.621 87.485 C 243.152 86.524,243.242 86.336,244.055 84.506 C 244.364 83.810,244.537 83.373,244.720 82.825 C 244.835 82.481,244.970 82.125,245.020 82.033 C 245.071 81.942,245.112 81.782,245.112 81.679 C 245.112 81.576,245.150 81.467,245.197 81.438 C 245.244 81.409,245.306 81.244,245.333 81.072 C 245.361 80.900,245.457 80.500,245.547 80.183 C 245.636 79.865,245.830 79.066,245.976 78.405 C 246.431 76.362,246.921 75.347,247.911 74.401 C 248.277 74.051,249.786 73.042,249.988 73.012 C 250.027 73.006,250.160 72.963,250.281 72.917 C 250.403 72.871,250.641 72.810,250.810 72.781 C 250.979 72.753,251.184 72.709,251.265 72.684 C 252.218 72.397,254.164 72.686,255.345 73.291 C 256.496 73.881,258.122 75.520,258.227 76.195 C 258.231 76.221,258.282 76.330,258.341 76.435 C 258.463 76.654,258.720 77.520,258.811 78.021 C 258.969 78.887,258.803 80.488,258.423 81.768 C 258.353 82.006,258.220 82.525,258.129 82.921 C 257.962 83.649,257.869 83.978,257.439 85.371 C 257.212 86.106,256.811 87.269,256.644 87.677 C 256.601 87.783,256.511 88.021,256.445 88.206 C 256.328 88.534,256.277 88.656,255.894 89.551 C 255.792 89.789,255.648 90.133,255.575 90.316 C 255.250 91.126,253.320 94.844,253.095 95.096 C 253.038 95.159,252.991 95.235,252.991 95.263 C 252.991 95.322,251.919 97.070,251.839 97.141 C 251.809 97.168,251.554 97.533,251.272 97.952 C 250.991 98.372,250.593 98.934,250.388 99.201 C 250.184 99.469,249.767 100.015,249.462 100.414 C 247.982 102.352,245.116 105.340,243.278 106.861 C 242.875 107.194,242.687 107.355,242.133 107.838 C 242.001 107.953,241.569 108.284,241.172 108.574 C 240.776 108.864,240.402 109.145,240.342 109.199 C 240.054 109.455,239.834 109.613,239.347 109.911 C 239.056 110.089,238.797 110.267,238.770 110.307 C 238.469 110.761,231.611 114.464,230.323 114.867 C 230.196 114.907,229.936 115.008,229.747 115.091 C 229.557 115.174,229.380 115.248,229.354 115.256 C 229.327 115.263,229.198 115.315,229.066 115.370 C 228.933 115.425,228.220 115.672,227.480 115.919 C 226.740 116.166,226.070 116.394,225.991 116.425 C 225.912 116.457,225.797 116.494,225.736 116.507 C 225.675 116.520,225.235 116.646,224.758 116.786 C 224.281 116.926,223.768 117.062,223.619 117.087 C 223.470 117.113,223.129 117.196,222.861 117.272 C 222.592 117.349,222.203 117.438,221.996 117.471 C 221.789 117.504,221.594 117.545,221.564 117.564 C 221.534 117.582,221.296 117.626,221.036 117.661 C 220.775 117.696,220.537 117.739,220.507 117.757 C 220.477 117.775,220.239 117.818,219.979 117.853 C 219.718 117.888,219.419 117.934,219.313 117.955 C 219.207 117.976,218.926 118.017,218.688 118.045 C 218.451 118.074,218.148 118.115,218.016 118.136 C 216.049 118.458,212.033 118.595,209.272 118.436 C 208.104 118.368,207.769 118.340,206.870 118.234 C 206.632 118.206,206.183 118.161,205.873 118.134 C 205.562 118.106,205.276 118.064,205.237 118.040 C 205.197 118.016,204.933 117.973,204.649 117.945 C 204.080 117.890,201.785 117.431,200.577 117.132 C 200.154 117.027,199.584 116.886,199.311 116.818 C 199.038 116.750,198.782 116.662,198.743 116.623 C 198.703 116.583,198.600 116.551,198.514 116.551 C 198.322 116.551,196.031 115.822,195.798 115.686 C 195.706 115.633,195.552 115.590,195.457 115.590 C 195.361 115.590,195.241 115.554,195.191 115.510 C 195.141 115.465,194.883 115.354,194.619 115.261 C 194.355 115.169,194.009 115.036,193.851 114.967 C 192.212 114.248,191.728 114.024,190.550 113.440 C 189.320 112.829,188.899 112.606,188.086 112.132 C 187.821 111.978,187.432 111.758,187.221 111.644 C 187.009 111.529,186.757 111.366,186.659 111.280 C 186.562 111.194,186.297 111.015,186.070 110.883 C 184.104 109.731,181.293 107.493,178.587 104.925 C 177.079 103.493,174.330 100.308,173.149 98.624 C 172.453 97.631,171.195 95.734,171.020 95.412 C 170.919 95.227,170.783 94.989,170.719 94.883 C 170.085 93.849,169.884 93.490,169.939 93.490 C 169.974 93.490,169.939 93.415,169.859 93.322 C 169.650 93.078,167.861 89.386,167.859 89.196 C 167.859 89.154,167.803 89.010,167.734 88.878 C 167.666 88.746,167.508 88.357,167.383 88.013 C 167.258 87.670,167.114 87.335,167.064 87.269 C 167.013 87.203,167.004 87.149,167.043 87.149 C 167.082 87.149,167.067 87.091,167.009 87.021 C 166.950 86.951,166.890 86.810,166.874 86.709 C 166.858 86.607,166.819 86.481,166.787 86.428 C 166.694 86.275,165.994 83.991,165.882 83.473 C 165.873 83.434,165.857 83.391,165.847 83.377 C 165.836 83.364,165.814 83.287,165.798 83.206 C 165.782 83.125,165.679 82.730,165.569 82.328 C 165.458 81.926,165.343 81.452,165.312 81.274 C 165.281 81.097,165.216 80.778,165.169 80.567 C 165.095 80.233,164.901 79.195,164.738 78.261 C 164.711 78.102,164.665 77.778,164.636 77.540 C 164.607 77.302,164.564 77.000,164.540 76.868 C 164.516 76.736,164.473 76.346,164.444 76.003 C 164.414 75.659,164.373 75.249,164.351 75.090 C 164.066 73.019,164.143 68.185,164.507 65.386 C 164.562 64.963,164.645 64.314,164.692 63.944 C 164.834 62.829,165.744 58.581,165.867 58.458 C 165.906 58.419,165.938 58.313,165.938 58.222 C 165.938 58.063,166.169 57.228,166.322 56.834 C 166.363 56.728,166.452 56.447,166.520 56.209 C 166.588 55.972,166.680 55.736,166.723 55.686 C 166.767 55.636,166.803 55.504,166.803 55.393 C 166.803 55.282,166.837 55.150,166.879 55.100 C 166.921 55.049,167.013 54.835,167.082 54.624 C 167.152 54.413,167.263 54.110,167.329 53.951 C 167.395 53.793,167.525 53.469,167.619 53.231 C 167.712 52.993,167.853 52.647,167.933 52.462 C 168.013 52.277,168.134 51.996,168.202 51.838 C 168.849 50.336,170.602 47.015,171.219 46.121 C 171.273 46.041,171.578 45.568,171.896 45.068 C 172.214 44.569,172.554 44.072,172.652 43.963 C 172.750 43.855,172.989 43.514,173.184 43.205 C 173.378 42.897,173.627 42.551,173.736 42.437 C 173.845 42.323,174.109 41.991,174.324 41.701 C 174.538 41.410,174.890 40.977,175.106 40.738 C 175.322 40.500,175.678 40.089,175.898 39.826 C 176.590 38.998,176.689 38.889,177.691 37.870 C 178.817 36.724,180.243 35.407,180.960 34.851 C 181.183 34.678,182.081 33.942,182.627 33.485 C 182.690 33.433,182.897 33.281,183.087 33.149 C 183.278 33.017,183.576 32.801,183.750 32.669 C 184.694 31.953,185.230 31.598,186.836 30.626 C 189.365 29.095,190.896 28.308,193.466 27.217 C 193.836 27.060,194.420 26.832,194.763 26.710 C 195.107 26.588,195.442 26.447,195.508 26.396 C 195.574 26.345,195.628 26.336,195.628 26.375 C 195.628 26.415,195.693 26.393,195.772 26.327 C 195.852 26.261,195.916 26.240,195.916 26.279 C 195.916 26.318,195.970 26.307,196.037 26.254 C 196.159 26.155,198.271 25.476,198.693 25.399 C 198.820 25.376,199.005 25.314,199.102 25.262 C 199.200 25.210,199.279 25.196,199.279 25.231 C 199.279 25.265,199.344 25.240,199.423 25.174 C 199.503 25.108,199.568 25.079,199.568 25.109 C 199.568 25.139,199.773 25.103,200.024 25.029 C 200.275 24.955,200.632 24.870,200.817 24.839 C 201.002 24.809,201.369 24.723,201.633 24.648 C 202.119 24.510,202.339 24.467,203.121 24.355 C 203.357 24.321,203.576 24.278,203.607 24.259 C 203.637 24.240,203.854 24.200,204.089 24.170 C 204.324 24.140,204.646 24.096,204.804 24.072 C 205.975 23.892,206.930 23.789,208.455 23.679 C 208.931 23.644,209.335 23.602,209.354 23.584 C 209.403 23.539,214.821 23.620,215.277 23.673 M115.348 29.627 C 109.237 32.659,105.557 34.681,105.900 34.818 C 106.798 35.178,108.539 36.035,109.248 36.468 C 109.539 36.646,109.928 36.875,110.113 36.979 C 112.372 38.242,115.597 41.000,117.658 43.430 C 118.128 43.985,118.538 44.461,118.568 44.487 C 118.598 44.514,118.791 44.773,118.998 45.064 C 120.027 46.511,120.507 47.216,120.685 47.541 C 120.792 47.737,121.009 48.114,121.167 48.379 C 121.325 48.643,121.759 49.486,122.132 50.252 C 122.995 52.028,122.944 51.913,123.231 52.702 C 123.366 53.072,123.503 53.440,123.536 53.519 C 123.569 53.598,123.605 53.696,123.616 53.735 C 123.628 53.775,123.645 53.818,123.656 53.831 C 123.666 53.845,123.694 53.960,123.718 54.088 C 123.741 54.216,123.799 54.367,123.846 54.424 C 123.893 54.481,123.963 54.701,124.001 54.912 C 124.039 55.124,124.113 55.351,124.166 55.417 C 124.218 55.483,124.238 55.537,124.210 55.537 C 124.182 55.537,124.265 55.915,124.395 56.378 C 124.524 56.840,124.653 57.389,124.680 57.597 C 124.707 57.806,124.748 58.007,124.771 58.044 C 124.794 58.081,124.836 58.300,124.864 58.530 C 124.892 58.760,124.934 59.013,124.956 59.092 C 124.979 59.171,125.021 59.452,125.051 59.717 C 125.080 59.981,125.123 60.348,125.147 60.533 C 125.423 62.642,125.376 66.308,125.048 68.268 C 125.004 68.532,124.976 68.780,124.986 68.818 C 124.996 68.856,124.919 69.332,124.815 69.875 C 124.640 70.791,124.561 71.114,124.166 72.544 C 123.943 73.351,123.473 74.782,123.369 74.969 C 123.318 75.060,123.276 75.184,123.276 75.242 C 123.276 75.301,123.207 75.507,123.123 75.700 C 123.038 75.893,122.934 76.137,122.893 76.243 C 122.851 76.349,122.617 76.849,122.374 77.354 C 122.130 77.859,121.931 78.324,121.931 78.387 C 121.931 78.450,121.895 78.501,121.850 78.501 C 121.805 78.501,121.697 78.663,121.611 78.861 C 121.268 79.646,120.254 81.281,119.300 82.584 C 117.831 84.594,116.278 86.260,114.230 88.025 C 114.106 88.132,113.896 88.314,113.764 88.431 C 113.632 88.547,113.351 88.771,113.140 88.928 C 112.928 89.085,112.734 89.240,112.707 89.272 C 112.681 89.304,112.468 89.450,112.234 89.596 C 112.001 89.743,111.763 89.903,111.706 89.953 C 111.477 90.153,110.324 90.902,109.873 91.144 C 109.608 91.286,109.371 91.428,109.344 91.461 C 109.318 91.494,109.037 91.650,108.720 91.809 C 108.403 91.967,107.992 92.188,107.807 92.299 C 107.622 92.411,107.439 92.510,107.400 92.520 C 107.299 92.546,106.672 92.808,106.198 93.022 C 105.730 93.234,105.294 93.417,105.189 93.446 C 105.149 93.457,105.095 93.477,105.068 93.490 C 105.042 93.503,104.988 93.520,104.948 93.528 C 104.909 93.535,104.833 93.568,104.780 93.600 C 104.648 93.682,102.014 94.536,101.737 94.588 C 101.614 94.610,101.513 94.636,101.513 94.644 C 101.513 94.652,101.427 94.673,101.321 94.690 C 101.215 94.706,100.718 94.812,100.216 94.925 C 99.714 95.037,99.152 95.153,98.967 95.181 C 98.782 95.209,98.523 95.249,98.391 95.270 C 98.258 95.290,97.935 95.336,97.672 95.370 C 97.409 95.405,97.085 95.448,96.952 95.466 C 95.068 95.720,91.638 95.671,89.407 95.359 C 89.090 95.315,88.800 95.286,88.764 95.295 C 88.654 95.323,86.251 94.833,86.044 94.740 C 85.938 94.693,85.657 94.613,85.419 94.562 C 84.549 94.375,82.645 93.778,82.008 93.491 C 81.902 93.444,81.600 93.313,81.336 93.200 C 81.071 93.088,80.704 92.931,80.519 92.852 C 79.889 92.582,77.590 91.406,77.239 91.174 C 77.047 91.048,76.766 90.869,76.614 90.777 C 73.524 88.904,69.911 85.547,67.792 82.579 C 67.375 81.996,66.863 81.227,66.099 80.038 C 65.980 79.853,65.551 79.054,65.145 78.261 C 64.514 77.026,64.191 76.283,63.368 74.177 C 63.218 73.793,62.950 72.952,62.891 72.680 C 62.869 72.579,62.780 72.236,62.694 71.919 C 62.495 71.189,62.176 69.731,62.104 69.229 C 62.074 69.018,62.028 68.823,62.002 68.797 C 61.859 68.654,54.168 77.265,52.281 79.679 C 52.114 79.893,52.260 80.328,53.095 82.104 C 53.293 82.527,53.462 82.895,53.470 82.921 C 53.547 83.175,55.054 85.979,55.470 86.640 C 55.596 86.841,55.888 87.307,56.119 87.677 C 58.120 90.884,60.938 94.149,64.315 97.173 C 65.810 98.511,68.875 100.779,70.132 101.476 C 70.322 101.581,70.910 101.920,71.439 102.228 C 72.449 102.817,74.563 103.903,75.378 104.251 C 75.643 104.363,75.988 104.515,76.147 104.587 C 76.814 104.890,77.143 105.020,77.244 105.020 C 77.303 105.020,77.426 105.059,77.518 105.107 C 77.609 105.154,77.879 105.267,78.117 105.357 C 78.355 105.447,78.624 105.559,78.716 105.607 C 78.808 105.654,78.967 105.693,79.071 105.693 C 79.174 105.693,79.285 105.736,79.318 105.789 C 79.350 105.842,79.480 105.885,79.606 105.885 C 79.732 105.885,79.859 105.923,79.887 105.970 C 79.916 106.017,80.059 106.078,80.205 106.105 C 80.351 106.133,80.709 106.226,80.999 106.312 C 81.857 106.567,82.832 106.816,83.449 106.937 C 83.767 107.000,84.223 107.114,84.465 107.190 C 84.706 107.267,85.138 107.353,85.425 107.381 C 85.713 107.409,86.120 107.471,86.332 107.518 C 86.683 107.597,87.877 107.765,88.830 107.870 C 89.042 107.893,89.366 107.929,89.551 107.951 C 91.354 108.157,96.189 108.157,97.718 107.951 C 98.155 107.892,98.689 107.829,99.380 107.756 C 99.687 107.724,100.033 107.679,100.149 107.656 C 100.265 107.633,100.638 107.569,100.977 107.514 C 101.317 107.459,101.622 107.397,101.655 107.376 C 101.689 107.355,101.925 107.313,102.179 107.282 C 102.434 107.252,102.673 107.208,102.710 107.185 C 102.748 107.162,102.926 107.118,103.107 107.087 C 103.287 107.057,103.651 106.971,103.915 106.896 C 104.180 106.822,104.504 106.741,104.636 106.718 C 105.687 106.530,110.525 104.888,111.026 104.548 C 111.079 104.513,111.381 104.380,111.698 104.255 C 113.403 103.579,117.671 101.150,119.347 99.901 C 119.474 99.806,119.988 99.425,120.489 99.052 C 120.990 98.680,121.423 98.345,121.450 98.308 C 121.477 98.270,121.610 98.155,121.745 98.051 C 123.290 96.866,125.500 94.718,127.216 92.734 C 127.507 92.398,127.789 92.074,127.843 92.014 C 127.897 91.954,128.156 91.624,128.419 91.281 C 128.682 90.938,128.944 90.607,129.002 90.546 C 129.091 90.449,129.588 89.749,130.525 88.398 C 131.032 87.668,132.083 85.934,132.273 85.515 C 132.357 85.330,132.457 85.157,132.494 85.131 C 132.611 85.049,134.107 81.958,134.471 81.047 C 134.661 80.572,134.854 80.096,134.900 79.990 C 135.195 79.311,136.152 76.446,136.152 76.240 C 136.152 76.161,136.190 76.021,136.237 75.930 C 136.344 75.718,136.485 75.154,136.734 73.937 C 136.842 73.409,136.971 72.890,137.020 72.784 C 137.070 72.678,137.130 72.376,137.154 72.111 C 137.177 71.847,137.261 71.307,137.338 70.910 C 137.416 70.514,137.509 69.930,137.544 69.613 C 137.579 69.296,137.621 68.929,137.637 68.797 C 137.791 67.508,137.831 66.514,137.832 64.040 C 137.832 61.482,137.797 60.607,137.645 59.380 C 137.622 59.195,137.581 58.849,137.554 58.612 C 137.491 58.053,137.227 56.328,137.157 56.017 C 137.127 55.885,137.082 55.669,137.056 55.537 C 137.030 55.405,136.991 55.232,136.968 55.153 C 136.946 55.073,136.903 54.857,136.873 54.672 C 136.843 54.487,136.757 54.120,136.682 53.855 C 136.607 53.591,136.523 53.245,136.496 53.087 C 136.413 52.613,135.340 49.175,135.207 48.955 C 135.175 48.902,135.140 48.802,135.129 48.732 C 135.119 48.663,135.020 48.415,134.910 48.181 C 134.800 47.947,134.711 47.730,134.711 47.699 C 134.711 47.558,133.790 45.515,133.199 44.343 C 130.724 39.441,127.429 35.075,123.497 31.489 C 121.909 30.041,119.171 27.865,118.936 27.865 C 118.917 27.865,117.303 28.658,115.348 29.627 M91.328 43.734 C 85.675 47.661,80.295 51.828,74.966 56.409 L 74.566 56.753 74.756 57.418 C 74.984 58.216,75.024 59.465,74.849 60.341 C 74.706 61.061,74.694 61.149,74.597 62.311 C 74.459 63.954,74.541 65.861,74.808 67.235 C 74.924 67.832,74.968 68.018,75.098 68.471 C 75.176 68.741,75.259 69.058,75.281 69.175 C 75.341 69.484,75.427 69.778,75.522 69.998 C 75.567 70.103,75.721 70.492,75.863 70.862 C 77.770 75.831,82.204 80.097,87.149 81.719 C 87.756 81.919,88.340 82.117,88.446 82.161 C 89.999 82.798,95.429 83.000,97.238 82.488 C 97.317 82.466,97.521 82.424,97.691 82.395 C 98.295 82.293,100.216 81.670,100.860 81.367 C 101.219 81.198,101.535 81.053,101.561 81.045 C 101.955 80.922,104.241 79.596,104.732 79.207 C 105.872 78.303,106.292 77.925,107.251 76.938 C 108.219 75.940,109.049 74.890,109.645 73.907 C 110.074 73.198,110.491 72.429,110.725 71.914 C 110.868 71.600,111.018 71.278,111.059 71.199 C 111.100 71.119,111.278 70.601,111.455 70.046 C 111.632 69.491,111.809 68.950,111.849 68.845 C 112.278 67.702,112.596 64.026,112.405 62.407 C 112.368 62.090,112.314 61.636,112.285 61.398 C 112.177 60.494,111.846 59.036,111.608 58.419 C 111.537 58.234,111.469 58.040,111.457 57.987 C 111.445 57.934,111.403 57.804,111.364 57.699 C 111.325 57.593,111.198 57.247,111.081 56.930 C 109.832 53.537,106.873 50.043,103.435 47.901 C 102.717 47.454,102.624 47.402,101.946 47.073 C 100.515 46.379,99.263 45.903,98.535 45.777 C 98.323 45.741,98.107 45.680,98.054 45.641 C 98.001 45.603,97.677 45.520,97.334 45.458 C 96.700 45.342,96.376 45.244,95.830 45.004 C 95.663 44.931,95.502 44.871,95.470 44.871 C 95.172 44.871,93.682 43.643,93.284 43.070 C 92.927 42.556,93.119 42.491,91.328 43.734 M42.309 92.943 C 40.646 95.369,38.796 98.209,38.847 98.259 C 38.872 98.284,41.200 98.755,44.020 99.306 C 46.840 99.857,49.249 100.332,49.373 100.362 L 49.599 100.417 49.403 100.148 C 49.296 100.001,49.052 99.707,48.863 99.496 C 48.673 99.284,48.318 98.830,48.073 98.487 C 47.829 98.143,47.533 97.754,47.415 97.622 C 46.968 97.120,44.226 92.929,43.832 92.145 C 43.678 91.840,43.471 91.481,43.417 91.428 C 43.395 91.405,42.896 92.087,42.309 92.943 M142.212 93.988 C 142.087 94.216,141.839 94.609,141.662 94.860 C 141.485 95.111,141.339 95.349,141.338 95.388 C 141.337 95.428,141.249 95.568,141.143 95.700 C 141.037 95.832,140.792 96.178,140.598 96.469 C 140.404 96.760,140.135 97.131,140.000 97.294 C 139.865 97.458,139.690 97.691,139.611 97.812 C 139.465 98.036,137.600 100.416,137.501 100.504 C 137.434 100.564,136.281 101.879,135.904 102.325 C 135.072 103.309,131.817 106.422,130.626 107.373 C 130.362 107.584,130.060 107.835,129.954 107.933 C 129.849 108.030,129.640 108.203,129.491 108.318 C 129.341 108.433,128.957 108.733,128.638 108.984 C 128.318 109.235,128.029 109.441,127.996 109.441 C 127.964 109.441,127.806 109.560,127.647 109.705 C 127.488 109.850,127.040 110.182,126.651 110.443 C 126.263 110.703,125.896 110.965,125.836 111.023 C 125.669 111.186,121.358 113.790,120.947 113.976 C 120.749 114.066,120.586 114.174,120.586 114.216 C 120.586 114.272,157.460 121.549,159.548 121.905 C 159.804 121.949,159.717 121.832,158.768 120.862 C 157.210 119.269,154.711 116.313,153.499 114.629 C 153.290 114.338,153.060 114.041,152.989 113.968 C 152.918 113.895,152.635 113.513,152.361 113.118 C 152.086 112.723,151.689 112.152,151.477 111.848 C 150.744 110.796,149.321 108.548,148.769 107.571 C 148.567 107.214,148.313 106.765,148.204 106.572 C 147.113 104.649,145.914 102.269,145.051 100.312 C 144.643 99.387,144.260 98.523,144.201 98.391 C 144.141 98.258,144.088 98.129,144.082 98.102 C 144.077 98.076,143.902 97.622,143.693 97.093 C 143.485 96.565,143.310 96.111,143.304 96.085 C 143.298 96.058,143.265 95.972,143.230 95.892 C 143.195 95.813,143.003 95.259,142.803 94.661 L 142.440 93.573 142.212 93.988 M32.044 110.189 C 31.711 110.222,31.850 109.988,29.738 114.100 C 26.783 119.857,22.431 129.652,22.110 131.270 C 22.055 131.550,21.618 133.791,21.140 136.248 C 20.661 138.705,20.228 140.910,20.178 141.148 C 20.127 141.386,19.719 143.461,19.271 145.760 C 17.338 155.683,16.892 157.967,16.718 158.828 C 16.617 159.330,16.163 161.643,15.709 163.968 C 15.256 166.294,14.673 169.277,14.414 170.598 C 14.156 171.919,13.771 173.887,13.559 174.970 C 13.178 176.916,11.822 183.844,11.000 188.037 C 10.767 189.227,10.251 191.865,9.852 193.901 L 9.128 197.603 9.128 201.011 C 9.133 243.147,23.523 284.367,49.936 317.898 L 51.300 319.629 146.981 338.356 C 216.765 352.015,242.856 357.087,243.382 357.097 C 244.044 357.109,244.383 357.076,245.300 356.909 C 246.260 356.734,247.895 355.853,248.718 355.066 C 249.200 354.606,249.820 353.844,249.820 353.713 C 249.820 353.659,249.878 353.566,249.949 353.507 C 250.021 353.448,250.198 353.108,250.343 352.751 C 250.488 352.394,250.645 352.015,250.691 351.910 C 250.737 351.804,251.081 350.139,251.454 348.210 C 251.828 346.282,252.216 344.293,252.317 343.791 C 252.418 343.288,252.674 341.991,252.885 340.908 C 253.096 339.825,253.641 337.036,254.095 334.711 C 254.550 332.385,255.310 328.494,255.784 326.063 C 256.258 323.632,256.687 321.448,256.738 321.211 C 256.789 320.973,257.201 318.876,257.654 316.551 C 259.563 306.751,260.206 303.459,260.293 303.051 C 260.391 302.586,261.653 296.127,262.837 290.031 C 263.237 287.970,263.606 286.089,263.656 285.852 C 263.707 285.614,264.140 283.409,264.620 280.951 C 265.099 278.494,265.682 275.510,265.915 274.321 C 266.148 273.132,266.730 270.149,267.209 267.692 C 267.688 265.234,268.121 263.029,268.172 262.791 C 268.223 262.553,268.656 260.348,269.135 257.891 C 270.074 253.073,270.387 251.470,271.717 244.679 C 273.429 235.937,274.344 231.254,275.145 227.144 C 275.593 224.845,276.001 222.770,276.051 222.532 C 276.102 222.294,276.531 220.110,277.005 217.680 C 277.479 215.249,278.239 211.357,278.693 209.032 C 279.148 206.707,279.693 203.918,279.904 202.834 C 280.116 201.751,280.350 200.562,280.424 200.192 C 280.562 199.501,282.869 187.710,283.555 184.194 C 283.766 183.111,284.151 181.143,284.410 179.822 C 287.217 165.531,287.176 165.789,286.869 164.617 C 286.838 164.498,286.792 164.308,286.767 164.194 C 286.364 162.356,284.700 160.245,283.005 159.419 C 282.642 159.242,282.269 159.059,282.178 159.011 C 282.086 158.963,281.945 158.924,281.864 158.924 C 281.783 158.924,281.642 158.881,281.550 158.828 C 281.354 158.715,34.118 110.321,33.341 110.243 C 32.574 110.166,32.366 110.158,32.044 110.189 M118.539 168.047 C 119.110 168.159,119.652 168.292,119.744 168.343 C 119.836 168.394,119.977 168.436,120.058 168.436 C 120.138 168.436,120.279 168.476,120.371 168.524 C 120.463 168.572,120.776 168.706,121.067 168.821 C 122.705 169.470,124.170 170.459,125.967 172.132 C 126.310 172.452,127.002 173.057,127.504 173.477 C 128.006 173.897,128.698 174.502,129.042 174.821 C 129.386 175.141,130.056 175.726,130.532 176.123 C 131.007 176.519,131.698 177.120,132.068 177.459 C 132.438 177.798,133.238 178.501,133.846 179.021 C 134.454 179.541,135.621 180.553,136.440 181.271 C 137.259 181.988,138.621 183.166,139.466 183.889 C 140.311 184.612,141.284 185.466,141.628 185.787 C 141.972 186.108,142.772 186.810,143.406 187.348 C 144.768 188.503,146.268 189.808,147.730 191.111 C 148.311 191.629,149.138 192.349,149.568 192.711 C 150.456 193.460,152.228 195.009,153.783 196.395 C 154.365 196.913,155.192 197.633,155.621 197.996 C 156.463 198.706,158.150 200.179,159.824 201.666 C 160.399 202.177,161.206 202.875,161.618 203.219 C 162.029 203.562,162.750 204.189,163.220 204.612 C 163.689 205.035,164.625 205.856,165.301 206.438 C 165.976 207.019,167.150 208.035,167.909 208.696 C 168.669 209.356,169.819 210.351,170.465 210.906 C 171.112 211.460,171.970 212.217,172.372 212.587 C 172.774 212.957,173.512 213.602,174.013 214.020 C 174.513 214.439,175.268 215.096,175.691 215.480 C 176.113 215.865,176.834 216.496,177.291 216.882 C 178.103 217.567,179.468 218.759,181.504 220.560 C 182.059 221.051,182.864 221.749,183.294 222.112 C 183.723 222.475,184.610 223.242,185.263 223.817 C 187.027 225.368,189.008 227.102,190.180 228.118 C 190.750 228.613,191.840 229.558,192.601 230.219 C 193.363 230.879,194.453 231.824,195.023 232.319 C 197.125 234.142,197.345 234.357,198.046 235.281 C 198.439 235.800,198.830 236.354,198.914 236.512 C 198.998 236.671,199.205 237.060,199.375 237.377 C 199.674 237.935,200.102 239.012,200.150 239.324 C 200.156 239.363,200.205 239.449,200.260 239.515 C 200.315 239.581,200.335 239.635,200.305 239.635 C 200.275 239.635,200.311 239.840,200.385 240.091 C 200.459 240.342,200.548 240.764,200.582 241.028 C 200.617 241.292,200.664 241.595,200.687 241.701 C 200.765 242.067,200.720 244.297,200.627 244.679 C 200.575 244.891,200.532 245.223,200.531 245.418 C 200.529 245.613,200.489 245.797,200.441 245.827 C 200.393 245.856,200.324 246.108,200.286 246.385 C 200.249 246.662,200.189 246.933,200.153 246.985 C 200.117 247.038,200.007 247.317,199.907 247.605 C 199.138 249.835,197.068 252.375,194.956 253.677 C 193.796 254.392,193.144 254.711,192.121 255.065 C 191.593 255.247,191.095 255.425,191.016 255.459 C 190.937 255.493,190.840 255.529,190.800 255.541 C 190.760 255.552,190.706 255.572,190.680 255.585 C 190.653 255.598,190.589 255.620,190.536 255.633 C 190.483 255.646,190.418 255.668,190.392 255.681 C 190.365 255.694,190.300 255.716,190.247 255.729 C 190.195 255.742,190.130 255.764,190.103 255.777 C 190.077 255.790,190.012 255.812,189.959 255.825 C 189.906 255.838,189.841 255.860,189.815 255.873 C 189.789 255.886,189.724 255.908,189.671 255.921 C 189.618 255.934,189.553 255.956,189.527 255.969 C 189.500 255.982,189.436 256.004,189.383 256.017 C 189.330 256.031,189.265 256.052,189.239 256.065 C 189.212 256.079,189.147 256.100,189.094 256.113 C 189.042 256.127,188.977 256.148,188.950 256.161 C 188.924 256.175,188.870 256.195,188.830 256.206 C 188.791 256.217,188.693 256.254,188.614 256.288 C 188.535 256.321,186.503 257.017,184.098 257.834 C 174.639 261.046,172.317 261.842,172.039 261.966 C 171.881 262.037,170.605 262.474,169.205 262.937 C 167.804 263.399,166.605 263.821,166.539 263.873 C 166.472 263.925,166.418 263.936,166.418 263.896 C 166.418 263.857,166.354 263.878,166.274 263.944 C 166.195 264.010,166.130 264.032,166.130 263.992 C 166.130 263.953,166.065 263.975,165.986 264.040 C 165.907 264.106,165.842 264.128,165.842 264.088 C 165.842 264.049,165.777 264.071,165.698 264.136 C 165.619 264.202,165.554 264.224,165.554 264.184 C 165.554 264.145,165.496 264.161,165.426 264.219 C 165.356 264.277,165.215 264.338,165.114 264.353 C 165.012 264.369,164.886 264.408,164.833 264.439 C 164.780 264.470,163.915 264.766,162.911 265.097 C 161.907 265.429,161.032 265.742,160.966 265.795 C 160.900 265.847,160.846 265.857,160.846 265.818 C 160.846 265.779,160.781 265.800,160.701 265.866 C 160.622 265.932,160.557 265.953,160.557 265.914 C 160.557 265.875,160.492 265.896,160.413 265.962 C 160.334 266.028,160.269 266.049,160.269 266.010 C 160.269 265.971,160.204 265.992,160.125 266.058 C 160.046 266.124,159.981 266.146,159.981 266.106 C 159.981 266.067,159.916 266.088,159.837 266.154 C 159.757 266.220,159.693 266.242,159.693 266.202 C 159.693 266.163,159.628 266.185,159.548 266.250 C 159.469 266.316,159.404 266.338,159.404 266.298 C 159.404 266.259,159.339 266.281,159.260 266.346 C 159.181 266.412,159.116 266.434,159.116 266.394 C 159.116 266.355,159.059 266.371,158.988 266.429 C 158.918 266.487,158.778 266.551,158.676 266.570 C 158.575 266.590,158.427 266.634,158.347 266.668 C 158.268 266.703,157.057 267.116,155.657 267.586 C 154.257 268.056,151.835 268.881,150.276 269.420 C 148.717 269.959,146.296 270.785,144.896 271.255 C 143.495 271.725,142.261 272.155,142.153 272.212 C 142.045 272.268,141.894 272.324,141.817 272.336 C 141.740 272.348,141.633 272.382,141.581 272.413 C 141.528 272.444,140.404 272.827,139.082 273.264 C 137.761 273.701,136.626 274.102,136.560 274.154 C 136.494 274.206,136.440 274.217,136.440 274.177 C 136.440 274.138,136.375 274.160,136.296 274.225 C 136.217 274.291,136.152 274.313,136.152 274.273 C 136.152 274.234,136.087 274.256,136.008 274.321 C 135.928 274.387,135.864 274.409,135.864 274.369 C 135.864 274.330,135.799 274.352,135.719 274.417 C 135.640 274.483,135.575 274.505,135.575 274.466 C 135.575 274.426,135.510 274.448,135.431 274.514 C 135.352 274.579,135.287 274.601,135.287 274.562 C 135.287 274.522,135.222 274.544,135.143 274.610 C 135.064 274.675,134.999 274.697,134.999 274.658 C 134.999 274.618,134.934 274.640,134.855 274.706 C 134.775 274.772,134.711 274.793,134.711 274.754 C 134.711 274.714,134.656 274.725,134.590 274.777 C 134.524 274.829,133.714 275.122,132.789 275.426 C 131.864 275.731,131.064 276.007,131.011 276.038 C 130.958 276.070,130.883 276.102,130.843 276.110 C 130.804 276.117,130.749 276.134,130.723 276.147 C 130.697 276.160,130.632 276.182,130.579 276.195 C 130.526 276.208,130.461 276.230,130.435 276.243 C 130.408 276.256,130.344 276.278,130.291 276.291 C 130.238 276.304,130.173 276.326,130.147 276.339 C 130.120 276.352,130.055 276.374,130.002 276.387 C 129.950 276.400,129.885 276.422,129.858 276.435 C 129.832 276.448,129.767 276.470,129.714 276.483 C 129.661 276.497,129.596 276.518,129.570 276.531 C 129.544 276.545,129.479 276.566,129.426 276.579 C 129.373 276.593,129.308 276.614,129.282 276.627 C 129.255 276.641,129.190 276.662,129.138 276.675 C 129.085 276.689,129.020 276.710,128.994 276.724 C 128.967 276.737,128.913 276.757,128.873 276.768 C 128.834 276.779,128.736 276.817,128.657 276.852 C 128.578 276.887,127.302 277.322,125.823 277.819 C 124.343 278.315,121.857 279.163,120.298 279.702 C 118.739 280.241,116.318 281.068,114.917 281.538 C 113.517 282.009,112.241 282.453,112.083 282.526 C 111.924 282.598,110.649 283.036,109.248 283.499 C 107.848 283.961,106.648 284.383,106.582 284.435 C 106.516 284.487,106.462 284.498,106.462 284.458 C 106.462 284.419,106.397 284.441,106.318 284.506 C 106.238 284.572,106.173 284.594,106.173 284.554 C 106.173 284.515,106.109 284.537,106.029 284.602 C 105.950 284.668,105.885 284.690,105.885 284.650 C 105.885 284.611,105.820 284.633,105.741 284.699 C 105.662 284.764,105.597 284.786,105.597 284.747 C 105.597 284.707,105.532 284.729,105.453 284.795 C 105.374 284.860,105.309 284.882,105.309 284.843 C 105.309 284.803,105.255 284.815,105.189 284.868 C 105.032 284.995,101.037 286.299,100.601 286.366 C 100.416 286.395,100.048 286.451,99.784 286.491 C 98.819 286.640,96.193 286.568,95.339 286.370 C 91.249 285.424,88.020 282.924,86.229 279.318 C 85.812 278.477,85.375 277.244,85.275 276.627 C 85.245 276.442,85.202 276.226,85.179 276.147 C 84.919 275.231,84.933 272.714,85.207 271.343 C 85.508 269.837,86.222 266.195,87.677 258.756 C 88.395 255.083,89.199 250.975,89.464 249.628 C 90.699 243.333,90.940 242.104,91.713 238.146 C 92.434 234.452,93.123 230.931,93.394 229.546 C 93.621 228.389,94.370 224.562,95.556 218.496 C 96.274 214.823,97.076 210.727,97.338 209.392 C 97.600 208.058,98.028 205.874,98.290 204.540 C 98.776 202.064,100.110 195.236,100.802 191.689 C 101.013 190.605,101.246 189.416,101.321 189.046 C 101.474 188.286,103.098 179.973,103.395 178.429 C 104.024 175.162,105.467 172.717,108.047 170.545 C 108.494 170.169,110.611 168.921,110.882 168.874 C 110.908 168.869,110.973 168.840,111.026 168.808 C 111.181 168.715,112.663 168.239,112.961 168.187 C 113.112 168.161,113.387 168.100,113.572 168.053 C 113.757 168.006,114.189 167.940,114.532 167.906 C 114.875 167.873,115.164 167.837,115.174 167.827 C 115.275 167.726,117.705 167.885,118.539 168.047 M116.318 180.838 C 116.292 180.913,115.920 182.770,115.493 184.963 C 114.018 192.531,113.566 194.814,113.374 195.676 C 113.025 197.239,112.728 198.699,111.940 202.738 C 111.512 204.932,111.079 207.137,110.978 207.639 C 110.877 208.141,110.622 209.438,110.411 210.521 C 110.200 211.605,109.656 214.393,109.202 216.719 C 108.748 219.044,108.333 221.184,108.278 221.475 C 108.223 221.766,108.119 222.198,108.046 222.436 C 107.973 222.674,107.762 223.646,107.577 224.598 C 107.392 225.549,106.851 228.316,106.376 230.747 C 105.500 235.221,104.215 241.792,103.426 245.832 C 103.188 247.048,102.951 248.172,102.898 248.331 C 102.846 248.489,102.002 252.705,101.024 257.699 C 100.047 262.693,99.030 267.881,98.765 269.229 C 98.501 270.577,98.202 272.101,98.102 272.617 C 98.002 273.133,97.895 273.596,97.864 273.646 C 97.809 273.734,107.447 270.516,108.047 270.247 C 108.206 270.175,109.416 269.760,110.737 269.324 C 112.059 268.887,113.194 268.488,113.260 268.436 C 113.326 268.383,113.380 268.373,113.380 268.412 C 113.380 268.452,113.445 268.430,113.524 268.364 C 113.603 268.298,113.668 268.277,113.668 268.316 C 113.668 268.355,113.733 268.334,113.812 268.268 C 113.891 268.202,113.956 268.181,113.956 268.220 C 113.956 268.259,114.021 268.238,114.100 268.172 C 114.180 268.106,114.245 268.085,114.245 268.124 C 114.245 268.163,114.309 268.142,114.389 268.076 C 114.468 268.010,114.533 267.988,114.533 268.028 C 114.533 268.067,114.598 268.046,114.677 267.980 C 114.756 267.914,114.821 267.892,114.821 267.932 C 114.821 267.971,114.886 267.950,114.965 267.884 C 115.044 267.818,115.109 267.796,115.109 267.836 C 115.109 267.875,115.163 267.862,115.229 267.808 C 115.295 267.753,115.393 267.699,115.446 267.688 C 115.498 267.676,115.585 267.652,115.638 267.633 C 115.691 267.615,118.177 266.776,121.163 265.770 C 124.148 264.764,126.656 263.913,126.736 263.879 C 126.815 263.845,126.912 263.808,126.952 263.796 C 126.991 263.785,127.045 263.765,127.072 263.752 C 127.098 263.739,127.152 263.719,127.192 263.708 C 127.232 263.697,127.336 263.655,127.425 263.616 C 127.513 263.577,127.643 263.536,127.713 263.526 C 127.783 263.515,127.884 263.481,127.937 263.450 C 127.989 263.419,128.984 263.079,130.147 262.695 C 131.309 262.311,132.314 261.954,132.380 261.902 C 132.447 261.850,132.501 261.839,132.501 261.878 C 132.501 261.918,132.565 261.896,132.645 261.830 C 132.724 261.765,132.789 261.743,132.789 261.782 C 132.789 261.822,132.854 261.800,132.933 261.734 C 133.012 261.669,133.077 261.647,133.077 261.686 C 133.077 261.726,133.142 261.704,133.221 261.638 C 133.301 261.572,133.365 261.551,133.365 261.590 C 133.365 261.630,133.430 261.608,133.509 261.542 C 133.589 261.476,133.654 261.455,133.654 261.494 C 133.654 261.533,133.718 261.512,133.798 261.446 C 133.877 261.380,133.942 261.359,133.942 261.398 C 133.942 261.437,134.007 261.416,134.086 261.350 C 134.165 261.284,134.230 261.263,134.230 261.302 C 134.230 261.341,134.295 261.320,134.374 261.254 C 134.454 261.188,134.518 261.166,134.518 261.206 C 134.518 261.245,134.572 261.235,134.638 261.182 C 134.705 261.130,134.996 261.011,135.287 260.917 C 136.136 260.644,145.698 257.412,145.856 257.345 C 145.936 257.311,146.033 257.274,146.073 257.263 C 146.112 257.252,146.166 257.232,146.193 257.218 C 146.219 257.205,146.284 257.184,146.337 257.170 C 146.390 257.157,146.454 257.135,146.481 257.122 C 146.507 257.109,146.561 257.089,146.601 257.078 C 146.641 257.067,146.745 257.026,146.834 256.986 C 146.922 256.947,147.052 256.907,147.122 256.896 C 147.192 256.885,147.293 256.851,147.346 256.820 C 147.399 256.789,148.393 256.450,149.556 256.065 C 150.718 255.681,151.724 255.324,151.790 255.272 C 151.856 255.220,151.910 255.209,151.910 255.249 C 151.910 255.288,151.975 255.266,152.054 255.201 C 152.133 255.135,152.198 255.113,152.198 255.153 C 152.198 255.192,152.263 255.170,152.342 255.104 C 152.421 255.039,152.486 255.017,152.486 255.056 C 152.486 255.096,152.551 255.074,152.630 255.008 C 152.710 254.943,152.774 254.921,152.774 254.960 C 152.774 255.000,152.839 254.978,152.919 254.912 C 152.998 254.847,153.063 254.825,153.063 254.864 C 153.063 254.904,153.128 254.882,153.207 254.816 C 153.286 254.750,153.351 254.725,153.351 254.760 C 153.351 254.795,153.440 254.775,153.549 254.717 C 153.658 254.658,153.821 254.593,153.910 254.571 C 153.999 254.549,155.217 254.139,156.618 253.659 C 158.018 253.179,160.440 252.356,161.999 251.831 C 163.558 251.306,164.898 250.847,164.977 250.812 C 165.056 250.778,165.154 250.740,165.193 250.729 C 165.233 250.718,165.287 250.698,165.313 250.685 C 165.340 250.671,165.405 250.650,165.458 250.637 C 165.510 250.623,165.575 250.602,165.602 250.589 C 165.628 250.575,165.693 250.554,165.746 250.540 C 165.799 250.527,165.864 250.506,165.890 250.492 C 165.916 250.479,165.970 250.459,166.010 250.448 C 166.050 250.437,166.154 250.396,166.243 250.357 C 166.331 250.317,166.461 250.274,166.531 250.259 C 166.601 250.245,166.731 250.202,166.819 250.163 C 166.908 250.125,167.037 250.085,167.108 250.074 C 167.178 250.063,167.278 250.029,167.331 249.998 C 167.384 249.967,168.184 249.692,169.109 249.388 C 170.034 249.083,170.851 248.785,170.925 248.726 C 170.999 248.667,171.075 248.630,171.093 248.643 C 171.112 248.656,171.137 248.664,171.151 248.659 C 171.164 248.655,171.248 248.638,171.337 248.621 C 171.652 248.560,172.233 248.352,172.352 248.258 C 172.418 248.206,172.472 248.189,172.472 248.220 C 172.472 248.252,172.591 248.231,172.736 248.174 C 173.109 248.028,178.066 246.329,181.264 245.251 C 182.743 244.752,184.019 244.315,184.098 244.279 C 184.177 244.244,184.275 244.206,184.314 244.195 C 184.354 244.184,184.408 244.164,184.434 244.151 C 184.461 244.138,184.526 244.116,184.578 244.103 C 184.631 244.090,184.696 244.068,184.723 244.055 C 184.749 244.042,184.814 244.020,184.867 244.007 C 184.920 243.994,184.984 243.972,185.011 243.959 C 185.037 243.945,185.102 243.924,185.155 243.911 C 185.208 243.897,185.273 243.876,185.299 243.863 C 185.325 243.849,185.390 243.828,185.443 243.815 C 185.496 243.801,185.561 243.780,185.587 243.767 C 185.614 243.753,185.668 243.736,185.707 243.729 C 185.747 243.722,185.834 243.681,185.900 243.639 C 185.966 243.597,186.020 243.592,186.020 243.628 C 186.020 243.664,186.074 243.651,186.140 243.599 C 186.206 243.547,186.563 243.406,186.933 243.286 C 187.302 243.166,187.635 243.051,187.672 243.030 C 187.743 242.990,187.304 242.579,186.356 241.796 C 186.039 241.535,185.390 240.966,184.915 240.534 C 184.439 240.101,183.698 239.451,183.269 239.090 C 182.839 238.729,181.953 237.963,181.299 237.388 C 178.062 234.542,177.084 233.691,174.380 231.372 C 173.733 230.817,172.899 230.081,172.526 229.736 C 172.152 229.391,171.328 228.666,170.694 228.124 C 170.060 227.583,168.863 226.546,168.034 225.820 C 167.204 225.095,165.972 224.026,165.296 223.445 C 164.619 222.863,163.806 222.146,163.489 221.851 C 163.171 221.556,162.313 220.800,161.583 220.170 C 158.651 217.643,157.595 216.725,153.639 213.260 C 151.313 211.222,149.691 209.812,146.566 207.110 C 145.893 206.529,145.015 205.754,144.615 205.387 C 144.214 205.021,143.497 204.398,143.022 204.002 C 142.546 203.606,141.790 202.948,141.340 202.539 C 140.891 202.129,140.172 201.499,139.743 201.138 C 138.831 200.371,137.028 198.795,135.527 197.453 C 134.946 196.933,134.072 196.170,133.586 195.756 C 133.100 195.342,131.976 194.369,131.088 193.593 C 130.200 192.817,128.890 191.679,128.177 191.065 C 127.463 190.450,126.404 189.521,125.823 189.002 C 125.241 188.482,124.368 187.717,123.881 187.302 C 121.886 185.602,120.506 184.400,119.868 183.807 C 119.497 183.463,118.804 182.860,118.328 182.469 C 117.853 182.077,117.216 181.519,116.915 181.228 C 116.527 180.856,116.352 180.741,116.318 180.838 M370.598 189.262 C 370.519 189.291,370.346 189.358,370.214 189.412 C 370.082 189.466,369.941 189.520,369.902 189.531 C 369.862 189.542,369.808 189.562,369.781 189.575 C 369.755 189.588,369.701 189.608,369.661 189.619 C 369.622 189.630,369.524 189.667,369.445 189.701 C 369.366 189.735,368.415 190.066,367.331 190.438 C 366.248 190.810,365.307 191.135,365.240 191.159 C 365.174 191.183,365.105 191.193,365.087 191.182 C 365.069 191.170,364.994 191.208,364.920 191.267 C 364.846 191.326,364.288 191.537,363.680 191.736 C 363.072 191.934,362.445 192.155,362.287 192.226 C 362.128 192.297,361.350 192.578,360.557 192.850 C 359.765 193.123,359.008 193.390,358.876 193.445 C 358.744 193.499,358.578 193.555,358.508 193.570 C 358.438 193.584,358.308 193.628,358.220 193.667 C 358.131 193.706,358.027 193.747,357.987 193.758 C 357.947 193.769,357.893 193.789,357.867 193.803 C 357.840 193.816,357.786 193.836,357.747 193.847 C 357.707 193.858,357.610 193.896,357.531 193.931 C 357.451 193.966,356.760 194.207,355.993 194.468 C 354.640 194.927,351.480 196.050,351.189 196.174 C 351.110 196.208,351.012 196.245,350.973 196.256 C 350.933 196.268,350.879 196.288,350.853 196.301 C 350.826 196.314,350.761 196.336,350.709 196.349 C 350.656 196.362,350.591 196.384,350.564 196.397 C 350.538 196.410,350.473 196.432,350.420 196.445 C 350.368 196.458,350.303 196.480,350.276 196.493 C 350.250 196.506,350.196 196.526,350.156 196.537 C 350.117 196.548,350.019 196.585,349.940 196.619 C 349.861 196.652,348.996 196.958,348.018 197.299 C 345.601 198.140,343.485 198.888,343.310 198.962 C 343.231 198.995,343.134 199.032,343.094 199.043 C 343.054 199.054,343.000 199.074,342.974 199.087 C 342.947 199.100,342.883 199.122,342.830 199.135 C 342.777 199.148,342.712 199.170,342.686 199.183 C 342.659 199.196,342.605 199.216,342.565 199.228 C 342.526 199.239,342.429 199.275,342.349 199.309 C 342.270 199.343,341.384 199.653,340.380 199.998 C 339.375 200.343,338.489 200.654,338.410 200.689 C 338.331 200.724,338.233 200.761,338.194 200.772 C 338.154 200.784,338.100 200.804,338.074 200.817 C 338.047 200.830,337.993 200.847,337.953 200.854 C 337.914 200.862,337.838 200.894,337.785 200.925 C 337.732 200.957,337.127 201.168,336.440 201.393 C 335.753 201.619,335.148 201.829,335.095 201.861 C 335.042 201.893,334.977 201.923,334.951 201.929 C 334.924 201.934,334.838 201.966,334.759 201.999 C 334.679 202.033,333.923 202.300,333.077 202.592 C 332.232 202.884,331.475 203.152,331.396 203.187 C 331.316 203.222,331.219 203.259,331.179 203.271 C 331.140 203.282,331.086 203.302,331.059 203.315 C 331.033 203.328,330.979 203.348,330.939 203.359 C 330.900 203.370,330.795 203.412,330.707 203.451 C 330.618 203.490,330.488 203.534,330.418 203.548 C 330.348 203.562,330.226 203.602,330.147 203.637 C 330.067 203.671,329.440 203.890,328.753 204.124 C 327.549 204.535,324.389 205.660,324.093 205.784 C 324.014 205.817,323.917 205.854,323.877 205.865 C 323.837 205.876,323.783 205.896,323.757 205.909 C 323.730 205.922,323.666 205.944,323.613 205.957 C 323.560 205.970,323.495 205.992,323.469 206.005 C 323.442 206.018,323.377 206.040,323.325 206.053 C 323.272 206.067,323.207 206.088,323.180 206.101 C 323.154 206.115,323.089 206.136,323.036 206.149 C 322.983 206.163,322.919 206.184,322.892 206.197 C 322.866 206.211,322.812 206.231,322.772 206.242 C 322.732 206.253,322.635 206.290,322.556 206.324 C 322.426 206.379,321.036 206.869,317.559 208.086 C 316.899 208.317,316.294 208.535,316.214 208.569 C 316.135 208.603,316.038 208.640,315.998 208.651 C 315.958 208.662,315.904 208.682,315.878 208.696 C 315.852 208.709,315.787 208.730,315.734 208.744 C 315.681 208.757,315.616 208.779,315.590 208.792 C 315.563 208.805,315.509 208.825,315.470 208.836 C 315.430 208.847,315.333 208.884,315.253 208.918 C 315.174 208.951,314.396 209.224,313.524 209.523 C 312.652 209.822,311.830 210.112,311.698 210.166 C 311.566 210.220,311.426 210.274,311.386 210.285 C 311.346 210.296,311.292 210.316,311.266 210.329 C 311.239 210.342,311.185 210.359,311.146 210.367 C 311.106 210.374,311.031 210.406,310.978 210.438 C 310.925 210.469,310.319 210.679,309.632 210.904 C 308.945 211.129,308.254 211.371,308.095 211.442 C 307.937 211.513,307.115 211.811,306.270 212.104 C 305.424 212.396,304.667 212.665,304.588 212.699 C 304.509 212.734,304.411 212.772,304.372 212.783 C 304.332 212.794,304.278 212.814,304.252 212.827 C 304.225 212.840,304.160 212.862,304.108 212.875 C 304.055 212.889,303.990 212.910,303.963 212.923 C 303.937 212.937,303.872 212.958,303.819 212.971 C 303.767 212.985,303.702 213.006,303.675 213.019 C 303.649 213.033,303.595 213.053,303.555 213.064 C 303.515 213.075,303.418 213.113,303.339 213.148 C 303.260 213.183,302.633 213.402,301.946 213.635 C 300.741 214.044,297.293 215.269,296.997 215.393 C 296.918 215.426,296.821 215.462,296.781 215.473 C 296.742 215.484,296.687 215.504,296.661 215.518 C 296.635 215.531,296.570 215.552,296.517 215.566 C 296.464 215.579,296.399 215.601,296.373 215.614 C 296.346 215.627,296.282 215.649,296.229 215.662 C 296.176 215.675,296.111 215.697,296.085 215.710 C 296.058 215.723,296.004 215.743,295.964 215.754 C 295.925 215.765,295.828 215.802,295.748 215.836 C 295.669 215.869,294.804 216.175,293.827 216.515 C 292.849 216.855,291.610 217.293,291.073 217.489 L 290.096 217.845 289.999 218.387 C 289.945 218.685,289.680 220.053,289.409 221.427 C 289.138 222.801,288.549 225.806,288.100 228.105 C 287.651 230.404,287.072 233.365,286.812 234.687 C 286.236 237.621,284.874 244.582,283.776 250.204 C 283.327 252.503,282.746 255.476,282.484 256.810 C 282.222 258.144,281.794 260.328,281.532 261.662 C 281.270 262.997,280.468 267.093,279.750 270.766 C 279.032 274.439,278.232 278.525,277.973 279.846 C 277.413 282.698,275.048 294.787,274.514 297.526 C 274.308 298.583,273.900 300.658,273.609 302.138 C 272.837 306.052,272.854 305.579,273.467 306.143 C 273.752 306.406,274.590 307.143,275.330 307.781 C 276.070 308.420,276.935 309.193,277.252 309.499 C 277.569 309.805,278.486 310.631,279.290 311.334 C 282.192 313.870,283.604 315.122,284.361 315.830 C 284.784 316.226,285.771 317.113,286.553 317.800 C 287.335 318.487,288.705 319.697,289.598 320.490 C 290.491 321.283,291.905 322.535,292.740 323.273 C 293.576 324.011,294.584 324.919,294.981 325.291 C 295.378 325.663,296.178 326.373,296.758 326.869 C 297.339 327.365,298.095 328.036,298.439 328.361 C 298.782 328.685,299.560 329.380,300.168 329.904 C 300.776 330.429,301.727 331.273,302.282 331.780 C 302.837 332.287,303.788 333.129,304.396 333.651 C 305.004 334.172,305.825 334.907,306.221 335.284 C 306.618 335.660,307.396 336.354,307.951 336.825 C 308.506 337.297,309.306 338.008,309.729 338.407 C 310.152 338.805,311.082 339.639,311.795 340.260 C 313.418 341.673,315.128 343.192,316.743 344.654 C 317.430 345.276,318.502 346.226,319.126 346.765 L 320.261 347.745 321.186 346.993 C 329.731 340.051,339.977 329.823,346.989 321.237 L 347.546 320.555 348.306 316.679 C 348.724 314.547,349.394 311.117,349.796 309.056 C 350.197 306.995,350.587 305.006,350.661 304.636 C 350.735 304.266,350.973 303.055,351.189 301.946 C 351.405 300.836,351.799 298.825,352.063 297.478 C 352.328 296.130,352.912 293.147,353.361 290.848 C 353.809 288.549,354.389 285.587,354.648 284.266 C 355.975 277.500,357.184 271.324,358.596 264.088 C 359.018 261.922,359.448 259.738,359.550 259.236 C 359.651 258.734,360.258 255.643,360.897 252.366 C 361.536 249.090,362.097 246.214,362.143 245.976 C 362.536 243.960,363.095 241.107,363.488 239.106 C 363.747 237.785,364.547 233.699,365.265 230.026 C 365.984 226.354,366.783 222.268,367.043 220.946 C 367.776 217.210,368.457 213.733,368.877 211.578 C 369.089 210.495,369.474 208.528,369.733 207.206 C 369.992 205.885,370.554 203.010,370.982 200.817 C 371.411 198.624,372.000 195.624,372.291 194.152 C 372.857 191.294,372.893 190.796,372.577 190.213 C 372.188 189.494,371.229 189.034,370.598 189.262 M270.050 320.361 C 270.025 320.432,269.919 320.944,269.814 321.499 C 269.639 322.425,267.663 332.538,266.538 338.266 C 266.279 339.587,265.894 341.554,265.683 342.638 C 264.401 349.214,263.442 354.071,263.363 354.384 C 263.313 354.582,263.229 354.912,263.178 355.117 C 263.064 355.567,262.638 356.790,262.448 357.209 C 262.373 357.375,262.311 357.540,262.311 357.574 C 262.311 357.633,261.661 358.949,261.285 359.650 C 261.184 359.837,261.006 360.125,260.890 360.289 C 260.773 360.453,260.677 360.616,260.677 360.651 C 260.677 360.709,260.217 361.360,260.098 361.470 C 260.069 361.497,259.833 361.811,259.573 362.169 C 258.980 362.984,256.770 365.145,255.902 365.758 C 255.543 366.012,255.227 366.246,255.201 366.278 C 255.144 366.345,252.966 367.662,252.895 367.671 C 252.868 367.674,252.510 367.837,252.100 368.033 C 251.689 368.228,251.321 368.388,251.283 368.389 C 251.245 368.389,251.099 368.449,250.960 368.522 C 250.697 368.659,249.838 368.959,249.551 369.014 C 249.461 369.032,249.387 369.053,249.387 369.061 C 249.387 369.069,249.323 369.089,249.243 369.106 C 249.164 369.123,248.732 369.232,248.282 369.348 C 247.833 369.464,247.336 369.577,247.178 369.598 C 247.019 369.619,246.781 369.658,246.649 369.684 C 246.028 369.809,244.935 369.875,243.574 369.869 C 242.161 369.863,241.848 369.844,240.596 369.686 C 240.144 369.629,66.639 335.709,66.033 335.560 C 65.654 335.466,65.863 335.699,67.918 337.658 C 95.684 364.129,130.361 381.548,167.812 387.836 C 172.819 388.676,179.158 389.487,182.897 389.764 C 183.320 389.796,183.795 389.840,183.954 389.862 C 184.112 389.884,184.696 389.928,185.251 389.958 C 185.806 389.989,186.390 390.032,186.548 390.054 C 186.707 390.076,187.420 390.121,188.134 390.154 C 188.847 390.188,189.530 390.231,189.650 390.250 C 191.240 390.498,207.977 390.497,209.993 390.248 C 210.151 390.228,210.800 390.185,211.434 390.153 C 245.301 388.412,280.974 376.019,308.981 356.263 L 309.867 355.638 309.032 354.927 C 308.573 354.536,307.808 353.854,307.332 353.412 C 306.856 352.970,305.903 352.115,305.215 351.512 C 304.527 350.909,303.200 349.736,302.268 348.905 C 301.335 348.074,299.911 346.810,299.104 346.097 C 298.296 345.383,297.286 344.475,296.858 344.079 C 296.431 343.682,295.477 342.829,294.738 342.183 C 293.999 341.536,292.443 340.160,291.280 339.125 C 290.118 338.089,288.540 336.694,287.774 336.024 C 287.009 335.355,286.036 334.481,285.612 334.083 C 285.189 333.685,284.237 332.831,283.497 332.184 C 282.758 331.538,281.331 330.274,280.327 329.376 C 279.323 328.478,277.853 327.175,277.060 326.481 C 276.267 325.786,275.314 324.932,274.943 324.583 C 274.571 324.235,273.642 323.400,272.877 322.729 C 272.112 322.058,271.174 321.222,270.791 320.871 C 270.333 320.451,270.079 320.276,270.050 320.361 " stroke="none" fill="#000000" fill-rule="evenodd"></path></g></svg>