<svg id="svg" xmlns="http://www.w3.org/2000/svg" xmlns:xlink="http://www.w3.org/1999/xlink" width="400" height="400" viewBox="0, 0, 400,400"><g id="svgg"><path id="path0" d="M194.187 10.019 C 194.160 10.043,193.188 10.093,192.025 10.129 C 190.862 10.165,189.695 10.213,189.431 10.236 C 189.166 10.260,188.172 10.324,187.221 10.379 C 186.270 10.434,185.275 10.500,185.011 10.524 C 184.747 10.548,183.990 10.613,183.329 10.668 C 145.844 13.775,107.912 29.077,79.606 52.511 C 71.476 59.242,66.056 64.321,59.660 71.202 C 5.966 128.975,-6.208 214.332,29.142 285.179 L 31.276 289.455 31.300 245.904 L 31.324 202.354 38.241 202.354 L 45.157 202.354 45.185 248.307 C 45.211 291.359,45.224 294.323,45.380 295.268 C 47.053 305.411,54.713 312.346,65.072 313.096 L 65.911 313.157 65.940 273.825 C 65.963 242.461,65.994 234.290,66.093 233.485 C 68.107 217.081,79.685 205.107,95.940 202.618 C 97.801 202.333,135.463 202.227,136.710 202.503 C 139.035 203.017,141.068 204.927,141.818 207.301 L 142.061 208.071 142.086 229.425 L 142.112 250.779 170.479 250.804 C 197.802 250.828,198.866 250.835,199.375 251.007 C 201.768 251.813,203.460 253.521,204.152 255.832 C 204.310 256.361,204.324 257.191,204.349 267.427 C 204.372 277.080,204.393 278.454,204.518 278.461 C 204.596 278.465,213.945 278.473,225.294 278.477 L 245.928 278.485 245.976 267.395 L 246.025 256.306 246.294 255.537 C 247.048 253.390,248.586 251.852,250.733 251.099 L 251.501 250.829 279.869 250.804 L 308.236 250.779 308.262 229.377 L 308.287 207.975 308.514 207.302 C 309.371 204.765,311.167 203.083,313.643 202.498 C 314.529 202.289,351.450 202.298,353.351 202.508 C 370.355 204.383,383.278 217.932,384.332 234.989 C 384.388 235.896,384.438 239.182,384.443 242.292 L 384.452 247.946 384.825 246.505 C 389.671 227.811,391.511 205.932,389.954 185.539 C 383.616 102.523,323.426 33.044,241.882 14.615 C 231.408 12.248,221.324 10.879,209.176 10.174 C 207.408 10.072,194.279 9.936,194.187 10.019 M248.955 22.512 C 258.910 24.264,265.917 31.857,266.635 41.671 C 266.755 43.306,266.755 70.367,266.636 72.119 C 265.937 82.343,257.680 90.791,247.754 91.437 C 247.278 91.468,246.803 91.507,246.697 91.524 C 246.591 91.540,234.690 91.558,220.250 91.561 L 193.995 91.569 184.498 104.228 C 179.274 111.190,174.781 117.090,174.514 117.339 C 171.149 120.464,165.672 119.525,163.648 115.477 C 162.859 113.899,162.916 114.866,162.886 102.546 C 162.865 93.943,162.834 91.568,162.741 91.565 C 152.433 91.285,144.198 84.261,142.378 74.198 L 142.157 72.976 142.157 56.930 L 142.157 40.884 142.375 39.683 C 144.138 29.965,151.658 23.175,161.566 22.354 C 163.274 22.213,248.126 22.366,248.955 22.512 M162.287 36.191 C 159.484 36.469,157.304 38.157,156.264 40.854 L 155.993 41.557 155.993 56.882 C 155.993 71.613,156.000 72.228,156.173 72.736 C 156.811 74.609,158.078 76.107,159.693 76.899 C 161.271 77.674,161.160 77.660,166.466 77.727 L 171.175 77.787 171.956 78.048 C 173.650 78.616,175.141 79.912,175.955 81.528 C 176.628 82.863,176.640 82.956,176.678 87.371 C 176.698 89.698,176.749 91.375,176.799 91.358 C 176.847 91.342,178.748 88.842,181.023 85.804 C 185.544 79.765,186.037 79.197,187.332 78.526 C 188.931 77.698,185.482 77.787,218.112 77.732 L 247.081 77.683 247.800 77.461 C 250.151 76.735,251.824 75.079,252.622 72.688 L 252.847 72.015 252.847 56.930 C 252.847 42.475,252.839 41.821,252.667 41.268 C 251.913 38.844,250.114 37.076,247.658 36.347 C 247.132 36.191,163.822 36.038,162.287 36.191 M238.962 56.882 L 238.962 63.800 204.372 63.800 L 169.781 63.800 169.781 56.882 L 169.781 49.964 204.372 49.964 L 238.962 49.964 238.962 56.882 M117.717 105.554 C 146.920 107.906,164.652 139.238,151.570 165.369 C 136.190 196.087,92.517 196.031,77.162 165.272 C 64.258 139.426,81.843 108.038,110.593 105.601 C 111.254 105.545,111.946 105.485,112.131 105.467 C 113.097 105.376,116.082 105.423,117.717 105.554 M339.181 105.545 C 366.115 107.751,383.851 134.504,375.318 160.057 C 367.322 184.003,339.922 195.340,317.367 184.036 C 296.879 173.767,288.543 148.900,298.740 128.465 C 305.146 115.624,318.030 106.774,332.020 105.604 C 332.707 105.546,333.421 105.485,333.606 105.467 C 334.535 105.379,337.691 105.423,339.181 105.545 M111.554 119.345 C 92.730 121.417,81.386 141.171,89.159 158.343 C 95.871 173.172,114.017 179.080,128.074 171.013 C 144.022 161.862,146.899 140.239,133.894 127.281 C 128.082 121.490,119.561 118.463,111.554 119.345 M332.758 119.388 C 311.227 121.859,300.755 147.375,314.340 164.265 C 327.376 180.472,353.069 177.019,361.320 157.951 C 369.757 138.452,353.844 116.968,332.758 119.388 M204.372 139.995 L 204.372 146.913 197.454 146.913 L 190.536 146.913 190.536 139.995 L 190.536 133.077 197.454 133.077 L 204.372 133.077 204.372 139.995 M232.047 139.995 L 232.047 146.865 225.174 146.865 L 218.301 146.865 218.302 140.019 C 218.303 136.254,218.303 133.151,218.303 133.125 C 218.304 133.098,221.396 133.087,225.175 133.100 L 232.047 133.125 232.047 139.995 M259.717 139.995 L 259.717 146.913 252.847 146.913 L 245.976 146.913 245.976 139.995 L 245.976 133.077 252.847 133.077 L 259.717 133.077 259.717 139.995 M267.990 167.766 C 276.093 168.317,283.548 173.763,286.101 180.994 L 286.277 181.492 290.892 181.527 C 296.044 181.566,295.964 181.557,297.430 182.271 C 300.892 183.958,302.291 188.140,300.552 191.602 C 300.403 191.899,297.402 196.460,293.883 201.739 L 287.485 211.338 287.485 214.259 C 287.485 217.644,287.345 219.192,286.863 221.127 C 284.792 229.448,277.833 235.637,269.277 236.769 C 267.858 236.957,210.162 236.957,208.744 236.769 C 199.487 235.544,192.359 228.604,190.763 219.263 C 190.549 218.014,190.432 188.961,190.632 186.644 C 191.499 176.551,199.736 168.456,209.834 167.771 C 211.528 167.656,266.307 167.652,267.990 167.766 M209.980 181.647 C 207.133 182.267,204.991 184.485,204.502 187.319 C 204.273 188.647,204.358 217.080,204.593 217.872 C 205.335 220.366,207.203 222.215,209.658 222.886 C 210.389 223.085,265.861 223.213,267.475 223.019 C 270.019 222.712,272.177 221.061,273.136 218.687 C 273.601 217.535,273.649 216.970,273.650 212.555 C 273.653 206.650,273.296 207.644,277.891 200.749 C 279.838 197.826,281.432 195.413,281.432 195.387 C 281.432 195.361,281.045 195.340,280.573 195.340 C 276.714 195.340,273.926 192.619,273.647 188.582 C 273.405 185.072,271.744 182.831,268.604 181.777 L 267.932 181.552 239.251 181.535 C 215.626 181.521,210.465 181.541,209.980 181.647 M259.717 202.330 L 259.717 209.272 239.026 209.272 C 227.647 209.272,218.318 209.254,218.296 209.232 C 218.274 209.210,218.267 206.086,218.281 202.290 L 218.307 195.388 239.012 195.388 L 259.717 195.388 259.717 202.330 M98.851 216.198 C 90.114 216.922,82.643 223.225,80.469 231.707 C 79.736 234.567,79.798 230.656,79.798 274.177 L 79.798 313.092 111.650 313.140 L 143.502 313.188 144.271 313.458 C 146.498 314.242,148.029 315.832,148.776 318.135 L 148.979 318.761 149.004 351.216 L 149.029 383.671 149.244 383.753 C 150.263 384.139,162.199 386.933,162.832 386.933 C 162.850 386.933,162.854 366.902,162.840 342.421 L 162.815 297.910 162.545 297.141 C 161.734 294.828,160.065 293.237,157.685 292.507 C 157.183 292.353,155.412 292.338,131.684 292.292 L 106.221 292.241 105.549 292.014 C 103.235 291.232,101.737 289.795,100.909 287.563 L 100.649 286.860 100.623 261.902 L 100.598 236.945 107.518 236.945 L 114.437 236.945 114.437 257.723 L 114.437 278.501 152.462 278.501 L 190.488 278.501 190.512 271.560 L 190.537 264.619 162.263 264.594 L 133.990 264.569 133.271 264.346 C 131.028 263.651,129.314 261.965,128.524 259.677 L 128.323 259.092 128.274 237.617 L 128.225 216.142 114.004 216.131 C 106.183 216.126,99.364 216.156,98.851 216.198 M322.172 216.174 C 322.108 216.195,322.075 223.362,322.074 237.409 C 322.073 255.871,322.054 258.690,321.929 259.220 C 321.433 261.323,320.036 263.047,318.088 263.958 C 316.669 264.622,319.474 264.561,288.110 264.615 L 259.765 264.665 259.740 271.559 L 259.715 278.453 297.813 278.453 L 335.912 278.453 335.912 257.699 L 335.912 236.945 342.831 236.945 L 349.750 236.945 349.725 261.902 L 349.700 286.860 349.404 287.645 C 348.609 289.755,347.113 291.219,344.982 291.973 L 344.223 292.241 318.712 292.291 C 294.767 292.339,293.168 292.352,292.652 292.510 C 289.886 293.356,287.964 295.520,287.583 298.218 C 287.507 298.755,287.485 308.921,287.505 334.109 L 287.533 369.251 289.695 368.091 C 293.275 366.169,296.364 364.395,299.759 362.313 L 301.319 361.355 301.344 340.010 L 301.369 318.664 301.631 317.896 C 302.428 315.555,304.287 313.851,306.680 313.266 C 307.270 313.122,309.334 313.108,330.313 313.099 C 353.146 313.091,353.300 313.089,353.485 312.899 C 354.197 312.169,359.477 304.411,361.824 300.649 C 364.702 296.034,367.957 290.266,370.106 285.974 L 370.502 285.183 370.502 260.300 C 370.502 232.933,370.534 234.452,369.914 231.949 C 367.872 223.699,361.109 217.602,352.582 216.326 C 351.624 216.183,322.581 216.038,322.172 216.174 M176.764 292.353 C 176.690 292.427,176.674 389.142,176.748 389.142 C 176.774 389.142,177.542 389.227,178.453 389.331 C 204.406 392.282,231.893 389.669,256.736 381.889 C 262.115 380.204,269.712 377.445,273.096 375.946 L 273.649 375.701 273.625 334.019 L 273.601 292.337 225.214 292.313 C 198.602 292.300,176.799 292.318,176.764 292.353 M65.914 331.298 L 65.914 335.717 67.283 337.045 C 84.269 353.525,104.753 366.945,126.928 376.120 C 129.937 377.365,134.856 379.246,135.103 379.246 C 135.156 379.246,135.191 368.872,135.191 353.063 L 135.191 326.880 100.552 326.880 L 65.914 326.880 65.914 331.298 M315.157 339.330 L 315.157 351.780 316.190 350.986 C 322.813 345.891,329.182 340.273,335.239 334.182 C 337.527 331.881,341.973 327.169,342.045 326.969 C 342.065 326.914,336.859 326.880,328.617 326.880 L 315.157 326.880 315.157 339.330 " stroke="none" fill="#000000" fill-rule="evenodd"></path></g></svg>