<svg id="svg" xmlns="http://www.w3.org/2000/svg" xmlns:xlink="http://www.w3.org/1999/xlink" width="400" height="400" viewBox="0, 0, 400,400"><g id="svgg"><path id="path0" d="M194.378 10.021 C 194.352 10.045,193.323 10.095,192.090 10.132 C 190.858 10.170,189.755 10.215,189.640 10.233 C 189.525 10.251,188.847 10.292,188.134 10.325 C 187.420 10.358,186.663 10.403,186.452 10.426 C 186.241 10.448,185.700 10.491,185.251 10.521 C 184.802 10.551,184.218 10.595,183.954 10.619 C 183.690 10.643,182.738 10.729,181.840 10.811 C 110.303 17.323,47.556 64.775,21.813 131.828 C 21.377 132.964,21.001 133.926,20.977 133.966 C 20.954 134.006,20.953 134.038,20.975 134.038 C 20.997 134.038,21.224 133.681,21.480 133.245 C 21.735 132.809,22.082 132.236,22.250 131.972 C 22.418 131.708,22.937 130.886,23.404 130.147 C 30.310 119.204,39.358 108.767,49.772 99.730 C 51.415 98.304,52.841 97.101,53.239 96.805 C 53.381 96.699,53.814 96.354,54.201 96.037 C 54.588 95.719,55.019 95.374,55.160 95.268 C 55.301 95.162,55.649 94.895,55.933 94.673 C 60.928 90.785,66.841 86.735,71.871 83.759 C 72.320 83.493,72.947 83.115,73.264 82.919 C 73.842 82.560,75.673 81.511,76.483 81.074 C 76.721 80.946,77.326 80.610,77.828 80.328 C 78.331 80.046,79.087 79.634,79.510 79.412 C 79.933 79.191,80.622 78.826,81.041 78.602 C 82.750 77.688,89.466 74.369,89.606 74.369 C 89.634 74.369,90.400 74.031,91.309 73.618 C 92.218 73.204,93.373 72.688,93.875 72.471 C 94.377 72.254,95.187 71.900,95.676 71.685 C 96.165 71.471,96.591 71.295,96.622 71.295 C 96.653 71.295,97.075 71.127,97.559 70.923 C 98.744 70.422,99.665 70.049,100.985 69.536 C 101.593 69.299,102.393 68.988,102.762 68.843 C 103.423 68.585,104.214 68.293,106.318 67.531 C 107.780 67.001,112.297 65.440,112.707 65.322 C 112.892 65.270,113.476 65.082,114.004 64.906 C 122.816 61.967,135.558 58.763,146.625 56.704 C 151.949 55.713,160.664 54.320,163.200 54.054 C 163.464 54.026,164.891 53.852,166.370 53.666 C 169.818 53.235,175.032 52.674,176.699 52.556 C 177.413 52.506,179.186 52.358,180.639 52.228 C 183.450 51.976,184.604 51.899,190.151 51.595 C 198.125 51.158,197.772 51.165,210.761 51.165 C 221.590 51.165,224.268 51.207,228.873 51.451 C 230.327 51.527,232.402 51.637,233.485 51.695 C 236.749 51.868,239.718 52.067,242.758 52.317 C 244.343 52.447,246.181 52.597,246.841 52.650 C 248.587 52.791,253.361 53.283,256.738 53.671 C 258.350 53.856,259.885 54.029,260.149 54.055 C 266.318 54.678,279.383 57.034,286.572 58.821 C 287.206 58.979,288.071 59.186,288.494 59.281 C 289.550 59.518,293.871 60.657,296.133 61.294 C 300.409 62.498,306.704 64.493,310.834 65.953 C 311.494 66.186,312.359 66.491,312.755 66.631 C 314.427 67.220,318.886 68.927,320.315 69.525 C 320.746 69.706,321.125 69.853,321.156 69.853 C 321.187 69.853,321.634 70.030,322.148 70.246 C 324.399 71.189,324.946 71.420,325.534 71.675 C 325.878 71.823,326.635 72.151,327.216 72.403 C 328.380 72.906,331.360 74.249,332.116 74.609 C 332.380 74.736,333.288 75.169,334.134 75.572 C 335.941 76.434,340.160 78.542,341.533 79.268 C 343.844 80.491,345.728 81.511,346.817 82.128 C 348.983 83.355,350.191 84.052,350.736 84.390 C 351.419 84.813,351.388 84.757,349.848 82.800 C 346.022 77.935,341.407 72.639,337.454 68.574 C 336.571 67.666,335.745 66.803,335.620 66.656 C 334.239 65.041,326.254 57.720,322.027 54.193 C 291.246 28.509,251.820 12.693,212.923 10.424 C 212.368 10.391,211.785 10.349,211.626 10.329 C 211.468 10.310,210.625 10.265,209.753 10.231 C 208.881 10.196,208.059 10.147,207.927 10.120 C 207.622 10.060,194.442 9.963,194.378 10.021 M196.656 69.373 C 193.157 69.473,188.332 69.679,186.452 69.809 C 186.082 69.834,184.828 69.898,183.666 69.950 C 182.503 70.002,180.579 70.129,179.390 70.233 C 178.201 70.336,176.363 70.490,175.306 70.576 C 174.249 70.661,172.196 70.862,170.742 71.021 C 169.289 71.180,167.495 71.372,166.755 71.447 C 166.015 71.521,164.631 71.695,163.680 71.831 C 162.729 71.968,161.583 72.118,161.134 72.164 C 158.686 72.415,149.865 73.906,145.184 74.860 C 135.563 76.820,127.893 78.847,119.241 81.716 C 117.272 82.369,116.114 82.772,114.389 83.406 C 113.649 83.678,112.762 83.999,112.419 84.120 C 112.075 84.241,111.448 84.479,111.026 84.649 C 110.603 84.818,109.846 85.121,109.344 85.321 C 107.762 85.952,106.258 86.576,104.828 87.197 C 104.379 87.392,103.754 87.659,103.439 87.791 C 103.124 87.923,102.583 88.173,102.238 88.346 C 101.892 88.519,101.501 88.694,101.369 88.735 C 101.105 88.816,98.357 90.136,96.181 91.227 C 94.345 92.147,93.105 92.797,91.067 93.907 C 89.885 94.551,88.107 95.567,87.655 95.858 C 87.378 96.035,87.131 96.181,87.106 96.181 C 87.081 96.181,86.594 96.468,86.024 96.819 C 85.453 97.170,84.792 97.573,84.554 97.716 C 82.880 98.718,78.975 101.332,76.675 102.990 C 66.947 110.002,57.813 118.849,51.068 127.792 C 50.809 128.136,50.572 128.439,50.541 128.465 C 50.453 128.539,48.073 131.833,47.209 133.077 C 45.143 136.050,42.226 140.683,40.647 143.502 C 40.499 143.767,40.195 144.307,39.971 144.703 C 37.238 149.540,34.223 155.763,32.058 161.038 C 31.874 161.487,31.608 162.135,31.468 162.479 C 31.327 162.822,31.092 163.428,30.946 163.824 C 30.800 164.221,30.590 164.761,30.479 165.025 C 30.247 165.579,29.363 168.009,28.768 169.733 C 26.094 177.476,23.703 186.978,22.675 193.947 C 22.331 196.278,21.908 199.428,21.862 200.000 C 21.731 201.626,21.704 201.941,21.666 202.258 C 21.232 205.872,21.042 212.246,21.239 216.575 C 21.329 218.551,21.394 219.420,21.718 223.012 C 21.818 224.126,22.126 226.370,22.572 229.244 C 23.254 233.638,25.402 241.372,26.869 244.715 C 26.994 244.999,27.096 245.269,27.096 245.316 C 27.096 245.362,27.272 245.800,27.487 246.289 C 27.702 246.778,28.010 247.480,28.173 247.850 C 28.683 249.013,30.079 251.857,30.484 252.558 C 30.697 252.928,31.047 253.534,31.260 253.903 C 32.191 255.518,32.567 256.119,33.696 257.795 C 35.104 259.887,35.080 259.853,36.121 261.208 C 36.843 262.147,37.197 262.587,38.049 263.600 C 40.439 266.438,44.693 270.556,47.091 272.352 C 47.232 272.457,47.709 272.825,48.151 273.168 C 49.636 274.322,53.297 276.796,54.768 277.639 C 55.059 277.806,55.707 278.179,56.209 278.469 C 56.712 278.760,57.252 279.063,57.411 279.143 C 57.569 279.223,58.239 279.568,58.900 279.911 C 60.249 280.609,62.996 281.892,64.377 282.467 C 66.060 283.168,69.300 284.410,69.447 284.410 C 69.496 284.410,69.943 284.556,70.439 284.735 C 73.617 285.875,79.877 287.505,83.738 288.197 C 87.045 288.790,91.440 289.467,93.106 289.642 C 93.397 289.672,94.780 289.847,96.181 290.029 C 101.078 290.668,108.602 291.494,116.695 292.283 C 118.861 292.494,122.191 292.819,124.093 293.005 C 125.996 293.191,128.093 293.387,128.753 293.442 C 129.414 293.496,131.165 293.667,132.645 293.821 C 134.124 293.975,136.027 294.170,136.872 294.253 C 142.852 294.843,152.564 296.020,157.531 296.757 C 158.746 296.937,159.957 297.111,160.221 297.143 C 163.517 297.547,173.703 299.422,178.765 300.556 C 181.368 301.139,181.051 301.158,182.042 300.364 C 185.412 297.659,189.655 298.508,190.782 302.111 C 190.819 302.232,191.017 302.693,191.221 303.136 C 191.426 303.580,191.593 303.978,191.593 304.023 C 191.593 304.067,191.716 304.374,191.867 304.706 C 192.295 305.647,193.175 307.899,194.185 310.641 C 195.101 313.127,196.427 317.054,197.251 319.721 C 198.187 322.753,198.743 324.619,199.039 325.727 C 199.160 326.176,199.388 326.997,199.548 327.552 C 200.098 329.470,200.849 332.287,201.775 335.912 C 201.997 336.784,202.323 338.037,202.499 338.698 C 202.675 339.359,202.839 340.029,202.864 340.187 C 202.888 340.346,203.062 341.081,203.250 341.821 C 203.438 342.561,203.771 343.901,203.988 344.799 C 204.206 345.698,204.551 347.103,204.754 347.922 C 204.957 348.741,205.474 350.860,205.904 352.630 C 206.334 354.401,206.806 356.320,206.952 356.896 L 207.219 357.942 207.607 356.799 C 208.834 353.185,210.452 347.381,212.104 340.668 C 212.595 338.673,213.140 336.488,213.649 334.470 C 214.035 332.941,214.590 330.524,215.139 327.985 C 216.850 320.056,218.499 315.557,220.696 312.821 C 222.723 310.297,224.767 308.893,227.456 308.178 L 228.488 307.903 228.489 307.454 C 228.492 303.622,230.635 300.065,233.946 298.400 C 236.441 297.145,243.544 295.067,249.868 293.742 C 254.234 292.827,262.506 291.437,265.337 291.143 C 265.760 291.099,267.295 290.910,268.748 290.723 C 271.558 290.361,275.949 289.849,277.540 289.698 C 278.069 289.647,279.993 289.455,281.816 289.271 C 284.920 288.957,287.077 288.748,297.238 287.774 C 303.472 287.176,308.685 286.641,311.794 286.281 C 313.353 286.100,315.084 285.907,315.641 285.853 C 316.197 285.798,317.451 285.645,318.427 285.512 C 319.403 285.379,320.613 285.228,321.115 285.176 C 325.107 284.767,336.730 282.840,341.677 281.768 C 342.496 281.591,343.317 281.419,343.502 281.387 C 343.687 281.354,344.487 281.177,345.280 280.992 C 358.427 277.930,368.166 274.273,376.524 269.260 C 377.274 268.811,377.915 268.371,377.951 268.284 C 379.378 264.729,381.893 257.174,383.314 252.174 C 394.313 213.479,392.645 171.530,378.614 133.967 C 377.776 131.726,377.658 131.472,377.246 131.025 C 376.054 129.731,375.459 129.101,374.425 128.035 C 373.809 127.400,373.219 126.771,373.115 126.639 C 372.230 125.507,363.999 117.990,361.070 115.638 C 360.873 115.479,359.985 114.763,359.097 114.046 C 357.152 112.476,355.184 110.967,352.919 109.310 C 352.628 109.097,352.174 108.764,351.910 108.570 C 350.127 107.258,344.973 103.800,342.541 102.284 C 341.881 101.872,341.049 101.346,340.693 101.116 C 340.337 100.885,340.023 100.697,339.995 100.697 C 339.967 100.697,339.718 100.552,339.441 100.375 C 339.165 100.197,338.614 99.866,338.218 99.638 C 337.821 99.410,337.228 99.057,336.899 98.855 C 336.570 98.652,336.276 98.487,336.246 98.487 C 336.215 98.487,335.966 98.343,335.691 98.168 C 335.416 97.993,335.061 97.784,334.903 97.704 C 334.744 97.624,334.204 97.327,333.702 97.043 C 333.200 96.760,332.551 96.403,332.260 96.250 C 331.970 96.097,331.602 95.895,331.444 95.800 C 330.218 95.069,324.124 92.012,321.190 90.656 C 316.575 88.524,316.236 88.375,312.563 86.862 C 311.902 86.590,311.009 86.219,310.577 86.037 C 310.145 85.856,309.750 85.707,309.700 85.707 C 309.650 85.707,309.354 85.594,309.044 85.455 C 308.502 85.212,308.221 85.105,305.910 84.257 C 303.422 83.344,300.821 82.428,299.736 82.083 C 299.472 81.999,298.845 81.791,298.343 81.622 C 297.218 81.242,295.320 80.641,294.547 80.419 C 294.230 80.329,293.128 80.007,292.097 79.705 C 286.408 78.037,276.945 75.830,272.784 75.200 C 272.599 75.172,271.561 74.997,270.478 74.811 C 267.802 74.351,259.648 73.114,258.371 72.974 C 258.081 72.942,256.546 72.749,254.960 72.545 C 246.297 71.428,233.432 70.235,227.000 69.951 C 225.890 69.902,223.598 69.795,221.907 69.714 C 220.216 69.633,217.687 69.521,216.286 69.466 C 212.924 69.333,200.158 69.273,196.656 69.373 M88.047 138.027 C 89.652 138.315,91.678 139.194,92.612 140.009 C 95.578 142.596,96.018 147.925,93.537 151.186 C 93.079 151.787,93.046 151.891,93.426 151.532 C 93.904 151.081,93.948 151.200,93.605 152.025 C 93.304 152.750,92.597 155.435,92.484 156.282 C 92.449 156.546,92.291 157.599,92.134 158.621 C 91.977 159.644,91.786 161.179,91.709 162.032 C 91.633 162.886,91.549 163.779,91.523 164.016 C 91.352 165.602,91.099 170.507,90.897 176.171 C 90.840 177.756,90.774 179.486,90.749 180.014 C 90.724 180.543,90.661 182.164,90.609 183.618 C 90.557 185.071,90.489 186.930,90.458 187.749 C 90.287 192.305,90.249 199.188,90.347 208.121 L 90.453 217.876 91.275 217.804 C 91.727 217.764,92.810 217.688,93.682 217.636 C 97.560 217.404,107.226 216.398,110.930 215.841 C 111.828 215.705,112.747 215.572,112.971 215.544 L 113.380 215.493 113.379 214.857 C 113.379 214.191,113.400 213.844,113.855 207.062 C 114.009 204.763,114.161 202.320,114.194 201.633 C 114.226 200.946,114.273 200.125,114.298 199.808 C 114.770 193.900,115.012 188.338,115.015 183.281 C 115.019 179.133,115.171 171.640,115.296 169.445 C 115.563 164.770,115.792 162.272,116.162 159.981 C 116.261 159.373,116.369 158.638,116.403 158.347 C 116.467 157.812,117.007 155.225,117.277 154.168 C 117.715 152.453,118.631 149.714,119.135 148.616 C 119.299 148.258,119.433 147.941,119.433 147.911 C 119.433 147.647,121.052 144.724,121.579 144.036 C 125.677 138.683,133.700 140.202,136.275 146.818 C 136.763 148.071,137.352 149.972,137.496 150.757 C 137.550 151.047,137.657 151.545,137.734 151.862 C 138.472 154.879,138.888 161.073,138.661 165.650 C 138.478 169.353,138.190 172.760,137.781 176.075 C 137.625 177.343,137.450 178.770,137.392 179.246 C 137.335 179.721,137.185 180.784,137.060 181.608 C 136.935 182.432,136.808 183.358,136.778 183.667 C 136.748 183.976,136.663 184.621,136.589 185.100 C 136.127 188.098,135.380 193.498,135.286 194.523 C 135.242 194.999,135.098 196.447,134.966 197.742 C 134.734 200.015,134.629 201.991,134.421 208.023 C 134.367 209.582,134.281 211.960,134.231 213.308 C 133.855 223.341,133.851 237.074,134.222 241.220 C 134.899 248.767,134.829 253.357,133.995 256.086 C 133.875 256.481,133.875 256.575,133.996 256.818 C 135.561 259.955,131.800 263.113,126.495 263.115 C 121.999 263.116,119.279 261.535,117.480 257.872 C 116.721 256.327,115.179 251.061,114.883 249.003 C 114.860 248.845,114.709 248.045,114.548 247.226 C 114.387 246.406,114.210 245.390,114.156 244.968 C 114.102 244.545,113.951 243.421,113.820 242.469 C 113.490 240.060,113.092 235.129,113.092 233.458 L 113.092 232.738 107.399 232.788 C 102.577 232.830,94.337 232.709,93.250 232.580 C 93.092 232.561,92.346 232.515,91.593 232.478 L 90.223 232.411 90.223 239.650 C 90.222 252.951,89.952 256.948,88.920 258.948 C 85.454 265.659,74.600 263.961,73.561 256.546 C 73.460 255.826,73.033 251.403,72.921 249.916 C 72.863 249.150,72.692 247.226,72.541 245.640 C 72.390 244.055,72.217 242.109,72.157 241.316 C 72.098 240.524,71.924 238.427,71.771 236.656 C 71.619 234.886,71.445 232.702,71.386 231.804 C 71.327 230.906,71.175 228.744,71.049 227.000 C 70.817 223.804,70.623 220.569,70.433 216.767 C 70.377 215.631,70.267 213.469,70.188 211.963 C 69.885 206.139,69.759 200.376,69.759 192.409 C 69.758 182.828,69.858 179.671,70.383 172.664 C 70.611 169.616,70.796 167.691,71.056 165.650 C 71.187 164.619,71.340 163.409,71.396 162.959 C 71.834 159.441,73.327 152.553,74.077 150.596 C 74.181 150.323,74.287 149.986,74.313 149.847 C 74.437 149.163,75.550 146.530,76.392 144.927 C 79.330 139.339,83.054 137.134,88.047 138.027 M182.850 143.586 C 185.405 144.301,187.230 145.796,188.890 148.534 C 189.520 149.573,189.794 151.660,189.491 153.111 C 189.008 155.427,186.344 158.486,183.903 159.528 C 182.080 160.307,180.837 160.335,176.027 159.706 C 173.554 159.383,167.869 159.019,167.681 159.173 C 167.663 159.188,167.758 160.165,167.894 161.344 C 168.144 163.517,168.189 164.020,168.532 168.484 C 168.826 172.318,168.899 173.475,169.009 176.075 C 169.363 184.414,169.474 194.092,169.307 202.114 C 169.243 205.179,169.156 209.330,169.114 211.338 C 169.072 213.346,169.044 214.998,169.052 215.009 C 169.084 215.049,173.044 214.651,174.249 214.487 C 178.842 213.861,181.266 214.777,184.320 218.295 C 186.207 220.469,186.111 224.797,184.121 227.252 C 181.673 230.271,178.951 231.419,175.339 230.955 C 174.634 230.865,173.473 230.724,172.760 230.643 C 172.047 230.561,170.814 230.417,170.022 230.323 C 169.229 230.229,168.572 230.157,168.562 230.164 C 168.518 230.192,168.338 234.580,168.244 237.905 C 168.188 239.887,168.098 242.951,168.044 244.714 C 167.990 246.478,167.963 247.938,167.985 247.959 C 168.143 248.117,171.493 246.647,173.048 245.736 C 173.339 245.566,173.901 245.241,174.297 245.013 C 174.694 244.785,175.277 244.442,175.595 244.250 C 177.958 242.820,179.701 242.459,181.696 242.987 C 184.793 243.807,186.843 246.441,187.083 249.908 C 187.875 261.349,179.579 267.817,164.112 267.818 C 154.452 267.819,150.474 265.805,148.966 260.149 C 148.717 259.215,148.793 245.424,149.123 231.660 C 149.439 218.458,149.608 213.004,149.847 208.359 C 149.923 206.880,150.029 204.761,150.083 203.651 C 150.287 199.460,150.393 197.618,150.573 195.100 C 150.777 192.246,150.884 190.718,151.047 188.326 C 151.106 187.454,151.239 185.854,151.342 184.771 C 151.445 183.687,151.571 182.239,151.622 181.552 C 151.753 179.775,151.716 180.144,152.535 172.424 C 152.723 170.644,153.086 167.696,153.552 164.160 C 154.055 160.352,154.086 160.130,154.406 158.059 C 154.917 154.762,154.924 154.679,154.757 154.004 C 154.080 151.278,154.579 148.745,156.108 147.149 C 156.332 146.915,156.716 146.421,156.960 146.050 C 158.297 144.020,161.341 143.201,163.482 144.295 C 163.756 144.435,165.114 144.424,167.091 144.267 C 167.382 144.244,168.636 144.180,169.877 144.126 C 172.449 144.014,174.979 143.813,177.052 143.556 C 179.274 143.281,181.806 143.295,182.850 143.586 M210.655 145.861 C 213.953 146.320,215.870 148.574,216.288 152.486 C 216.347 153.041,216.563 154.944,216.768 156.714 C 217.269 161.056,217.707 165.067,217.833 166.466 C 217.889 167.101,218.040 168.614,218.167 169.829 C 218.294 171.045,218.463 172.796,218.543 173.721 C 218.745 176.061,218.841 177.129,219.118 180.110 C 219.250 181.537,219.401 183.375,219.454 184.194 C 219.506 185.013,219.635 186.699,219.740 187.941 C 220.010 191.142,220.019 191.246,220.079 192.313 C 220.198 194.387,220.233 194.923,220.461 198.126 C 220.591 199.950,220.743 202.306,220.798 203.363 C 220.974 206.709,221.084 208.746,221.277 212.203 C 221.380 214.052,221.511 216.841,221.569 218.400 C 221.626 219.959,221.736 222.943,221.813 225.030 C 221.890 227.117,222.000 230.404,222.057 232.332 C 222.114 234.261,222.191 236.596,222.226 237.521 L 222.292 239.202 222.820 239.281 C 223.111 239.324,224.235 239.525,225.318 239.728 C 226.402 239.931,227.483 240.125,227.720 240.158 C 227.958 240.191,228.845 240.371,229.690 240.557 C 231.107 240.868,231.658 241.007,233.822 241.597 C 242.488 243.964,242.558 256.079,233.918 258.363 C 229.800 259.451,225.680 259.751,222.003 259.229 C 221.633 259.177,220.930 259.092,220.439 259.041 C 218.910 258.883,213.783 257.735,211.386 257.014 C 210.884 256.864,210.387 256.739,210.281 256.737 C 209.971 256.733,208.224 255.939,207.495 255.471 C 204.930 253.825,203.103 250.828,202.965 248.042 C 202.941 247.567,202.860 242.335,202.784 236.416 C 202.707 230.497,202.539 221.655,202.409 216.767 C 201.656 188.479,201.895 171.920,203.267 157.242 C 203.395 155.868,203.548 154.204,203.607 153.543 C 204.040 148.668,205.780 146.329,209.320 145.861 C 209.637 145.819,209.904 145.779,209.914 145.772 C 209.923 145.766,210.257 145.806,210.655 145.861 M260.810 148.788 C 262.530 149.236,263.927 150.352,264.501 151.736 C 265.476 154.091,268.436 169.342,268.991 174.874 C 269.020 175.165,269.170 176.332,269.324 177.468 C 269.477 178.604,269.630 179.880,269.663 180.303 C 269.696 180.725,269.806 181.806,269.906 182.705 C 270.205 185.378,270.384 187.294,270.477 188.789 C 270.524 189.565,270.652 191.345,270.760 192.746 C 271.072 196.805,271.139 198.061,271.392 204.708 C 271.753 214.174,271.775 215.938,271.760 233.506 L 271.745 250.966 272.481 250.588 C 273.236 250.200,273.535 250.033,274.142 249.662 C 279.079 246.639,282.875 246.416,286.085 248.961 C 288.977 251.254,290.042 256.389,288.296 259.620 C 288.225 259.753,287.954 260.293,287.695 260.822 C 282.942 270.526,273.913 274.301,262.670 271.285 C 261.784 271.047,260.768 270.742,260.412 270.606 C 260.056 270.470,259.616 270.317,259.433 270.265 C 256.321 269.377,253.333 266.302,252.438 263.062 C 252.154 262.034,252.245 254.321,252.759 235.984 C 252.890 231.307,253.038 225.340,253.088 222.724 C 253.138 220.108,253.222 216.087,253.276 213.788 C 253.679 196.430,253.758 190.821,253.758 179.342 C 253.758 169.974,253.671 163.159,253.472 156.810 C 253.364 153.373,253.409 152.946,253.995 151.766 C 255.127 149.485,258.248 148.121,260.810 148.788 M326.495 153.933 C 329.806 154.465,332.618 156.827,335.011 161.086 C 335.070 161.191,335.348 161.667,335.628 162.143 C 337.760 165.763,339.616 170.194,341.324 175.739 C 341.918 177.668,343.185 182.905,343.357 184.146 C 343.387 184.357,343.538 185.181,343.694 185.977 C 343.849 186.773,344.020 187.789,344.073 188.235 C 344.125 188.681,344.275 189.781,344.404 190.680 C 344.637 192.297,344.714 192.983,344.993 195.964 C 346.005 206.747,345.623 219.087,343.935 230.074 C 343.400 233.562,342.084 238.331,340.741 241.653 C 340.560 242.102,340.367 242.621,340.312 242.806 C 340.258 242.991,340.094 243.380,339.949 243.670 C 339.803 243.961,339.651 244.307,339.611 244.439 C 339.471 244.895,337.559 248.718,336.895 249.868 C 331.593 259.056,325.687 264.100,318.376 265.685 C 317.430 265.890,313.111 265.860,312.083 265.641 C 301.780 263.447,294.584 255.978,291.870 244.663 C 290.815 240.264,290.621 238.285,290.623 231.900 C 290.624 225.690,290.816 223.270,291.781 217.295 C 291.969 216.133,292.142 215.008,292.167 214.797 C 292.191 214.586,292.354 213.699,292.529 212.827 C 292.704 211.955,292.875 211.069,292.910 210.858 C 293.029 210.124,294.129 205.279,294.785 202.594 C 294.992 201.749,295.339 200.322,295.557 199.423 C 295.775 198.525,296.098 197.228,296.275 196.541 C 296.452 195.854,296.625 195.141,296.660 194.956 C 296.729 194.586,297.000 193.560,298.095 189.527 C 299.205 185.439,300.881 180.478,302.348 176.940 C 303.509 174.140,304.586 171.931,305.873 169.709 C 306.065 169.379,306.376 168.839,306.564 168.508 C 308.843 164.518,310.858 162.889,313.636 162.789 C 314.632 162.752,314.938 162.712,314.903 162.621 C 314.817 162.396,315.070 160.940,315.335 160.136 C 316.370 156.998,319.638 154.505,323.517 153.895 C 324.032 153.814,325.903 153.838,326.495 153.933 M320.155 175.561 C 320.090 175.844,319.874 176.659,319.674 177.372 C 319.338 178.574,319.146 179.284,318.188 182.873 C 317.994 183.600,317.814 184.314,317.789 184.459 C 317.764 184.604,317.618 185.177,317.463 185.731 C 317.309 186.286,317.137 186.957,317.081 187.221 C 317.026 187.485,316.831 188.285,316.649 188.998 C 316.467 189.712,316.146 191.031,315.936 191.929 C 315.055 195.696,314.745 196.994,314.437 198.222 C 312.352 206.520,310.533 214.609,310.298 216.634 C 310.268 216.892,310.181 217.449,310.106 217.872 C 309.504 221.250,309.011 226.524,309.009 229.599 C 309.007 232.213,309.420 236.146,309.870 237.809 C 309.977 238.206,310.149 238.844,310.253 239.228 C 311.037 242.140,312.726 244.901,314.148 245.596 C 316.415 246.704,319.416 243.997,322.083 238.439 C 322.714 237.122,322.895 236.687,323.443 235.167 C 323.686 234.493,324.375 231.582,324.569 230.411 C 324.626 230.067,324.777 229.224,324.905 228.537 C 325.032 227.850,325.164 227.029,325.198 226.712 C 325.232 226.394,325.340 225.486,325.439 224.694 C 326.387 217.116,326.112 203.875,324.809 194.315 C 324.673 193.320,324.523 192.163,324.474 191.745 C 324.134 188.805,322.754 182.471,321.819 179.558 C 321.637 178.990,321.471 178.439,321.451 178.334 C 321.414 178.141,320.888 176.652,320.489 175.609 L 320.273 175.048 320.155 175.561 M26.964 280.735 C 27.621 282.345,31.342 289.563,33.416 293.250 C 62.424 344.825,114.194 380.319,172.424 388.556 C 176.481 389.130,180.866 389.624,184.050 389.865 C 184.473 389.897,184.948 389.939,185.107 389.958 C 185.265 389.978,185.936 390.022,186.596 390.056 C 187.257 390.091,187.888 390.133,188.000 390.151 C 188.111 390.168,188.933 390.211,189.826 390.247 C 190.718 390.283,191.548 390.327,191.670 390.346 C 191.793 390.365,193.392 390.412,195.224 390.449 L 198.555 390.518 197.981 389.887 C 196.664 388.441,196.260 387.578,194.910 383.329 C 194.658 382.537,194.307 381.434,194.129 380.879 C 193.686 379.493,193.134 377.724,192.645 376.123 C 192.419 375.383,192.069 374.257,191.866 373.620 C 191.663 372.984,191.497 372.425,191.497 372.379 C 191.497 372.332,191.327 371.751,191.121 371.086 C 190.743 369.872,190.488 369.010,190.138 367.764 C 190.033 367.394,189.801 366.572,189.621 365.938 C 189.151 364.279,188.584 362.216,188.142 360.557 C 187.931 359.765,187.583 358.467,187.369 357.675 C 187.155 356.882,186.980 356.190,186.981 356.137 C 186.982 356.085,186.810 355.371,186.600 354.552 C 185.181 349.027,182.914 338.400,182.469 335.191 C 182.418 334.821,182.266 333.891,182.131 333.125 C 181.996 332.359,181.823 331.256,181.746 330.675 C 181.669 330.094,181.478 328.732,181.322 327.648 C 181.166 326.565,181.011 325.358,180.979 324.965 C 180.947 324.573,180.817 323.384,180.691 322.323 C 180.435 320.171,180.314 318.709,180.156 315.878 C 180.013 313.291,180.120 313.552,179.174 313.484 C 176.194 313.271,165.361 313.064,153.687 312.997 C 148.508 312.968,143.147 312.924,141.773 312.899 C 140.399 312.875,137.826 312.831,136.056 312.803 C 132.470 312.745,127.966 312.611,124.766 312.467 C 123.603 312.414,121.441 312.327,119.962 312.274 C 118.482 312.220,117.033 312.157,116.743 312.134 C 116.452 312.110,115.804 312.066,115.301 312.035 C 114.427 311.981,109.859 311.631,107.134 311.409 C 106.421 311.351,104.908 311.201,103.771 311.075 C 102.635 310.950,101.403 310.821,101.033 310.789 C 96.834 310.425,85.854 308.598,81.288 307.504 C 80.733 307.371,79.803 307.159,79.222 307.033 C 78.269 306.826,77.386 306.600,73.793 305.644 C 73.185 305.482,72.299 305.228,71.823 305.079 C 71.348 304.930,70.353 304.622,69.613 304.394 C 66.088 303.310,62.468 301.995,58.708 300.433 C 54.727 298.780,51.159 297.064,47.562 295.074 C 47.060 294.797,46.454 294.463,46.217 294.333 C 45.979 294.202,45.546 293.953,45.256 293.779 C 44.965 293.605,44.381 293.256,43.959 293.005 C 43.536 292.753,43.039 292.452,42.854 292.336 C 42.669 292.220,42.150 291.895,41.701 291.614 C 40.769 291.032,38.642 289.625,37.857 289.073 C 35.992 287.760,33.014 285.554,32.224 284.900 C 32.058 284.763,31.650 284.434,31.318 284.170 C 30.985 283.906,30.385 283.408,29.985 283.063 C 29.585 282.719,28.977 282.206,28.633 281.924 C 28.290 281.642,27.764 281.178,27.465 280.893 C 26.820 280.278,26.772 280.262,26.964 280.735 M367.139 289.991 C 365.714 290.501,363.836 291.146,363.488 291.245 C 363.303 291.297,362.698 291.485,362.143 291.662 C 355.272 293.856,346.951 295.878,337.449 297.664 C 334.190 298.277,331.773 298.711,331.252 298.778 C 330.987 298.812,330.079 298.965,329.234 299.117 C 328.388 299.270,327.350 299.441,326.928 299.497 C 326.505 299.553,325.251 299.745,324.141 299.923 C 320.996 300.428,315.311 301.264,308.768 302.185 C 307.235 302.401,304.965 302.725,303.723 302.904 C 302.481 303.084,301.227 303.258,300.937 303.290 C 300.436 303.346,299.509 303.480,293.250 304.400 C 288.397 305.114,282.237 306.098,279.126 306.655 C 278.148 306.830,277.153 307.002,276.916 307.036 C 276.389 307.112,273.450 307.666,271.487 308.060 C 270.694 308.218,269.700 308.409,269.277 308.484 C 267.435 308.810,260.745 310.327,257.362 311.186 C 253.749 312.104,249.153 313.406,246.745 314.195 C 246.137 314.394,245.078 314.741,244.391 314.966 C 242.983 315.428,241.097 316.090,240.015 316.502 C 239.483 316.704,238.969 316.809,238.083 316.895 L 236.876 317.012 236.816 318.751 C 236.783 319.707,236.736 320.641,236.712 320.826 C 236.688 321.011,236.642 321.422,236.611 321.739 C 236.526 322.597,235.815 326.116,235.504 327.216 C 235.354 327.744,235.203 328.328,235.167 328.513 C 235.038 329.180,233.597 333.768,232.709 336.344 C 231.727 339.190,229.930 344.814,229.930 345.043 C 229.930 345.116,229.760 345.783,229.553 346.525 C 229.345 347.267,228.998 348.544,228.781 349.363 C 228.226 351.455,227.766 353.131,227.318 354.696 C 227.106 355.436,226.916 356.128,226.896 356.233 C 226.813 356.672,225.511 360.970,225.057 362.308 C 224.873 362.849,224.687 363.432,224.644 363.605 C 224.600 363.779,224.321 364.612,224.023 365.458 C 223.724 366.303,223.395 367.254,223.291 367.571 C 223.054 368.292,222.419 369.926,221.992 370.919 C 221.813 371.333,221.667 371.720,221.667 371.779 C 221.667 371.838,221.518 372.213,221.335 372.612 C 221.153 373.010,220.759 373.899,220.461 374.586 C 218.001 380.244,213.721 387.316,211.404 389.551 C 210.996 389.945,210.795 390.199,210.891 390.199 C 211.046 390.198,212.981 390.068,214.509 389.956 C 274.073 385.589,328.863 352.649,361.058 301.850 C 363.308 298.299,367.717 290.746,368.058 289.858 C 368.141 289.643,368.094 289.649,367.139 289.991 " stroke="none" fill="#000000" fill-rule="evenodd"></path></g></svg>