<svg id="svg" xmlns="http://www.w3.org/2000/svg" xmlns:xlink="http://www.w3.org/1999/xlink" width="400" height="400" viewBox="0, 0, 400,400"><g id="svgg"><path id="path0" d="M189.554 10.234 C 189.539 10.247,188.921 10.287,188.182 10.324 C 187.442 10.360,186.707 10.406,186.548 10.425 C 186.390 10.445,185.828 10.487,185.299 10.520 C 184.771 10.552,184.144 10.597,183.906 10.621 C 183.668 10.644,182.738 10.730,181.840 10.812 C 167.417 12.121,152.356 15.321,138.506 20.019 C 136.093 20.837,132.293 22.212,132.333 22.252 C 132.359 22.278,190.436 10.410,191.064 10.251 C 191.170 10.224,190.879 10.204,190.419 10.206 C 189.958 10.209,189.569 10.221,189.554 10.234 M238.434 14.656 C 236.873 14.981,182.254 26.179,122.194 38.486 L 89.164 45.255 87.748 46.280 C 51.796 72.306,25.897 110.374,14.980 153.240 L 14.213 156.251 16.865 169.190 C 18.323 176.306,23.624 202.169,28.644 226.663 C 33.663 251.158,38.538 274.939,39.475 279.510 L 41.180 287.821 41.416 287.796 C 41.546 287.782,69.087 282.149,102.618 275.279 C 315.913 231.575,379.537 218.526,379.593 218.469 C 379.628 218.434,378.852 214.480,377.869 209.683 C 376.886 204.886,374.327 192.400,372.182 181.936 C 370.038 171.472,367.185 157.550,365.842 150.997 C 362.373 134.073,358.335 114.364,355.261 99.351 C 353.805 92.244,352.555 86.335,352.483 86.222 C 352.242 85.846,348.875 81.550,347.598 79.990 C 320.730 47.186,283.749 24.210,242.667 14.800 C 240.212 14.237,240.411 14.244,238.434 14.656 M144.528 90.839 C 145.143 90.957,146.699 91.508,149.700 92.672 C 150.522 92.991,151.924 93.527,154.936 94.676 C 158.403 95.998,162.750 97.658,167.860 99.610 C 168.626 99.903,170.377 100.572,171.751 101.097 C 173.125 101.622,174.682 102.218,175.210 102.422 C 175.739 102.626,176.993 103.104,177.997 103.483 C 179.001 103.863,180.190 104.316,180.639 104.491 C 181.088 104.665,182.212 105.095,183.137 105.447 C 184.062 105.798,185.316 106.277,185.924 106.511 C 186.531 106.745,188.174 107.373,189.575 107.907 C 193.074 109.242,194.545 109.804,197.117 110.789 C 200.059 111.915,205.421 113.962,208.215 115.026 C 209.457 115.499,210.970 116.077,211.578 116.311 C 212.186 116.545,213.829 117.174,215.229 117.708 C 216.630 118.242,218.403 118.919,219.169 119.212 C 219.935 119.504,221.686 120.173,223.060 120.698 C 230.649 123.596,230.705 123.619,231.441 124.135 C 234.343 126.173,235.210 130.181,233.416 133.269 C 232.970 134.037,232.472 134.539,224.982 141.783 C 221.758 144.900,214.948 151.490,209.849 156.426 C 204.749 161.362,197.939 167.953,194.715 171.072 C 191.492 174.191,188.207 177.371,187.415 178.138 C 186.624 178.906,185.285 180.204,184.439 181.023 C 183.594 181.842,182.209 183.186,181.362 184.010 C 175.970 189.252,167.747 197.189,167.313 197.571 C 163.820 200.647,158.407 199.549,156.459 195.369 C 156.041 194.473,156.119 194.823,153.600 182.513 C 152.411 176.699,150.029 165.068,148.306 156.666 C 146.584 148.263,144.249 136.870,143.118 131.348 C 141.987 125.825,140.019 116.226,138.746 110.017 C 137.473 103.807,136.407 98.424,136.377 98.054 C 136.019 93.670,140.161 90.004,144.528 90.839 M152.621 108.984 C 152.655 109.156,155.084 121.014,158.019 135.335 C 160.954 149.656,164.134 165.179,165.084 169.829 C 166.975 179.075,166.881 178.644,166.997 178.602 C 167.042 178.586,167.654 178.013,168.358 177.328 C 169.062 176.644,170.264 175.479,171.031 174.739 C 172.776 173.054,174.855 171.040,176.844 169.107 C 177.689 168.285,179.635 166.404,181.167 164.926 C 182.700 163.448,184.644 161.569,185.488 160.750 C 187.563 158.736,189.712 156.655,191.446 154.981 C 193.401 153.092,195.539 151.023,197.499 149.123 C 199.126 147.545,200.520 146.196,203.267 143.543 C 206.486 140.432,209.964 137.061,212.251 134.836 C 213.017 134.091,213.916 133.231,214.249 132.925 C 214.953 132.277,215.023 132.375,213.421 131.775 C 212.349 131.374,210.571 130.699,208.071 129.743 C 205.708 128.839,204.001 128.192,202.834 127.756 C 202.174 127.509,201.547 127.267,201.441 127.217 C 201.336 127.167,200.687 126.915,200.000 126.658 C 198.734 126.184,194.052 124.401,188.710 122.361 C 187.098 121.745,185.066 120.970,184.194 120.639 C 183.322 120.307,180.987 119.418,179.006 118.662 C 177.024 117.906,174.754 117.042,173.961 116.742 C 173.168 116.442,171.352 115.750,169.926 115.205 C 166.809 114.014,164.736 113.225,163.248 112.663 C 162.640 112.434,161.451 111.979,160.605 111.654 C 159.760 111.328,158.095 110.694,156.906 110.244 C 155.717 109.795,154.318 109.257,153.797 109.049 C 152.617 108.579,152.539 108.574,152.621 108.984 M374.345 123.636 C 374.345 123.692,377.330 138.303,380.979 156.104 C 384.627 173.905,388.248 191.578,389.026 195.377 L 390.440 202.284 390.470 199.508 C 390.696 178.679,386.363 154.729,378.610 133.956 C 376.981 129.589,374.345 123.212,374.345 123.636 M9.136 202.450 C 9.055 224.378,14.261 250.350,23.013 271.679 C 23.468 272.789,23.951 273.969,24.087 274.302 C 24.222 274.634,24.348 274.892,24.365 274.874 C 24.395 274.845,17.818 242.678,11.543 212.155 L 9.143 200.480 9.136 202.450 M378.477 232.864 C 374.512 233.682,342.496 240.248,328.129 243.190 C 323.769 244.083,312.376 246.418,302.810 248.379 C 293.245 250.340,281.852 252.674,277.492 253.567 C 273.132 254.460,261.739 256.795,252.174 258.756 C 242.609 260.717,231.215 263.052,226.856 263.944 C 222.496 264.837,211.946 266.999,203.411 268.749 C 194.876 270.498,182.640 273.006,176.219 274.322 C 169.798 275.637,159.270 277.795,152.822 279.116 C 146.375 280.437,134.117 282.949,125.583 284.698 C 117.048 286.448,106.498 288.610,102.138 289.503 C 97.778 290.395,85.542 292.903,74.946 295.075 C 64.350 297.248,53.074 299.558,49.887 300.210 C 46.701 300.861,44.066 301.422,44.033 301.455 C 43.961 301.527,46.294 313.009,46.436 313.284 C 46.565 313.531,47.624 314.935,49.373 317.175 C 57.709 327.851,67.418 337.852,77.849 346.506 C 79.578 347.940,81.833 349.760,82.020 349.872 C 82.095 349.917,82.087 349.738,81.992 349.290 C 78.213 331.278,77.687 328.365,77.966 326.970 C 79.198 320.792,87.568 319.422,90.690 324.886 C 91.222 325.818,91.446 326.789,93.924 338.890 C 98.735 362.386,98.540 361.466,98.728 361.603 C 99.040 361.831,103.014 364.220,104.588 365.126 C 124.248 376.440,145.887 384.201,167.956 387.855 L 170.694 388.308 235.023 375.123 C 270.404 367.871,299.699 361.863,300.123 361.772 C 301.014 361.581,301.478 361.305,305.981 358.294 C 326.626 344.489,344.527 326.608,358.399 305.933 C 359.638 304.087,362.528 299.560,362.491 299.524 C 362.476 299.509,362.208 299.581,361.895 299.685 C 361.582 299.788,356.678 300.823,350.997 301.986 C 339.527 304.333,335.792 305.098,247.322 323.229 C 240.901 324.544,228.664 327.052,220.130 328.800 C 198.419 333.249,198.702 333.190,198.646 333.246 C 198.618 333.274,199.233 336.382,200.012 340.153 C 201.592 347.795,201.677 348.461,201.272 349.929 C 199.593 356.008,191.289 356.854,188.447 351.237 C 188.061 350.476,187.900 349.792,186.504 342.996 C 185.725 339.203,185.065 336.078,185.038 336.051 C 185.011 336.024,178.854 337.267,171.356 338.812 C 155.932 341.991,156.367 341.923,154.696 341.403 C 148.295 339.410,147.998 330.505,154.257 328.256 C 154.472 328.178,160.849 326.843,168.428 325.288 C 176.006 323.733,182.223 322.445,182.242 322.426 C 182.261 322.407,181.638 319.304,180.858 315.531 C 179.215 307.587,179.154 307.054,179.705 305.405 C 181.650 299.580,189.697 298.950,192.405 304.411 C 192.898 305.405,192.814 305.041,194.813 314.843 C 195.333 317.391,195.784 319.518,195.815 319.569 C 195.849 319.624,229.055 312.859,277.446 302.940 L 359.020 286.219 360.029 286.264 C 363.153 286.403,365.637 288.487,366.402 291.611 L 366.624 292.517 367.660 290.611 C 374.953 277.181,380.711 262.531,384.525 247.700 C 384.845 246.455,385.108 245.331,385.108 245.202 C 385.110 244.891,382.481 232.042,382.418 232.053 C 382.391 232.057,380.617 232.423,378.477 232.864 M113.464 316.079 C 115.714 316.586,117.786 318.536,118.413 320.735 C 118.495 321.023,119.300 324.869,120.203 329.282 C 122.198 339.033,124.663 351.066,126.019 357.670 C 127.140 363.132,127.197 363.646,126.834 365.062 C 125.175 371.551,116.220 372.125,113.707 365.904 C 113.289 364.870,104.924 323.774,104.926 322.766 C 104.935 318.292,109.035 315.080,113.464 316.079 " stroke="none" fill="#000000" fill-rule="evenodd"></path></g></svg>