<svg id="svg" xmlns="http://www.w3.org/2000/svg" xmlns:xlink="http://www.w3.org/1999/xlink" width="400" height="400" viewBox="0, 0, 400,400"><g id="svgg"><path id="path0" d="M194.282 10.021 C 194.256 10.044,193.305 10.092,192.169 10.127 C 191.033 10.162,189.865 10.210,189.575 10.234 C 189.284 10.258,188.268 10.323,187.317 10.378 C 186.366 10.433,185.393 10.497,185.155 10.520 C 184.917 10.543,184.398 10.588,184.002 10.619 C 179.990 10.939,174.885 11.535,170.814 12.159 C 81.943 25.782,14.566 99.707,9.419 189.239 C 4.484 275.074,57.566 353.311,139.347 380.739 C 140.813 381.231,142.013 381.595,142.013 381.549 C 142.013 381.502,141.866 380.738,141.686 379.851 C 140.247 372.758,141.559 366.461,145.808 360.077 C 155.290 345.828,176.492 338.596,193.947 343.655 C 194.792 343.900,195.560 344.123,195.652 344.149 C 195.812 344.195,195.821 340.125,195.844 259.992 L 195.868 175.787 196.589 175.676 C 197.328 175.561,199.341 175.236,210.185 173.482 C 222.554 171.481,229.645 170.334,232.477 169.878 C 235.090 169.456,244.187 167.985,248.523 167.283 C 249.474 167.129,253.755 166.437,258.035 165.746 C 266.960 164.304,268.079 164.123,272.544 163.400 C 274.341 163.109,278.643 162.413,282.104 161.854 C 285.566 161.295,290.516 160.495,293.106 160.076 C 295.695 159.657,303.046 158.469,309.440 157.435 C 331.104 153.934,335.383 153.240,335.647 153.187 L 335.912 153.135 335.912 243.275 C 335.912 329.102,335.920 333.410,336.080 333.302 C 336.819 332.806,343.169 325.803,346.479 321.835 C 405.104 251.549,405.207 149.325,346.723 78.933 C 315.724 41.623,271.847 17.515,223.973 11.489 C 219.233 10.893,213.401 10.378,209.705 10.230 C 208.912 10.198,208.134 10.150,207.975 10.124 C 207.612 10.063,194.346 9.963,194.282 10.021 M134.749 25.494 C 134.916 26.382,136.134 28.371,137.732 30.363 C 145.016 39.441,162.802 54.105,187.845 71.678 C 203.921 82.959,214.499 98.727,218.302 117.079 C 218.995 120.423,219.720 126.456,219.387 126.111 C 219.336 126.058,218.976 125.518,218.587 124.910 C 208.786 109.608,196.989 96.238,185.011 86.858 C 171.902 76.592,157.046 70.176,145.064 69.607 L 143.646 69.539 143.641 78.224 C 143.638 83.000,143.616 90.173,143.592 94.163 C 143.567 98.153,143.463 133.240,143.360 172.135 C 143.161 246.841,143.161 246.844,142.925 248.571 C 140.954 263.014,127.141 275.855,109.296 279.835 C 91.029 283.910,71.280 277.004,65.090 264.377 C 64.158 262.477,63.635 260.709,63.073 257.555 C 59.791 239.166,77.702 220.773,101.850 217.734 C 104.778 217.366,110.286 217.223,111.746 217.477 C 111.878 217.500,112.332 217.547,112.755 217.582 C 115.328 217.792,119.354 218.626,121.781 219.453 C 122.253 219.614,122.697 219.745,122.766 219.745 C 122.870 219.745,122.892 203.495,122.892 127.062 C 122.892 43.657,122.907 34.319,123.041 33.788 C 123.593 31.600,125.494 29.055,127.645 27.624 C 129.477 26.405,132.098 25.484,134.580 25.187 C 134.640 25.180,134.716 25.318,134.749 25.494 M253.637 43.791 C 254.791 46.262,261.417 52.021,270.629 58.561 C 273.241 60.416,273.421 60.553,274.584 61.585 C 278.592 65.144,281.460 70.152,282.539 75.479 C 282.734 76.438,282.982 78.405,282.909 78.405 C 282.897 78.405,282.446 77.746,281.906 76.940 C 276.805 69.332,270.931 63.834,264.805 60.932 C 262.119 59.660,259.071 58.812,257.162 58.806 L 256.578 58.804 256.514 73.809 C 256.478 82.062,256.448 95.368,256.445 103.379 C 256.440 119.058,256.398 121.156,256.067 122.316 C 254.852 126.569,250.648 130.288,245.490 131.671 C 244.680 131.888,244.282 131.970,243.094 132.161 C 237.594 133.044,231.110 130.353,229.205 126.395 C 226.158 120.066,231.863 112.185,240.740 110.458 C 243.529 109.916,247.052 110.120,249.214 110.950 C 249.315 110.989,249.343 105.036,249.363 78.631 L 249.387 46.265 249.661 45.708 C 250.176 44.657,251.333 43.787,252.632 43.472 C 253.387 43.289,253.406 43.295,253.637 43.791 M317.043 70.598 C 317.631 72.113,322.223 76.139,328.225 80.401 C 330.878 82.285,331.115 82.468,332.034 83.336 C 334.521 85.686,336.369 88.948,337.060 92.208 C 337.271 93.202,337.456 94.790,337.346 94.667 C 337.311 94.628,337.010 94.184,336.677 93.682 C 331.804 86.334,324.543 80.999,319.416 80.999 L 319.097 80.999 319.093 86.981 C 319.080 107.925,318.919 124.460,318.721 125.224 C 317.244 130.919,309.105 134.087,303.273 131.237 C 300.586 129.925,299.379 127.980,299.524 125.198 C 299.814 119.611,307.327 115.490,313.788 117.375 L 314.004 117.438 314.004 94.940 C 314.004 70.312,313.959 72.162,314.580 71.454 C 315.397 70.524,316.822 70.029,317.043 70.598 M316.262 206.729 C 315.009 206.964,281.015 213.166,253.087 218.256 C 247.406 219.291,241.006 220.459,238.866 220.850 C 236.726 221.241,230.435 222.388,224.887 223.399 C 219.339 224.409,214.788 225.247,214.775 225.261 C 214.761 225.274,214.644 256.954,214.514 295.660 C 214.261 371.244,214.277 368.975,213.992 370.838 C 212.948 377.673,208.891 384.411,202.741 389.522 L 201.544 390.518 204.563 390.449 C 206.223 390.411,207.735 390.364,207.923 390.343 C 208.110 390.322,208.890 390.280,209.656 390.249 C 231.325 389.371,255.189 383.778,276.066 374.685 L 277.762 373.947 276.300 373.200 C 256.711 363.198,257.234 339.854,277.348 326.424 C 288.736 318.820,304.638 316.519,316.734 320.725 C 317.046 320.834,317.338 320.922,317.382 320.922 C 317.427 320.922,317.463 295.196,317.463 263.752 L 317.463 206.582 317.199 206.592 C 317.054 206.598,316.632 206.659,316.262 206.729 " stroke="none" fill="#000000" fill-rule="evenodd"></path></g></svg>