<svg id="svg" xmlns="http://www.w3.org/2000/svg" xmlns:xlink="http://www.w3.org/1999/xlink" width="400" height="400" viewBox="0, 0, 400,400"><g id="svgg"><path id="path0" d="M194.570 10.022 C 194.544 10.045,193.489 10.096,192.225 10.134 C 190.961 10.171,189.858 10.215,189.775 10.230 C 189.691 10.245,188.996 10.288,188.230 10.324 C 187.463 10.361,186.707 10.407,186.548 10.427 C 186.390 10.447,185.828 10.490,185.299 10.522 C 184.771 10.555,184.230 10.597,184.098 10.616 C 183.966 10.634,183.469 10.678,182.993 10.713 C 182.517 10.748,181.999 10.792,181.840 10.812 C 181.681 10.831,181.249 10.873,180.879 10.905 C 180.509 10.937,179.861 11.002,179.438 11.050 C 179.015 11.099,178.410 11.165,178.093 11.197 C 177.776 11.230,177.408 11.272,177.276 11.291 C 177.144 11.310,176.798 11.353,176.507 11.386 C 134.497 16.205,93.907 36.253,63.519 67.193 L 62.133 68.604 199.811 68.604 L 337.488 68.604 336.099 67.196 C 303.618 34.259,260.157 13.867,215.518 10.618 C 215.068 10.585,214.550 10.541,214.365 10.521 C 214.180 10.500,213.509 10.454,212.875 10.419 C 212.241 10.383,211.655 10.342,211.574 10.327 C 211.492 10.312,210.649 10.270,209.700 10.234 C 208.751 10.198,207.867 10.147,207.735 10.121 C 207.429 10.060,194.634 9.963,194.570 10.022 M47.658 199.952 L 47.658 309.392 200.865 309.392 L 354.072 309.392 354.072 199.952 L 354.072 90.512 200.865 90.512 L 47.658 90.512 47.658 199.952 M135.191 123.325 L 135.191 134.326 113.332 134.326 L 91.472 134.326 91.472 156.185 L 91.472 178.045 80.471 178.045 L 69.469 178.045 69.469 145.248 C 69.469 127.210,69.498 112.422,69.533 112.387 C 69.568 112.352,84.356 112.323,102.394 112.323 L 135.191 112.323 135.191 123.325 M179.006 123.325 L 179.006 134.326 168.052 134.326 L 157.098 134.326 157.098 123.325 L 157.098 112.323 168.052 112.323 L 179.006 112.323 179.006 123.325 M24.908 124.316 C 3.834 172.674,3.834 227.806,24.908 276.164 L 25.703 277.987 25.727 239.113 C 25.740 217.733,25.740 182.747,25.727 161.367 L 25.703 122.494 24.908 124.316 M265.972 123.754 C 267.145 124.117,268.173 125.097,268.670 126.330 L 268.893 126.880 268.921 177.997 C 268.951 231.249,268.958 230.234,268.546 232.092 C 265.421 246.167,244.945 253.144,229.769 245.305 C 214.566 237.453,214.551 219.516,229.742 211.640 C 238.880 206.903,251.576 207.415,259.644 212.847 L 260.197 213.219 260.197 188.227 L 260.197 163.235 259.981 163.303 C 259.862 163.341,242.172 168.965,220.670 175.801 C 199.169 182.637,181.560 188.230,181.540 188.230 C 181.520 188.230,181.503 203.806,181.502 222.844 C 181.500 252.147,181.479 257.615,181.364 258.481 C 179.007 276.185,151.001 282.849,136.596 269.133 C 131.486 264.267,129.656 257.237,131.846 250.884 C 133.953 244.772,139.793 239.733,147.323 237.531 C 155.549 235.126,165.154 236.283,171.799 240.481 L 172.712 241.058 172.760 197.853 L 172.808 154.648 173.030 154.098 C 173.488 152.965,174.457 151.977,175.498 151.582 C 176.374 151.250,263.452 123.633,263.848 123.562 C 264.404 123.463,265.289 123.542,265.972 123.754 M375.979 200.240 C 375.979 240.315,375.996 273.086,376.017 273.064 C 376.150 272.923,378.152 267.802,379.169 265.001 C 394.270 223.417,394.270 177.063,379.169 135.479 C 378.152 132.678,376.150 127.557,376.017 127.416 C 375.996 127.394,375.979 160.165,375.979 200.240 M221.475 146.159 C 200.204 152.915,182.509 158.531,182.152 158.639 L 181.504 158.836 181.504 168.927 L 181.504 179.018 181.720 178.953 C 183.889 178.293,260.074 154.077,260.125 154.031 C 260.165 153.994,260.187 149.445,260.173 143.920 L 260.149 133.875 221.475 146.159 M332.260 188.998 L 332.260 199.952 321.259 199.952 L 310.257 199.952 310.257 188.998 L 310.257 178.045 321.259 178.045 L 332.260 178.045 332.260 188.998 M91.472 210.906 L 91.472 221.859 80.471 221.859 L 69.469 221.859 69.469 210.906 L 69.469 199.952 80.471 199.952 L 91.472 199.952 91.472 210.906 M241.557 217.207 C 241.424 217.229,240.927 217.295,240.452 217.353 C 236.769 217.807,232.770 219.601,230.348 221.887 C 219.479 232.148,238.298 245.082,253.231 237.615 C 264.786 231.837,261.217 219.814,247.226 217.384 C 246.359 217.233,242.180 217.103,241.557 217.207 M332.212 254.672 L 332.212 287.533 299.375 287.533 L 266.539 287.533 266.539 276.556 L 266.539 265.578 288.398 265.578 L 310.257 265.578 310.257 243.734 C 310.257 231.721,310.286 221.862,310.321 221.827 C 310.357 221.791,315.297 221.773,321.299 221.787 L 332.212 221.811 332.212 254.672 M153.927 245.118 C 140.501 246.592,135.023 257.760,144.521 264.298 C 153.967 270.800,169.919 267.393,172.487 258.323 C 174.544 251.061,164.552 243.951,153.927 245.118 M244.608 276.555 L 244.583 287.533 233.678 287.533 L 222.772 287.533 222.748 276.555 L 222.723 265.578 233.678 265.578 L 244.632 265.578 244.608 276.555 M62.889 332.656 C 87.952 357.945,116.245 374.676,149.315 383.762 C 159.926 386.678,173.160 389.037,182.993 389.765 C 183.416 389.796,183.891 389.840,184.050 389.862 C 184.209 389.884,184.792 389.929,185.347 389.963 C 185.902 389.996,186.449 390.038,186.563 390.055 C 186.676 390.073,187.411 390.116,188.196 390.151 C 188.981 390.187,189.722 390.231,189.842 390.250 C 191.404 390.492,208.513 390.493,209.841 390.250 C 209.924 390.235,210.620 390.193,211.386 390.157 C 212.152 390.120,212.887 390.075,213.019 390.057 C 213.152 390.039,213.692 389.995,214.221 389.961 C 239.105 388.336,266.328 380.517,288.869 368.518 C 307.016 358.859,321.564 347.961,336.679 332.705 L 338.071 331.300 199.808 331.300 L 61.545 331.300 62.889 332.656 " stroke="none" fill="#000000" fill-rule="evenodd"></path></g></svg>