<svg id="svg" xmlns="http://www.w3.org/2000/svg" xmlns:xlink="http://www.w3.org/1999/xlink" width="400" height="400" viewBox="0, 0, 400,400"><g id="svgg"><path id="path0" d="M194.282 10.021 C 194.256 10.045,193.284 10.093,192.121 10.129 C 190.958 10.165,189.813 10.212,189.575 10.234 C 189.337 10.256,188.667 10.299,188.086 10.329 C 187.050 10.383,185.050 10.523,184.002 10.615 C 183.711 10.641,182.955 10.707,182.320 10.762 C 154.106 13.225,125.694 22.527,101.321 37.282 C 47.692 69.748,13.571 125.652,9.514 187.701 C 9.249 191.750,9.205 193.234,9.176 199.135 C 8.967 240.999,21.843 280.287,46.728 313.716 C 79.625 357.908,130.965 386.165,185.251 389.959 C 185.700 389.990,186.241 390.034,186.452 390.056 C 186.663 390.078,187.420 390.123,188.134 390.156 C 188.847 390.189,189.528 390.231,189.646 390.249 C 191.292 390.501,207.292 390.499,210.041 390.246 C 210.279 390.225,210.949 390.182,211.530 390.151 C 258.777 387.675,305.522 365.832,338.506 330.817 C 344.663 324.281,352.491 314.740,355.565 310.025 L 355.748 309.745 355.222 309.803 C 354.933 309.835,353.204 310.081,351.381 310.350 C 348.525 310.771,344.248 311.396,342.157 311.698 C 341.814 311.748,340.041 312.007,338.218 312.275 C 336.394 312.542,334.622 312.802,334.278 312.851 C 333.935 312.901,332.162 313.160,330.339 313.428 C 328.515 313.695,326.743 313.955,326.399 314.004 C 324.804 314.235,320.179 314.909,317.175 315.350 C 315.352 315.617,313.579 315.877,313.236 315.926 C 312.892 315.975,311.119 316.235,309.296 316.502 C 307.473 316.770,305.398 317.073,304.684 317.175 C 303.971 317.277,301.895 317.580,300.072 317.848 C 298.249 318.115,296.476 318.375,296.133 318.424 C 295.575 318.505,293.854 318.756,286.957 319.768 C 285.847 319.930,284.355 320.147,283.642 320.250 C 282.928 320.352,280.853 320.655,279.030 320.922 C 277.206 321.190,275.434 321.449,275.090 321.499 C 274.532 321.579,272.812 321.831,265.914 322.842 C 264.804 323.005,263.313 323.222,262.599 323.325 C 261.886 323.427,260.394 323.644,259.284 323.807 C 252.386 324.818,250.666 325.070,250.108 325.150 C 249.765 325.200,247.992 325.459,246.169 325.727 C 244.345 325.994,242.270 326.297,241.557 326.399 C 240.843 326.502,238.768 326.804,236.945 327.072 C 235.121 327.339,233.349 327.599,233.005 327.648 C 232.447 327.729,230.727 327.981,223.829 328.992 C 222.719 329.155,221.227 329.371,220.514 329.474 C 219.801 329.576,217.725 329.879,215.902 330.147 C 214.079 330.414,212.306 330.674,211.963 330.723 C 211.404 330.803,209.684 331.055,202.786 332.067 C 201.677 332.229,200.185 332.446,199.472 332.549 C 198.758 332.651,196.683 332.954,194.859 333.221 C 193.036 333.489,191.264 333.748,190.920 333.798 C 190.577 333.847,188.804 334.107,186.981 334.374 C 185.157 334.642,183.385 334.901,183.041 334.951 C 181.446 335.181,176.821 335.856,173.817 336.296 C 171.994 336.564,170.221 336.823,169.877 336.872 C 169.534 336.922,167.761 337.181,165.938 337.449 C 162.934 337.889,158.309 338.564,156.714 338.794 C 156.370 338.844,154.598 339.103,152.774 339.371 C 150.951 339.638,149.178 339.898,148.835 339.947 C 148.491 339.997,146.719 340.256,144.896 340.524 C 143.072 340.791,141.300 341.051,140.956 341.100 C 139.361 341.330,134.736 342.005,131.732 342.446 C 129.909 342.713,128.136 342.972,127.792 343.022 C 127.449 343.071,125.676 343.331,123.853 343.598 C 122.030 343.866,119.954 344.169,119.241 344.271 C 118.528 344.373,116.452 344.676,114.629 344.944 C 112.806 345.211,111.033 345.471,110.689 345.520 C 110.346 345.570,108.573 345.829,106.750 346.096 C 101.680 346.838,101.588 346.851,100.408 347.003 C 99.548 347.113,99.017 347.125,98.006 347.054 C 96.258 346.933,95.863 346.895,95.076 346.772 C 94.706 346.715,94.209 346.643,93.971 346.613 C 93.733 346.583,93.497 346.519,93.447 346.472 C 93.397 346.424,93.194 346.385,92.996 346.385 C 92.799 346.385,92.610 346.342,92.577 346.289 C 92.545 346.236,92.369 346.193,92.187 346.193 C 92.006 346.193,91.857 346.149,91.857 346.097 C 91.857 346.044,91.711 346.000,91.532 346.000 C 91.354 346.000,91.154 345.936,91.088 345.856 C 91.022 345.777,90.887 345.712,90.787 345.712 C 90.687 345.712,90.530 345.674,90.438 345.627 C 90.347 345.580,90.120 345.476,89.935 345.396 C 89.750 345.317,89.361 345.144,89.070 345.012 C 88.780 344.880,88.477 344.746,88.398 344.713 C 88.319 344.680,88.124 344.575,87.965 344.478 C 87.807 344.382,87.418 344.160,87.101 343.986 C 86.624 343.724,85.685 343.092,85.275 342.758 C 85.222 342.714,84.817 342.404,84.374 342.068 C 83.391 341.322,81.633 339.556,80.904 338.582 C 80.824 338.476,80.640 338.247,80.495 338.074 C 80.350 337.901,80.231 337.713,80.231 337.656 C 80.231 337.599,80.144 337.506,80.038 337.449 C 79.933 337.392,79.845 337.294,79.845 337.229 C 79.843 337.129,79.720 336.923,79.170 336.104 C 79.041 335.910,78.732 335.344,78.595 335.047 C 78.534 334.915,78.424 334.699,78.351 334.566 C 78.278 334.434,78.171 334.218,78.112 334.086 C 78.053 333.954,77.901 333.630,77.774 333.365 C 77.647 333.101,77.516 332.721,77.482 332.520 C 77.449 332.319,77.355 332.089,77.275 332.008 C 77.194 331.928,77.047 331.465,76.948 330.980 C 76.849 330.495,76.709 329.969,76.637 329.810 C 76.406 329.304,76.132 327.607,74.759 318.184 C 74.020 313.111,72.050 299.620,70.381 288.206 C 68.712 276.791,67.178 266.284,66.971 264.857 C 66.764 263.430,65.662 255.885,64.522 248.090 C 63.382 240.295,61.865 229.918,61.151 225.030 C 58.736 208.498,58.046 203.778,56.208 191.208 C 54.155 177.180,54.132 176.962,54.380 174.009 C 54.431 173.401,54.498 172.774,54.528 172.616 C 54.619 172.139,54.753 171.491,54.865 170.982 C 54.923 170.718,54.996 170.351,55.026 170.166 C 55.057 169.981,55.141 169.744,55.213 169.640 C 55.285 169.536,55.345 169.354,55.345 169.237 C 55.345 169.120,55.388 168.997,55.441 168.965 C 55.494 168.932,55.537 168.803,55.537 168.679 C 55.537 168.554,55.599 168.329,55.675 168.180 C 55.902 167.734,56.225 166.970,56.258 166.803 C 56.285 166.660,56.605 166.036,57.401 164.574 C 57.784 163.871,58.731 162.479,58.826 162.479 C 58.867 162.479,58.900 162.418,58.900 162.343 C 58.900 162.268,58.933 162.192,58.972 162.175 C 59.012 162.157,59.232 161.905,59.461 161.614 C 59.908 161.046,60.439 160.475,60.911 160.054 C 61.073 159.910,61.206 159.758,61.206 159.717 C 61.206 159.676,61.343 159.535,61.510 159.403 C 61.677 159.272,61.909 159.067,62.025 158.948 C 62.142 158.829,62.284 158.732,62.342 158.732 C 62.401 158.732,62.494 158.645,62.551 158.540 C 62.608 158.434,62.715 158.347,62.789 158.347 C 62.864 158.347,62.981 158.267,63.050 158.169 C 63.119 158.071,63.273 157.960,63.392 157.922 C 63.511 157.885,63.608 157.815,63.608 157.767 C 63.608 157.719,63.748 157.608,63.920 157.520 C 64.092 157.432,64.267 157.301,64.309 157.229 C 64.352 157.157,64.446 157.098,64.518 157.098 C 64.591 157.098,64.779 156.990,64.936 156.858 C 65.093 156.726,65.292 156.618,65.378 156.618 C 65.465 156.618,65.560 156.555,65.589 156.478 C 65.619 156.402,65.795 156.289,65.982 156.227 C 66.168 156.165,66.402 156.034,66.502 155.934 C 66.601 155.835,66.761 155.753,66.856 155.753 C 66.952 155.753,67.169 155.650,67.339 155.525 C 67.509 155.399,67.814 155.270,68.016 155.238 C 68.218 155.205,68.487 155.100,68.614 155.004 C 68.741 154.907,69.082 154.775,69.373 154.711 C 69.664 154.646,70.074 154.510,70.286 154.409 C 70.645 154.237,72.203 153.942,74.562 153.598 C 75.117 153.517,77.062 153.233,78.885 152.965 C 80.709 152.698,83.692 152.262,85.515 151.997 C 87.338 151.733,90.300 151.300,92.097 151.037 C 93.894 150.774,95.645 150.518,95.988 150.468 C 96.332 150.419,98.105 150.159,99.928 149.891 C 101.751 149.623,104.735 149.188,106.558 148.923 C 108.381 148.658,111.343 148.226,113.140 147.962 C 114.936 147.699,116.687 147.443,117.031 147.394 C 117.374 147.344,119.147 147.085,120.970 146.817 C 122.794 146.549,125.777 146.113,127.600 145.848 C 129.423 145.583,132.385 145.151,134.182 144.888 C 135.979 144.624,137.730 144.368,138.074 144.319 C 138.417 144.270,140.190 144.010,142.013 143.742 C 144.781 143.335,152.935 142.146,155.177 141.821 C 155.520 141.772,157.293 141.512,159.116 141.244 C 163.292 140.630,170.677 139.551,171.943 139.370 C 172.853 139.240,177.011 138.632,181.456 137.978 C 184.583 137.519,191.916 136.448,192.986 136.295 C 193.955 136.156,195.287 135.962,201.249 135.087 C 205.738 134.428,212.864 133.387,214.028 133.221 C 214.949 133.089,219.270 132.457,223.541 131.829 C 225.363 131.561,233.870 130.321,235.407 130.099 C 236.092 130.000,241.392 129.223,244.583 128.754 C 246.406 128.486,254.912 127.246,256.450 127.024 C 257.105 126.929,262.187 126.185,265.626 125.680 C 266.736 125.517,269.135 125.166,270.958 124.902 C 272.782 124.637,275.743 124.205,277.540 123.941 C 279.337 123.678,281.088 123.422,281.432 123.373 C 281.775 123.323,283.548 123.063,285.371 122.796 C 287.194 122.528,290.178 122.092,292.001 121.827 C 293.824 121.562,296.786 121.130,298.583 120.867 C 300.380 120.603,302.131 120.347,302.474 120.298 C 302.818 120.248,304.590 119.989,306.414 119.721 C 308.237 119.453,311.220 119.017,313.043 118.752 C 314.867 118.487,317.828 118.055,319.625 117.792 C 321.422 117.529,323.173 117.273,323.517 117.223 C 323.860 117.174,325.633 116.914,327.456 116.646 C 330.225 116.240,338.378 115.050,340.620 114.725 C 340.963 114.676,342.736 114.416,344.559 114.148 C 346.382 113.880,349.798 113.380,352.150 113.037 C 354.502 112.694,357.463 112.262,358.732 112.077 C 360.000 111.891,361.540 111.676,362.153 111.599 C 363.610 111.416,367.024 111.422,367.822 111.609 C 368.119 111.679,368.486 111.675,368.563 111.603 C 368.579 111.587,368.466 111.342,368.311 111.059 C 368.156 110.777,367.735 110.005,367.376 109.344 C 360.259 96.263,351.212 83.576,340.961 72.304 C 339.517 70.715,334.638 65.618,334.023 65.055 C 333.767 64.820,332.909 63.998,332.116 63.229 C 310.699 42.429,283.124 26.363,254.192 17.827 C 239.647 13.535,223.650 10.806,209.656 10.229 C 208.890 10.197,208.134 10.150,207.975 10.123 C 207.611 10.062,194.346 9.963,194.282 10.021 M344.271 129.722 C 344.086 129.763,343.740 129.820,343.502 129.849 C 343.264 129.878,342.486 129.989,341.773 130.096 C 341.059 130.203,340.346 130.309,340.187 130.332 C 339.568 130.421,336.427 130.880,336.200 130.915 C 336.068 130.935,335.181 131.064,334.230 131.203 C 333.279 131.341,332.393 131.471,332.260 131.492 C 332.128 131.512,330.788 131.707,329.282 131.924 C 327.776 132.141,326.435 132.336,326.303 132.356 C 326.050 132.395,323.515 132.767,322.940 132.849 C 322.755 132.876,322.496 132.914,322.364 132.934 C 322.232 132.954,321.497 133.061,320.730 133.173 C 319.964 133.285,319.229 133.393,319.097 133.413 C 318.965 133.433,318.078 133.563,317.127 133.701 C 316.176 133.839,315.289 133.969,315.157 133.989 C 315.025 134.009,314.139 134.139,313.188 134.277 C 312.236 134.416,311.350 134.546,311.218 134.566 C 311.086 134.587,309.745 134.782,308.239 134.999 C 306.733 135.216,305.393 135.410,305.261 135.431 C 305.129 135.451,304.393 135.560,303.627 135.671 C 302.861 135.783,302.126 135.891,301.994 135.911 C 301.862 135.931,300.975 136.061,300.024 136.199 C 299.073 136.338,298.186 136.467,298.054 136.487 C 297.922 136.508,297.036 136.637,296.085 136.776 C 295.133 136.914,294.247 137.044,294.115 137.064 C 293.983 137.084,293.096 137.214,292.145 137.352 C 291.194 137.491,290.307 137.621,290.175 137.641 C 290.043 137.662,288.703 137.856,287.197 138.074 C 285.691 138.291,284.350 138.485,284.218 138.506 C 284.086 138.526,283.351 138.634,282.585 138.746 C 281.818 138.858,281.083 138.966,280.951 138.986 C 280.819 139.006,279.933 139.136,278.982 139.274 C 278.030 139.412,277.144 139.542,277.012 139.562 C 276.880 139.582,275.993 139.712,275.042 139.850 C 274.091 139.989,273.204 140.118,273.072 140.139 C 272.940 140.159,272.054 140.289,271.103 140.427 C 270.151 140.565,269.265 140.695,269.133 140.716 C 269.001 140.736,267.660 140.931,266.154 141.148 C 264.648 141.365,263.308 141.560,263.176 141.580 C 263.043 141.601,262.308 141.709,261.542 141.821 C 260.776 141.933,260.041 142.040,259.909 142.061 C 259.777 142.081,258.890 142.210,257.939 142.349 C 256.988 142.487,256.101 142.617,255.969 142.637 C 255.837 142.657,254.951 142.787,254.000 142.925 C 253.048 143.063,252.162 143.193,252.030 143.213 C 251.898 143.234,251.011 143.363,250.060 143.502 C 249.109 143.640,248.222 143.770,248.090 143.791 C 247.958 143.811,246.618 144.006,245.112 144.223 C 243.606 144.440,242.265 144.635,242.133 144.655 C 242.001 144.676,241.266 144.784,240.500 144.896 C 239.733 145.007,238.998 145.115,238.866 145.135 C 238.734 145.155,237.848 145.285,236.896 145.423 C 235.945 145.562,235.059 145.691,234.927 145.712 C 234.795 145.732,233.908 145.861,232.957 146.000 C 232.006 146.138,231.119 146.268,230.987 146.288 C 230.855 146.308,229.969 146.438,229.018 146.576 C 228.066 146.715,227.180 146.844,227.048 146.864 C 226.916 146.884,226.462 146.949,226.039 147.009 C 225.616 147.069,225.162 147.135,225.030 147.155 C 224.898 147.175,224.012 147.304,223.060 147.442 C 222.109 147.581,221.223 147.710,221.091 147.730 C 220.958 147.751,220.223 147.858,219.457 147.970 C 218.691 148.082,217.956 148.190,217.824 148.210 C 217.692 148.230,216.805 148.360,215.854 148.498 C 214.903 148.636,214.016 148.766,213.884 148.786 C 213.752 148.806,212.866 148.936,211.914 149.075 C 210.963 149.213,210.077 149.343,209.945 149.363 C 209.813 149.383,208.926 149.513,207.975 149.651 C 207.024 149.789,206.137 149.919,206.005 149.939 C 205.873 149.959,205.419 150.024,204.996 150.084 C 204.574 150.144,204.120 150.210,203.988 150.229 C 203.855 150.249,202.969 150.379,202.018 150.517 C 201.067 150.655,200.180 150.785,200.048 150.805 C 199.916 150.825,199.181 150.933,198.415 151.045 C 197.648 151.157,196.913 151.265,196.781 151.285 C 196.649 151.305,195.763 151.434,194.811 151.573 C 193.860 151.711,192.974 151.841,192.842 151.861 C 192.710 151.881,191.823 152.011,190.872 152.149 C 189.921 152.288,189.034 152.417,188.902 152.437 C 188.770 152.458,187.884 152.587,186.933 152.726 C 185.981 152.864,185.095 152.994,184.963 153.013 C 184.831 153.033,184.377 153.099,183.954 153.159 C 183.531 153.219,183.077 153.284,182.945 153.304 C 182.813 153.324,181.926 153.453,180.975 153.592 C 180.024 153.730,179.138 153.860,179.006 153.880 C 178.873 153.900,178.138 154.008,177.372 154.120 C 176.606 154.231,175.871 154.339,175.739 154.359 C 175.607 154.379,174.720 154.509,173.769 154.647 C 172.818 154.786,171.931 154.915,171.799 154.936 C 171.667 154.956,170.781 155.086,169.829 155.224 C 168.878 155.362,167.992 155.492,167.860 155.512 C 167.728 155.532,166.841 155.662,165.890 155.800 C 164.939 155.939,164.052 156.068,163.920 156.088 C 163.788 156.108,163.334 156.173,162.911 156.233 C 162.489 156.294,162.035 156.359,161.902 156.379 C 161.770 156.399,160.884 156.528,159.933 156.667 C 158.982 156.805,158.095 156.935,157.963 156.955 C 157.831 156.975,157.096 157.083,156.330 157.194 C 155.563 157.306,154.828 157.414,154.696 157.434 C 154.564 157.454,153.678 157.584,152.726 157.722 C 151.775 157.860,150.889 157.990,150.757 158.010 C 150.625 158.031,149.738 158.160,148.787 158.299 C 147.836 158.437,146.949 158.567,146.817 158.588 C 146.685 158.608,145.345 158.803,143.839 159.020 C 142.332 159.237,140.992 159.432,140.860 159.452 C 140.607 159.491,138.072 159.863,137.497 159.945 C 137.312 159.972,137.053 160.010,136.920 160.030 C 136.788 160.050,136.053 160.157,135.287 160.269 C 134.521 160.381,133.786 160.489,133.654 160.509 C 133.521 160.529,132.635 160.658,131.684 160.797 C 130.733 160.935,129.846 161.065,129.714 161.085 C 129.582 161.105,128.696 161.235,127.744 161.373 C 126.793 161.512,125.907 161.642,125.775 161.662 C 125.643 161.683,124.302 161.877,122.796 162.095 C 121.290 162.312,119.950 162.506,119.817 162.527 C 119.564 162.566,117.029 162.938,116.454 163.020 C 116.270 163.046,116.010 163.084,115.878 163.104 C 115.746 163.124,115.011 163.232,114.245 163.344 C 113.478 163.456,112.743 163.563,112.611 163.583 C 112.479 163.604,111.593 163.733,110.641 163.872 C 109.690 164.010,108.804 164.140,108.672 164.160 C 108.540 164.180,107.653 164.310,106.702 164.448 C 105.751 164.586,104.864 164.716,104.732 164.737 C 104.600 164.758,103.260 164.952,101.754 165.169 C 100.247 165.387,98.907 165.581,98.775 165.602 C 98.643 165.622,97.908 165.730,97.141 165.842 C 96.375 165.954,95.640 166.062,95.508 166.082 C 95.376 166.102,94.490 166.231,93.538 166.370 C 92.587 166.508,91.701 166.638,91.569 166.657 C 91.436 166.677,90.982 166.743,90.560 166.803 C 89.054 167.017,88.933 167.057,88.833 167.369 C 88.777 167.547,88.975 168.945,91.233 184.338 C 92.229 191.122,93.804 201.913,95.604 214.269 C 95.969 216.779,96.596 221.059,96.996 223.781 C 97.397 226.503,98.049 230.956,98.445 233.678 C 98.842 236.399,99.620 241.739,100.175 245.544 C 100.730 249.349,101.484 254.516,101.850 257.026 C 102.216 259.536,102.713 262.931,102.955 264.569 C 103.348 267.234,105.533 282.189,107.326 294.499 C 107.692 297.009,108.189 300.404,108.430 302.042 C 108.672 303.680,109.646 310.360,110.595 316.887 C 111.544 323.413,112.344 328.894,112.374 329.066 C 112.483 329.697,112.599 329.708,115.118 329.333 C 116.355 329.149,120.351 328.564,123.997 328.033 C 127.644 327.502,131.503 326.938,132.573 326.781 C 133.643 326.624,135.394 326.367,136.464 326.209 C 137.534 326.052,141.393 325.489,145.040 324.958 C 148.686 324.427,152.545 323.864,153.615 323.706 C 154.685 323.549,156.436 323.292,157.507 323.135 C 158.577 322.978,162.436 322.414,166.082 321.883 C 169.729 321.352,173.588 320.789,174.658 320.632 C 175.728 320.475,177.479 320.217,178.549 320.060 C 179.619 319.903,183.478 319.340,187.125 318.809 C 190.771 318.277,194.630 317.714,195.700 317.557 C 196.770 317.400,198.521 317.143,199.592 316.985 C 200.662 316.828,204.521 316.265,208.167 315.734 C 211.814 315.203,215.662 314.641,216.719 314.485 C 217.776 314.329,222.510 313.637,227.240 312.947 C 231.970 312.258,236.704 311.566,237.761 311.410 C 238.818 311.254,243.553 310.562,248.282 309.873 C 253.012 309.183,257.747 308.491,258.804 308.335 C 259.861 308.179,263.406 307.662,266.683 307.184 C 269.959 306.707,272.791 306.294,272.976 306.266 C 273.161 306.237,273.594 306.174,273.937 306.125 C 274.281 306.076,276.053 305.817,277.877 305.549 C 279.700 305.282,282.359 304.893,283.786 304.685 C 291.150 303.613,294.232 303.163,294.643 303.098 C 294.802 303.073,295.829 302.922,296.925 302.763 C 298.022 302.604,299.795 302.346,300.865 302.188 C 301.935 302.031,305.794 301.468,309.440 300.937 C 313.087 300.406,316.946 299.843,318.016 299.685 C 319.086 299.528,320.837 299.271,321.907 299.114 C 322.977 298.956,326.836 298.393,330.483 297.862 C 334.129 297.331,337.988 296.768,339.058 296.611 C 340.129 296.453,341.880 296.196,342.950 296.039 C 344.020 295.882,347.879 295.319,351.525 294.787 C 355.172 294.256,359.020 293.694,360.077 293.539 C 361.134 293.383,362.950 293.122,364.112 292.959 C 365.275 292.795,366.328 292.610,366.451 292.547 C 366.688 292.428,368.292 289.594,368.292 289.296 C 368.292 289.208,367.364 282.787,366.230 275.027 C 363.662 257.457,359.584 229.547,358.300 220.754 C 357.768 217.108,357.054 212.222,356.714 209.897 C 354.633 195.659,351.574 174.728,349.700 161.902 C 348.507 153.738,346.970 143.214,346.283 138.517 C 345.597 133.820,345.012 129.939,344.984 129.894 C 344.876 129.719,344.594 129.652,344.271 129.722 M213.787 172.596 C 213.787 172.743,213.880 173.045,213.993 173.266 C 214.106 173.487,214.256 173.945,214.327 174.284 C 214.398 174.624,214.520 174.998,214.598 175.117 C 214.676 175.237,214.809 175.630,214.893 175.992 C 214.976 176.353,215.107 176.743,215.182 176.859 C 215.258 176.974,215.391 177.380,215.477 177.761 C 215.564 178.142,215.713 178.589,215.808 178.754 C 215.903 178.919,216.032 179.313,216.095 179.630 C 216.158 179.947,216.292 180.342,216.393 180.508 C 216.495 180.674,216.623 181.060,216.680 181.366 C 216.737 181.672,216.884 182.120,217.007 182.362 C 217.130 182.603,217.262 182.995,217.299 183.233 C 217.336 183.471,217.448 183.827,217.548 184.024 C 217.648 184.221,217.796 184.669,217.877 185.019 C 217.958 185.369,218.093 185.760,218.176 185.887 C 218.260 186.015,218.388 186.406,218.462 186.757 C 218.536 187.109,218.678 187.530,218.778 187.693 C 218.878 187.856,219.007 188.245,219.064 188.557 C 219.121 188.870,219.251 189.265,219.352 189.437 C 219.453 189.608,219.587 190.001,219.650 190.310 C 219.713 190.619,219.846 191.023,219.945 191.208 C 220.044 191.393,220.190 191.837,220.271 192.195 C 220.351 192.553,220.480 192.943,220.558 193.062 C 220.636 193.181,220.766 193.594,220.847 193.980 C 220.928 194.366,221.057 194.743,221.132 194.819 C 221.207 194.894,221.317 195.204,221.375 195.508 C 221.433 195.812,221.582 196.278,221.707 196.545 C 221.831 196.811,221.986 197.286,222.050 197.602 C 222.114 197.917,222.250 198.310,222.351 198.476 C 222.452 198.642,222.581 199.031,222.638 199.341 C 222.694 199.651,222.819 200.034,222.915 200.192 C 223.011 200.351,223.140 200.740,223.202 201.057 C 223.265 201.374,223.398 201.795,223.498 201.992 C 223.598 202.189,223.745 202.633,223.825 202.979 C 223.906 203.324,224.042 203.715,224.128 203.847 C 224.215 203.979,224.346 204.377,224.421 204.731 C 224.495 205.086,224.626 205.484,224.713 205.616 C 224.799 205.748,224.929 206.137,225.001 206.481 C 225.073 206.824,225.200 207.209,225.283 207.336 C 225.366 207.462,225.516 207.908,225.615 208.325 C 225.715 208.742,225.858 209.180,225.933 209.298 C 226.008 209.416,226.121 209.772,226.184 210.089 C 226.247 210.406,226.380 210.799,226.479 210.962 C 226.579 211.125,226.719 211.536,226.792 211.875 C 226.864 212.214,227.013 212.664,227.122 212.875 C 227.231 213.087,227.350 213.454,227.388 213.692 C 227.425 213.930,227.553 214.319,227.673 214.557 C 227.792 214.795,227.940 215.231,228.001 215.526 C 228.062 215.821,228.192 216.211,228.289 216.393 C 228.387 216.575,228.519 216.982,228.584 217.298 C 228.648 217.614,228.778 218.001,228.873 218.160 C 228.968 218.319,229.099 218.708,229.163 219.025 C 229.227 219.342,229.362 219.762,229.461 219.958 C 229.561 220.155,229.688 220.544,229.744 220.823 C 229.800 221.102,229.936 221.500,230.047 221.707 C 230.158 221.914,230.308 222.364,230.380 222.707 C 230.452 223.051,230.591 223.465,230.689 223.628 C 230.787 223.792,230.921 224.215,230.986 224.570 C 231.051 224.925,231.162 225.264,231.233 225.323 C 231.304 225.382,231.435 225.759,231.524 226.160 C 231.614 226.562,231.767 227.027,231.866 227.194 C 231.964 227.361,232.091 227.744,232.146 228.045 C 232.202 228.347,232.331 228.735,232.433 228.908 C 232.535 229.081,232.663 229.456,232.717 229.741 C 232.771 230.027,232.905 230.445,233.015 230.671 C 233.125 230.898,233.277 231.353,233.354 231.683 C 233.431 232.013,233.558 232.380,233.635 232.498 C 233.712 232.616,233.838 233.011,233.915 233.375 C 233.992 233.740,234.138 234.184,234.241 234.362 C 234.344 234.541,234.457 234.881,234.493 235.119 C 234.529 235.357,234.659 235.749,234.783 235.991 C 234.906 236.232,235.053 236.679,235.109 236.983 C 235.165 237.287,235.298 237.695,235.403 237.889 C 235.508 238.083,235.662 238.543,235.744 238.910 C 235.827 239.278,235.953 239.646,236.025 239.727 C 236.097 239.808,236.207 240.135,236.270 240.452 C 236.332 240.769,236.468 241.194,236.571 241.398 C 236.674 241.601,236.824 242.075,236.903 242.451 C 236.982 242.827,237.083 243.158,237.128 243.186 C 237.173 243.215,237.290 243.465,237.388 243.742 C 237.641 244.459,238.001 244.484,238.001 243.786 C 238.001 243.532,238.041 243.283,238.089 243.233 C 238.137 243.183,238.200 242.926,238.229 242.662 C 238.258 242.397,238.328 241.900,238.384 241.557 C 238.441 241.213,238.506 240.802,238.529 240.644 C 238.552 240.485,238.617 240.031,238.674 239.635 C 238.731 239.239,238.821 238.655,238.874 238.338 C 238.927 238.021,238.994 237.545,239.023 237.281 C 239.052 237.017,239.115 236.759,239.163 236.709 C 239.211 236.659,239.251 236.396,239.251 236.125 C 239.251 235.853,239.283 235.599,239.323 235.559 C 239.362 235.520,239.404 235.350,239.415 235.183 C 239.476 234.286,239.563 233.608,239.637 233.437 C 239.683 233.332,239.745 233.040,239.774 232.789 C 239.803 232.538,239.851 232.127,239.880 231.876 C 239.909 231.625,239.971 231.333,240.018 231.227 C 240.065 231.122,240.128 230.776,240.159 230.459 C 240.249 229.520,240.260 229.445,240.596 227.432 C 240.851 225.903,240.898 225.588,241.012 224.694 C 241.079 224.165,241.162 223.668,241.195 223.589 C 241.229 223.509,241.281 223.239,241.311 222.988 C 241.340 222.737,241.388 222.326,241.417 222.075 C 241.447 221.824,241.509 221.533,241.557 221.427 C 241.604 221.321,241.665 221.018,241.692 220.754 C 241.752 220.153,242.006 218.348,242.138 217.583 C 242.193 217.266,242.260 216.812,242.287 216.575 C 242.313 216.337,242.374 216.056,242.422 215.950 C 242.469 215.844,242.532 215.520,242.561 215.229 C 242.641 214.433,242.682 214.134,242.760 213.777 C 242.800 213.598,242.845 213.301,242.861 213.116 C 242.877 212.931,242.938 212.498,242.996 212.155 C 243.054 211.811,243.123 211.336,243.151 211.098 C 243.178 210.860,243.238 210.579,243.284 210.473 C 243.331 210.368,243.393 210.065,243.423 209.801 C 243.454 209.536,243.521 209.061,243.574 208.744 C 243.627 208.427,243.689 207.973,243.712 207.735 C 243.734 207.497,243.798 207.065,243.853 206.774 C 243.954 206.242,244.018 205.823,244.112 205.068 C 244.174 204.572,244.265 204.551,244.426 204.996 C 244.493 205.181,244.585 205.333,244.630 205.333 C 244.675 205.333,244.762 205.484,244.823 205.669 C 244.884 205.854,244.970 206.005,245.013 206.005 C 245.056 206.005,245.161 206.167,245.248 206.366 C 245.461 206.856,245.867 207.571,245.968 207.635 C 246.014 207.663,246.123 207.838,246.211 208.023 C 246.465 208.557,246.715 208.983,246.880 209.166 C 246.965 209.259,247.033 209.401,247.033 209.481 C 247.033 209.561,247.141 209.752,247.273 209.906 C 247.406 210.059,247.514 210.255,247.514 210.341 C 247.514 210.427,247.582 210.555,247.666 210.624 C 247.750 210.694,247.884 210.915,247.965 211.116 C 248.045 211.318,248.146 211.482,248.189 211.482 C 248.232 211.482,248.316 211.630,248.376 211.810 C 248.435 211.990,248.541 212.160,248.611 212.186 C 248.681 212.213,248.769 212.358,248.806 212.507 C 248.843 212.657,248.939 212.852,249.019 212.941 C 249.167 213.105,249.348 213.413,249.727 214.148 C 249.842 214.373,249.972 214.557,250.015 214.557 C 250.058 214.557,250.121 214.686,250.156 214.844 C 250.191 215.003,250.276 215.165,250.345 215.205 C 250.415 215.245,250.544 215.429,250.631 215.614 C 250.883 216.145,251.134 216.574,251.300 216.757 C 251.384 216.850,251.453 216.992,251.453 217.073 C 251.453 217.153,251.561 217.336,251.693 217.478 C 251.826 217.621,251.934 217.816,251.934 217.913 C 251.934 218.009,252.002 218.145,252.086 218.215 C 252.233 218.337,252.434 218.678,252.752 219.347 C 252.836 219.524,252.989 219.759,253.092 219.869 C 253.195 219.980,253.279 220.141,253.279 220.229 C 253.279 220.317,253.365 220.466,253.471 220.562 C 253.577 220.658,253.663 220.791,253.663 220.858 C 253.663 220.925,253.771 221.108,253.903 221.265 C 254.036 221.422,254.144 221.613,254.144 221.690 C 254.144 221.767,254.228 221.905,254.330 221.998 C 254.433 222.091,254.545 222.292,254.578 222.445 C 254.612 222.598,254.693 222.756,254.759 222.795 C 254.878 222.867,255.098 223.249,255.479 224.045 C 255.586 224.270,255.714 224.454,255.763 224.454 C 255.812 224.454,255.879 224.559,255.911 224.687 C 255.943 224.815,256.031 224.982,256.106 225.057 C 256.182 225.133,256.314 225.341,256.400 225.520 C 256.645 226.032,256.899 226.470,257.054 226.646 C 257.132 226.735,257.228 226.912,257.267 227.040 C 257.306 227.168,257.419 227.360,257.518 227.467 C 257.618 227.573,257.699 227.739,257.699 227.835 C 257.699 227.930,257.738 228.009,257.786 228.009 C 257.834 228.009,257.972 228.214,258.092 228.465 C 258.212 228.716,258.367 228.956,258.437 228.998 C 258.506 229.041,258.564 229.153,258.564 229.248 C 258.564 229.343,258.646 229.495,258.747 229.586 C 258.848 229.678,258.959 229.865,258.994 230.003 C 259.028 230.141,259.162 230.379,259.290 230.532 C 259.419 230.685,259.524 230.865,259.524 230.932 C 259.524 230.999,259.611 231.132,259.717 231.227 C 259.822 231.323,259.909 231.470,259.909 231.555 C 259.909 231.639,260.017 231.834,260.149 231.987 C 260.281 232.141,260.389 232.318,260.389 232.381 C 260.389 232.444,260.476 232.595,260.581 232.717 C 260.687 232.839,260.773 232.975,260.773 233.020 C 260.773 233.252,261.253 233.087,261.308 232.837 C 261.339 232.692,261.399 232.486,261.440 232.380 C 261.482 232.275,261.567 232.015,261.631 231.804 C 261.694 231.593,261.803 231.268,261.873 231.083 C 261.943 230.898,262.122 230.358,262.271 229.882 C 262.420 229.407,262.577 228.976,262.619 228.926 C 262.661 228.876,262.695 228.716,262.695 228.572 C 262.695 228.427,262.738 228.282,262.791 228.249 C 262.844 228.216,262.887 228.123,262.887 228.042 C 262.887 227.960,262.947 227.757,263.019 227.591 C 263.091 227.424,263.312 226.769,263.510 226.135 C 263.708 225.501,263.908 224.907,263.955 224.815 C 264.002 224.723,264.040 224.600,264.040 224.541 C 264.040 224.483,264.100 224.298,264.173 224.132 C 264.246 223.965,264.401 223.505,264.516 223.108 C 264.632 222.712,264.740 222.344,264.756 222.292 C 264.772 222.239,265.471 222.097,266.310 221.976 C 268.222 221.701,284.270 219.359,286.860 218.977 C 287.917 218.821,292.652 218.129,297.382 217.439 C 302.111 216.750,306.846 216.058,307.903 215.902 C 313.094 215.136,327.034 213.109,327.813 213.006 C 328.494 212.917,328.756 212.916,328.947 213.003 C 329.083 213.065,329.320 213.116,329.473 213.116 C 329.626 213.116,329.778 213.159,329.810 213.212 C 329.843 213.264,329.967 213.308,330.086 213.308 C 330.205 213.308,330.386 213.371,330.488 213.449 C 330.591 213.526,330.725 213.591,330.785 213.593 C 331.025 213.600,332.645 215.145,332.645 215.367 C 332.645 215.435,332.733 215.604,332.841 215.741 C 333.153 216.138,333.554 218.686,333.326 218.827 C 333.268 218.863,333.221 219.060,333.221 219.265 C 333.221 219.470,333.178 219.665,333.125 219.697 C 333.072 219.730,333.029 219.843,333.029 219.948 C 333.029 220.181,332.368 221.174,331.944 221.578 C 331.774 221.740,331.548 221.955,331.440 222.058 C 331.333 222.160,331.210 222.244,331.167 222.244 C 331.124 222.244,330.967 222.330,330.819 222.436 C 330.515 222.652,329.827 222.794,327.312 223.158 C 326.361 223.296,325.474 223.425,325.342 223.445 C 325.210 223.465,324.475 223.573,323.709 223.685 C 322.943 223.797,322.208 223.904,322.075 223.925 C 321.943 223.945,321.057 224.074,320.106 224.213 C 319.154 224.351,318.268 224.480,318.136 224.500 C 317.791 224.552,316.418 224.748,316.022 224.802 C 315.837 224.827,315.448 224.887,315.157 224.935 C 314.867 224.983,314.434 225.047,314.196 225.079 C 313.959 225.111,313.505 225.175,313.188 225.222 C 312.871 225.269,312.417 225.334,312.179 225.365 C 311.941 225.397,311.509 225.462,311.218 225.510 C 310.927 225.558,310.538 225.617,310.353 225.642 C 309.957 225.696,308.584 225.892,308.239 225.944 C 308.107 225.964,307.221 226.093,306.270 226.232 C 305.318 226.370,304.432 226.500,304.300 226.520 C 304.168 226.540,303.433 226.648,302.666 226.760 C 301.900 226.871,301.165 226.979,301.033 226.999 C 300.901 227.019,300.014 227.149,299.063 227.287 C 298.112 227.426,297.226 227.555,297.093 227.575 C 296.749 227.627,295.376 227.823,294.980 227.877 C 294.795 227.902,294.405 227.962,294.115 228.009 C 293.824 228.057,293.392 228.122,293.154 228.154 C 292.916 228.185,292.462 228.250,292.145 228.297 C 291.828 228.344,291.374 228.409,291.136 228.440 C 290.898 228.472,290.466 228.537,290.175 228.584 C 289.885 228.632,289.496 228.692,289.311 228.717 C 288.915 228.771,287.542 228.967,287.197 229.019 C 287.065 229.039,286.178 229.168,285.227 229.306 C 284.276 229.445,283.389 229.574,283.257 229.595 C 283.125 229.615,282.390 229.722,281.624 229.834 C 280.858 229.946,280.123 230.054,279.990 230.074 C 279.858 230.094,278.972 230.224,278.021 230.362 C 277.069 230.500,276.183 230.630,276.051 230.650 C 275.919 230.670,275.465 230.735,275.042 230.795 C 274.619 230.855,274.180 230.919,274.067 230.937 C 273.953 230.956,273.614 231.002,273.313 231.039 C 272.553 231.134,272.390 231.320,272.010 232.525 C 271.834 233.080,271.656 233.575,271.613 233.625 C 271.570 233.675,271.535 233.794,271.535 233.890 C 271.535 233.986,271.497 234.140,271.450 234.231 C 271.404 234.323,271.292 234.636,271.202 234.927 C 271.112 235.217,271.003 235.542,270.959 235.647 C 270.915 235.753,270.800 236.109,270.703 236.439 C 270.606 236.769,270.494 237.039,270.454 237.040 C 270.414 237.040,270.382 237.149,270.382 237.282 C 270.382 237.415,270.344 237.599,270.297 237.690 C 270.251 237.782,270.139 238.095,270.049 238.386 C 269.959 238.676,269.849 239.001,269.805 239.106 C 269.761 239.212,269.705 239.385,269.679 239.491 C 269.640 239.654,269.381 240.432,269.134 241.124 C 268.976 241.566,268.815 242.054,268.449 243.190 C 268.236 243.851,268.022 244.466,267.973 244.558 C 267.924 244.650,267.884 244.794,267.884 244.879 C 267.884 244.964,267.823 245.149,267.749 245.289 C 267.676 245.429,267.562 245.739,267.498 245.976 C 267.434 246.214,267.333 246.539,267.274 246.697 C 267.216 246.856,267.159 247.029,267.148 247.081 C 267.115 247.244,266.902 247.841,266.814 248.017 C 266.768 248.109,266.731 248.253,266.731 248.338 C 266.731 248.423,266.670 248.608,266.596 248.748 C 266.523 248.888,266.409 249.198,266.344 249.436 C 266.279 249.673,266.140 250.106,266.035 250.396 C 265.931 250.687,265.823 251.044,265.797 251.190 C 265.770 251.336,265.709 251.479,265.663 251.508 C 265.616 251.537,265.578 251.658,265.578 251.777 C 265.578 251.896,265.514 252.077,265.437 252.180 C 265.359 252.282,265.294 252.482,265.293 252.625 C 265.291 252.767,265.246 252.910,265.193 252.943 C 265.141 252.975,265.097 253.126,265.097 253.277 C 265.097 253.428,265.057 253.566,265.007 253.583 C 264.957 253.601,264.895 253.723,264.869 253.855 C 264.812 254.140,264.625 254.700,264.508 254.935 C 264.462 255.027,264.425 255.181,264.425 255.277 C 264.425 255.373,264.361 255.536,264.284 255.639 C 264.206 255.741,264.141 255.941,264.139 256.084 C 264.138 256.226,264.093 256.369,264.040 256.402 C 263.988 256.434,263.944 256.588,263.944 256.744 C 263.944 256.899,263.903 257.026,263.853 257.026 C 263.802 257.026,263.732 257.178,263.698 257.364 C 263.598 257.893,263.394 257.875,263.224 257.322 C 263.184 257.194,263.071 257.002,262.972 256.895 C 262.872 256.789,262.791 256.623,262.791 256.528 C 262.791 256.432,262.753 256.354,262.706 256.354 C 262.659 256.354,262.524 256.148,262.407 255.897 C 262.289 255.646,262.133 255.406,262.060 255.364 C 261.987 255.322,261.926 255.204,261.926 255.103 C 261.926 255.002,261.845 254.842,261.746 254.748 C 261.647 254.653,261.534 254.468,261.495 254.336 C 261.455 254.204,261.360 254.023,261.282 253.934 C 261.119 253.749,260.872 253.316,260.591 252.726 C 260.484 252.502,260.355 252.318,260.304 252.318 C 260.254 252.318,260.183 252.185,260.148 252.023 C 260.112 251.861,260.024 251.706,259.952 251.679 C 259.881 251.651,259.770 251.473,259.708 251.282 C 259.645 251.092,259.513 250.849,259.415 250.744 C 259.316 250.639,259.236 250.484,259.236 250.401 C 259.236 250.318,259.154 250.199,259.053 250.136 C 258.952 250.073,258.841 249.894,258.807 249.738 C 258.773 249.583,258.661 249.379,258.558 249.286 C 258.455 249.194,258.371 249.044,258.371 248.955 C 258.371 248.866,258.287 248.717,258.185 248.624 C 258.082 248.531,257.970 248.330,257.937 248.177 C 257.903 248.024,257.822 247.867,257.756 247.827 C 257.637 247.755,257.417 247.373,257.036 246.577 C 256.929 246.352,256.800 246.169,256.749 246.169 C 256.698 246.169,256.629 246.039,256.594 245.880 C 256.559 245.722,256.489 245.592,256.439 245.592 C 256.388 245.592,256.260 245.408,256.154 245.184 C 256.048 244.959,255.855 244.602,255.725 244.391 C 255.596 244.180,255.403 243.829,255.298 243.611 C 255.193 243.393,255.041 243.161,254.961 243.095 C 254.882 243.029,254.816 242.900,254.816 242.809 C 254.816 242.718,254.731 242.566,254.628 242.473 C 254.524 242.379,254.391 242.156,254.332 241.977 C 254.273 241.799,254.188 241.653,254.144 241.653 C 254.099 241.653,254.012 241.498,253.949 241.310 C 253.887 241.121,253.778 240.944,253.707 240.917 C 253.637 240.890,253.552 240.745,253.519 240.596 C 253.486 240.446,253.354 240.201,253.225 240.051 C 253.096 239.902,252.991 239.732,252.991 239.674 C 252.991 239.616,252.904 239.490,252.798 239.395 C 252.693 239.299,252.606 239.149,252.606 239.062 C 252.606 238.975,252.498 238.757,252.366 238.578 C 252.234 238.399,252.126 238.203,252.126 238.142 C 252.126 238.081,252.042 237.955,251.939 237.862 C 251.836 237.769,251.726 237.573,251.693 237.425 C 251.661 237.277,251.551 237.081,251.448 236.988 C 251.345 236.895,251.261 236.738,251.261 236.638 C 251.261 236.539,251.200 236.434,251.124 236.406 C 251.049 236.377,250.923 236.192,250.844 235.995 C 250.766 235.798,250.632 235.580,250.549 235.510 C 250.465 235.441,250.396 235.326,250.396 235.256 C 250.396 234.348,249.496 234.375,249.464 235.284 C 249.438 236.052,249.346 236.764,249.243 236.993 C 249.195 237.098,249.135 237.401,249.109 237.665 C 249.083 237.929,249.014 238.405,248.957 238.722 C 248.899 239.039,248.834 239.472,248.813 239.683 C 248.792 239.894,248.726 240.370,248.667 240.740 C 248.608 241.110,248.538 241.607,248.512 241.845 C 248.486 242.083,248.427 242.364,248.380 242.469 C 248.334 242.575,248.271 242.878,248.241 243.142 C 248.211 243.406,248.141 243.882,248.086 244.199 C 248.031 244.516,247.934 245.215,247.870 245.753 C 247.806 246.291,247.722 246.763,247.682 246.802 C 247.642 246.841,247.610 247.095,247.610 247.366 C 247.610 247.638,247.571 247.901,247.523 247.951 C 247.475 248.001,247.412 248.258,247.383 248.523 C 247.354 248.787,247.283 249.284,247.225 249.628 C 247.118 250.258,247.076 250.584,246.978 251.549 C 246.948 251.840,246.886 252.164,246.840 252.270 C 246.793 252.376,246.733 252.657,246.707 252.895 C 246.680 253.132,246.611 253.586,246.554 253.903 C 246.355 255.000,246.223 255.929,246.116 256.978 C 246.084 257.295,246.020 257.641,245.974 257.747 C 245.928 257.853,245.866 258.155,245.835 258.419 C 245.699 259.614,245.673 259.776,245.592 259.957 C 245.509 260.140,245.424 260.757,245.365 261.590 C 245.350 261.802,245.311 262.039,245.279 262.119 C 245.246 262.198,245.197 262.457,245.170 262.695 C 245.143 262.933,245.075 263.387,245.020 263.704 C 244.965 264.021,244.895 264.497,244.865 264.761 C 244.835 265.025,244.772 265.328,244.725 265.434 C 244.679 265.539,244.618 265.864,244.591 266.154 C 244.497 267.163,244.423 267.671,244.149 269.181 C 244.091 269.498,244.023 269.974,243.997 270.238 C 243.971 270.502,243.911 270.805,243.865 270.910 C 243.788 271.085,243.751 271.339,243.626 272.544 C 243.604 272.755,243.543 273.166,243.491 273.457 C 243.369 274.136,243.208 275.080,243.090 275.811 C 243.038 276.128,242.951 276.647,242.896 276.964 C 242.841 277.281,242.779 277.735,242.758 277.973 C 242.736 278.210,242.672 278.664,242.615 278.982 C 242.498 279.628,242.416 280.113,242.033 282.417 C 241.978 282.747,241.917 283.190,241.896 283.401 C 241.876 283.613,241.811 284.067,241.752 284.410 C 241.565 285.496,241.456 286.176,241.405 286.572 C 241.278 287.560,241.153 287.609,240.978 286.739 C 240.917 286.436,240.768 285.972,240.646 285.707 C 240.524 285.443,240.372 284.974,240.309 284.665 C 240.246 284.356,240.116 283.967,240.020 283.800 C 239.924 283.634,239.799 283.269,239.741 282.990 C 239.683 282.711,239.547 282.309,239.439 282.097 C 239.331 281.885,239.197 281.465,239.142 281.163 C 239.087 280.862,238.964 280.485,238.869 280.327 C 238.775 280.168,238.625 279.706,238.536 279.300 C 238.448 278.894,238.335 278.548,238.286 278.531 C 238.237 278.515,238.105 278.140,237.993 277.698 C 237.882 277.256,237.712 276.759,237.617 276.593 C 237.521 276.427,237.413 276.097,237.377 275.859 C 237.341 275.621,237.210 275.210,237.087 274.946 C 236.964 274.682,236.816 274.232,236.758 273.946 C 236.699 273.661,236.568 273.272,236.464 273.082 C 236.361 272.892,236.211 272.443,236.131 272.085 C 236.051 271.728,235.924 271.339,235.849 271.221 C 235.774 271.103,235.661 270.747,235.598 270.430 C 235.535 270.113,235.403 269.721,235.304 269.558 C 235.205 269.396,235.077 269.028,235.020 268.741 C 234.963 268.455,234.815 268.004,234.692 267.740 C 234.569 267.475,234.436 267.065,234.397 266.827 C 234.359 266.589,234.229 266.200,234.110 265.962 C 233.990 265.724,233.840 265.270,233.775 264.953 C 233.711 264.636,233.580 264.247,233.485 264.088 C 233.390 263.930,233.261 263.541,233.198 263.224 C 233.135 262.907,233.021 262.549,232.944 262.428 C 232.868 262.308,232.718 261.860,232.611 261.432 C 232.505 261.004,232.358 260.562,232.286 260.450 C 232.213 260.337,232.086 259.952,232.003 259.594 C 231.921 259.237,231.785 258.839,231.702 258.712 C 231.618 258.584,231.489 258.192,231.416 257.842 C 231.343 257.491,231.199 257.067,231.097 256.899 C 230.995 256.731,230.881 256.399,230.845 256.161 C 230.808 255.924,230.678 255.513,230.556 255.249 C 230.435 254.984,230.283 254.515,230.220 254.206 C 230.157 253.897,230.026 253.508,229.930 253.342 C 229.834 253.175,229.704 252.779,229.641 252.462 C 229.578 252.145,229.444 251.750,229.343 251.584 C 229.242 251.418,229.113 251.031,229.056 250.723 C 228.999 250.415,228.853 249.968,228.732 249.728 C 228.611 249.488,228.481 249.097,228.442 248.859 C 228.403 248.621,228.271 248.210,228.147 247.946 C 228.024 247.682,227.876 247.229,227.818 246.939 C 227.760 246.649,227.649 246.314,227.571 246.196 C 227.494 246.077,227.363 245.692,227.282 245.339 C 227.200 244.987,227.047 244.530,226.942 244.324 C 226.837 244.119,226.708 243.713,226.654 243.422 C 226.600 243.132,226.469 242.745,226.362 242.564 C 226.255 242.383,226.109 241.955,226.037 241.614 C 225.966 241.272,225.843 240.893,225.763 240.770 C 225.684 240.648,225.550 240.246,225.465 239.876 C 225.380 239.507,225.249 239.111,225.173 238.995 C 225.098 238.880,224.965 238.474,224.878 238.093 C 224.792 237.712,224.643 237.265,224.548 237.100 C 224.453 236.935,224.346 236.606,224.310 236.368 C 224.275 236.130,224.146 235.741,224.025 235.503 C 223.904 235.265,223.752 234.811,223.688 234.494 C 223.624 234.177,223.493 233.782,223.397 233.615 C 223.301 233.448,223.171 233.059,223.108 232.750 C 223.046 232.441,222.912 232.045,222.812 231.871 C 222.711 231.696,222.566 231.256,222.491 230.893 C 222.415 230.529,222.288 230.132,222.208 230.009 C 222.129 229.886,221.995 229.484,221.910 229.115 C 221.825 228.746,221.692 228.346,221.614 228.228 C 221.537 228.110,221.408 227.720,221.327 227.362 C 221.247 227.004,221.096 226.554,220.991 226.361 C 220.887 226.168,220.757 225.780,220.704 225.499 C 220.651 225.217,220.519 224.818,220.412 224.612 C 220.304 224.406,220.175 224.020,220.125 223.755 C 220.075 223.490,219.948 223.095,219.843 222.878 C 219.739 222.661,219.588 222.191,219.508 221.833 C 219.428 221.475,219.300 221.086,219.224 220.968 C 219.148 220.851,219.020 220.468,218.939 220.119 C 218.859 219.769,218.709 219.337,218.606 219.158 C 218.503 218.979,218.389 218.638,218.354 218.400 C 218.319 218.162,218.190 217.752,218.067 217.487 C 217.945 217.223,217.794 216.821,217.732 216.593 C 217.572 216.000,217.234 216.043,217.122 216.671 C 217.018 217.254,216.867 218.266,216.813 218.736 C 216.755 219.243,216.607 220.229,216.481 220.946 C 216.426 221.264,216.354 221.761,216.322 222.051 C 216.289 222.342,216.224 222.629,216.176 222.689 C 216.128 222.749,216.094 222.921,216.100 223.073 C 216.118 223.520,215.990 224.678,215.899 224.886 C 215.854 224.992,215.794 225.273,215.766 225.510 C 215.739 225.748,215.671 226.224,215.615 226.567 C 215.558 226.911,215.468 227.624,215.413 228.153 C 215.359 228.681,215.276 229.200,215.229 229.306 C 215.181 229.411,215.121 229.714,215.094 229.978 C 215.067 230.243,215.002 230.718,214.948 231.035 C 214.894 231.352,214.783 232.109,214.701 232.717 C 214.619 233.325,214.511 234.060,214.462 234.350 C 214.252 235.572,214.153 236.246,214.131 236.608 C 214.118 236.820,214.072 237.100,214.030 237.232 C 213.988 237.363,213.939 237.623,213.922 237.808 C 213.827 238.827,213.770 239.222,213.692 239.395 C 213.613 239.570,213.536 240.106,213.467 240.980 C 213.452 241.165,213.403 241.424,213.358 241.557 C 213.314 241.689,213.266 241.970,213.253 242.181 C 213.231 242.541,213.148 243.112,212.916 244.487 C 212.863 244.804,212.804 245.227,212.785 245.427 C 212.766 245.627,212.717 245.908,212.675 246.051 C 212.634 246.195,212.591 246.486,212.579 246.697 C 212.543 247.362,212.433 248.131,212.345 248.331 C 212.298 248.436,212.239 248.739,212.213 249.003 C 212.188 249.267,212.117 249.765,212.057 250.108 C 211.997 250.452,211.933 250.906,211.915 251.117 C 211.883 251.486,211.770 252.248,211.578 253.375 C 211.433 254.227,211.286 255.219,211.243 255.633 C 211.221 255.844,211.158 256.288,211.103 256.618 C 210.793 258.459,210.639 259.458,210.572 260.053 C 210.548 260.264,210.487 260.697,210.435 261.014 C 210.272 262.022,210.132 262.921,210.061 263.413 L 209.993 263.890 209.839 263.653 C 209.755 263.522,209.632 263.254,209.568 263.055 C 209.503 262.857,209.413 262.695,209.368 262.695 C 209.324 262.695,209.235 262.533,209.172 262.335 C 209.108 262.137,208.981 261.888,208.889 261.782 C 208.796 261.677,208.692 261.468,208.656 261.318 C 208.621 261.168,208.507 260.954,208.404 260.843 C 208.300 260.732,208.215 260.571,208.215 260.486 C 208.215 260.400,208.107 260.184,207.975 260.005 C 207.843 259.826,207.735 259.631,207.735 259.572 C 207.735 259.514,207.627 259.319,207.495 259.140 C 207.362 258.961,207.254 258.739,207.254 258.648 C 207.254 258.556,207.188 258.415,207.106 258.333 C 207.025 258.252,206.909 258.044,206.849 257.871 C 206.789 257.699,206.664 257.477,206.573 257.378 C 206.481 257.280,206.378 257.088,206.344 256.952 C 206.310 256.816,206.198 256.599,206.095 256.468 C 205.993 256.338,205.909 256.181,205.909 256.119 C 205.909 256.057,205.801 255.860,205.669 255.681 C 205.537 255.502,205.429 255.277,205.429 255.182 C 205.429 255.086,205.342 254.922,205.237 254.816 C 205.131 254.711,205.044 254.590,205.044 254.549 C 205.044 254.484,204.598 253.592,204.144 252.750 C 204.059 252.592,203.988 252.408,203.988 252.342 C 203.988 252.276,203.949 252.222,203.902 252.222 C 203.855 252.222,203.744 252.042,203.656 251.822 C 203.568 251.601,203.412 251.315,203.309 251.184 C 203.207 251.054,203.123 250.868,203.123 250.771 C 203.123 250.675,203.042 250.519,202.944 250.424 C 202.846 250.330,202.735 250.123,202.697 249.964 C 202.659 249.805,202.550 249.589,202.454 249.484 C 202.358 249.378,202.248 249.183,202.208 249.051 C 202.168 248.919,202.055 248.708,201.957 248.582 C 201.858 248.456,201.778 248.302,201.778 248.240 C 201.778 248.178,201.669 247.981,201.537 247.802 C 201.405 247.623,201.297 247.418,201.297 247.346 C 201.297 247.274,201.189 247.056,201.057 246.862 C 200.925 246.667,200.817 246.431,200.817 246.335 C 200.817 246.240,200.754 246.139,200.677 246.109 C 200.601 246.080,200.487 245.897,200.425 245.704 C 200.363 245.510,200.236 245.265,200.143 245.160 C 200.049 245.054,199.944 244.832,199.909 244.665 C 199.874 244.499,199.761 244.287,199.658 244.194 C 199.556 244.101,199.472 243.954,199.472 243.866 C 199.472 243.779,199.366 243.564,199.236 243.389 C 199.107 243.214,198.974 242.946,198.940 242.794 C 198.907 242.642,198.844 242.517,198.799 242.517 C 198.755 242.517,198.645 242.323,198.554 242.086 C 198.464 241.849,198.333 241.609,198.264 241.551 C 198.195 241.494,198.112 241.325,198.079 241.176 C 198.046 241.026,197.935 240.828,197.833 240.735 C 197.730 240.642,197.646 240.495,197.646 240.407 C 197.646 240.320,197.540 240.105,197.411 239.930 C 197.281 239.755,197.148 239.484,197.113 239.328 C 197.079 239.173,196.993 239.023,196.922 238.996 C 196.851 238.969,196.766 238.822,196.732 238.671 C 196.699 238.519,196.594 238.295,196.499 238.174 C 196.405 238.053,196.294 237.845,196.253 237.713 C 196.212 237.581,196.101 237.374,196.006 237.252 C 195.911 237.131,195.807 236.908,195.773 236.758 C 195.740 236.607,195.629 236.408,195.527 236.315 C 195.424 236.222,195.340 236.072,195.340 235.982 C 195.340 235.891,195.252 235.705,195.144 235.569 C 195.037 235.432,194.892 235.156,194.823 234.955 C 194.583 234.260,193.899 234.172,193.899 234.837 C 193.899 234.986,193.855 235.134,193.803 235.167 C 193.750 235.200,193.706 235.323,193.706 235.442 C 193.706 235.560,193.669 235.698,193.624 235.748 C 193.578 235.798,193.465 236.077,193.372 236.368 C 193.278 236.659,193.142 237.011,193.070 237.152 C 192.997 237.292,192.938 237.495,192.938 237.602 C 192.938 237.710,192.895 237.825,192.842 237.857 C 192.789 237.890,192.746 238.014,192.746 238.132 C 192.746 238.250,192.710 238.388,192.665 238.439 C 192.621 238.489,192.510 238.746,192.418 239.010 C 192.218 239.582,192.150 239.759,191.942 240.239 C 191.856 240.439,191.785 240.685,191.785 240.785 C 191.785 240.886,191.742 240.995,191.689 241.028 C 191.636 241.061,191.593 241.185,191.593 241.304 C 191.593 241.423,191.529 241.604,191.452 241.706 C 191.374 241.809,191.309 241.988,191.307 242.103 C 191.306 242.219,191.261 242.341,191.208 242.373 C 191.155 242.406,191.112 242.511,191.112 242.606 C 191.112 242.988,190.762 243.257,190.178 243.325 C 189.553 243.397,189.186 243.449,188.422 243.575 C 188.131 243.623,187.699 243.688,187.461 243.720 C 187.223 243.752,186.920 243.794,186.788 243.815 C 186.656 243.835,186.354 243.878,186.116 243.911 C 185.878 243.943,185.575 243.986,185.443 244.007 C 185.311 244.027,184.576 244.135,183.810 244.247 C 183.043 244.359,182.308 244.467,182.176 244.487 C 182.044 244.507,181.742 244.550,181.504 244.581 C 181.266 244.612,180.963 244.656,180.831 244.679 C 180.699 244.702,180.396 244.746,180.159 244.777 C 179.921 244.807,179.488 244.871,179.198 244.919 C 178.663 245.007,178.349 245.052,177.564 245.156 C 177.326 245.188,177.024 245.233,176.892 245.256 C 176.760 245.279,176.457 245.323,176.219 245.353 C 175.981 245.383,175.549 245.447,175.258 245.495 C 174.724 245.583,174.410 245.629,173.625 245.733 C 173.387 245.764,173.084 245.809,172.952 245.832 C 172.820 245.855,172.517 245.899,172.280 245.930 C 172.042 245.960,171.609 246.024,171.319 246.072 C 170.784 246.160,170.470 246.205,169.685 246.309 C 169.448 246.341,169.145 246.386,169.013 246.409 C 168.881 246.432,168.578 246.476,168.340 246.506 C 168.102 246.537,167.670 246.601,167.379 246.649 C 167.089 246.697,166.656 246.763,166.418 246.795 C 166.181 246.826,165.878 246.869,165.746 246.889 C 165.614 246.910,165.311 246.953,165.073 246.985 C 164.835 247.018,164.533 247.061,164.401 247.081 C 164.269 247.102,163.534 247.210,162.767 247.322 C 162.001 247.433,161.266 247.541,161.134 247.562 C 161.002 247.582,160.699 247.624,160.461 247.655 C 160.223 247.687,159.921 247.731,159.789 247.754 C 159.656 247.777,159.354 247.821,159.116 247.851 C 158.878 247.882,158.446 247.946,158.155 247.993 C 157.621 248.081,157.307 248.127,156.522 248.231 C 156.284 248.263,155.981 248.307,155.849 248.331 C 155.717 248.354,155.414 248.397,155.177 248.428 C 154.939 248.458,154.506 248.522,154.216 248.570 C 153.681 248.658,153.367 248.704,152.582 248.808 C 152.344 248.839,152.042 248.884,151.910 248.907 C 151.778 248.930,151.475 248.974,151.237 249.004 C 150.999 249.035,150.567 249.099,150.276 249.146 C 149.986 249.194,149.596 249.254,149.411 249.280 C 149.227 249.306,148.881 249.354,148.643 249.387 C 148.405 249.420,148.102 249.463,147.970 249.484 C 147.838 249.504,147.535 249.546,147.298 249.578 C 147.060 249.610,146.627 249.676,146.337 249.724 C 146.046 249.772,145.614 249.837,145.376 249.869 C 145.138 249.901,144.835 249.944,144.703 249.964 C 144.571 249.984,144.269 250.028,144.031 250.060 C 143.793 250.093,143.490 250.136,143.358 250.156 C 143.226 250.176,142.491 250.285,141.725 250.396 C 140.958 250.508,140.223 250.616,140.091 250.637 C 139.959 250.657,139.656 250.699,139.419 250.730 C 139.181 250.761,138.878 250.806,138.746 250.829 C 138.614 250.852,138.311 250.896,138.074 250.926 C 137.836 250.956,137.403 251.021,137.113 251.069 C 136.822 251.117,136.390 251.183,136.152 251.214 C 135.709 251.274,135.558 251.295,134.807 251.405 C 134.569 251.440,134.266 251.483,134.134 251.501 C 133.775 251.550,132.487 251.751,132.212 251.801 C 131.654 251.902,129.865 251.945,129.677 251.861 C 129.378 251.727,128.832 251.537,128.585 251.480 C 128.466 251.453,128.369 251.397,128.369 251.356 C 128.369 251.315,128.272 251.257,128.153 251.226 C 127.960 251.177,127.095 250.402,126.748 249.968 C 125.729 248.695,125.485 246.009,126.263 244.631 C 126.307 244.552,126.440 244.303,126.557 244.079 C 126.674 243.854,126.816 243.670,126.873 243.669 C 126.929 243.669,127.127 243.496,127.312 243.286 C 127.497 243.076,127.701 242.903,127.765 242.903 C 127.829 242.902,127.926 242.819,127.980 242.717 C 128.035 242.616,128.220 242.503,128.392 242.466 C 128.564 242.429,128.748 242.367,128.801 242.328 C 129.166 242.056,132.564 241.530,156.426 238.049 C 183.403 234.113,183.488 234.100,183.577 233.799 C 183.605 233.706,183.690 233.507,183.767 233.358 C 183.843 233.208,183.906 233.002,183.906 232.900 C 183.906 232.798,183.945 232.639,183.992 232.547 C 184.039 232.456,184.143 232.208,184.221 231.996 C 184.543 231.132,184.699 230.738,184.780 230.580 C 184.828 230.488,184.867 230.334,184.867 230.236 C 184.867 230.138,184.896 230.029,184.933 229.993 C 185.004 229.921,185.153 229.530,185.451 228.635 C 185.556 228.319,185.683 228.018,185.735 227.967 C 185.786 227.916,185.828 227.753,185.828 227.605 C 185.828 227.457,185.866 227.336,185.913 227.336 C 185.960 227.336,186.020 227.217,186.046 227.072 C 186.097 226.791,186.538 225.586,186.661 225.388 C 186.702 225.323,186.748 225.185,186.764 225.080 C 186.781 224.976,186.836 224.848,186.887 224.797 C 186.939 224.745,186.981 224.613,186.981 224.502 C 186.981 224.391,187.021 224.259,187.071 224.209 C 187.121 224.158,187.184 223.991,187.211 223.837 C 187.239 223.683,187.307 223.513,187.361 223.458 C 187.416 223.403,187.461 223.282,187.461 223.188 C 187.461 223.034,187.639 222.555,187.857 222.125 C 187.903 222.033,187.941 221.880,187.941 221.784 C 187.941 221.688,187.979 221.568,188.024 221.518 C 188.070 221.468,188.186 221.189,188.284 220.898 C 188.381 220.608,188.495 220.329,188.537 220.279 C 188.579 220.228,188.615 220.099,188.617 219.990 C 188.619 219.882,188.684 219.709,188.761 219.607 C 188.839 219.504,188.902 219.323,188.902 219.204 C 188.902 219.085,188.945 218.961,188.998 218.929 C 189.051 218.896,189.094 218.772,189.094 218.653 C 189.094 218.534,189.158 218.353,189.235 218.250 C 189.313 218.148,189.378 217.988,189.380 217.894 C 189.381 217.801,189.421 217.650,189.469 217.558 C 189.516 217.466,189.629 217.197,189.719 216.959 C 189.809 216.721,189.922 216.451,189.969 216.360 C 190.016 216.268,190.055 216.114,190.055 216.018 C 190.055 215.921,190.119 215.759,190.196 215.656 C 190.274 215.554,190.339 215.375,190.340 215.259 C 190.342 215.143,190.387 215.022,190.440 214.989 C 190.492 214.957,190.537 214.835,190.539 214.719 C 190.540 214.604,190.605 214.425,190.683 214.322 C 190.760 214.220,190.824 214.038,190.824 213.920 C 190.824 213.801,190.867 213.677,190.920 213.644 C 190.973 213.611,191.016 213.500,191.016 213.397 C 191.016 213.294,191.057 213.134,191.106 213.042 C 191.335 212.618,191.497 212.206,191.497 212.050 C 191.497 211.955,191.540 211.851,191.593 211.818 C 191.645 211.786,191.689 211.656,191.689 211.530 C 191.689 211.404,191.728 211.277,191.776 211.247 C 191.824 211.218,191.935 210.945,192.022 210.641 C 192.109 210.337,192.243 209.966,192.319 209.817 C 192.395 209.667,192.457 209.462,192.457 209.360 C 192.457 208.941,192.850 209.328,192.976 209.873 C 193.010 210.018,193.077 210.137,193.124 210.137 C 193.172 210.137,193.263 210.293,193.326 210.484 C 193.389 210.675,193.522 210.913,193.621 211.013 C 193.721 211.112,193.803 211.274,193.803 211.371 C 193.803 211.469,193.911 211.674,194.043 211.827 C 194.175 211.981,194.283 212.174,194.283 212.256 C 194.283 212.338,194.391 212.552,194.523 212.731 C 194.655 212.910,194.763 213.132,194.763 213.223 C 194.763 213.315,194.830 213.457,194.912 213.538 C 194.993 213.620,195.108 213.826,195.168 213.997 C 195.228 214.168,195.377 214.456,195.500 214.638 C 195.623 214.819,195.724 215.009,195.724 215.060 C 195.724 215.110,195.811 215.261,195.916 215.395 C 196.022 215.530,196.109 215.709,196.109 215.795 C 196.109 215.880,196.217 216.076,196.349 216.229 C 196.481 216.383,196.589 216.589,196.589 216.687 C 196.589 216.785,196.675 216.939,196.781 217.029 C 196.886 217.119,196.999 217.332,197.030 217.502 C 197.062 217.672,197.170 217.885,197.269 217.975 C 197.369 218.065,197.477 218.281,197.509 218.455 C 197.542 218.629,197.627 218.794,197.698 218.821 C 197.769 218.848,197.880 219.045,197.944 219.258 C 198.007 219.472,198.140 219.718,198.237 219.807 C 198.335 219.895,198.415 220.039,198.415 220.126 C 198.415 220.213,198.523 220.431,198.655 220.610 C 198.787 220.789,198.895 221.009,198.895 221.097 C 198.895 221.186,198.958 221.311,199.034 221.375 C 199.111 221.438,199.246 221.681,199.335 221.915 C 199.425 222.148,199.532 222.340,199.573 222.340 C 199.615 222.340,199.701 222.502,199.764 222.700 C 199.828 222.898,199.956 223.147,200.050 223.252 C 200.143 223.358,200.250 223.588,200.287 223.763 C 200.324 223.939,200.415 224.105,200.489 224.134 C 200.562 224.162,200.673 224.353,200.735 224.558 C 200.796 224.763,200.926 225.003,201.024 225.091 C 201.121 225.180,201.201 225.306,201.201 225.371 C 201.201 225.491,201.612 226.314,201.895 226.761 C 201.978 226.892,202.076 227.101,202.113 227.225 C 202.150 227.350,202.263 227.533,202.364 227.634 C 202.464 227.734,202.546 227.900,202.546 228.001 C 202.546 228.103,202.654 228.315,202.786 228.472 C 202.919 228.629,203.027 228.821,203.027 228.898 C 203.027 228.976,203.107 229.143,203.205 229.269 C 203.303 229.395,203.436 229.660,203.501 229.858 C 203.565 230.056,203.654 230.219,203.699 230.219 C 203.743 230.219,203.853 230.438,203.942 230.706 C 204.265 231.680,204.801 231.612,204.892 230.586 C 205.006 229.313,205.024 229.159,205.097 228.895 C 205.137 228.751,205.182 228.460,205.198 228.249 C 205.253 227.502,205.344 226.901,205.429 226.712 C 205.477 226.606,205.537 226.303,205.564 226.039 C 205.591 225.775,205.658 225.277,205.715 224.934 C 205.771 224.590,205.835 224.115,205.858 223.877 C 205.880 223.639,205.946 223.164,206.003 222.820 C 206.060 222.477,206.147 221.936,206.196 221.619 C 206.244 221.302,206.333 220.761,206.392 220.418 C 206.451 220.074,206.514 219.620,206.531 219.409 C 206.548 219.198,206.614 218.722,206.676 218.352 C 206.944 216.776,207.163 215.350,207.209 214.893 C 207.230 214.682,207.289 214.249,207.341 213.932 C 207.393 213.615,207.463 213.118,207.496 212.827 C 207.529 212.537,207.593 212.212,207.639 212.107 C 207.685 212.001,207.747 211.655,207.778 211.338 C 207.875 210.327,207.915 210.007,208.022 209.368 C 208.079 209.025,208.149 208.549,208.176 208.311 C 208.203 208.074,208.263 207.792,208.309 207.687 C 208.355 207.581,208.421 207.214,208.456 206.870 C 208.578 205.649,208.636 205.238,208.892 203.747 C 209.059 202.779,209.184 201.943,209.230 201.489 C 209.274 201.060,209.372 200.408,209.565 199.255 C 209.621 198.925,209.690 198.417,209.719 198.126 C 209.748 197.836,209.813 197.548,209.863 197.487 C 209.913 197.425,209.953 197.209,209.952 197.006 C 209.950 196.413,210.043 195.596,210.137 195.388 C 210.185 195.282,210.246 194.980,210.274 194.715 C 210.384 193.660,210.439 193.268,210.498 193.130 C 210.531 193.051,210.613 192.532,210.680 191.977 C 210.747 191.422,210.847 190.698,210.902 190.368 C 211.181 188.690,211.232 188.353,211.430 186.884 C 211.502 186.355,211.657 185.352,211.766 184.723 C 211.968 183.546,212.069 182.886,212.110 182.465 C 212.234 181.198,212.267 180.959,212.346 180.783 C 212.394 180.677,212.454 180.396,212.480 180.159 C 212.630 178.797,212.667 178.563,212.746 178.463 C 212.794 178.403,212.829 178.187,212.824 177.983 C 212.811 177.476,212.918 176.597,213.021 176.363 C 213.068 176.258,213.128 175.955,213.155 175.691 C 213.181 175.426,213.250 174.929,213.307 174.586 C 213.364 174.242,213.427 173.788,213.447 173.577 C 213.571 172.235,213.781 171.628,213.787 172.596 M373.781 196.749 C 373.264 196.819,372.747 196.951,372.566 197.058 C 372.392 197.160,372.012 197.294,371.720 197.354 C 371.428 197.415,371.139 197.525,371.078 197.598 C 371.017 197.672,370.823 197.780,370.647 197.838 C 370.471 197.896,370.304 198.002,370.277 198.074 C 370.249 198.146,370.094 198.233,369.932 198.269 C 369.770 198.305,369.637 198.376,369.637 198.427 C 369.637 198.478,369.497 198.580,369.325 198.653 C 369.153 198.726,368.940 198.864,368.852 198.960 C 368.763 199.056,368.489 199.308,368.242 199.520 C 367.995 199.731,367.679 200.029,367.538 200.182 C 367.398 200.336,367.214 200.530,367.129 200.615 C 366.875 200.868,365.986 202.133,365.986 202.241 C 365.986 202.295,365.931 202.397,365.863 202.467 C 365.795 202.537,365.617 202.854,365.467 203.171 C 365.318 203.488,365.135 203.862,365.062 204.002 C 364.989 204.143,364.929 204.345,364.929 204.453 C 364.929 204.561,364.886 204.675,364.833 204.708 C 364.780 204.741,364.737 204.885,364.737 205.029 C 364.737 205.172,364.677 205.375,364.604 205.480 C 364.469 205.672,364.241 207.670,364.257 208.517 C 364.274 209.432,364.616 211.267,364.870 211.804 C 365.008 212.096,365.121 212.400,365.121 212.481 C 365.121 212.676,365.326 213.116,365.417 213.116 C 365.458 213.116,365.518 213.242,365.552 213.396 C 365.586 213.550,365.719 213.798,365.848 213.948 C 365.977 214.098,366.082 214.286,366.082 214.366 C 366.082 214.445,366.169 214.565,366.274 214.631 C 366.380 214.697,366.466 214.797,366.466 214.855 C 366.466 215.485,370.259 218.582,371.035 218.584 C 371.061 218.584,371.201 218.646,371.345 218.722 C 371.783 218.951,372.171 219.103,372.422 219.143 C 372.553 219.164,372.683 219.216,372.710 219.259 C 372.738 219.301,372.911 219.361,373.096 219.392 C 373.281 219.423,373.692 219.497,374.009 219.557 C 375.392 219.818,378.652 219.662,379.191 219.308 C 379.320 219.224,379.643 219.097,379.909 219.027 C 380.175 218.957,380.508 218.809,380.649 218.698 C 380.790 218.587,380.980 218.496,381.071 218.496 C 381.163 218.496,381.341 218.416,381.467 218.317 C 381.593 218.219,381.787 218.110,381.899 218.075 C 382.011 218.040,382.180 217.926,382.275 217.821 C 382.369 217.717,382.494 217.631,382.552 217.630 C 382.609 217.629,382.873 217.433,383.137 217.194 C 383.401 216.955,383.661 216.725,383.714 216.684 C 383.928 216.516,385.072 215.193,385.247 214.909 C 385.351 214.742,385.459 214.583,385.488 214.557 C 385.703 214.357,386.658 212.392,386.935 211.578 C 387.517 209.873,387.639 206.000,387.130 205.388 C 387.074 205.320,386.943 204.931,386.838 204.524 C 386.734 204.117,386.562 203.673,386.455 203.536 C 386.347 203.400,386.260 203.204,386.260 203.100 C 386.260 202.995,386.152 202.782,386.020 202.625 C 385.888 202.468,385.779 202.284,385.779 202.217 C 385.779 202.150,385.701 202.005,385.605 201.894 C 385.510 201.784,385.347 201.579,385.245 201.438 C 384.691 200.676,384.234 200.183,383.578 199.639 C 382.640 198.860,382.166 198.511,382.043 198.511 C 381.990 198.511,381.911 198.457,381.869 198.391 C 381.769 198.235,380.208 197.454,379.996 197.454 C 379.907 197.454,379.807 197.411,379.774 197.358 C 379.742 197.305,379.642 197.261,379.552 197.261 C 379.463 197.261,379.266 197.196,379.115 197.117 C 378.963 197.038,378.723 196.973,378.581 196.973 C 378.439 196.973,378.279 196.929,378.224 196.874 C 378.168 196.818,377.467 196.752,376.643 196.725 C 375.829 196.698,375.054 196.664,374.922 196.651 C 374.790 196.637,374.277 196.681,373.781 196.749 M79.538 224.344 C 79.060 224.510,78.409 225.058,78.174 225.492 C 77.554 226.636,77.338 224.763,80.849 248.715 C 82.521 260.130,84.061 270.658,84.271 272.111 C 84.789 275.707,84.846 275.925,85.420 276.475 C 85.673 276.717,85.929 276.916,85.989 276.916 C 86.049 276.916,86.123 276.981,86.153 277.060 C 86.184 277.139,86.303 277.204,86.419 277.204 C 86.535 277.204,86.671 277.244,86.721 277.294 C 86.910 277.479,88.322 277.435,88.782 277.230 C 89.572 276.879,90.416 275.841,90.416 275.221 C 90.416 275.101,90.461 274.903,90.517 274.780 C 90.628 274.537,83.694 226.615,83.493 226.231 C 83.437 226.125,83.324 225.909,83.241 225.751 C 82.588 224.506,80.908 223.868,79.538 224.344 " stroke="none" fill="#000000" fill-rule="evenodd"></path></g></svg>