<svg id="svg" xmlns="http://www.w3.org/2000/svg" xmlns:xlink="http://www.w3.org/1999/xlink" width="400" height="400" viewBox="0, 0, 400,400"><g id="svgg"><path id="path0" d="M194.378 10.022 C 194.352 10.045,193.323 10.095,192.090 10.132 C 190.858 10.170,189.755 10.215,189.640 10.232 C 189.525 10.250,188.869 10.292,188.182 10.325 C 187.495 10.359,186.760 10.404,186.548 10.425 C 186.337 10.447,185.753 10.490,185.251 10.522 C 184.749 10.554,184.144 10.599,183.906 10.622 C 183.668 10.644,182.738 10.730,181.840 10.812 C 98.564 18.373,29.230 80.689,12.826 162.719 C -5.013 251.920,42.447 340.891,126.580 375.971 C 144.144 383.295,165.192 388.450,182.897 389.764 C 183.320 389.796,183.795 389.840,183.954 389.862 C 184.112 389.884,184.696 389.928,185.251 389.958 C 185.806 389.989,186.390 390.032,186.548 390.054 C 186.707 390.076,187.420 390.121,188.134 390.154 C 188.847 390.188,189.530 390.231,189.650 390.250 C 191.240 390.498,207.977 390.497,209.993 390.248 C 210.151 390.228,210.800 390.185,211.434 390.153 C 233.898 388.998,258.090 382.960,279.414 373.186 C 283.324 371.393,292.671 366.624,292.537 366.490 C 292.517 366.470,292.161 366.501,291.746 366.560 C 291.331 366.619,290.408 366.727,289.695 366.801 C 288.982 366.875,287.382 367.043,286.140 367.175 C 281.154 367.705,278.155 367.925,269.373 368.404 C 264.803 368.654,250.367 368.557,245.352 368.242 C 244.084 368.163,242.211 368.054,241.191 368.001 C 240.171 367.947,238.420 367.817,237.300 367.711 C 236.180 367.605,234.723 367.478,234.062 367.429 C 233.401 367.381,232.104 367.251,231.179 367.142 C 230.255 367.032,228.893 366.880,228.153 366.803 C 220.575 366.015,205.241 363.342,198.559 361.644 C 198.136 361.536,197.423 361.372,196.973 361.279 C 196.524 361.186,195.703 360.996,195.148 360.856 C 194.593 360.716,193.620 360.471,192.986 360.312 C 189.594 359.461,185.161 358.233,181.840 357.226 C 179.158 356.412,175.232 355.163,174.490 354.887 C 174.146 354.760,173.281 354.461,172.568 354.224 C 171.854 353.986,170.665 353.571,169.926 353.300 C 169.186 353.030,168.364 352.730,168.100 352.634 C 167.144 352.286,166.069 351.883,165.458 351.641 C 165.114 351.506,164.422 351.238,163.920 351.047 C 163.418 350.856,162.813 350.617,162.575 350.517 C 162.337 350.417,161.765 350.181,161.302 349.992 C 158.173 348.714,156.269 347.892,152.342 346.122 C 146.857 343.650,136.533 338.106,132.137 335.272 C 131.699 334.990,131.322 334.759,131.299 334.759 C 131.276 334.759,131.072 334.634,130.846 334.481 C 130.620 334.329,130.132 334.011,129.762 333.775 C 128.804 333.163,125.537 330.994,124.910 330.553 C 124.619 330.348,124.079 329.971,123.709 329.714 C 123.339 329.457,122.842 329.105,122.604 328.931 C 122.366 328.757,121.999 328.490,121.787 328.336 C 121.458 328.097,118.855 326.155,118.099 325.585 C 113.554 322.153,108.080 317.349,103.429 312.708 C 99.496 308.783,97.171 306.223,93.341 301.596 C 91.549 299.430,89.178 296.451,88.689 295.748 C 88.560 295.563,88.428 295.390,88.395 295.364 C 88.362 295.337,88.076 294.970,87.759 294.547 C 87.442 294.124,86.926 293.439,86.613 293.024 C 86.300 292.610,85.828 291.971,85.563 291.605 C 84.934 290.733,82.569 287.434,81.746 286.281 C 80.326 284.291,76.532 278.671,74.419 275.426 C 74.006 274.792,73.401 273.863,73.073 273.361 C 72.053 271.795,70.510 269.401,69.722 268.161 C 69.307 267.506,68.631 266.448,68.220 265.808 C 67.809 265.168,67.419 264.541,67.352 264.415 C 67.286 264.288,66.921 263.709,66.542 263.128 C 66.163 262.546,65.722 261.854,65.561 261.590 C 65.401 261.326,64.940 260.591,64.537 259.957 C 62.166 256.226,59.611 252.111,58.930 250.925 C 58.718 250.555,58.300 249.856,58.001 249.373 C 57.703 248.889,57.459 248.468,57.459 248.437 C 57.459 248.407,57.293 248.111,57.091 247.780 C 56.196 246.315,54.147 242.562,52.800 239.923 C 51.955 238.269,51.032 236.378,50.971 236.176 C 50.931 236.044,50.653 235.417,50.354 234.783 C 50.055 234.148,49.667 233.284,49.491 232.861 C 49.315 232.438,48.867 231.422,48.495 230.603 C 48.123 229.784,47.725 228.876,47.611 228.585 C 47.205 227.557,44.684 222.268,42.848 218.592 C 41.302 215.498,41.095 215.099,40.996 215.026 C 40.952 214.994,40.921 214.929,40.928 214.882 C 40.941 214.791,39.746 212.558,38.733 210.781 C 38.396 210.189,37.868 209.238,37.560 208.668 C 37.252 208.097,36.917 207.514,36.816 207.371 C 36.714 207.227,36.448 206.766,36.224 206.344 C 36.001 205.923,35.520 205.067,35.156 204.442 C 34.792 203.817,34.494 203.290,34.494 203.271 C 34.494 203.252,34.185 202.703,33.807 202.051 C 33.428 201.398,33.005 200.649,32.865 200.384 C 32.725 200.120,32.347 199.428,32.024 198.847 C 31.071 197.129,31.122 197.541,31.153 191.824 L 31.179 186.836 31.436 186.226 C 31.751 185.480,33.200 183.032,35.313 179.678 C 35.696 179.070,36.079 178.443,36.164 178.285 C 36.250 178.126,36.641 177.499,37.034 176.892 C 37.426 176.284,38.086 175.256,38.499 174.607 C 41.689 169.598,46.423 162.439,49.567 157.867 C 53.364 152.347,54.313 150.976,55.155 149.796 C 55.475 149.347,56.157 148.390,56.670 147.670 C 57.183 146.950,57.819 146.064,58.083 145.700 C 58.347 145.337,58.845 144.644,59.188 144.161 C 60.392 142.467,61.102 141.494,63.174 138.698 C 64.713 136.622,68.061 132.159,69.052 130.861 C 72.261 126.664,72.386 126.503,74.610 123.711 C 74.980 123.247,75.455 122.639,75.667 122.359 C 75.878 122.080,77.002 120.678,78.165 119.245 C 79.327 117.811,80.408 116.473,80.567 116.271 C 80.925 115.815,82.698 113.668,83.828 112.323 C 84.293 111.768,84.981 110.946,85.356 110.497 C 85.730 110.048,86.319 109.353,86.665 108.953 C 87.010 108.553,87.768 107.666,88.349 106.983 C 88.930 106.300,89.564 105.568,89.759 105.357 C 89.953 105.145,90.256 104.794,90.432 104.577 C 90.608 104.359,91.074 103.819,91.467 103.376 C 91.860 102.933,92.679 102.008,93.288 101.321 C 93.897 100.634,94.613 99.833,94.879 99.541 C 95.146 99.249,95.731 98.601,96.181 98.102 C 108.930 83.943,123.080 70.628,135.238 61.347 C 136.867 60.103,137.087 59.939,138.569 58.852 C 139.001 58.535,139.531 58.145,139.747 57.986 C 142.894 55.663,148.065 52.255,151.814 50.035 C 152.791 49.455,153.829 48.840,154.120 48.668 C 156.985 46.965,162.627 44.146,166.130 42.666 C 166.896 42.342,167.718 41.995,167.956 41.894 C 173.718 39.450,181.614 37.303,187.557 36.564 C 188.218 36.482,189.169 36.361,189.671 36.296 C 191.394 36.070,201.159 36.140,203.988 36.399 C 205.282 36.518,206.882 36.656,207.543 36.707 C 210.210 36.910,216.419 37.748,219.254 38.286 C 224.573 39.296,228.439 40.254,232.092 41.469 C 234.852 42.386,235.701 42.715,238.818 44.074 C 239.838 44.518,241.080 45.029,241.823 45.308 C 242.154 45.433,242.467 45.561,242.518 45.593 C 242.608 45.648,243.170 45.859,245.112 46.567 C 250.533 48.544,256.590 50.014,258.564 49.831 C 261.041 49.601,264.555 48.744,268.893 47.312 C 269.995 46.948,270.687 46.704,272.544 46.022 C 272.808 45.925,273.521 45.643,274.129 45.395 C 274.737 45.146,275.439 44.862,275.690 44.764 C 275.941 44.665,276.611 44.383,277.180 44.138 C 277.748 43.892,278.537 43.552,278.933 43.382 C 279.330 43.212,279.762 43.027,279.894 42.970 C 282.310 41.929,287.349 40.372,291.280 39.452 C 293.546 38.922,298.466 37.951,298.879 37.953 C 299.459 37.955,299.349 37.879,295.604 35.696 C 270.663 21.157,240.771 12.025,212.875 10.421 C 212.294 10.387,211.725 10.346,211.610 10.328 C 211.495 10.311,210.652 10.268,209.736 10.232 C 208.820 10.197,207.963 10.146,207.831 10.120 C 207.528 10.059,194.442 9.963,194.378 10.022 M193.274 50.120 C 191.354 50.247,189.187 50.470,188.230 50.640 C 187.622 50.748,186.741 50.900,186.271 50.979 C 182.799 51.561,176.996 53.391,172.568 55.302 C 172.119 55.496,171.448 55.782,171.079 55.937 C 168.862 56.867,163.616 59.630,160.374 61.576 C 159.613 62.033,158.834 62.498,158.644 62.609 C 157.454 63.305,152.510 66.587,150.901 67.750 C 148.283 69.641,146.297 71.128,144.380 72.632 C 143.331 73.455,142.356 74.216,142.213 74.321 C 139.606 76.257,132.235 82.715,126.928 87.714 C 125.170 89.369,117.074 97.438,115.498 99.106 C 114.945 99.690,114.145 100.536,113.719 100.985 C 112.463 102.309,110.230 104.709,109.248 105.791 C 108.746 106.344,108.116 107.035,107.847 107.326 C 107.134 108.099,103.473 112.228,102.522 113.331 C 102.073 113.852,101.529 114.476,101.314 114.718 C 100.796 115.299,97.362 119.343,96.046 120.922 C 95.474 121.609,94.713 122.517,94.356 122.940 C 93.998 123.363,93.447 124.033,93.130 124.429 C 92.813 124.826,92.299 125.459,91.989 125.837 C 91.502 126.430,89.470 128.959,86.109 133.159 C 85.616 133.775,85.167 134.362,85.111 134.463 C 84.991 134.682,84.820 134.803,86.809 133.269 C 87.529 132.714,88.215 132.196,88.332 132.116 C 88.450 132.037,89.043 131.602,89.649 131.149 C 91.198 129.993,93.227 128.495,94.006 127.933 C 94.369 127.671,95.112 127.132,95.658 126.736 C 99.569 123.894,103.442 121.287,107.567 118.721 C 109.617 117.445,112.870 115.494,112.946 115.494 C 112.965 115.494,113.448 115.219,114.020 114.883 C 119.180 111.857,130.064 106.289,134.614 104.348 C 134.958 104.201,135.607 103.921,136.056 103.725 C 138.396 102.704,141.956 101.273,144.415 100.365 C 146.384 99.637,147.041 99.405,148.739 98.837 C 153.044 97.398,155.490 96.676,159.596 95.631 C 163.207 94.713,168.721 93.577,170.886 93.304 C 171.256 93.258,172.337 93.110,173.288 92.976 C 174.948 92.742,177.679 92.438,179.918 92.239 C 181.100 92.134,188.403 91.930,188.514 91.999 C 188.553 92.023,189.554 92.050,190.738 92.058 C 192.990 92.074,195.480 92.230,197.535 92.484 C 198.204 92.566,199.171 92.674,199.685 92.723 C 204.323 93.167,210.935 94.668,217.343 96.732 C 221.631 98.114,222.668 98.425,225.414 99.153 C 226.022 99.314,226.908 99.551,227.384 99.678 C 228.926 100.092,233.651 101.221,238.098 102.238 C 238.811 102.401,240.022 102.680,240.788 102.859 C 241.554 103.038,242.765 103.316,243.478 103.478 C 245.368 103.905,247.582 104.411,248.955 104.729 C 249.616 104.882,250.459 105.075,250.829 105.158 C 251.839 105.385,264.334 105.384,265.337 105.157 C 265.707 105.073,266.659 104.855,267.451 104.672 C 268.814 104.358,269.816 104.129,272.736 103.467 C 273.423 103.311,274.612 103.037,275.378 102.859 C 276.145 102.680,277.355 102.400,278.069 102.237 C 278.782 102.074,279.906 101.813,280.567 101.658 C 281.227 101.503,282.438 101.222,283.257 101.033 C 287.096 100.148,292.512 98.724,295.124 97.914 C 295.599 97.766,297.264 97.235,298.823 96.732 C 305.217 94.672,311.869 93.161,316.454 92.725 C 316.983 92.675,317.962 92.566,318.631 92.484 C 323.744 91.853,333.337 91.849,338.698 92.477 C 339.359 92.555,340.346 92.660,340.892 92.711 C 345.230 93.119,354.140 94.857,358.709 96.186 C 359.706 96.476,359.712 96.518,358.481 94.676 C 347.531 78.292,331.813 61.347,317.626 50.630 L 317.031 50.180 315.253 50.270 C 313.659 50.351,311.030 50.579,307.278 50.964 C 305.638 51.131,302.915 51.519,300.745 51.894 C 299.820 52.054,298.933 52.206,298.775 52.233 C 298.230 52.324,295.795 52.855,294.595 53.144 C 290.287 54.184,288.091 54.930,283.209 57.013 C 280.853 58.018,278.913 58.803,278.117 59.074 C 277.958 59.128,277.288 59.373,276.627 59.618 C 272.683 61.079,266.333 62.879,263.752 63.267 C 263.567 63.295,262.724 63.436,261.878 63.580 C 260.502 63.816,260.105 63.843,258.083 63.843 C 256.061 63.843,255.664 63.816,254.288 63.580 C 253.442 63.436,252.599 63.295,252.414 63.267 C 249.833 62.879,243.483 61.079,239.539 59.618 C 238.878 59.373,238.208 59.128,238.049 59.074 C 237.236 58.798,235.285 58.007,232.861 56.972 C 228.078 54.929,225.882 54.185,221.571 53.144 C 220.372 52.855,217.936 52.324,217.391 52.233 C 217.233 52.206,216.346 52.054,215.422 51.894 C 212.030 51.309,210.297 51.090,205.141 50.596 C 201.439 50.242,195.209 49.992,193.274 50.120 M193.748 106.697 C 193.858 107.593,193.908 108.232,193.995 109.825 C 194.269 114.846,195.646 129.134,195.960 130.218 C 198.042 137.404,204.544 142.853,212.277 143.893 C 213.900 144.111,215.794 144.168,217.103 144.039 C 217.737 143.976,218.710 143.886,219.265 143.838 C 219.820 143.790,221.549 143.617,223.108 143.454 C 228.005 142.942,231.392 142.600,232.188 142.536 C 240.271 141.888,247.979 135.992,249.703 129.138 C 250.296 126.783,250.396 125.790,250.396 122.307 L 250.396 119.364 249.829 119.312 C 249.516 119.284,248.663 119.123,247.931 118.955 C 245.694 118.440,244.266 118.113,242.710 117.758 C 238.326 116.757,236.304 116.292,234.735 115.924 C 233.968 115.745,232.736 115.462,231.996 115.296 C 224.326 113.575,218.479 112.002,212.731 110.113 C 206.329 108.009,199.384 106.583,194.352 106.340 L 193.700 106.308 193.748 106.697 M321.211 106.373 C 320.603 106.414,319.457 106.539,318.664 106.649 C 317.872 106.760,316.748 106.914,316.166 106.993 C 314.949 107.157,312.984 107.524,311.458 107.872 C 310.877 108.005,310.120 108.174,309.777 108.249 C 308.623 108.498,306.144 109.226,303.435 110.113 C 297.521 112.049,293.064 113.246,284.074 115.314 C 283.387 115.472,282.198 115.748,281.432 115.926 C 279.794 116.307,277.493 116.836,273.457 117.758 C 271.900 118.113,270.472 118.440,268.235 118.955 C 267.504 119.123,266.650 119.284,266.338 119.312 L 265.770 119.364 265.770 122.307 C 265.770 125.790,265.871 126.783,266.463 129.138 C 268.187 135.990,275.894 141.885,283.978 142.536 C 284.805 142.603,288.767 143.004,293.106 143.460 C 294.586 143.615,296.294 143.785,296.901 143.837 C 297.509 143.889,298.417 143.975,298.919 144.027 C 308.429 145.029,317.647 139.049,320.206 130.218 C 320.520 129.134,321.897 114.846,322.171 109.825 C 322.259 108.217,322.309 107.580,322.421 106.678 C 322.449 106.453,322.436 106.276,322.394 106.284 C 322.351 106.292,321.818 106.332,321.211 106.373 M176.123 106.852 C 170.763 107.553,164.692 108.846,159.452 110.403 C 157.754 110.907,154.479 111.943,153.687 112.227 C 151.440 113.031,150.043 113.540,149.267 113.836 C 148.792 114.018,148.186 114.245,147.922 114.340 C 147.658 114.435,147.226 114.609,146.961 114.725 C 146.697 114.842,146.373 114.973,146.241 115.016 C 146.109 115.059,145.482 115.317,144.847 115.588 C 144.213 115.859,143.468 116.168,143.190 116.275 C 142.773 116.435,142.701 116.496,142.771 116.629 C 142.818 116.718,142.923 117.180,143.005 117.656 C 143.086 118.131,143.501 120.043,143.928 121.903 C 144.354 123.764,144.703 125.358,144.703 125.445 C 144.703 125.532,145.066 127.230,145.510 129.220 C 145.954 131.209,146.496 133.658,146.714 134.663 C 147.766 139.495,148.021 140.666,148.422 142.493 C 149.326 146.617,150.317 148.226,153.015 149.947 C 155.564 151.574,157.711 151.750,163.559 150.813 C 164.365 150.684,165.890 150.446,166.947 150.285 C 174.217 149.177,174.803 149.050,176.219 148.281 C 178.568 147.006,180.280 144.908,180.835 142.628 C 181.245 140.941,181.252 141.087,180.151 128.225 C 179.829 124.473,179.461 120.084,179.331 118.472 C 178.406 106.955,178.369 106.548,178.252 106.570 C 178.217 106.576,177.259 106.703,176.123 106.852 M337.791 106.970 C 337.675 107.850,337.065 115.129,337.065 115.631 C 337.065 115.925,336.697 120.299,336.248 125.351 C 335.799 130.403,335.431 134.786,335.431 135.092 C 335.431 135.397,335.340 136.636,335.229 137.845 C 334.732 143.267,336.038 146.155,339.947 148.278 C 341.265 148.993,342.014 149.175,346.385 149.842 C 347.367 149.992,349.088 150.257,352.919 150.847 C 357.872 151.610,359.332 151.595,361.422 150.760 C 365.484 149.136,367.243 146.456,368.192 140.442 C 368.243 140.117,368.629 138.316,369.049 136.440 C 369.470 134.564,369.991 132.208,370.209 131.203 C 371.083 127.169,371.509 125.225,372.063 122.748 C 372.382 121.321,372.643 120.046,372.642 119.914 C 372.640 119.391,370.506 115.229,370.177 115.106 C 370.012 115.044,369.575 114.871,369.205 114.720 C 367.678 114.100,364.903 113.064,363.007 112.409 C 355.229 109.717,347.129 107.752,340.283 106.897 C 339.227 106.765,338.245 106.636,338.103 106.611 C 337.861 106.568,337.840 106.592,337.791 106.970 M127.744 123.789 C 127.269 124.048,126.231 124.628,125.438 125.077 C 124.646 125.527,123.846 125.980,123.661 126.085 C 123.016 126.450,120.536 127.913,120.202 128.125 C 120.017 128.243,119.520 128.545,119.097 128.798 C 118.674 129.050,118.177 129.353,117.992 129.472 C 117.807 129.590,116.942 130.133,116.070 130.678 C 111.799 133.348,108.275 135.771,108.346 135.990 C 108.383 136.105,108.445 136.330,108.483 136.488 C 108.522 136.647,108.867 137.620,109.249 138.650 C 109.632 139.681,110.000 140.718,110.067 140.956 C 110.133 141.194,110.532 142.340,110.953 143.502 C 111.375 144.665,111.796 145.854,111.890 146.145 C 111.984 146.435,112.357 147.462,112.718 148.426 C 113.080 149.390,113.395 150.283,113.418 150.410 C 113.458 150.632,114.284 152.931,114.775 154.185 C 114.903 154.512,115.027 154.892,115.052 155.029 C 115.077 155.167,115.442 156.219,115.864 157.366 C 116.285 158.514,116.681 159.625,116.744 159.837 C 117.396 162.028,118.004 162.978,119.137 163.573 C 120.145 164.103,120.332 164.077,122.430 163.112 C 125.622 161.645,131.274 159.063,132.773 158.387 C 135.623 157.103,135.892 156.535,135.158 153.351 C 134.921 152.320,134.703 151.304,134.674 151.093 C 134.626 150.742,134.409 149.765,133.426 145.472 C 133.238 144.653,133.063 143.810,133.036 143.598 C 133.009 143.387,132.660 141.787,132.260 140.043 C 131.860 138.299,131.472 136.526,131.398 136.102 C 131.324 135.679,130.933 133.884,130.529 132.115 C 130.125 130.345,129.754 128.638,129.704 128.321 C 129.653 128.004,129.387 126.749,129.111 125.532 L 128.608 123.319 127.744 123.789 M256.449 146.046 C 251.029 151.505,243.090 155.429,235.840 156.234 C 235.417 156.281,234.120 156.426,232.957 156.556 C 231.794 156.686,230.540 156.819,230.171 156.852 C 229.801 156.884,228.244 157.040,226.712 157.197 C 219.342 157.955,218.248 158.054,216.815 158.095 C 210.868 158.265,205.453 157.271,200.480 155.097 C 198.072 154.044,196.783 153.342,194.596 151.892 L 193.611 151.239 193.356 151.646 C 189.291 158.129,183.120 161.988,174.730 163.293 C 173.514 163.482,171.720 163.764,170.742 163.919 C 169.765 164.074,168.792 164.223,168.580 164.249 C 168.176 164.300,165.564 164.700,162.815 165.132 C 158.304 165.842,153.027 165.347,149.195 163.854 C 148.838 163.715,148.533 163.619,148.518 163.641 C 148.502 163.662,148.319 163.939,148.111 164.257 C 146.054 167.387,143.995 168.910,138.266 171.538 C 136.707 172.253,134.091 173.455,132.453 174.208 C 127.848 176.327,125.878 177.177,125.561 177.182 C 125.493 177.183,125.071 177.292,124.622 177.425 C 123.065 177.884,119.310 178.092,117.800 177.802 C 117.585 177.761,117.483 177.869,116.839 178.818 C 115.680 180.526,113.928 182.184,112.025 183.374 C 111.051 183.983,110.528 184.233,103.771 187.320 C 101.842 188.202,98.773 189.605,96.949 190.438 C 92.558 192.445,91.288 192.865,88.777 193.141 C 87.529 193.277,84.677 193.197,83.690 192.997 C 80.673 192.388,78.447 191.500,76.399 190.089 C 74.731 188.940,73.908 188.113,70.572 184.242 C 70.207 183.819,69.432 182.933,68.848 182.272 C 68.264 181.612,67.639 180.898,67.460 180.687 C 67.280 180.476,66.865 180.000,66.538 179.630 C 65.283 178.212,64.505 177.325,64.088 176.840 C 62.621 175.132,62.045 174.490,61.981 174.490 C 61.897 174.490,58.082 178.354,55.195 181.364 C 52.918 183.738,52.103 184.604,49.685 187.219 L 48.798 188.179 55.936 195.242 C 64.434 203.651,72.188 211.388,73.321 212.587 C 76.584 216.042,80.792 220.671,82.152 222.303 C 82.337 222.524,83.003 223.300,83.633 224.026 C 84.942 225.537,85.387 226.063,87.325 228.393 C 88.095 229.318,89.013 230.420,89.366 230.843 C 89.718 231.266,90.239 231.899,90.524 232.251 C 90.808 232.602,91.905 233.955,92.962 235.257 C 94.019 236.559,95.013 237.792,95.172 237.997 C 96.107 239.204,99.261 242.995,99.486 243.182 C 99.599 243.276,99.751 243.138,100.344 242.402 C 100.741 241.911,101.426 241.071,101.866 240.536 C 102.306 240.001,102.839 239.353,103.051 239.095 C 106.200 235.252,106.859 234.614,108.864 233.467 C 111.253 232.101,115.448 231.403,118.040 231.941 C 118.949 232.129,120.595 232.621,120.988 232.822 C 121.464 233.065,121.453 233.067,122.043 232.590 C 122.813 231.967,125.233 230.139,126.147 229.492 C 127.605 228.458,127.733 228.370,129.138 227.432 C 136.446 222.553,144.502 218.493,152.871 215.471 C 157.746 213.711,162.833 212.244,167.668 211.206 C 169.887 210.729,171.450 210.420,172.353 210.280 C 172.815 210.209,173.841 210.042,174.634 209.909 C 176.535 209.590,179.527 209.201,181.023 209.080 C 181.684 209.026,182.894 208.915,183.712 208.834 C 189.609 208.245,198.820 208.267,205.765 208.886 C 206.875 208.985,208.129 209.093,208.552 209.126 C 208.974 209.159,209.969 209.271,210.761 209.375 C 211.554 209.478,212.603 209.605,213.093 209.657 C 217.536 210.128,227.839 212.173,233.485 213.706 C 234.093 213.871,235.066 214.134,235.647 214.291 C 238.419 215.040,242.146 216.179,245.400 217.273 C 246.642 217.690,247.961 218.133,248.331 218.256 C 248.700 218.380,249.425 218.636,249.940 218.826 C 250.455 219.016,251.276 219.318,251.765 219.497 C 253.209 220.027,254.770 220.623,256.405 221.268 L 256.889 221.459 257.702 220.934 C 258.608 220.350,260.468 219.232,261.206 218.828 C 262.075 218.352,265.520 216.618,266.010 216.410 C 266.274 216.298,266.945 216.005,267.499 215.760 C 273.817 212.967,283.366 210.397,289.983 209.710 C 290.449 209.662,293.211 209.363,294.403 209.233 C 298.048 208.833,308.910 208.969,312.995 209.464 C 313.418 209.516,314.283 209.602,314.917 209.657 C 317.650 209.893,324.058 210.968,328.129 211.874 C 333.013 212.960,339.509 214.770,343.262 216.089 C 343.685 216.238,344.506 216.521,345.088 216.719 C 346.605 217.236,347.740 217.652,350.853 218.830 C 351.621 219.121,352.864 219.614,353.399 219.840 C 353.637 219.940,354.199 220.173,354.648 220.358 C 355.097 220.542,356.286 221.048,357.290 221.480 C 358.294 221.913,359.397 222.387,359.741 222.533 C 361.819 223.417,368.163 226.496,371.330 228.159 C 372.905 228.986,376.023 230.670,376.892 231.163 C 377.314 231.403,377.833 231.694,378.045 231.808 C 378.256 231.923,378.999 232.346,379.695 232.749 C 380.392 233.152,381.113 233.566,381.298 233.670 C 381.484 233.774,381.810 233.970,382.024 234.105 C 382.238 234.240,382.432 234.350,382.456 234.350 C 382.479 234.350,382.858 234.572,383.298 234.843 C 383.738 235.115,384.228 235.412,384.386 235.505 C 384.545 235.598,385.172 235.976,385.779 236.346 C 387.072 237.133,386.926 237.225,387.262 235.407 C 390.476 218.034,391.308 200.167,389.714 182.801 C 389.505 180.534,389.171 177.420,389.083 176.926 C 389.035 176.660,388.946 176.586,388.341 176.314 C 387.963 176.144,386.097 175.292,384.194 174.421 C 374.194 169.843,374.603 170.035,373.529 169.406 C 371.705 168.337,369.378 166.196,368.299 164.593 C 367.960 164.091,367.672 163.665,367.658 163.646 C 367.644 163.628,367.273 163.745,366.833 163.906 C 364.013 164.940,360.995 165.456,357.771 165.456 C 355.442 165.456,355.147 165.424,349.796 164.583 C 348.792 164.425,347.819 164.278,347.634 164.256 C 347.236 164.208,344.320 163.760,341.292 163.281 C 337.971 162.756,335.408 161.992,333.030 160.817 C 331.568 160.095,328.697 158.297,328.321 157.867 C 328.294 157.837,328.143 157.713,327.985 157.591 C 326.588 156.519,324.603 154.322,323.376 152.492 C 322.857 151.716,322.494 151.262,322.426 151.302 C 322.365 151.337,322.164 151.480,321.979 151.620 C 321.081 152.299,318.267 153.938,317.031 154.500 C 309.761 157.810,303.530 158.708,294.595 157.733 C 290.858 157.325,287.620 156.992,286.048 156.854 C 273.612 155.758,266.648 152.902,259.688 146.044 C 258.779 145.149,258.035 144.423,258.035 144.432 C 258.035 144.441,257.321 145.167,256.449 146.046 M94.156 146.112 C 87.814 151.062,81.455 156.392,75.077 162.102 C 72.401 164.499,72.617 164.175,73.234 164.860 C 73.515 165.173,74.119 165.857,74.575 166.380 C 77.043 169.207,78.580 170.965,80.615 173.289 C 81.857 174.707,83.023 176.044,83.206 176.260 C 85.477 178.927,85.804 179.198,86.755 179.198 C 87.323 179.198,87.203 179.246,91.280 177.375 C 93.104 176.538,96.217 175.111,98.198 174.204 C 100.180 173.298,102.018 172.454,102.282 172.329 C 102.546 172.205,102.863 172.074,102.985 172.039 C 103.315 171.943,103.853 171.435,104.065 171.019 C 104.396 170.372,104.392 170.356,103.051 166.659 C 102.802 165.972,102.306 164.566,101.949 163.536 C 101.592 162.505,101.053 161.001,100.751 160.192 C 100.450 159.383,100.187 158.638,100.167 158.535 C 100.133 158.358,99.749 157.288,98.997 155.273 C 98.809 154.771,98.598 154.152,98.527 153.898 C 98.456 153.644,98.070 152.550,97.668 151.468 C 97.266 150.386,96.921 149.416,96.901 149.313 C 96.881 149.209,96.686 148.638,96.468 148.043 C 96.250 147.448,95.941 146.594,95.781 146.145 C 95.621 145.695,95.459 145.295,95.420 145.254 C 95.382 145.213,94.813 145.599,94.156 146.112 M382.564 146.253 C 382.189 147.824,381.531 150.795,381.491 151.093 C 381.463 151.304,381.246 152.320,381.008 153.351 C 380.442 155.808,380.539 156.550,381.540 157.400 C 381.899 157.705,386.023 159.674,386.113 159.583 C 386.255 159.441,382.894 146.308,382.653 146.061 C 382.634 146.042,382.594 146.128,382.564 146.253 M60.717 220.922 C 60.762 221.041,61.025 221.614,61.300 222.196 C 61.881 223.421,62.455 224.703,62.455 224.775 C 62.455 224.824,62.657 225.273,63.416 226.904 C 63.638 227.379,63.895 227.985,63.989 228.249 C 64.170 228.762,65.579 231.779,66.231 233.053 C 66.448 233.476,66.909 234.384,67.256 235.071 C 67.895 236.336,68.599 237.630,69.739 239.635 C 70.085 240.243,70.485 240.956,70.628 241.220 C 70.974 241.857,72.130 243.783,72.258 243.935 C 72.314 244.001,72.339 244.055,72.314 244.055 C 72.290 244.055,72.652 244.671,73.118 245.424 C 73.585 246.177,74.285 247.308,74.673 247.936 C 75.061 248.565,75.698 249.581,76.088 250.194 C 76.479 250.808,76.952 251.569,77.139 251.886 C 77.327 252.203,77.808 252.969,78.207 253.589 C 79.796 256.053,80.091 256.518,80.394 257.026 C 80.568 257.317,81.015 258.030,81.388 258.612 C 81.761 259.193,82.451 260.274,82.922 261.014 C 90.283 272.589,96.009 280.913,101.725 288.350 C 102.571 289.450,102.877 289.837,104.187 291.463 C 110.863 299.745,117.956 306.859,125.342 312.684 C 125.659 312.934,126.200 313.363,126.543 313.636 C 127.177 314.142,131.388 317.286,131.828 317.583 C 131.960 317.672,132.241 317.869,132.453 318.020 C 134.207 319.276,139.242 322.626,140.043 323.071 C 140.202 323.159,140.613 323.409,140.956 323.626 C 141.300 323.843,141.732 324.107,141.917 324.213 C 142.102 324.318,142.368 324.485,142.508 324.585 C 142.649 324.684,142.793 324.766,142.830 324.766 C 142.866 324.766,143.018 324.852,143.166 324.958 C 143.315 325.064,143.710 325.307,144.046 325.498 C 144.381 325.690,144.807 325.933,144.992 326.038 C 148.764 328.195,149.938 328.825,153.879 330.809 C 155.412 331.581,157.185 332.456,157.819 332.754 C 159.758 333.666,162.586 334.960,163.296 335.261 C 163.666 335.418,164.249 335.669,164.593 335.818 C 166.244 336.536,169.399 337.815,171.847 338.760 C 172.323 338.943,172.863 339.154,173.048 339.228 C 173.441 339.386,174.754 339.867,176.315 340.424 C 176.923 340.640,177.766 340.943,178.189 341.096 C 178.859 341.339,183.569 342.887,185.635 343.543 C 186.916 343.950,190.556 345.019,192.025 345.419 C 192.606 345.578,193.622 345.855,194.283 346.036 C 195.400 346.341,195.966 346.487,198.968 347.241 C 202.952 348.242,208.579 349.458,213.212 350.317 C 215.820 350.801,221.164 351.711,222.003 351.815 C 222.268 351.847,223.500 352.019,224.742 352.195 C 228.976 352.799,235.143 353.486,238.596 353.740 C 239.669 353.819,241.715 353.970,243.142 354.075 C 255.876 355.015,274.417 354.513,287.917 352.861 C 289.027 352.725,290.324 352.574,290.800 352.525 C 292.373 352.364,297.757 351.561,301.129 350.985 C 307.987 349.814,313.972 348.539,320.922 346.769 L 321.739 346.561 323.757 344.832 C 337.350 333.180,348.933 320.128,358.747 305.402 C 360.004 303.516,362.554 299.517,362.803 299.043 L 362.914 298.831 362.272 299.072 C 361.919 299.205,361.547 299.359,361.445 299.413 C 361.343 299.468,361.036 299.593,360.764 299.691 C 360.492 299.789,359.815 300.049,359.260 300.267 C 352.782 302.823,344.296 305.508,336.824 307.367 C 333.937 308.085,328.246 309.334,326.928 309.539 C 326.716 309.572,325.895 309.721,325.102 309.871 C 321.942 310.466,317.555 311.121,313.166 311.651 C 312.044 311.786,310.553 311.938,309.851 311.989 C 309.150 312.039,307.754 312.165,306.750 312.268 C 305.746 312.370,304.211 312.503,303.339 312.562 C 302.467 312.621,300.629 312.751,299.255 312.851 C 287.377 313.718,270.827 313.948,260.485 313.389 C 258.716 313.294,257.543 313.277,256.642 313.335 C 249.793 313.776,237.014 313.799,227.096 313.387 C 221.151 313.141,220.286 313.091,212.827 312.562 C 210.788 312.417,206.569 312.020,204.036 311.735 C 202.820 311.598,201.455 311.449,201.001 311.404 C 199.489 311.256,193.569 310.341,191.064 309.870 C 190.271 309.721,189.450 309.572,189.239 309.539 C 188.812 309.472,186.783 309.056,184.723 308.613 C 180.087 307.616,175.513 306.434,170.406 304.915 C 168.878 304.461,162.519 302.369,161.182 301.881 C 159.194 301.155,155.498 299.743,154.696 299.402 C 154.458 299.301,153.875 299.059,153.399 298.863 C 152.923 298.668,151.734 298.163,150.757 297.741 C 149.779 297.319,148.655 296.834,148.258 296.664 C 146.218 295.785,140.259 292.886,137.977 291.662 C 137.370 291.336,136.548 290.896,136.152 290.685 C 135.528 290.351,133.673 289.327,132.453 288.641 C 132.241 288.523,132.025 288.393,131.972 288.352 C 131.919 288.312,131.681 288.171,131.444 288.038 C 130.565 287.548,129.831 287.118,128.753 286.462 C 125.781 284.652,125.390 284.403,121.979 282.146 C 119.827 280.722,118.906 280.088,116.995 278.715 C 116.684 278.491,116.339 278.244,116.227 278.165 C 113.606 276.306,109.457 273.056,106.232 270.337 C 105.603 269.807,104.913 269.230,104.699 269.056 C 101.277 266.276,93.886 259.054,89.682 254.384 C 87.953 252.463,86.073 250.296,85.164 249.177 C 82.132 245.445,81.080 244.144,80.711 243.669 C 80.136 242.930,78.923 241.436,77.974 240.299 C 77.290 239.480,76.535 238.571,74.471 236.080 C 74.143 235.683,73.667 235.121,73.415 234.831 C 73.162 234.540,72.831 234.151,72.679 233.966 C 70.844 231.739,66.014 226.298,63.472 223.594 C 62.231 222.274,60.708 220.706,60.667 220.706 C 60.649 220.706,60.671 220.804,60.717 220.922 M190.295 222.305 C 189.448 222.340,186.237 222.545,183.762 222.722 C 183.075 222.771,182.015 222.877,181.408 222.958 C 180.800 223.038,179.616 223.192,178.776 223.300 C 169.592 224.476,159.831 227.324,151.045 231.391 C 149.204 232.244,146.785 233.456,145.568 234.137 C 142.117 236.067,139.232 237.877,136.266 239.973 L 135.083 240.809 135.593 241.144 C 137.913 242.668,140.802 246.043,141.448 247.982 C 141.481 248.080,141.703 248.072,142.544 247.942 C 146.567 247.320,150.833 247.884,155.657 249.675 C 156.318 249.921,157.139 250.222,157.483 250.345 C 157.826 250.468,158.540 250.727,159.068 250.922 C 159.596 251.116,160.310 251.377,160.653 251.501 C 160.997 251.626,161.689 251.879,162.191 252.064 C 163.129 252.409,164.381 252.867,165.650 253.328 C 169.772 254.826,173.763 257.916,176.115 261.429 C 176.453 261.935,176.764 262.305,176.827 262.277 C 182.053 260.038,187.806 259.436,193.562 260.528 C 195.385 260.873,197.808 261.322,198.236 261.393 C 201.997 262.016,207.564 264.834,210.473 267.586 C 211.517 268.574,211.402 268.528,211.933 268.167 C 214.911 266.145,218.422 264.817,222.003 264.357 C 224.067 264.092,245.017 264.094,247.129 264.359 C 250.760 264.815,254.314 266.166,257.209 268.189 C 257.537 268.417,257.867 268.647,257.944 268.700 C 258.036 268.763,258.130 268.763,258.223 268.700 C 258.299 268.647,258.630 268.417,258.957 268.189 C 261.852 266.166,265.407 264.815,269.037 264.359 C 271.149 264.094,292.099 264.092,294.163 264.357 C 297.623 264.801,300.827 265.981,303.797 267.905 L 304.693 268.486 304.953 268.257 C 305.096 268.131,305.472 267.787,305.789 267.492 C 307.241 266.140,309.394 264.712,311.650 263.602 C 314.689 262.107,316.011 261.740,322.844 260.494 C 327.771 259.596,333.956 260.066,337.641 261.618 C 337.826 261.696,338.237 261.857,338.554 261.975 C 338.871 262.094,339.200 262.221,339.286 262.256 C 339.404 262.306,339.600 262.088,340.117 261.331 C 342.278 258.168,345.564 255.482,349.255 253.860 C 350.120 253.480,350.491 253.336,351.862 252.844 C 352.205 252.721,353.027 252.418,353.687 252.173 C 354.348 251.927,355.169 251.624,355.513 251.500 C 355.856 251.376,356.570 251.116,357.098 250.922 C 357.627 250.727,358.340 250.468,358.684 250.345 C 359.027 250.222,359.849 249.921,360.509 249.675 C 364.616 248.150,366.527 247.774,370.166 247.776 C 372.130 247.777,372.925 247.828,374.297 248.044 L 374.682 248.104 374.974 247.449 L 375.266 246.793 374.441 246.302 C 373.986 246.033,373.423 245.703,373.187 245.570 C 372.952 245.437,372.501 245.177,372.184 244.993 C 370.382 243.948,370.209 243.852,367.475 242.353 C 363.625 240.243,358.171 237.494,354.940 236.035 C 352.746 235.044,350.413 234.025,349.219 233.535 C 348.744 233.340,348.117 233.080,347.826 232.957 C 347.361 232.760,346.441 232.399,344.415 231.617 C 343.226 231.159,342.271 230.804,341.292 230.458 C 340.737 230.261,340.002 230.000,339.659 229.877 C 339.315 229.754,338.472 229.475,337.785 229.256 C 337.098 229.038,336.233 228.758,335.864 228.635 C 330.441 226.823,320.215 224.508,315.301 223.979 C 314.826 223.928,313.507 223.779,312.371 223.649 C 306.485 222.973,297.694 222.990,292.626 223.687 C 291.833 223.796,290.838 223.926,290.416 223.975 C 289.389 224.095,287.302 224.481,285.419 224.900 C 282.795 225.483,281.181 225.925,278.837 226.702 C 275.571 227.786,273.346 228.697,270.486 230.124 L 269.687 230.523 270.063 230.875 C 270.664 231.438,273.825 234.417,274.562 235.115 C 274.932 235.466,276.034 236.505,277.012 237.424 C 279.437 239.705,279.813 240.146,280.331 241.316 C 282.684 246.637,277.085 252.297,271.104 250.643 C 269.239 250.127,268.701 249.746,265.342 246.553 C 264.703 245.945,263.468 244.778,262.598 243.959 C 261.728 243.140,260.583 242.059,260.054 241.557 C 259.524 241.055,258.378 239.971,257.506 239.149 C 253.092 234.986,253.611 235.425,252.699 235.082 C 252.357 234.953,251.300 234.536,250.348 234.154 C 248.740 233.509,248.290 233.335,246.361 232.616 C 232.021 227.267,216.179 223.539,204.311 222.721 C 203.525 222.667,201.931 222.558,200.769 222.479 C 198.730 222.341,192.073 222.230,190.295 222.305 M115.577 247.168 C 115.293 247.507,114.845 248.053,114.581 248.382 C 114.317 248.711,114.056 249.029,114.001 249.088 C 113.911 249.186,113.072 250.210,111.758 251.827 C 111.181 252.537,110.781 253.025,110.254 253.662 L 109.898 254.093 110.379 254.527 C 110.644 254.765,111.460 255.505,112.192 256.170 C 113.872 257.695,115.904 259.471,116.839 260.229 C 117.235 260.551,117.869 261.075,118.247 261.394 C 118.625 261.713,119.273 262.243,119.688 262.571 C 120.103 262.899,120.680 263.356,120.970 263.587 C 122.433 264.749,123.558 265.571,123.597 265.506 C 123.772 265.218,124.581 262.912,124.684 262.407 C 124.753 262.063,125.183 260.766,125.639 259.524 C 127.977 253.148,128.044 253.739,124.766 251.767 C 123.973 251.290,122.849 250.607,122.268 250.249 C 121.686 249.891,121.016 249.481,120.778 249.337 C 120.349 249.078,117.985 247.634,117.498 247.334 C 115.994 246.407,116.200 246.424,115.577 247.168 M144.837 262.217 C 143.467 262.464,141.874 263.260,140.973 264.148 C 139.898 265.207,140.056 264.858,137.315 272.251 C 136.722 273.850,136.562 274.379,136.655 274.437 C 136.946 274.621,139.139 275.921,139.725 276.256 C 140.079 276.459,140.533 276.719,140.734 276.836 C 144.959 279.277,152.758 283.159,157.103 284.985 C 157.761 285.261,158.494 285.574,158.732 285.681 C 159.538 286.041,160.117 286.234,160.178 286.163 C 160.233 286.098,160.643 284.798,161.123 283.161 C 161.224 282.818,161.595 281.653,161.948 280.574 C 162.301 279.494,162.611 278.413,162.638 278.172 C 162.664 277.930,162.988 276.790,163.357 275.638 C 164.326 272.614,164.373 271.983,163.742 270.479 C 162.915 268.513,161.553 267.330,159.116 266.463 C 158.667 266.303,157.867 266.014,157.338 265.820 C 156.810 265.626,156.097 265.366,155.753 265.241 C 155.410 265.117,154.718 264.864,154.216 264.679 C 153.714 264.494,152.881 264.189,152.366 264.000 C 151.851 263.811,151.008 263.501,150.492 263.311 C 147.457 262.192,146.258 261.960,144.837 262.217 M368.869 262.265 C 368.260 262.391,367.571 262.617,365.698 263.304 C 364.007 263.925,362.964 264.307,361.999 264.662 C 361.470 264.856,360.757 265.117,360.413 265.241 C 360.070 265.366,359.356 265.626,358.828 265.820 C 358.299 266.014,357.499 266.303,357.050 266.463 C 354.611 267.331,353.251 268.513,352.423 270.483 C 351.777 272.020,351.823 272.617,352.820 275.705 C 353.180 276.820,353.503 277.862,353.538 278.021 C 353.573 278.179,353.945 279.361,354.365 280.646 C 354.785 281.932,355.129 283.028,355.129 283.082 C 355.129 283.136,355.346 283.864,355.612 284.699 L 356.095 286.217 356.549 286.050 C 360.364 284.643,374.020 277.954,374.183 277.412 C 374.210 277.324,374.608 276.387,375.068 275.330 C 375.529 274.273,376.305 272.421,376.793 271.215 L 377.681 269.021 377.354 268.140 C 376.359 265.462,376.180 265.128,375.246 264.201 C 373.613 262.580,371.078 261.810,368.869 262.265 M186.068 274.552 C 183.038 275.138,180.463 276.697,178.943 278.867 C 178.391 279.654,177.564 281.274,177.564 281.567 C 177.564 281.656,177.220 282.775,176.800 284.054 C 176.379 285.333,175.991 286.575,175.936 286.812 C 175.882 287.050,175.535 288.172,175.166 289.305 C 174.796 290.438,174.504 291.373,174.516 291.384 C 174.528 291.394,174.840 291.488,175.210 291.592 C 175.580 291.697,176.639 291.999,177.564 292.265 C 180.567 293.128,182.975 293.759,185.299 294.293 C 185.986 294.451,187.132 294.714,187.845 294.878 C 188.559 295.042,189.359 295.212,189.623 295.257 C 189.887 295.301,190.644 295.449,191.304 295.585 C 194.374 296.218,201.346 297.364,201.457 297.254 C 201.467 297.244,201.607 296.263,201.768 295.075 C 201.929 293.886,202.259 291.465,202.502 289.695 C 203.190 284.665,203.178 283.810,202.387 281.772 C 200.993 278.179,198.081 276.054,193.418 275.229 C 192.916 275.141,191.857 274.939,191.064 274.782 C 189.334 274.438,187.173 274.339,186.068 274.552 M326.880 274.483 C 326.748 274.505,326.099 274.628,325.438 274.756 C 324.778 274.884,323.935 275.035,323.565 275.090 C 318.370 275.871,315.239 278.009,313.779 281.772 C 312.989 283.806,312.978 284.634,313.666 289.695 C 313.906 291.465,314.234 293.885,314.394 295.072 C 314.736 297.611,314.579 297.296,315.449 297.183 C 320.414 296.539,328.098 295.044,333.269 293.717 C 335.610 293.116,336.944 292.760,337.881 292.488 C 340.703 291.667,341.631 291.395,341.650 291.381 C 341.662 291.372,341.370 290.438,341.001 289.305 C 340.631 288.172,340.284 287.050,340.230 286.812 C 340.175 286.575,339.787 285.330,339.366 284.047 C 338.946 282.765,338.602 281.637,338.602 281.542 C 338.602 280.957,337.046 278.440,336.184 277.630 C 333.699 275.295,329.854 273.995,326.880 274.483 M223.660 278.750 C 221.339 279.090,219.092 281.280,218.790 283.497 C 218.739 283.867,218.327 286.851,217.874 290.127 C 217.420 293.404,217.027 296.383,216.999 296.747 C 216.971 297.112,216.894 297.728,216.827 298.116 C 216.709 298.805,216.711 298.823,216.905 298.826 C 217.203 298.830,220.234 298.989,223.156 299.154 C 224.583 299.235,226.637 299.346,227.720 299.401 C 231.026 299.569,240.857 299.691,245.760 299.625 L 250.396 299.562 250.396 291.591 C 250.396 283.377,250.381 283.004,250.014 282.311 C 249.968 282.224,249.841 281.958,249.733 281.720 C 249.125 280.384,247.100 278.985,245.421 278.742 C 244.624 278.627,224.452 278.634,223.660 278.750 M270.658 278.746 C 269.068 278.985,267.023 280.424,266.433 281.720 C 266.325 281.958,266.199 282.224,266.152 282.311 C 265.785 283.004,265.770 283.376,265.770 291.606 L 265.770 299.592 269.157 299.614 C 279.011 299.679,285.383 299.564,292.049 299.200 C 296.157 298.976,298.979 298.830,299.259 298.826 C 299.489 298.822,299.581 299.641,298.294 290.223 C 297.839 286.894,297.426 283.867,297.376 283.497 C 297.099 281.451,295.389 279.624,293.004 278.826 C 292.562 278.678,271.612 278.604,270.658 278.746 " stroke="none" fill="#000000" fill-rule="evenodd"></path></g></svg>