<svg id="svg" xmlns="http://www.w3.org/2000/svg" xmlns:xlink="http://www.w3.org/1999/xlink" width="400" height="400" viewBox="0, 0, 400,400"><g id="svgg"><path id="path0" d="M194.378 10.022 C 194.352 10.045,193.323 10.095,192.090 10.132 C 190.858 10.170,189.755 10.215,189.640 10.232 C 189.525 10.250,188.869 10.292,188.182 10.325 C 187.495 10.359,186.760 10.404,186.548 10.425 C 186.337 10.447,185.753 10.490,185.251 10.522 C 184.749 10.554,184.144 10.599,183.906 10.622 C 183.668 10.644,182.738 10.730,181.840 10.812 C 155.707 13.184,129.036 21.492,106.462 34.291 L 105.261 34.972 199.808 34.972 L 294.355 34.973 293.971 34.745 C 288.404 31.440,277.881 26.407,270.046 23.301 C 252.026 16.157,231.253 11.477,212.875 10.421 C 212.294 10.387,211.725 10.346,211.610 10.328 C 211.495 10.311,210.652 10.268,209.736 10.232 C 208.820 10.197,207.963 10.146,207.831 10.120 C 207.528 10.059,194.442 9.963,194.378 10.022 M84.747 48.494 C 78.478 53.263,72.201 58.634,67.455 63.292 L 65.770 64.945 199.825 64.949 L 333.881 64.953 332.136 63.257 C 327.069 58.332,320.801 52.979,314.765 48.423 L 312.861 46.985 199.788 46.990 L 86.716 46.996 84.747 48.494 M55.729 161.086 L 55.729 245.112 79.702 245.112 L 103.675 245.112 103.677 187.773 C 103.678 138.732,103.698 130.342,103.814 129.794 C 104.062 128.625,122.334 86.147,122.932 85.351 C 125.281 82.220,130.207 82.220,132.557 85.351 C 133.154 86.147,151.427 128.625,151.674 129.794 C 151.786 130.321,151.811 132.098,151.812 139.779 L 151.814 149.123 145.760 149.123 L 139.707 149.123 139.707 143.118 L 139.707 137.113 136.728 137.113 L 133.750 137.113 133.750 191.112 L 133.750 245.112 136.728 245.112 L 139.707 245.112 139.707 221.091 L 139.707 197.069 145.760 197.069 L 151.814 197.069 151.814 221.091 L 151.814 245.112 163.779 245.112 L 175.745 245.112 175.714 228.801 L 175.684 212.491 175.466 211.155 C 174.432 204.789,171.612 199.728,166.611 195.262 C 161.486 190.686,153.519 186.912,145.386 185.206 C 144.130 184.943,143.617 184.786,142.977 184.470 C 140.188 183.093,138.922 179.493,140.225 176.647 C 140.959 175.044,194.810 85.561,195.382 84.994 C 197.794 82.604,201.822 82.604,204.234 84.994 C 204.805 85.561,258.657 175.044,259.390 176.647 C 260.696 179.497,259.425 183.094,256.624 184.477 C 256.002 184.784,255.474 184.945,254.240 185.204 C 237.396 188.740,226.227 198.372,224.149 211.155 L 223.932 212.491 223.901 228.801 L 223.871 245.112 235.836 245.112 L 247.802 245.112 247.802 221.091 L 247.802 197.069 253.855 197.069 L 259.909 197.069 259.909 221.091 L 259.909 245.112 277.877 245.112 L 295.844 245.112 295.844 233.149 L 295.844 221.187 283.834 221.187 L 271.823 221.187 271.823 215.133 L 271.823 209.080 283.834 209.080 L 295.844 209.080 295.844 194.091 L 295.844 179.102 283.834 179.102 L 271.823 179.102 271.823 173.096 L 271.823 167.091 283.834 167.091 L 295.844 167.091 295.844 152.102 L 295.844 137.113 283.834 137.113 L 271.823 137.113 271.823 131.059 L 271.823 125.006 283.834 125.006 L 295.844 125.006 295.844 113.043 L 295.844 101.081 277.877 101.081 L 259.909 101.081 259.909 125.102 L 259.909 149.123 253.855 149.123 L 247.802 149.123 247.804 121.763 C 247.806 91.299,247.749 93.743,248.487 92.247 C 249.255 90.687,250.826 89.481,252.558 89.118 C 253.572 88.906,302.181 88.906,303.195 89.118 C 305.461 89.592,307.333 91.464,307.807 93.730 C 307.930 94.318,307.948 103.959,307.949 169.757 L 307.951 245.112 331.924 245.112 L 355.897 245.112 355.897 168.005 L 355.897 90.897 355.018 89.672 C 352.609 86.311,349.565 82.366,346.789 79.008 L 345.184 77.065 200.456 77.063 L 55.729 77.060 55.729 161.086 M43.292 91.500 C 36.981 100.559,31.076 110.825,26.636 120.458 L 25.655 122.587 25.655 183.850 L 25.655 245.112 34.638 245.112 L 43.622 245.112 43.622 168.100 C 43.622 125.743,43.612 91.090,43.598 91.092 C 43.585 91.094,43.447 91.278,43.292 91.500 M123.388 114.577 C 121.000 120.149,119.021 124.775,118.989 124.857 C 118.938 124.991,119.824 125.006,127.734 125.006 C 132.575 125.006,136.536 124.988,136.536 124.966 C 136.536 124.918,127.791 104.507,127.755 104.471 C 127.741 104.457,125.776 109.004,123.388 114.577 M368.005 177.828 L 368.004 245.112 376.603 245.112 C 381.333 245.112,385.203 245.085,385.203 245.052 C 385.203 245.019,385.354 244.348,385.539 243.561 L 385.876 242.129 385.876 200.240 L 385.876 158.351 385.488 156.692 C 382.086 142.131,376.683 127.386,369.881 114.100 C 369.124 112.621,368.392 111.215,368.255 110.978 L 368.006 110.545 368.005 177.828 M205.813 135.984 L 205.813 161.134 199.760 161.134 L 193.707 161.134 193.683 136.104 L 193.658 111.074 174.472 143.052 C 163.919 160.640,155.271 175.083,155.255 175.148 C 155.236 175.222,155.763 175.464,156.666 175.794 C 173.500 181.954,184.844 193.931,187.236 208.069 L 187.407 209.080 199.808 209.080 L 212.208 209.080 212.381 208.061 C 214.793 193.803,226.606 181.449,243.382 175.639 C 243.884 175.465,244.327 175.296,244.365 175.264 C 244.404 175.231,235.745 160.721,225.124 143.019 L 205.813 110.834 205.813 135.984 M115.782 191.112 L 115.782 245.112 118.761 245.112 L 121.739 245.112 121.739 191.112 L 121.739 137.113 118.761 137.113 L 115.782 137.113 115.782 191.112 M13.548 159.070 C 13.548 159.098,13.247 160.622,12.879 162.457 C 8.229 185.652,7.876 209.121,11.827 232.429 C 12.220 234.743,13.523 241.371,13.601 241.449 C 13.624 241.473,13.644 222.936,13.644 200.256 C 13.644 177.576,13.622 159.020,13.596 159.020 C 13.570 159.020,13.548 159.043,13.548 159.070 M187.845 224.165 L 187.845 227.144 199.808 227.144 L 211.770 227.144 211.770 224.165 L 211.770 221.187 199.808 221.187 L 187.845 221.187 187.845 224.165 M187.845 242.133 L 187.845 245.112 199.808 245.112 L 211.770 245.112 211.770 242.133 L 211.770 239.154 199.808 239.154 L 187.845 239.154 187.845 242.133 M25.655 267.556 L 25.655 277.893 26.636 280.023 C 31.217 289.960,37.218 300.341,43.714 309.560 L 44.882 311.218 199.806 311.218 L 354.730 311.218 355.767 309.753 C 366.412 294.714,374.782 278.209,380.692 260.605 L 381.829 257.218 203.742 257.218 L 25.655 257.218 25.655 267.556 M209.315 263.457 C 223.667 266.372,228.834 284.144,218.276 294.277 C 209.525 302.675,194.952 300.076,189.619 289.166 C 184.123 277.922,191.085 265.057,203.651 263.236 C 204.559 263.105,208.299 263.250,209.315 263.457 M204.228 275.462 C 199.087 276.942,198.346 284.004,203.075 286.448 C 206.992 288.473,211.767 285.585,211.767 281.191 C 211.767 277.362,207.883 274.410,204.228 275.462 M55.555 324.687 C 73.801 345.704,96.237 362.391,121.643 373.841 C 123.370 374.619,127.720 376.471,127.740 376.437 C 127.748 376.423,127.805 376.157,127.867 375.847 C 128.260 373.878,130.139 371.949,132.178 371.423 C 132.691 371.291,133.692 371.271,139.778 371.271 L 146.788 371.271 151.559 347.418 C 154.183 334.299,156.330 323.511,156.330 323.445 C 156.330 323.349,146.070 323.325,105.351 323.325 L 54.372 323.325 55.555 324.687 M168.634 323.829 C 168.577 324.106,166.419 334.894,163.838 347.802 L 159.145 371.271 205.813 371.271 L 252.482 371.271 247.789 347.802 C 245.207 334.894,243.049 324.106,242.992 323.829 L 242.888 323.325 205.813 323.325 L 168.738 323.325 168.634 323.829 M255.297 323.445 C 255.297 323.511,257.443 334.299,260.067 347.418 L 264.838 371.271 271.848 371.271 C 279.633 371.271,279.429 371.256,280.687 371.915 C 281.474 372.328,280.992 372.491,285.179 370.397 C 307.622 359.175,327.552 343.703,344.061 324.687 L 345.244 323.325 300.270 323.325 C 264.355 323.325,255.297 323.349,255.297 323.445 M148.643 383.580 C 159.086 386.516,173.010 389.030,182.897 389.764 C 183.320 389.796,183.795 389.840,183.954 389.862 C 184.112 389.884,184.696 389.928,185.251 389.958 C 185.806 389.989,186.390 390.032,186.548 390.054 C 186.707 390.076,187.420 390.121,188.134 390.154 C 188.847 390.188,189.530 390.231,189.650 390.250 C 191.240 390.498,207.977 390.497,209.993 390.248 C 210.151 390.228,210.800 390.185,211.434 390.153 C 220.834 389.670,232.207 388.053,242.277 385.767 C 245.532 385.029,251.700 383.449,251.830 383.321 C 251.852 383.299,228.417 383.285,199.752 383.289 L 147.634 383.296 148.643 383.580 " stroke="none" fill="#000000" fill-rule="evenodd"></path></g></svg>