<svg id="svg" xmlns="http://www.w3.org/2000/svg" xmlns:xlink="http://www.w3.org/1999/xlink" width="400" height="400" viewBox="0, 0, 400,400"><g id="svgg"><path id="path0" d="M194.378 10.021 C 194.352 10.045,193.323 10.095,192.090 10.132 C 190.858 10.170,189.755 10.215,189.640 10.232 C 189.525 10.250,188.869 10.292,188.182 10.326 C 187.495 10.360,186.738 10.405,186.500 10.427 C 186.262 10.449,185.700 10.491,185.251 10.522 C 184.802 10.552,184.196 10.597,183.906 10.622 C 182.999 10.701,180.324 10.952,179.870 11.001 C 175.981 11.423,173.768 11.709,170.550 12.205 C 109.517 21.602,56.722 60.135,29.033 115.494 C 26.736 120.084,22.817 128.830,22.982 128.995 C 23.007 129.020,24.473 128.693,26.239 128.268 C 28.005 127.842,30.963 127.132,32.813 126.689 C 34.663 126.246,38.446 125.337,41.220 124.670 C 43.995 124.002,47.778 123.093,49.628 122.650 C 51.477 122.207,54.807 121.408,57.026 120.874 C 59.246 120.340,62.575 119.541,64.425 119.098 C 70.835 117.563,71.830 117.303,73.120 116.823 C 80.303 114.154,87.103 108.125,90.436 101.471 C 91.293 99.761,91.575 98.918,93.095 93.538 C 93.678 91.477,95.126 86.375,96.313 82.200 C 99.108 72.373,100.736 66.647,102.475 60.533 C 103.944 55.365,106.983 44.681,108.064 40.884 C 109.823 34.703,111.546 32.427,113.698 33.439 C 115.417 34.247,116.212 36.007,118.517 44.103 C 120.307 50.391,121.196 53.516,123.518 61.686 C 124.397 64.778,125.823 69.793,126.687 72.832 C 127.552 75.871,128.719 79.978,129.282 81.960 C 132.835 94.481,134.059 98.725,134.325 99.446 C 136.623 105.671,142.757 112.109,149.712 115.596 C 152.044 116.765,153.394 117.214,157.627 118.230 C 159.265 118.623,162.421 119.382,164.641 119.916 C 168.507 120.846,172.241 121.743,180.399 123.700 C 188.136 125.556,195.495 127.325,199.423 128.273 C 200.956 128.643,204.199 129.423,206.630 130.006 C 217.910 132.714,219.966 133.223,221.043 133.575 C 226.797 135.459,227.168 138.059,221.965 140.039 C 220.769 140.494,219.753 140.777,216.623 141.528 C 215.090 141.895,211.847 142.674,209.416 143.259 C 206.985 143.843,203.288 144.731,201.201 145.231 C 199.114 145.732,194.249 146.901,190.392 147.830 C 178.634 150.660,175.928 151.311,172.232 152.197 C 170.276 152.666,166.860 153.487,164.641 154.022 C 162.421 154.556,159.265 155.314,157.627 155.706 C 155.988 156.098,154.155 156.575,153.553 156.766 C 146.021 159.159,138.290 165.880,134.992 172.904 C 134.190 174.612,134.883 172.260,126.942 200.216 C 126.487 201.817,126.209 202.633,126.052 202.826 C 125.926 202.981,125.104 203.900,124.225 204.869 C 118.563 211.108,112.885 218.399,107.941 225.780 L 106.570 227.828 106.480 227.510 C 106.430 227.335,105.885 225.419,105.267 223.252 C 103.669 217.645,100.182 205.381,98.343 198.895 C 97.886 197.283,96.713 193.154,95.736 189.719 C 94.760 186.284,93.528 181.939,92.999 180.062 C 91.596 175.084,91.288 174.171,90.439 172.471 C 86.827 165.236,78.894 158.629,71.298 156.530 C 70.294 156.252,69.632 156.090,63.224 154.554 C 61.400 154.117,58.179 153.344,56.065 152.836 C 53.951 152.328,50.795 151.570,49.051 151.151 C 47.307 150.732,43.870 149.905,41.412 149.313 C 36.526 148.136,32.262 147.111,26.423 145.709 C 24.336 145.207,21.551 144.538,20.234 144.222 C 18.917 143.905,17.806 143.646,17.765 143.646 C 17.528 143.646,15.191 152.098,13.979 157.338 C 10.138 173.955,8.405 193.271,9.313 209.368 C 10.384 228.345,13.371 244.134,19.116 261.183 C 34.331 306.340,67.114 345.134,109.056 367.617 C 109.875 368.056,110.761 368.534,111.026 368.679 C 130.516 379.366,156.564 387.160,180.879 389.579 C 181.143 389.605,181.554 389.646,181.792 389.671 C 182.030 389.695,182.505 389.738,182.849 389.767 C 183.192 389.795,183.711 389.840,184.002 389.867 C 184.787 389.938,186.978 390.088,188.182 390.152 C 188.763 390.183,189.390 390.225,189.575 390.245 C 191.881 390.497,208.675 390.498,209.993 390.246 C 210.098 390.226,210.747 390.183,211.434 390.151 C 214.488 390.006,220.170 389.476,224.320 388.948 C 277.324 382.200,325.286 353.187,356.152 309.200 C 358.072 306.464,359.548 304.225,359.548 304.048 C 359.548 303.960,359.054 302.154,358.449 300.034 C 357.844 297.915,356.155 291.987,354.696 286.860 C 351.339 275.067,351.290 274.952,348.262 271.837 C 345.116 268.602,342.666 267.307,337.257 266.020 C 335.804 265.675,333.166 265.042,331.396 264.615 C 327.131 263.585,321.368 262.198,317.223 261.205 C 315.374 260.761,312.239 260.006,310.257 259.526 C 308.275 259.046,305.472 258.372,304.028 258.027 C 298.933 256.811,297.391 255.996,297.896 254.788 C 298.331 253.747,299.466 253.314,305.645 251.831 C 307.627 251.356,310.135 250.752,311.218 250.489 C 317.262 249.024,322.019 247.875,327.312 246.601 C 338.674 243.866,339.831 243.583,340.476 243.386 C 344.546 242.136,348.803 238.693,350.982 234.887 C 351.903 233.278,351.669 234.035,356.331 217.632 C 363.266 193.232,362.626 195.303,363.555 194.274 C 365.075 192.592,366.282 193.849,367.620 198.511 C 368.223 200.610,371.312 211.456,374.871 223.973 C 377.687 233.880,377.668 233.824,378.974 235.773 C 380.522 238.083,384.094 241.374,385.739 242.005 C 385.907 242.070,385.962 241.850,386.738 238.001 C 388.674 228.396,389.688 220.248,390.302 209.368 C 390.746 201.501,390.423 189.652,389.524 180.831 C 380.397 91.265,309.127 20.118,219.361 10.960 C 217.285 10.749,214.471 10.514,212.923 10.424 C 212.368 10.391,211.785 10.349,211.626 10.330 C 211.468 10.311,210.603 10.267,209.705 10.232 C 208.806 10.197,207.963 10.147,207.831 10.121 C 207.526 10.060,194.442 9.963,194.378 10.021 M215.431 33.846 C 215.959 34.374,216.215 35.123,217.967 41.274 C 223.556 60.902,222.960 59.041,224.178 60.660 C 226.413 63.631,228.100 64.532,234.110 65.967 C 236.012 66.421,239.536 67.265,241.941 67.843 C 244.345 68.420,247.956 69.286,249.964 69.766 C 256.346 71.291,257.026 71.538,257.026 72.328 C 257.026 73.114,256.361 73.419,252.750 74.290 C 249.254 75.134,237.902 77.861,231.991 79.276 C 228.304 80.160,226.168 81.462,224.221 84.015 C 222.991 85.628,223.293 84.719,219.211 99.058 C 215.807 111.011,215.749 111.170,214.797 111.170 C 213.915 111.170,213.621 110.524,212.170 105.405 C 206.607 85.775,206.793 86.414,206.390 85.614 C 204.844 82.543,201.866 80.312,198.103 79.406 C 197.297 79.212,195.599 78.802,194.331 78.495 C 191.869 77.900,186.731 76.668,185.539 76.388 C 183.782 75.974,176.992 74.337,175.629 73.998 C 172.348 73.182,171.676 72.313,173.587 71.359 C 174.173 71.066,174.370 71.017,190.680 67.115 C 197.625 65.454,199.246 65.053,199.760 64.871 C 202.445 63.920,205.044 61.672,206.337 59.182 C 206.776 58.338,206.832 58.151,210.279 45.976 C 213.592 34.276,213.592 34.277,214.199 33.766 C 214.602 33.427,215.040 33.455,215.431 33.846 M298.058 82.304 C 308.460 83.741,317.227 90.805,319.625 99.684 C 321.489 106.585,319.856 118.243,315.541 128.849 C 315.165 129.774,314.424 131.655,313.895 133.029 C 311.517 139.199,309.639 143.636,306.292 150.997 C 304.214 155.565,300.920 162.317,294.691 174.778 C 289.189 185.784,286.917 190.422,284.288 196.012 C 280.224 204.656,277.641 209.985,271.293 222.820 C 258.205 249.285,256.042 253.715,251.261 263.848 C 244.075 279.079,237.724 294.028,233.137 306.510 C 232.584 308.016,232.074 309.399,232.003 309.584 C 231.808 310.097,230.096 315.492,229.594 317.175 C 226.408 327.863,226.958 335.065,231.178 337.928 C 238.979 343.219,253.065 335.905,276.768 314.255 C 286.623 305.255,291.734 300.099,298.893 291.937 C 302.503 287.821,303.885 286.890,306.414 286.870 C 309.345 286.848,310.964 289.503,309.926 292.628 C 307.273 300.608,295.468 314.318,271.583 337.159 C 245.658 361.951,226.045 372.894,210.713 371.120 C 197.828 369.630,188.931 357.884,188.977 342.421 C 188.983 340.353,188.956 339.661,188.872 339.668 C 188.746 339.678,187.285 341.247,184.809 344.031 C 168.853 361.970,152.043 371.677,136.962 371.658 C 123.858 371.641,112.869 367.872,105.293 360.796 C 89.596 346.133,88.114 315.301,101.158 274.802 C 112.254 240.355,138.861 206.005,168.773 187.511 C 189.651 174.602,211.835 172.434,228.345 181.690 C 236.769 186.412,241.654 192.822,243.088 201.034 C 243.441 203.053,243.371 203.039,244.336 201.297 C 244.644 200.742,245.272 199.618,245.733 198.799 C 247.053 196.449,248.467 193.894,250.999 189.287 C 252.291 186.935,253.922 183.973,254.624 182.705 C 258.849 175.066,262.534 168.324,264.522 164.593 C 264.959 163.774,265.501 162.758,265.727 162.335 C 268.687 156.807,273.452 147.366,275.815 142.349 C 281.687 129.878,285.519 120.253,290.180 106.270 C 292.571 99.097,294.124 92.591,294.930 86.380 C 295.483 82.111,295.596 81.964,298.058 82.304 M206.393 198.759 C 201.602 199.365,196.886 201.418,192.313 204.889 C 186.306 209.449,175.709 220.704,168.282 230.411 C 167.858 230.966,167.230 231.787,166.887 232.236 C 155.516 247.135,145.805 265.565,140.333 282.633 C 134.567 300.622,132.422 319.662,135.148 328.670 C 139.359 342.583,152.457 345.409,165.121 335.138 C 170.438 330.825,175.902 325.546,181.226 319.577 C 183.338 317.209,186.609 313.124,188.550 310.432 C 190.902 307.168,196.625 298.328,199.921 292.866 C 216.677 265.099,225.069 240.521,225.758 217.199 C 226.087 206.047,221.660 199.920,212.437 198.762 C 211.060 198.589,207.750 198.588,206.393 198.759 " stroke="none" fill="#000000" fill-rule="evenodd"></path></g></svg>