<svg id="svg" xmlns="http://www.w3.org/2000/svg" xmlns:xlink="http://www.w3.org/1999/xlink" width="400" height="400" viewBox="0, 0, 400,400"><g id="svgg"><path id="path0" d="M194.378 10.022 C 194.352 10.045,193.323 10.095,192.090 10.132 C 190.858 10.170,189.755 10.215,189.640 10.232 C 189.525 10.250,188.869 10.292,188.182 10.326 C 187.495 10.360,186.738 10.405,186.500 10.427 C 186.262 10.449,185.700 10.491,185.251 10.522 C 184.802 10.552,184.196 10.597,183.906 10.622 C 182.999 10.701,180.324 10.952,179.870 11.001 C 177.576 11.250,176.479 11.379,174.874 11.586 C 144.566 15.496,114.448 27.247,89.887 44.743 L 88.830 45.496 144.351 45.520 C 174.887 45.533,224.827 45.533,255.329 45.520 L 310.785 45.496 309.584 44.646 C 281.586 24.822,246.440 12.379,212.923 10.424 C 212.368 10.391,211.785 10.349,211.626 10.330 C 211.468 10.311,210.603 10.267,209.705 10.232 C 208.806 10.197,207.963 10.147,207.831 10.120 C 207.528 10.059,194.442 9.963,194.378 10.022 M60.416 70.406 C 44.657 87.320,32.341 106.364,23.631 127.289 L 23.060 128.658 23.060 200.240 L 23.060 271.822 23.632 273.192 C 23.946 273.945,24.373 274.951,24.580 275.426 L 24.956 276.291 197.345 276.315 L 369.733 276.339 369.733 195.056 L 369.733 113.774 368.858 112.111 C 360.787 96.793,351.065 83.123,339.197 70.406 L 337.516 68.604 199.805 68.604 L 62.095 68.604 60.416 70.406 M256.167 91.467 C 257.178 91.656,258.110 91.944,258.996 92.341 C 259.449 92.545,261.536 93.787,266.731 96.947 C 269.634 98.713,271.339 99.747,273.072 100.793 C 273.839 101.256,275.265 102.121,276.243 102.717 C 277.221 103.313,278.215 103.917,278.453 104.060 C 278.691 104.203,280.010 105.002,281.384 105.836 C 284.141 107.509,287.643 109.629,288.686 110.256 C 289.056 110.478,290.050 111.084,290.896 111.601 C 292.758 112.741,292.834 112.787,293.361 113.099 C 293.590 113.235,295.011 114.095,296.517 115.011 C 298.023 115.926,299.450 116.791,299.688 116.934 C 299.926 117.077,300.920 117.682,301.898 118.277 C 302.875 118.873,304.302 119.739,305.068 120.202 C 305.835 120.665,307.262 121.530,308.239 122.126 C 309.217 122.721,310.319 123.390,310.689 123.611 C 311.059 123.833,312.465 124.684,313.812 125.502 C 315.160 126.321,316.608 127.200,317.031 127.456 C 320.264 129.415,322.152 131.987,322.841 135.369 C 323.035 136.321,323.036 136.528,323.036 172.391 L 323.035 208.455 322.804 209.560 C 322.219 212.356,320.574 214.893,318.291 216.522 C 317.734 216.920,316.106 217.921,312.275 220.224 C 311.509 220.684,309.433 221.938,307.663 223.011 C 305.892 224.083,303.817 225.338,303.051 225.799 C 302.284 226.260,300.231 227.500,298.487 228.556 C 293.460 231.599,291.667 232.683,290.175 233.583 C 289.409 234.045,287.334 235.299,285.563 236.370 C 283.793 237.440,281.718 238.693,280.951 239.154 C 280.185 239.615,278.110 240.869,276.339 241.940 C 274.569 243.011,272.601 244.201,271.967 244.584 C 271.333 244.966,269.366 246.156,267.595 247.228 C 265.825 248.300,263.750 249.553,262.983 250.014 C 262.217 250.474,261.093 251.152,260.485 251.520 C 255.985 254.249,251.854 254.229,247.273 251.454 C 245.113 250.145,241.993 248.261,239.875 246.986 C 238.712 246.285,236.637 245.031,235.263 244.198 C 233.889 243.365,232.138 242.307,231.372 241.846 C 230.605 241.385,228.530 240.131,226.760 239.059 C 224.989 237.987,223.022 236.797,222.388 236.416 C 221.754 236.034,219.786 234.845,218.016 233.773 C 216.245 232.702,214.170 231.448,213.404 230.988 C 212.638 230.527,210.562 229.273,208.792 228.202 C 207.021 227.131,204.946 225.876,204.180 225.413 C 203.413 224.951,201.338 223.697,199.568 222.626 C 197.797 221.556,195.722 220.302,194.956 219.840 C 189.424 216.505,189.402 216.490,188.397 215.530 C 186.624 213.836,185.541 211.846,184.993 209.272 C 184.826 208.492,184.819 206.836,184.819 172.424 L 184.819 136.392 185.029 135.383 C 185.453 133.350,186.218 131.777,187.595 130.108 C 188.592 128.899,189.562 128.206,193.916 125.588 C 196.153 124.243,200.058 121.893,202.594 120.364 C 205.131 118.836,207.336 117.509,207.495 117.416 C 207.653 117.323,209.253 116.360,211.050 115.277 C 221.881 108.747,223.976 107.484,227.192 105.549 C 229.147 104.373,232.844 102.147,235.407 100.602 C 249.890 91.874,249.194 92.275,250.668 91.805 C 252.378 91.260,254.390 91.136,256.167 91.467 M129.714 115.538 C 142.214 118.190,141.764 136.193,129.145 138.306 C 127.766 138.537,80.161 138.537,78.782 138.306 C 69.229 136.706,65.627 125.124,72.610 118.463 C 74.367 116.788,76.012 115.981,78.933 115.364 C 79.039 115.342,90.259 115.319,103.867 115.313 L 128.609 115.303 129.714 115.538 M251.117 118.201 C 249.479 119.195,248.030 120.067,247.898 120.139 C 247.766 120.211,246.166 121.171,244.343 122.272 C 239.837 124.992,231.870 129.793,231.516 130.001 C 231.357 130.095,228.806 131.631,225.847 133.415 C 222.887 135.200,220.105 136.874,219.664 137.136 C 219.222 137.398,218.898 137.648,218.943 137.691 C 218.988 137.735,220.365 138.578,222.003 139.567 C 226.291 142.152,227.468 142.863,230.267 144.559 C 231.641 145.391,232.895 146.147,233.053 146.240 C 233.212 146.332,234.466 147.089,235.840 147.922 C 238.070 149.274,240.452 150.714,244.823 153.352 C 245.590 153.814,247.665 155.070,249.436 156.141 C 251.206 157.213,252.948 158.261,253.306 158.469 L 253.958 158.848 254.988 158.226 C 255.554 157.883,257.466 156.727,259.236 155.655 C 261.006 154.584,262.866 153.460,263.368 153.159 C 263.870 152.857,265.621 151.799,267.259 150.808 C 268.897 149.817,271.189 148.433,272.352 147.732 C 273.514 147.032,275.265 145.973,276.243 145.378 C 277.221 144.784,279.210 143.581,280.663 142.706 C 282.116 141.830,284.192 140.575,285.275 139.918 C 286.358 139.260,287.382 138.643,287.551 138.547 C 287.719 138.451,288.043 138.254,288.271 138.109 C 288.499 137.965,288.786 137.794,288.908 137.731 C 289.129 137.615,289.127 137.612,288.739 137.387 C 288.282 137.123,286.807 136.231,284.314 134.712 C 283.337 134.116,282.407 133.553,282.248 133.461 C 282.090 133.369,281.160 132.807,280.183 132.211 C 279.205 131.615,278.102 130.946,277.732 130.723 C 277.362 130.501,276.044 129.702,274.802 128.947 C 272.287 127.418,268.769 125.287,267.740 124.667 C 267.370 124.445,266.267 123.775,265.289 123.180 C 263.096 121.843,260.087 120.018,259.188 119.479 C 258.818 119.257,257.521 118.472,256.306 117.735 L 254.096 116.394 251.117 118.201 M208.000 179.423 L 208.026 200.673 209.490 201.550 C 210.295 202.032,212.402 203.302,214.172 204.372 C 215.943 205.442,218.018 206.696,218.785 207.159 C 219.551 207.622,221.518 208.811,223.156 209.802 C 224.795 210.793,226.438 211.785,226.808 212.008 C 227.178 212.230,228.929 213.289,230.699 214.361 C 232.469 215.433,234.048 216.386,234.206 216.478 C 234.365 216.571,235.013 216.962,235.647 217.349 C 237.109 218.239,240.714 220.417,241.629 220.961 L 242.325 221.376 242.325 200.155 L 242.325 178.935 241.485 178.419 C 240.688 177.930,237.930 176.260,235.503 174.798 C 234.896 174.432,232.626 173.060,230.459 171.750 C 228.292 170.439,226.217 169.185,225.847 168.963 C 225.259 168.611,221.693 166.456,215.470 162.692 C 214.466 162.085,212.390 160.833,210.858 159.910 C 209.325 158.987,208.049 158.219,208.023 158.203 C 207.997 158.187,207.986 167.736,208.000 179.423 M299.015 158.698 C 298.566 158.977,298.090 159.265,297.958 159.338 C 297.826 159.411,296.594 160.153,295.220 160.987 C 293.846 161.821,291.878 163.011,290.848 163.632 C 287.935 165.386,285.071 167.117,282.344 168.771 C 280.970 169.604,278.895 170.859,277.732 171.560 C 276.570 172.260,274.170 173.709,272.400 174.780 C 270.629 175.851,268.349 177.228,267.331 177.840 L 265.482 178.954 265.482 200.169 L 265.482 221.384 265.763 221.238 C 265.918 221.158,266.729 220.676,267.565 220.167 C 268.401 219.658,270.036 218.669,271.199 217.969 C 272.361 217.268,274.437 216.014,275.811 215.182 C 279.594 212.890,283.242 210.684,284.795 209.751 C 285.561 209.290,287.312 208.232,288.686 207.400 C 290.060 206.567,291.314 205.810,291.472 205.718 C 291.631 205.625,293.209 204.672,294.980 203.600 C 296.750 202.528,298.560 201.433,299.001 201.168 C 299.442 200.902,299.821 200.639,299.842 200.583 C 299.864 200.526,299.870 190.966,299.856 179.336 L 299.832 158.192 299.015 158.698 M130.098 161.627 C 133.556 162.584,136.173 164.673,137.701 167.696 C 141.242 174.697,136.801 183.236,129.042 184.348 C 127.640 184.549,80.230 184.541,78.837 184.340 C 72.352 183.403,67.882 177.059,69.190 170.647 C 70.167 165.855,74.155 162.068,78.933 161.394 C 79.092 161.372,90.464 161.358,104.204 161.364 L 129.186 161.375 130.098 161.627 M130.317 207.711 C 141.667 211.137,141.811 226.774,130.523 230.065 C 129.005 230.508,129.140 230.505,103.963 230.505 C 76.269 230.505,78.165 230.580,75.643 229.398 C 65.844 224.808,67.234 210.360,77.732 207.675 C 78.877 207.382,79.481 207.376,104.444 207.387 L 129.282 207.399 130.317 207.711 M37.185 299.638 C 37.185 299.721,39.694 303.645,40.965 305.549 C 44.407 310.705,48.269 315.917,52.197 320.706 L 53.636 322.460 199.808 322.460 L 345.980 322.460 347.418 320.706 C 351.346 315.917,355.209 310.705,358.651 305.549 C 359.922 303.645,362.431 299.721,362.431 299.638 C 362.431 299.612,289.251 299.592,199.808 299.592 C 110.365 299.592,37.185 299.612,37.185 299.638 M76.868 345.657 C 76.868 345.810,82.290 350.134,85.371 352.439 C 97.227 361.307,109.606 368.545,123.030 374.457 L 124.753 375.216 126.345 374.480 C 130.143 372.725,134.084 371.398,138.001 370.553 L 138.746 370.393 138.746 358.004 L 138.746 345.616 107.807 345.616 C 90.790 345.616,76.868 345.635,76.868 345.657 M161.975 357.435 L 161.951 369.253 196.397 369.253 L 230.843 369.253 230.818 357.435 L 230.794 345.616 196.397 345.616 L 162.000 345.616 161.975 357.435 M254.048 358.004 L 254.048 370.393 254.792 370.553 C 259.817 371.636,265.922 373.924,270.046 376.268 C 271.118 376.878,270.828 376.885,272.467 376.210 C 287.364 370.073,301.423 362.061,314.447 352.288 C 317.448 350.035,322.748 345.802,322.748 345.657 C 322.748 345.635,307.290 345.616,288.398 345.616 L 254.048 345.616 254.048 358.004 " stroke="none" fill="#000000" fill-rule="evenodd"></path></g></svg>