<svg id="svg" xmlns="http://www.w3.org/2000/svg" xmlns:xlink="http://www.w3.org/1999/xlink" width="400" height="400" viewBox="0, 0, 400,400"><g id="svgg"><path id="path0" d="M194.379 10.021 C 194.352 10.045,193.358 10.094,192.169 10.131 C 190.980 10.167,189.877 10.213,189.719 10.233 C 189.560 10.252,188.890 10.294,188.230 10.326 C 187.569 10.358,186.791 10.404,186.500 10.428 C 186.209 10.453,185.366 10.518,184.626 10.572 C 183.887 10.627,183.065 10.692,182.801 10.716 C 182.072 10.783,180.351 10.951,179.918 10.998 C 179.707 11.021,179.296 11.064,179.006 11.094 C 124.276 16.808,73.713 47.088,42.301 92.962 C 21.943 122.692,10.694 156.761,9.228 193.130 C 9.119 195.847,9.176 206.861,9.313 209.368 C 9.596 214.547,10.399 223.644,10.590 223.834 C 10.620 223.863,11.773 222.870,12.539 222.156 C 12.803 221.909,14.857 220.068,17.103 218.064 C 20.650 214.898,21.509 214.129,22.041 213.642 C 22.099 213.589,23.164 212.640,24.405 211.534 C 25.647 210.429,26.733 209.456,26.817 209.374 C 26.999 209.197,27.297 208.930,29.018 207.399 C 29.731 206.765,30.336 206.223,30.363 206.194 C 30.389 206.166,31.643 205.044,33.149 203.700 C 34.655 202.356,35.935 201.212,35.992 201.157 C 36.049 201.102,36.415 200.776,36.805 200.432 C 37.677 199.665,38.534 198.897,39.106 198.373 C 39.344 198.155,40.966 196.704,42.710 195.148 C 44.454 193.593,46.049 192.167,46.254 191.980 C 46.460 191.794,46.676 191.597,46.736 191.545 C 47.890 190.520,48.580 189.902,48.619 189.861 C 48.645 189.833,49.899 188.710,51.405 187.366 C 52.911 186.022,54.165 184.898,54.192 184.869 C 54.218 184.839,54.629 184.474,55.104 184.058 C 55.580 183.642,56.185 183.101,56.450 182.856 C 56.714 182.611,58.141 181.334,59.620 180.018 C 61.100 178.702,62.379 177.557,62.463 177.475 C 62.547 177.392,62.957 177.021,63.375 176.651 C 64.920 175.282,65.963 174.350,66.010 174.298 C 66.037 174.268,67.290 173.144,68.797 171.799 C 70.303 170.454,71.582 169.309,71.639 169.255 C 71.697 169.201,72.063 168.876,72.453 168.532 C 73.305 167.782,74.166 167.011,74.754 166.473 C 74.992 166.256,76.202 165.172,77.444 164.064 C 79.519 162.215,82.126 159.879,83.065 159.028 C 83.276 158.836,84.682 157.579,86.188 156.235 C 87.694 154.890,89.094 153.637,89.300 153.450 C 89.818 152.980,89.743 153.046,91.184 151.768 C 91.898 151.135,92.503 150.593,92.529 150.563 C 92.556 150.534,93.788 149.431,95.268 148.114 C 96.748 146.797,98.131 145.558,98.343 145.361 C 98.554 145.165,98.829 144.916,98.953 144.810 C 99.373 144.449,100.645 143.313,101.177 142.824 C 101.468 142.556,102.938 141.239,104.444 139.896 C 108.995 135.838,109.871 135.056,109.921 134.998 C 109.947 134.968,111.179 133.867,112.659 132.551 C 114.139 131.235,115.418 130.091,115.502 130.008 C 115.586 129.926,115.995 129.556,116.412 129.186 C 116.829 128.816,117.411 128.297,117.705 128.033 C 118.000 127.768,118.606 127.224,119.053 126.823 C 119.500 126.423,120.752 125.303,121.835 124.336 C 123.565 122.791,125.107 121.409,125.430 121.115 C 125.487 121.062,126.118 120.501,126.832 119.868 C 127.545 119.235,128.150 118.693,128.177 118.663 C 128.203 118.633,129.436 117.532,130.915 116.217 C 132.395 114.901,133.675 113.757,133.759 113.674 C 133.931 113.506,134.266 113.205,135.528 112.083 C 136.003 111.660,136.414 111.291,136.440 111.263 C 136.466 111.235,137.915 109.940,139.659 108.385 C 141.403 106.830,142.851 105.534,142.878 105.504 C 142.904 105.474,143.315 105.109,143.791 104.693 C 144.266 104.277,144.871 103.735,145.136 103.490 C 145.400 103.245,146.827 101.967,148.307 100.651 C 149.786 99.335,151.066 98.191,151.151 98.108 C 151.355 97.909,151.860 97.454,152.971 96.467 C 154.756 94.882,160.128 90.078,160.325 89.890 C 160.383 89.836,160.749 89.510,161.140 89.166 C 161.530 88.823,162.305 88.130,162.861 87.626 C 163.417 87.122,165.104 85.610,166.611 84.266 C 169.769 81.447,169.909 81.323,170.693 80.615 C 171.467 79.916,172.493 78.997,174.874 76.871 C 176.580 75.348,178.117 73.970,178.468 73.649 C 178.526 73.596,179.157 73.035,179.870 72.402 C 180.584 71.770,181.189 71.228,181.215 71.198 C 181.242 71.168,182.474 70.067,183.954 68.751 C 185.434 67.435,186.713 66.291,186.798 66.208 C 186.980 66.031,187.273 65.767,188.989 64.231 C 190.818 62.595,191.253 62.225,192.121 61.563 C 192.544 61.240,192.911 60.952,192.938 60.922 C 193.201 60.620,196.081 58.873,197.454 58.183 C 197.744 58.037,198.047 57.879,198.126 57.832 C 198.206 57.784,198.335 57.720,198.415 57.689 C 198.811 57.533,199.562 57.224,199.904 57.076 C 200.578 56.784,200.777 56.710,201.840 56.354 C 202.414 56.163,202.969 55.968,203.075 55.921 C 203.180 55.874,203.450 55.808,203.675 55.774 C 203.899 55.740,204.107 55.673,204.137 55.625 C 204.167 55.576,204.304 55.537,204.441 55.537 C 204.579 55.537,204.911 55.474,205.180 55.398 C 205.881 55.199,207.116 54.960,207.444 54.960 C 207.598 54.960,207.746 54.923,207.774 54.878 C 207.802 54.833,208.226 54.766,208.717 54.729 C 209.207 54.693,209.846 54.632,210.137 54.595 C 210.829 54.507,216.294 54.508,216.900 54.597 C 217.159 54.634,217.798 54.695,218.321 54.731 C 218.843 54.767,219.294 54.833,219.322 54.878 C 219.350 54.923,219.501 54.960,219.659 54.960 C 219.817 54.960,220.214 55.022,220.542 55.096 C 220.870 55.171,221.485 55.308,221.907 55.400 C 222.330 55.492,222.861 55.625,223.088 55.696 C 223.314 55.767,223.563 55.825,223.641 55.825 C 223.720 55.825,223.859 55.866,223.950 55.915 C 224.042 55.965,224.550 56.141,225.078 56.306 C 225.607 56.472,226.175 56.669,226.342 56.744 C 226.508 56.820,226.678 56.882,226.720 56.882 C 226.761 56.882,226.971 56.965,227.186 57.066 C 227.400 57.167,227.792 57.343,228.057 57.458 C 230.613 58.565,233.819 60.537,235.695 62.157 C 236.418 62.782,242.542 68.233,242.613 68.316 C 242.640 68.347,243.894 69.472,245.400 70.816 C 246.906 72.160,248.571 73.650,249.100 74.127 C 249.629 74.604,250.403 75.297,250.821 75.667 C 251.238 76.037,251.626 76.384,251.684 76.439 C 251.742 76.494,253.238 77.831,255.008 79.410 C 256.779 80.988,258.465 82.500,258.756 82.769 C 259.047 83.037,259.606 83.538,259.998 83.882 C 260.390 84.225,260.779 84.574,260.862 84.657 C 260.946 84.740,262.224 85.884,263.704 87.200 C 265.184 88.516,266.416 89.616,266.442 89.644 C 266.469 89.673,266.879 90.042,267.353 90.464 C 268.492 91.478,268.945 91.884,269.074 92.005 C 269.133 92.060,270.629 93.397,272.400 94.975 C 274.170 96.554,275.835 98.044,276.099 98.286 C 276.364 98.529,276.922 99.030,277.339 99.399 C 277.757 99.769,278.146 100.117,278.204 100.172 C 278.262 100.227,279.541 101.371,281.047 102.715 C 282.553 104.059,283.807 105.182,283.834 105.212 C 283.860 105.242,284.465 105.784,285.178 106.416 C 286.529 107.615,287.149 108.169,287.330 108.340 C 287.389 108.395,288.885 109.732,290.656 111.310 C 292.426 112.889,294.114 114.400,294.406 114.669 C 294.698 114.938,295.109 115.310,295.319 115.496 C 296.213 116.289,301.258 120.799,302.139 121.593 C 302.668 122.070,303.442 122.762,303.859 123.132 C 304.276 123.502,304.665 123.850,304.723 123.904 C 304.906 124.076,308.322 127.131,309.825 128.465 C 310.617 129.169,311.482 129.944,311.747 130.186 C 312.011 130.429,312.570 130.930,312.988 131.300 C 313.405 131.669,313.816 132.040,313.900 132.123 C 313.984 132.206,315.263 133.350,316.743 134.666 C 318.222 135.982,319.455 137.083,319.481 137.112 C 319.508 137.142,320.113 137.684,320.826 138.316 C 321.540 138.949,322.188 139.528,322.267 139.603 C 322.345 139.678,323.794 140.974,325.486 142.482 C 327.177 143.990,328.583 145.248,328.609 145.277 C 328.636 145.305,329.045 145.674,329.520 146.097 C 330.648 147.102,331.110 147.515,331.241 147.638 C 331.300 147.692,332.580 148.837,334.086 150.181 C 335.592 151.524,336.846 152.648,336.872 152.678 C 336.899 152.707,337.504 153.249,338.217 153.882 C 339.882 155.359,340.230 155.671,340.418 155.856 C 340.502 155.938,341.782 157.083,343.262 158.399 C 344.742 159.715,346.407 161.204,346.964 161.707 C 347.520 162.211,348.295 162.904,348.687 163.248 C 349.079 163.591,349.661 164.110,349.979 164.401 C 352.120 166.353,351.937 166.177,352.869 167.192 C 353.775 168.177,353.987 168.429,354.651 169.301 C 354.993 169.750,355.305 170.132,355.345 170.150 C 355.384 170.167,355.417 170.217,355.417 170.261 C 355.417 170.304,355.719 170.793,356.089 171.347 C 356.459 171.901,356.762 172.399,356.762 172.453 C 356.762 172.507,356.795 172.566,356.835 172.584 C 356.945 172.632,358.134 175.104,358.398 175.835 C 358.564 176.292,358.777 176.809,358.884 177.010 C 358.932 177.102,358.972 177.264,358.972 177.371 C 358.972 177.477,359.011 177.564,359.059 177.564 C 359.107 177.564,359.176 177.780,359.212 178.045 C 359.248 178.309,359.317 178.549,359.365 178.579 C 359.413 178.608,359.452 178.757,359.452 178.909 C 359.452 179.062,359.496 179.213,359.548 179.246 C 359.601 179.278,359.644 179.447,359.644 179.620 C 359.644 179.793,359.677 179.966,359.717 180.005 C 359.792 180.080,359.946 180.944,360.148 182.417 C 360.358 183.947,360.266 189.788,360.027 190.103 C 359.987 190.156,359.923 190.513,359.886 190.896 C 359.848 191.280,359.778 191.617,359.731 191.647 C 359.683 191.676,359.644 191.870,359.644 192.079 C 359.644 192.287,359.601 192.457,359.548 192.457 C 359.496 192.457,359.452 192.560,359.452 192.686 C 359.452 192.812,359.390 193.064,359.314 193.246 C 359.237 193.429,359.158 193.683,359.136 193.810 C 359.098 194.038,359.035 194.233,358.875 194.619 C 358.831 194.725,358.719 195.028,358.627 195.292 C 358.535 195.556,358.424 195.813,358.380 195.864 C 358.335 195.914,358.299 196.054,358.299 196.176 C 358.299 196.297,358.256 196.397,358.203 196.397 C 358.150 196.397,358.107 196.446,358.107 196.505 C 358.107 196.651,356.928 199.031,356.835 199.071 C 356.795 199.089,356.762 199.142,356.762 199.189 C 356.762 199.237,356.611 199.512,356.426 199.801 C 356.241 200.090,356.089 200.350,356.089 200.379 C 356.089 200.407,356.027 200.506,355.950 200.599 C 355.874 200.693,355.520 201.179,355.163 201.681 C 353.525 203.988,352.808 204.726,348.210 208.847 C 348.025 209.012,347.204 209.749,346.385 210.484 C 345.032 211.697,339.897 216.290,339.082 217.014 C 338.897 217.179,338.292 217.723,337.737 218.224 C 337.182 218.724,335.474 220.253,333.942 221.622 C 332.409 222.990,331.004 224.245,330.819 224.411 C 329.139 225.921,327.064 227.780,324.766 229.832 C 323.260 231.177,321.876 232.413,321.691 232.578 C 321.506 232.744,320.901 233.288,320.346 233.788 C 319.553 234.502,314.355 239.150,312.563 240.747 C 311.876 241.359,311.043 242.107,310.205 242.862 C 309.732 243.289,308.285 244.585,306.990 245.741 C 305.695 246.897,304.589 247.887,304.532 247.942 C 304.474 247.997,304.108 248.323,303.717 248.667 C 303.327 249.010,302.552 249.704,301.996 250.207 C 301.440 250.711,299.753 252.223,298.246 253.567 C 296.740 254.911,295.357 256.147,295.172 256.312 C 294.987 256.478,294.165 257.215,293.346 257.950 C 291.856 259.287,286.677 263.917,286.044 264.479 C 285.859 264.643,285.232 265.208,284.650 265.733 C 284.069 266.259,282.386 267.768,280.910 269.088 C 279.433 270.407,278.153 271.552,278.065 271.631 C 277.976 271.710,277.585 272.056,277.196 272.400 C 276.806 272.743,276.033 273.436,275.477 273.940 C 274.681 274.661,270.831 278.104,268.652 280.043 C 268.467 280.208,267.862 280.751,267.307 281.251 C 266.494 281.984,263.999 284.216,259.524 288.213 C 259.339 288.379,258.518 289.115,257.699 289.850 C 256.208 291.187,251.030 295.817,250.396 296.379 C 250.211 296.543,249.584 297.108,249.003 297.633 C 248.422 298.159,246.714 299.688,245.208 301.032 C 243.702 302.376,242.422 303.521,242.364 303.575 C 242.306 303.630,241.918 303.978,241.502 304.348 C 240.815 304.959,238.993 306.590,236.993 308.385 C 236.087 309.197,233.487 311.519,233.005 311.947 C 232.820 312.111,232.215 312.654,231.660 313.154 C 231.105 313.654,229.202 315.356,227.432 316.937 C 225.662 318.518,224.040 319.968,223.829 320.159 C 222.517 321.343,221.103 322.609,218.688 324.765 C 217.182 326.109,215.903 327.253,215.846 327.308 C 215.788 327.363,215.421 327.689,215.029 328.033 C 214.638 328.376,214.079 328.877,213.789 329.145 C 213.498 329.414,211.811 330.926,210.041 332.506 C 208.270 334.086,206.671 335.514,206.486 335.680 C 206.301 335.846,205.241 336.794,204.132 337.788 C 203.022 338.781,201.768 339.905,201.345 340.284 C 200.922 340.664,199.928 341.552,199.135 342.259 C 198.343 342.966,197.607 343.632,197.502 343.739 C 197.396 343.847,195.883 345.209,194.139 346.765 C 192.395 348.322,190.817 349.732,190.632 349.897 C 190.447 350.063,190.034 350.432,189.715 350.718 C 189.396 351.003,188.748 351.587,188.274 352.015 C 187.800 352.443,186.354 353.737,185.059 354.892 C 183.764 356.046,182.658 357.036,182.600 357.092 C 182.543 357.148,182.177 357.475,181.787 357.819 C 180.920 358.582,180.062 359.351,179.486 359.878 C 179.248 360.096,178.286 360.958,177.348 361.794 C 176.410 362.629,175.643 363.352,175.643 363.400 C 175.643 363.452,191.923 363.498,216.166 363.515 C 257.451 363.542,257.026 363.539,257.843 363.864 C 259.506 364.526,261.262 365.853,261.735 366.803 C 261.814 366.961,261.900 367.113,261.926 367.139 C 261.953 367.166,262.055 367.360,262.153 367.571 C 262.252 367.783,262.371 368.031,262.418 368.123 C 262.465 368.214,262.503 368.373,262.503 368.475 C 262.503 368.577,262.556 368.678,262.621 368.700 C 262.707 368.729,262.739 369.134,262.739 370.214 C 262.739 371.294,262.707 371.699,262.621 371.728 C 262.556 371.749,262.503 371.851,262.503 371.953 C 262.503 372.055,262.463 372.213,262.415 372.305 C 262.245 372.628,262.023 373.175,262.023 373.271 C 262.023 373.325,261.989 373.383,261.949 373.401 C 261.908 373.418,261.711 373.659,261.510 373.935 C 261.309 374.211,260.883 374.674,260.563 374.964 C 259.789 375.664,259.149 376.039,257.843 376.559 C 256.835 376.959,260.226 376.939,192.678 376.945 L 128.994 376.951 129.954 377.333 C 145.576 383.540,164.687 388.135,180.879 389.578 C 181.249 389.611,181.642 389.652,181.751 389.669 C 181.861 389.686,182.380 389.731,182.904 389.769 C 183.429 389.807,183.923 389.850,184.002 389.864 C 184.081 389.879,184.665 389.922,185.299 389.960 C 185.933 389.999,186.518 390.042,186.599 390.057 C 186.680 390.072,187.371 390.114,188.136 390.150 C 188.901 390.186,189.627 390.231,189.751 390.250 C 191.310 390.495,208.270 390.493,209.879 390.248 C 209.995 390.231,210.673 390.189,211.386 390.155 C 212.099 390.121,212.878 390.075,213.116 390.053 C 213.353 390.030,214.175 389.966,214.941 389.910 C 238.172 388.228,262.315 381.632,283.720 371.120 C 358.271 334.509,400.471 254.595,388.517 172.664 C 376.032 87.089,307.159 20.781,220.706 11.103 C 218.604 10.868,214.701 10.527,212.923 10.424 C 212.368 10.391,211.785 10.349,211.626 10.330 C 211.468 10.311,210.603 10.266,209.705 10.232 C 208.806 10.197,207.963 10.147,207.831 10.121 C 207.524 10.061,194.442 9.963,194.379 10.021 M212.347 67.988 C 212.162 68.009,211.600 68.072,211.098 68.127 C 207.976 68.470,204.497 69.855,202.084 71.714 C 201.783 71.945,200.238 73.297,198.650 74.717 C 193.223 79.571,186.182 85.874,173.392 97.325 C 170.700 99.734,168.254 101.922,167.955 102.186 C 166.918 103.103,160.219 109.100,159.789 109.497 C 159.551 109.717,157.648 111.422,155.561 113.287 C 151.828 116.621,145.753 122.056,138.260 128.762 C 124.276 141.280,118.809 146.171,111.693 152.530 C 109.212 154.748,106.988 156.742,106.750 156.962 C 106.512 157.181,104.610 158.887,102.522 160.752 C 98.906 163.982,93.578 168.748,85.222 176.228 C 83.131 178.099,79.198 181.619,76.481 184.050 C 66.093 193.346,63.987 195.231,59.142 199.568 C 56.398 202.025,52.267 205.722,49.962 207.783 C 45.828 211.481,42.230 214.701,33.005 222.959 C 30.416 225.277,26.330 228.933,23.925 231.083 C 19.316 235.205,18.653 235.867,17.660 237.332 C 16.640 238.837,15.566 241.258,15.566 242.053 C 15.566 242.203,15.527 242.325,15.479 242.325 C 15.058 242.325,15.058 248.557,15.480 248.817 C 15.527 248.846,15.566 248.995,15.566 249.147 C 15.566 249.756,16.870 252.870,17.260 253.194 C 17.332 253.254,17.391 253.347,17.391 253.402 C 17.391 254.098,21.596 258.171,28.559 264.220 C 28.931 264.544,28.932 264.544,29.143 264.358 C 30.250 263.377,32.397 261.459,33.053 260.864 C 33.502 260.457,34.951 259.161,36.272 257.983 C 37.593 256.805,39.647 254.968,40.836 253.900 C 42.025 252.832,44.490 250.627,46.313 249.000 C 49.273 246.358,50.700 245.080,51.350 244.487 C 51.466 244.381,52.724 243.257,54.147 241.989 C 55.569 240.721,57.382 239.098,58.176 238.383 C 58.971 237.668,61.458 235.443,63.704 233.438 C 65.950 231.433,67.835 229.747,67.893 229.693 C 68.135 229.465,69.711 228.053,72.784 225.311 C 74.581 223.708,76.700 221.811,77.493 221.095 C 78.286 220.379,80.510 218.388,82.434 216.671 C 84.358 214.953,85.979 213.502,86.036 213.447 C 86.093 213.391,86.767 212.787,87.533 212.104 C 90.586 209.384,93.508 206.772,94.739 205.660 C 95.453 205.017,97.550 203.139,99.399 201.488 C 101.249 199.836,102.961 198.307,103.203 198.090 C 103.445 197.872,103.986 197.386,104.404 197.010 C 105.510 196.016,111.313 190.825,116.406 186.274 C 120.685 182.451,121.454 181.762,121.680 181.546 C 121.739 181.490,123.625 179.806,125.871 177.805 C 128.117 175.803,129.976 174.138,130.002 174.105 C 130.029 174.072,131.477 172.774,133.221 171.220 C 136.074 168.677,137.670 167.248,138.794 166.230 C 139.006 166.038,140.605 164.608,142.349 163.052 C 144.093 161.496,146.386 159.444,147.443 158.492 C 149.133 156.972,156.074 150.765,156.528 150.368 C 156.621 150.287,157.036 149.914,157.450 149.540 C 157.864 149.166,159.284 147.895,160.605 146.715 C 161.926 145.535,164.002 143.677,165.217 142.587 C 166.433 141.497,168.724 139.447,170.310 138.031 C 171.895 136.615,173.365 135.298,173.577 135.103 C 173.788 134.909,175.583 133.306,177.564 131.542 C 179.546 129.778,181.407 128.115,181.699 127.847 C 182.628 126.997,183.012 126.652,186.740 123.327 C 191.109 119.430,192.106 118.538,192.169 118.466 C 192.196 118.436,193.817 116.983,195.772 115.238 C 197.728 113.493,200.084 111.383,201.009 110.550 C 204.160 107.712,205.214 107.202,207.927 107.198 C 212.704 107.192,216.431 111.290,215.341 115.350 C 215.119 116.174,214.651 117.132,214.157 117.772 C 213.915 118.085,204.590 126.530,199.909 130.675 C 199.641 130.913,193.890 136.058,187.131 142.109 C 176.378 151.735,168.349 158.919,165.502 161.463 C 165.024 161.889,160.745 165.719,155.993 169.974 C 151.241 174.228,145.708 179.180,143.698 180.978 C 129.574 193.611,88.443 230.437,82.209 236.032 C 80.560 237.511,76.988 240.711,74.271 243.142 C 71.555 245.573,67.665 249.054,65.628 250.877 C 63.590 252.700,59.677 256.202,56.932 258.660 C 54.187 261.117,50.296 264.599,48.286 266.397 C 40.758 273.130,39.731 274.060,39.731 274.143 C 39.731 274.190,40.879 275.254,42.281 276.509 C 43.684 277.763,46.862 280.604,49.344 282.822 C 51.825 285.040,54.050 287.034,54.288 287.253 C 54.526 287.472,58.266 290.820,62.599 294.693 C 66.933 298.565,70.846 302.067,71.295 302.474 C 72.169 303.266,95.010 323.701,102.426 330.327 C 104.883 332.522,106.916 334.344,106.942 334.375 C 106.969 334.405,109.001 336.227,111.458 338.422 C 119.981 346.037,123.519 349.202,124.002 349.642 C 126.888 352.270,135.127 359.572,135.552 359.878 C 137.388 361.199,139.240 362.074,141.773 362.818 C 145.672 363.963,151.073 363.491,154.936 361.667 C 157.183 360.606,157.943 360.038,162.096 356.317 C 163.918 354.684,167.247 351.708,169.493 349.702 C 171.739 347.696,173.771 345.876,174.009 345.656 C 174.247 345.436,176.149 343.731,178.237 341.866 C 180.324 340.001,184.043 336.678,186.500 334.483 C 188.957 332.287,190.990 330.466,191.016 330.435 C 191.061 330.382,194.524 327.285,204.272 318.579 C 206.573 316.524,208.650 314.664,208.888 314.445 C 209.247 314.114,217.435 306.788,224.838 300.175 C 225.816 299.302,226.810 298.408,227.048 298.189 C 227.286 297.970,231.026 294.622,235.359 290.749 C 239.693 286.877,243.606 283.375,244.055 282.968 C 244.906 282.198,249.044 278.498,257.362 271.068 C 260.058 268.661,262.284 266.666,262.311 266.634 C 262.337 266.603,266.077 263.255,270.622 259.194 C 275.167 255.134,279.080 251.632,279.318 251.413 C 279.757 251.008,301.480 231.570,309.919 224.031 C 312.457 221.764,314.900 219.576,315.350 219.168 C 315.799 218.761,319.733 215.239,324.093 211.341 C 328.453 207.443,332.193 204.095,332.405 203.902 C 332.616 203.708,334.389 202.120,336.346 200.373 C 341.189 196.045,341.813 195.413,342.875 193.755 C 343.802 192.307,344.751 190.088,344.751 189.367 C 344.751 189.217,344.790 189.094,344.838 189.094 C 345.266 189.094,345.265 182.867,344.837 182.602 C 344.790 182.573,344.751 182.425,344.751 182.272 C 344.751 181.715,343.915 179.630,343.268 178.573 C 343.106 178.309,342.909 177.976,342.830 177.833 C 342.165 176.633,340.914 175.392,335.524 170.583 C 333.223 168.530,329.312 165.035,326.833 162.815 C 320.531 157.173,314.713 151.969,309.436 147.253 C 306.955 145.036,304.903 143.196,304.876 143.166 C 304.850 143.135,302.798 141.296,300.317 139.078 C 297.836 136.861,293.921 133.361,291.618 131.300 C 289.314 129.239,285.218 125.574,282.515 123.157 C 279.812 120.739,277.573 118.718,277.540 118.665 C 277.379 118.403,276.922 118.744,274.351 121.046 C 272.829 122.409,262.503 131.649,251.405 141.579 C 240.307 151.510,230.773 160.044,230.219 160.545 C 226.183 164.185,224.084 166.070,220.466 169.304 C 214.226 174.881,209.026 179.534,208.167 180.309 C 207.744 180.691,205.688 182.532,203.598 184.400 C 201.508 186.269,193.663 193.288,186.165 200.000 C 178.666 206.712,170.645 213.889,168.341 215.950 C 166.036 218.011,162.122 221.513,159.643 223.733 C 157.165 225.952,153.252 229.455,150.948 231.516 C 148.644 233.577,142.677 238.917,137.688 243.382 C 132.700 247.848,126.733 253.188,124.429 255.249 C 122.124 257.310,116.569 262.282,112.084 266.298 C 101.463 275.808,101.967 275.437,99.223 275.770 C 93.464 276.468,88.848 270.869,91.391 266.269 C 92.101 264.983,91.977 265.108,96.997 260.628 C 101.234 256.848,101.294 256.795,101.408 256.686 C 101.466 256.631,102.767 255.468,104.300 254.102 C 105.832 252.736,107.281 251.440,107.519 251.221 C 107.756 251.003,108.967 249.915,110.209 248.805 C 111.451 247.695,113.915 245.490,115.686 243.905 C 117.456 242.320,120.331 239.751,122.075 238.195 C 123.819 236.640,125.268 235.342,125.294 235.312 C 125.321 235.281,126.985 233.790,128.994 231.997 C 133.194 228.248,135.363 226.306,135.912 225.805 C 136.123 225.612,137.917 224.009,139.899 222.243 C 141.881 220.477,143.524 219.008,143.550 218.977 C 143.577 218.947,144.614 218.014,145.856 216.905 C 147.098 215.795,149.195 213.920,150.516 212.740 C 151.838 211.559,153.092 210.435,153.303 210.241 C 153.514 210.048,155.309 208.444,157.290 206.678 C 159.272 204.911,160.915 203.441,160.942 203.411 C 160.968 203.381,162.006 202.449,163.248 201.338 C 164.490 200.228,167.365 197.656,169.637 195.623 C 171.910 193.589,174.785 191.020,176.027 189.912 C 177.269 188.805,178.307 187.875,178.333 187.845 C 178.359 187.815,180.024 186.324,182.032 184.531 C 184.040 182.738,186.505 180.533,187.509 179.630 C 188.513 178.727,190.956 176.543,192.938 174.777 C 194.920 173.011,196.563 171.541,196.589 171.511 C 196.615 171.481,197.675 170.529,198.943 169.396 C 204.022 164.858,204.902 164.070,204.948 164.020 C 204.975 163.992,205.364 163.644,205.813 163.248 C 206.262 162.851,206.651 162.503,206.678 162.474 C 206.704 162.445,208.347 160.977,210.329 159.211 C 212.311 157.446,213.954 155.976,213.980 155.945 C 214.007 155.914,215.671 154.422,217.680 152.629 C 219.688 150.837,222.368 148.438,223.637 147.299 C 224.905 146.160,227.153 144.148,228.632 142.828 C 230.111 141.508,231.390 140.363,231.474 140.283 C 231.557 140.204,231.774 140.009,231.955 139.850 C 232.256 139.586,233.100 138.832,238.722 133.802 C 239.726 132.904,240.721 132.011,240.932 131.817 C 241.143 131.624,243.003 129.962,245.064 128.125 C 248.788 124.804,250.098 123.630,251.020 122.788 C 251.285 122.546,252.950 121.056,254.720 119.478 C 256.491 117.899,258.112 116.449,258.323 116.256 C 258.701 115.910,261.909 113.043,264.978 110.308 C 265.836 109.543,266.535 108.895,266.532 108.867 C 266.528 108.839,265.133 107.577,263.433 106.063 C 259.602 102.653,252.933 96.694,251.838 95.701 C 250.868 94.823,245.438 89.965,238.578 83.840 C 235.856 81.410,233.608 79.396,233.582 79.365 C 233.468 79.230,225.421 72.079,225.030 71.765 C 223.186 70.285,220.234 68.934,217.680 68.399 C 216.264 68.103,213.313 67.876,212.347 67.988 M229.786 88.726 C 232.190 88.974,234.724 90.768,235.634 92.866 C 235.726 93.077,235.842 93.325,235.892 93.417 C 235.943 93.509,235.984 93.690,235.984 93.820 C 235.984 93.949,236.027 94.082,236.080 94.115 C 236.135 94.149,236.176 94.674,236.176 95.364 C 236.176 96.053,236.135 96.579,236.080 96.613 C 236.027 96.646,235.984 96.767,235.984 96.883 C 235.988 97.926,234.891 99.369,232.403 101.595 C 229.523 104.172,228.854 104.566,226.760 104.924 C 220.194 106.047,215.295 99.028,219.332 94.282 C 219.918 93.593,224.110 89.839,224.293 89.839 C 224.331 89.839,224.523 89.737,224.720 89.613 C 225.909 88.862,227.838 88.525,229.786 88.726 M282.296 155.700 C 284.051 155.876,285.504 156.638,287.447 158.403 C 288.934 159.753,290.243 160.927,293.010 163.393 C 294.490 164.711,296.566 166.569,297.623 167.521 C 298.681 168.474,301.314 170.831,303.475 172.760 C 309.083 177.767,309.116 177.804,309.727 179.714 C 309.981 180.510,310.069 182.096,309.885 182.580 C 309.839 182.702,309.722 183.060,309.625 183.377 C 309.527 183.694,309.424 183.975,309.394 184.002 C 309.364 184.028,309.292 184.158,309.234 184.290 C 308.896 185.052,308.038 185.903,303.756 189.726 C 301.281 191.936,299.234 193.770,299.207 193.801 C 299.181 193.833,297.129 195.672,294.647 197.890 C 289.855 202.172,283.764 207.621,278.640 212.207 C 276.925 213.742,275.328 215.130,275.090 215.293 C 272.293 217.202,268.347 217.095,265.678 215.037 C 265.370 214.799,260.225 210.222,254.245 204.866 C 243.304 195.065,242.421 194.228,242.421 193.643 C 242.421 193.572,242.388 193.514,242.347 193.514 C 242.118 193.514,241.797 191.999,241.797 190.920 C 241.797 188.825,242.478 187.443,244.324 185.789 C 244.731 185.424,245.283 184.927,245.551 184.684 C 246.534 183.793,247.632 182.811,250.877 179.918 C 252.700 178.292,254.581 176.608,255.056 176.176 C 255.532 175.744,256.332 175.024,256.834 174.577 C 260.923 170.929,264.106 168.088,264.193 168.006 C 264.392 167.821,265.819 166.540,267.740 164.826 C 268.797 163.882,270.483 162.371,271.487 161.469 C 276.433 157.022,276.478 156.985,277.453 156.493 C 278.921 155.751,280.396 155.510,282.296 155.700 M280.327 172.702 C 279.546 173.419,276.488 176.154,265.978 185.539 C 262.753 188.419,260.111 190.824,260.107 190.883 C 260.100 191.010,270.321 200.179,270.519 200.222 C 270.625 200.245,280.559 191.481,280.999 190.978 C 281.052 190.917,282.522 189.594,284.266 188.037 C 286.010 186.481,287.523 185.127,287.629 185.029 C 287.735 184.931,288.676 184.087,289.722 183.154 C 290.767 182.222,291.610 181.411,291.595 181.354 C 291.581 181.296,289.472 179.375,286.908 177.085 C 284.345 174.796,282.024 172.713,281.750 172.457 C 281.133 171.881,281.243 171.862,280.327 172.702 M181.360 246.636 C 183.836 247.212,185.737 248.707,186.703 250.837 C 186.856 251.174,186.981 251.528,186.981 251.624 C 186.981 251.720,187.026 251.845,187.082 251.901 C 187.385 252.203,187.090 254.849,186.649 255.798 C 185.987 257.219,187.037 256.218,173.673 268.172 C 171.399 270.207,165.238 275.719,159.983 280.423 C 154.728 285.126,148.784 290.446,146.773 292.244 C 144.763 294.042,139.197 299.023,134.405 303.312 C 129.614 307.601,125.480 311.260,125.219 311.443 C 121.479 314.072,115.960 312.956,113.807 309.134 C 113.510 308.608,113.414 308.361,113.098 307.326 C 112.959 306.869,113.006 305.223,113.176 304.597 C 113.675 302.763,114.068 302.317,119.193 297.757 C 120.937 296.206,122.412 294.892,122.470 294.838 C 122.811 294.523,124.215 293.266,129.762 288.308 C 130.766 287.410,131.609 286.652,131.636 286.624 C 131.662 286.595,132.051 286.248,132.501 285.852 C 132.950 285.455,133.339 285.107,133.365 285.078 C 133.392 285.049,135.035 283.581,137.017 281.815 C 138.998 280.050,140.641 278.580,140.668 278.549 C 140.718 278.490,149.415 270.708,154.840 265.868 C 156.584 264.312,158.033 263.014,158.059 262.982 C 158.086 262.951,158.712 262.385,159.452 261.726 C 162.319 259.173,167.254 254.760,167.620 254.423 C 174.202 248.364,176.072 246.950,177.853 246.687 C 178.090 246.652,178.350 246.586,178.429 246.540 C 178.625 246.427,180.764 246.497,181.360 246.636 M189.671 276.820 C 191.290 277.139,192.287 277.588,193.498 278.545 C 193.925 278.883,194.769 279.877,195.011 280.327 C 195.703 281.617,195.868 282.208,195.868 283.401 C 195.868 284.707,195.405 286.244,194.770 287.040 C 193.604 288.503,189.933 291.690,188.722 292.291 C 187.203 293.044,184.927 293.329,183.473 292.948 C 181.534 292.439,180.458 291.837,179.329 290.629 C 178.781 290.044,178.045 288.936,178.045 288.698 C 178.045 288.633,178.006 288.539,177.959 288.489 C 177.417 287.913,177.474 285.260,178.055 283.955 C 178.155 283.731,178.237 283.525,178.237 283.497 C 178.237 282.642,183.677 277.860,185.350 277.244 C 186.612 276.780,188.518 276.593,189.671 276.820 M82.921 278.246 C 85.422 278.973,87.185 280.590,88.125 283.017 C 88.368 283.647,88.350 286.321,88.101 286.412 C 88.053 286.430,88.013 286.524,88.013 286.621 C 88.013 287.585,85.168 290.720,82.409 292.796 C 79.599 294.911,75.593 294.891,72.684 292.747 C 71.899 292.168,70.622 290.622,70.622 290.249 C 70.622 290.177,70.579 290.074,70.525 290.021 C 69.820 289.315,69.868 286.540,70.613 284.952 C 71.354 283.373,75.345 279.667,77.296 278.748 C 78.957 277.965,81.251 277.760,82.921 278.246 M28.057 282.965 C 28.057 283.319,32.165 291.098,34.377 294.932 C 50.388 322.679,73.063 345.930,100.417 362.646 L 102.395 363.855 103.011 363.700 C 103.546 363.565,104.577 363.540,110.810 363.515 C 114.760 363.499,117.992 363.452,117.992 363.412 C 117.992 363.371,117.897 363.257,117.780 363.157 C 117.506 362.923,112.470 358.423,111.217 357.293 C 110.688 356.816,109.914 356.123,109.496 355.753 C 109.079 355.383,108.691 355.036,108.633 354.983 C 108.575 354.929,107.490 353.957,106.221 352.824 C 104.953 351.690,103.265 350.178,102.470 349.463 C 101.676 348.747,100.706 347.881,100.316 347.538 C 99.926 347.194,99.538 346.846,99.455 346.763 C 99.372 346.680,98.093 345.535,96.613 344.220 C 95.133 342.904,93.901 341.804,93.875 341.775 C 93.848 341.747,93.438 341.378,92.964 340.956 C 91.921 340.027,91.386 339.548,91.243 339.416 C 91.184 339.362,89.904 338.218,88.398 336.873 C 86.892 335.528,85.204 334.016,84.648 333.512 C 84.092 333.009,83.318 332.316,82.927 331.972 C 82.536 331.629,82.170 331.303,82.112 331.248 C 82.055 331.193,80.776 330.050,79.270 328.708 C 77.764 327.366,76.294 326.049,76.003 325.781 C 75.496 325.315,74.253 324.203,73.779 323.793 C 73.654 323.686,73.401 323.459,73.216 323.289 C 73.031 323.119,71.626 321.861,70.094 320.493 C 68.561 319.124,66.853 317.595,66.298 317.095 C 65.743 316.594,65.138 316.049,64.953 315.884 C 64.768 315.719,63.385 314.483,61.878 313.139 C 60.372 311.794,58.707 310.304,58.178 309.827 C 57.649 309.350,56.875 308.657,56.458 308.287 C 56.041 307.917,55.652 307.571,55.594 307.517 C 55.536 307.463,54.451 306.491,53.183 305.358 C 51.914 304.224,50.226 302.712,49.432 301.997 C 48.637 301.282,47.667 300.416,47.277 300.072 C 46.887 299.729,46.500 299.380,46.416 299.297 C 46.333 299.214,45.054 298.070,43.574 296.754 C 42.095 295.438,40.862 294.338,40.836 294.310 C 40.810 294.281,40.400 293.912,39.925 293.490 C 38.835 292.519,38.340 292.076,38.204 291.950 C 38.146 291.895,36.671 290.578,34.927 289.022 C 33.183 287.466,31.734 286.170,31.708 286.142 C 31.570 285.997,29.974 284.572,29.067 283.786 C 29.007 283.733,28.754 283.497,28.507 283.261 C 28.259 283.026,28.057 282.892,28.057 282.965 M167.235 296.753 C 169.594 297.023,172.033 298.723,172.963 300.745 C 173.048 300.930,173.167 301.189,173.228 301.321 C 173.561 302.040,173.706 303.553,173.523 304.396 C 173.471 304.634,173.402 304.990,173.370 305.189 C 173.338 305.387,173.274 305.549,173.228 305.549 C 173.182 305.549,173.144 305.612,173.144 305.690 C 173.144 305.861,172.743 306.598,172.338 307.172 C 172.174 307.405,170.980 308.546,169.685 309.708 C 168.391 310.870,166.985 312.132,166.563 312.513 C 166.140 312.893,164.108 314.712,162.047 316.555 C 156.574 321.449,150.373 326.998,149.327 327.937 C 146.334 330.622,145.981 330.884,144.703 331.365 C 138.625 333.657,132.322 328.145,134.740 322.652 C 135.304 321.370,135.383 321.292,144.264 313.347 C 148.910 309.190,152.758 305.744,152.815 305.690 C 153.624 304.913,161.221 298.196,161.529 297.985 C 163.062 296.934,165.057 296.503,167.235 296.753 " stroke="none" fill="#000000" fill-rule="evenodd"></path></g></svg>