<?xml version="1.0" encoding="utf-8"?>
<!-- Generator: Adobe Illustrator 16.0.0, SVG Export Plug-In . SVG Version: 6.00 Build 0)  -->
<!DOCTYPE svg PUBLIC "-//W3C//DTD SVG 1.1//EN" "http://www.w3.org/Graphics/SVG/1.1/DTD/svg11.dtd">
<svg version="1.1" id="svg" xmlns="http://www.w3.org/2000/svg" xmlns:xlink="http://www.w3.org/1999/xlink" x="0px" y="0px"
	 width="400px" height="400px" viewBox="0 0 400 400" enable-background="new 0 0 400 400" xml:space="preserve">
<g id="svgg" display="none">
	<path id="path0" display="inline" d="M194.379,10.021c-0.027,0.024-1.021,0.073-2.21,0.11c-1.189,0.036-2.292,0.082-2.45,0.102
		c-0.159,0.019-0.829,0.061-1.489,0.093c-0.661,0.032-1.439,0.078-1.73,0.102c-0.291,0.025-1.134,0.09-1.874,0.145
		c-0.739,0.055-1.561,0.12-1.825,0.144c-0.729,0.067-2.45,0.235-2.883,0.282c-0.211,0.023-0.622,0.066-0.912,0.096
		c-54.73,5.714-105.293,35.994-136.705,81.868c-20.358,29.73-31.607,63.799-33.073,100.168c-0.109,2.717-0.052,13.731,0.085,16.238
		c0.283,5.179,1.086,14.276,1.277,14.466c0.03,0.029,1.183-0.964,1.949-1.678c0.264-0.247,2.318-2.088,4.564-4.092
		c3.547-3.166,4.406-3.936,4.938-4.422c0.058-0.054,1.123-1.002,2.364-2.108c1.242-1.104,2.328-2.078,2.412-2.16
		c0.182-0.177,0.48-0.444,2.201-1.976c0.713-0.633,1.318-1.176,1.345-1.205c0.026-0.027,1.28-1.149,2.786-2.493
		c1.506-1.345,2.786-2.488,2.843-2.543c0.057-0.056,0.423-0.382,0.813-0.725c0.872-0.767,1.729-1.535,2.301-2.059
		c0.238-0.218,1.86-1.669,3.604-3.225c1.744-1.555,3.339-2.981,3.544-3.168c0.206-0.186,0.422-0.383,0.482-0.435
		c1.154-1.025,1.844-1.643,1.883-1.684c0.026-0.028,1.28-1.151,2.786-2.495c1.506-1.344,2.76-2.468,2.787-2.497
		c0.026-0.03,0.437-0.395,0.912-0.811c0.476-0.416,1.081-0.957,1.346-1.202c0.264-0.245,1.691-1.522,3.17-2.838
		c1.48-1.316,2.759-2.461,2.843-2.543c0.084-0.083,0.494-0.454,0.912-0.824c1.545-1.369,2.588-2.301,2.635-2.353
		c0.027-0.03,1.28-1.154,2.787-2.499c1.506-1.345,2.785-2.49,2.842-2.544c0.058-0.054,0.424-0.379,0.814-0.723
		c0.852-0.75,1.713-1.521,2.301-2.059c0.238-0.217,1.448-1.301,2.69-2.409c2.075-1.849,4.682-4.185,5.621-5.036
		c0.211-0.192,1.617-1.449,3.123-2.793c1.506-1.345,2.906-2.598,3.112-2.785c0.518-0.47,0.443-0.404,1.884-1.682
		c0.714-0.633,1.319-1.175,1.345-1.205c0.027-0.029,1.259-1.132,2.739-2.449c1.48-1.317,2.863-2.556,3.075-2.753
		c0.211-0.196,0.486-0.445,0.61-0.551c0.42-0.361,1.692-1.497,2.224-1.986c0.291-0.268,1.761-1.585,3.267-2.928
		c4.551-4.058,5.427-4.84,5.477-4.898c0.026-0.03,1.258-1.131,2.738-2.447c1.48-1.316,2.759-2.46,2.843-2.543
		c0.084-0.082,0.493-0.452,0.91-0.822s0.999-0.889,1.293-1.153c0.295-0.265,0.901-0.809,1.348-1.21
		c0.447-0.4,1.699-1.521,2.782-2.487c1.73-1.545,3.272-2.927,3.595-3.221c0.057-0.053,0.688-0.614,1.402-1.247
		c0.713-0.633,1.318-1.175,1.345-1.205c0.026-0.03,1.259-1.131,2.738-2.446c1.48-1.316,2.76-2.46,2.844-2.543
		c0.172-0.168,0.507-0.469,1.769-1.591c0.475-0.423,0.886-0.792,0.912-0.82c0.026-0.028,1.475-1.323,3.219-2.878
		c1.744-1.555,3.192-2.851,3.219-2.881c0.026-0.03,0.437-0.395,0.913-0.811c0.475-0.416,1.08-0.958,1.345-1.203
		c0.264-0.245,1.691-1.523,3.171-2.839c1.479-1.316,2.759-2.46,2.844-2.543c0.204-0.199,0.709-0.654,1.82-1.641
		c1.785-1.585,7.157-6.389,7.354-6.577c0.058-0.054,0.424-0.38,0.815-0.724c0.39-0.343,1.165-1.036,1.721-1.54
		c0.556-0.504,2.243-2.016,3.75-3.36c3.158-2.819,3.298-2.943,4.082-3.651c0.774-0.699,1.8-1.618,4.181-3.744
		c1.706-1.523,3.243-2.901,3.594-3.222c0.058-0.053,0.689-0.614,1.402-1.247c0.714-0.632,1.319-1.174,1.345-1.204
		c0.027-0.03,1.259-1.131,2.739-2.447s2.759-2.46,2.844-2.543c0.182-0.177,0.475-0.441,2.191-1.977
		c1.829-1.636,2.264-2.006,3.132-2.668c0.423-0.323,0.79-0.611,0.817-0.641c0.263-0.302,3.143-2.049,4.516-2.739
		c0.29-0.146,0.593-0.304,0.672-0.351c0.08-0.048,0.209-0.112,0.289-0.143c0.396-0.156,1.147-0.465,1.489-0.613
		c0.674-0.292,0.874-0.366,1.936-0.722c0.574-0.191,1.129-0.386,1.235-0.433c0.104-0.047,0.375-0.113,0.6-0.147
		c0.224-0.034,0.433-0.101,0.462-0.149c0.03-0.049,0.168-0.088,0.305-0.088c0.138,0,0.47-0.063,0.738-0.139
		c0.701-0.199,1.937-0.438,2.264-0.438c0.154,0,0.303-0.037,0.33-0.082c0.028-0.045,0.453-0.112,0.943-0.149
		c0.49-0.036,1.129-0.097,1.42-0.134c0.692-0.088,6.157-0.087,6.764,0.002c0.259,0.037,0.897,0.098,1.42,0.134
		s0.974,0.102,1.002,0.147c0.027,0.045,0.179,0.082,0.337,0.082c0.157,0,0.555,0.062,0.883,0.136
		c0.328,0.075,0.942,0.212,1.365,0.304c0.423,0.092,0.954,0.225,1.181,0.296c0.227,0.071,0.475,0.129,0.553,0.129
		c0.08,0,0.219,0.041,0.31,0.09c0.092,0.05,0.6,0.226,1.128,0.391c0.529,0.166,1.097,0.363,1.264,0.438
		c0.166,0.076,0.336,0.138,0.379,0.138c0.041,0,0.25,0.083,0.465,0.184s0.606,0.277,0.871,0.392
		c2.557,1.107,5.762,3.079,7.639,4.699c0.723,0.625,6.847,6.076,6.918,6.159c0.027,0.031,1.281,1.156,2.787,2.5
		c1.506,1.344,3.17,2.834,3.699,3.311s1.303,1.17,1.721,1.54s0.806,0.717,0.863,0.772c0.059,0.055,1.555,1.392,3.324,2.971
		c1.771,1.578,3.457,3.09,3.748,3.359c0.291,0.268,0.85,0.769,1.242,1.113c0.393,0.343,0.781,0.692,0.863,0.775
		c0.084,0.083,1.363,1.227,2.843,2.543c1.479,1.316,2.712,2.416,2.737,2.444c0.027,0.029,0.438,0.398,0.912,0.82
		c1.139,1.014,1.592,1.42,1.721,1.541c0.059,0.055,1.555,1.392,3.326,2.97c1.77,1.579,3.435,3.069,3.699,3.311
		c0.265,0.243,0.822,0.744,1.239,1.113c0.418,0.37,0.808,0.718,0.865,0.773c0.058,0.055,1.337,1.199,2.843,2.543
		c1.506,1.344,2.76,2.467,2.787,2.497c0.025,0.03,0.631,0.572,1.344,1.204c1.352,1.199,1.971,1.753,2.152,1.924
		c0.059,0.055,1.555,1.392,3.326,2.97c1.77,1.579,3.458,3.09,3.75,3.359s0.703,0.641,0.912,0.827
		c0.895,0.793,5.939,5.303,6.82,6.097c0.529,0.477,1.304,1.169,1.721,1.539c0.417,0.37,0.806,0.718,0.863,0.772
		c0.184,0.172,3.6,3.227,5.103,4.561c0.792,0.704,1.657,1.479,1.922,1.721c0.264,0.243,0.823,0.744,1.241,1.114
		c0.417,0.369,0.828,0.74,0.912,0.823s1.362,1.227,2.843,2.543c1.479,1.316,2.712,2.417,2.738,2.446
		c0.026,0.03,0.632,0.572,1.345,1.204c0.714,0.633,1.361,1.212,1.44,1.287c0.078,0.075,1.527,1.371,3.22,2.879
		c1.69,1.508,3.097,2.766,3.123,2.795c0.026,0.028,0.436,0.397,0.91,0.82c1.129,1.005,1.591,1.418,1.722,1.541
		c0.059,0.054,1.339,1.199,2.845,2.543c1.506,1.343,2.76,2.467,2.786,2.497c0.027,0.029,0.632,0.571,1.345,1.204
		c1.665,1.477,2.014,1.789,2.201,1.974c0.084,0.082,1.364,1.227,2.844,2.543c1.48,1.316,3.146,2.805,3.702,3.308
		c0.556,0.504,1.331,1.197,1.724,1.541c0.392,0.343,0.974,0.862,1.291,1.153c2.142,1.952,1.959,1.776,2.891,2.791
		c0.906,0.985,1.118,1.237,1.782,2.109c0.342,0.449,0.653,0.831,0.693,0.849c0.039,0.017,0.072,0.067,0.072,0.111
		c0,0.043,0.302,0.532,0.672,1.086c0.37,0.554,0.673,1.052,0.673,1.106c0,0.054,0.033,0.113,0.073,0.131
		c0.11,0.048,1.299,2.52,1.563,3.251c0.166,0.457,0.379,0.974,0.485,1.175c0.048,0.092,0.088,0.254,0.088,0.361
		c0,0.106,0.039,0.193,0.087,0.193c0.049,0,0.117,0.216,0.153,0.481c0.036,0.264,0.105,0.504,0.153,0.534
		c0.048,0.029,0.087,0.178,0.087,0.33c0,0.153,0.044,0.304,0.096,0.337c0.053,0.032,0.096,0.201,0.096,0.374
		s0.033,0.346,0.073,0.385c0.075,0.075,0.229,0.939,0.432,2.412c0.21,1.53,0.117,7.371-0.121,7.686
		c-0.04,0.053-0.104,0.41-0.142,0.793c-0.038,0.384-0.107,0.721-0.154,0.751c-0.049,0.029-0.088,0.223-0.088,0.432
		c0,0.208-0.043,0.378-0.096,0.378c-0.052,0-0.096,0.103-0.096,0.229s-0.063,0.378-0.138,0.56c-0.077,0.183-0.156,0.437-0.179,0.564
		c-0.038,0.228-0.101,0.423-0.261,0.809c-0.044,0.106-0.156,0.409-0.248,0.673s-0.203,0.521-0.247,0.572
		c-0.045,0.05-0.081,0.19-0.081,0.312c0,0.121-0.043,0.221-0.096,0.221s-0.096,0.049-0.096,0.108c0,0.146-1.18,2.526-1.272,2.566
		c-0.04,0.018-0.073,0.071-0.073,0.118c0,0.048-0.15,0.323-0.336,0.612c-0.185,0.289-0.337,0.549-0.337,0.578
		c0,0.028-0.062,0.127-0.139,0.221c-0.076,0.094-0.431,0.58-0.787,1.082c-1.638,2.307-2.355,3.045-6.953,7.166
		c-0.185,0.164-1.006,0.901-1.825,1.637c-1.353,1.213-6.487,5.806-7.303,6.529c-0.185,0.166-0.79,0.709-1.345,1.211
		c-0.556,0.5-2.264,2.028-3.795,3.397c-1.533,1.368-2.938,2.623-3.123,2.789c-1.681,1.51-3.755,3.369-6.054,5.421
		c-1.506,1.345-2.89,2.581-3.074,2.746c-0.186,0.166-0.79,0.71-1.346,1.21c-0.793,0.714-5.99,5.362-7.783,6.959
		c-0.687,0.612-1.52,1.36-2.357,2.114c-0.473,0.428-1.92,1.724-3.215,2.88c-1.295,1.155-2.401,2.146-2.458,2.2
		c-0.059,0.056-0.424,0.382-0.815,0.726c-0.39,0.343-1.165,1.037-1.721,1.54c-0.556,0.504-2.243,2.016-3.75,3.359
		c-1.506,1.345-2.889,2.58-3.074,2.746s-1.007,0.902-1.826,1.638c-1.49,1.337-6.669,5.967-7.302,6.528
		c-0.185,0.164-0.812,0.729-1.394,1.254c-0.582,0.526-2.265,2.035-3.74,3.355c-1.477,1.319-2.758,2.464-2.846,2.543
		s-0.479,0.426-0.869,0.77c-0.389,0.343-1.162,1.035-1.719,1.539c-0.795,0.722-4.646,4.164-6.824,6.104
		c-0.186,0.165-0.791,0.708-1.346,1.208c-0.813,0.733-3.308,2.965-7.783,6.962c-0.185,0.166-1.006,0.902-1.824,1.637
		c-1.491,1.338-6.67,5.967-7.303,6.529c-0.186,0.164-0.813,0.729-1.394,1.254c-0.581,0.526-2.289,2.055-3.795,3.399
		c-1.506,1.344-2.786,2.489-2.845,2.543c-0.057,0.055-0.445,0.403-0.861,0.772c-0.688,0.611-2.509,2.242-4.509,4.037
		c-0.906,0.813-3.507,3.135-3.988,3.563c-0.185,0.164-0.79,0.707-1.345,1.207s-2.458,2.201-4.229,3.783
		c-1.77,1.58-3.392,3.03-3.603,3.222c-1.312,1.184-2.726,2.45-5.142,4.606c-1.506,1.344-2.785,2.487-2.842,2.543
		c-0.058,0.055-0.425,0.381-0.816,0.725c-0.391,0.343-0.95,0.844-1.24,1.111c-0.291,0.27-1.979,1.781-3.748,3.361
		c-1.771,1.58-3.37,3.008-3.555,3.174c-0.186,0.166-1.245,1.114-2.354,2.108c-1.11,0.993-2.364,2.116-2.786,2.496
		c-0.424,0.38-1.417,1.268-2.211,1.975c-0.792,0.707-1.528,1.373-1.633,1.48c-0.106,0.108-1.619,1.47-3.363,3.026
		c-1.744,1.557-3.322,2.967-3.507,3.131c-0.185,0.166-0.598,0.535-0.917,0.821c-0.319,0.285-0.967,0.869-1.441,1.298
		c-0.474,0.428-1.92,1.721-3.215,2.877c-1.295,1.153-2.401,2.144-2.459,2.199c-0.057,0.057-0.423,0.383-0.813,0.727
		c-0.867,0.764-1.725,1.533-2.301,2.06c-0.238,0.218-1.2,1.08-2.138,1.916c-0.938,0.835-1.705,1.558-1.705,1.606
		c0,0.052,16.28,0.098,40.523,0.115c41.285,0.026,40.859,0.023,41.677,0.349c1.663,0.661,3.419,1.989,3.892,2.938
		c0.08,0.158,0.166,0.311,0.191,0.336c0.027,0.027,0.129,0.221,0.227,0.432c0.1,0.213,0.219,0.461,0.266,0.553
		c0.047,0.091,0.085,0.25,0.085,0.352c0,0.103,0.054,0.203,0.118,0.226c0.086,0.028,0.118,0.434,0.118,1.514
		s-0.032,1.485-0.118,1.515c-0.064,0.021-0.118,0.123-0.118,0.225s-0.04,0.26-0.088,0.352c-0.17,0.323-0.392,0.87-0.392,0.967
		c0,0.054-0.034,0.111-0.074,0.129c-0.041,0.018-0.238,0.259-0.439,0.535c-0.201,0.275-0.627,0.738-0.947,1.028
		c-0.773,0.7-1.414,1.075-2.72,1.595c-1.008,0.4,2.384,0.381-65.165,0.387l-63.684,0.006l0.96,0.382
		c15.622,6.207,34.733,10.802,50.925,12.245c0.37,0.033,0.763,0.074,0.872,0.091c0.11,0.017,0.629,0.062,1.153,0.101
		c0.525,0.037,1.019,0.08,1.098,0.095s0.663,0.058,1.297,0.096c0.634,0.039,1.219,0.082,1.3,0.097
		c0.081,0.016,0.772,0.058,1.537,0.094c0.765,0.035,1.491,0.08,1.615,0.1c1.559,0.245,18.519,0.243,20.128-0.002
		c0.116-0.018,0.794-0.059,1.508-0.094c0.713-0.033,1.491-0.079,1.729-0.102c0.237-0.023,1.059-0.087,1.825-0.143
		c23.23-1.682,47.373-8.278,68.779-18.79c74.551-36.611,116.75-116.525,104.796-198.456
		C376.032,87.089,307.159,20.781,220.706,11.103c-2.103-0.235-6.005-0.576-7.783-0.679c-0.555-0.033-1.138-0.075-1.297-0.094
		c-0.158-0.019-1.022-0.064-1.921-0.098c-0.898-0.035-1.742-0.085-1.874-0.111C207.523,10.061,194.442,9.963,194.379,10.021
		 M212.348,67.988c-0.186,0.021-0.748,0.084-1.25,0.139c-3.121,0.343-6.601,1.728-9.014,3.587c-0.301,0.231-1.846,1.583-3.434,3.003
		c-5.427,4.854-12.468,11.157-25.258,22.608c-2.692,2.409-5.138,4.597-5.437,4.861c-1.037,0.917-7.736,6.914-8.166,7.311
		c-0.238,0.22-2.141,1.925-4.228,3.79c-3.733,3.334-9.808,8.769-17.301,15.475c-13.984,12.519-19.451,17.409-26.567,23.769
		c-2.481,2.218-4.705,4.212-4.943,4.432c-0.238,0.219-2.14,1.925-4.228,3.79c-3.616,3.23-8.944,7.996-17.3,15.476
		c-2.091,1.871-6.024,5.391-8.741,7.822c-10.388,9.296-12.494,11.181-17.339,15.518c-2.744,2.458-6.875,6.155-9.18,8.215
		c-4.134,3.697-7.732,6.918-16.957,15.176c-2.589,2.318-6.675,5.975-9.08,8.124c-4.609,4.122-5.272,4.784-6.265,6.249
		c-1.02,1.505-2.094,3.926-2.094,4.721c0,0.15-0.039,0.272-0.087,0.272c-0.421,0-0.421,6.231,0.001,6.491
		c0.047,0.029,0.086,0.179,0.086,0.33c0,0.609,1.304,3.724,1.694,4.047c0.072,0.061,0.131,0.154,0.131,0.209
		c0,0.695,4.205,4.769,11.168,10.817c0.372,0.324,0.373,0.324,0.584,0.138c1.107-0.98,3.254-2.898,3.91-3.493
		c0.449-0.407,1.898-1.703,3.219-2.882c1.321-1.178,3.375-3.015,4.564-4.082c1.189-1.068,3.654-3.273,5.477-4.9
		c2.96-2.643,4.387-3.92,5.037-4.514c0.116-0.105,1.374-1.229,2.797-2.497c1.422-1.269,3.235-2.892,4.029-3.606
		c0.795-0.715,3.282-2.939,5.528-4.945c2.246-2.004,4.131-3.69,4.189-3.744c0.242-0.229,1.818-1.641,4.891-4.383
		c1.797-1.603,3.916-3.5,4.709-4.216s3.017-2.706,4.941-4.424c1.924-1.718,3.545-3.169,3.602-3.224
		c0.057-0.057,0.731-0.66,1.497-1.344c3.053-2.72,5.975-5.332,7.206-6.443c0.714-0.643,2.811-2.521,4.66-4.172
		c1.85-1.652,3.562-3.181,3.804-3.398c0.242-0.218,0.783-0.704,1.201-1.08c1.106-0.994,6.909-6.185,12.002-10.736
		c4.279-3.823,5.048-4.512,5.274-4.728c0.059-0.056,1.945-1.74,4.191-3.741c2.246-2.002,4.105-3.667,4.131-3.7
		c0.027-0.033,1.475-1.331,3.219-2.885c2.853-2.543,4.449-3.972,5.573-4.99c0.212-0.192,1.811-1.622,3.555-3.178
		c1.744-1.556,4.037-3.608,5.094-4.56c1.69-1.52,8.631-7.727,9.085-8.124c0.093-0.081,0.508-0.454,0.922-0.828
		c0.414-0.374,1.834-1.645,3.155-2.825c1.321-1.18,3.397-3.038,4.612-4.128c1.216-1.09,3.507-3.14,5.093-4.556
		c1.585-1.416,3.055-2.733,3.267-2.928c0.211-0.194,2.006-1.797,3.987-3.561c1.982-1.764,3.843-3.427,4.135-3.695
		c0.929-0.85,1.313-1.195,5.041-4.52c4.369-3.897,5.366-4.789,5.429-4.861c0.027-0.03,1.648-1.483,3.603-3.228
		c1.956-1.745,4.312-3.855,5.237-4.688c3.151-2.838,4.205-3.348,6.918-3.352c4.777-0.006,8.505,4.092,7.414,8.152
		c-0.222,0.824-0.69,1.782-1.184,2.422c-0.242,0.313-9.567,8.758-14.248,12.903c-0.268,0.238-6.019,5.383-12.778,11.434
		c-10.753,9.626-18.782,16.81-21.629,19.354c-0.478,0.426-4.757,4.256-9.509,8.511c-4.752,4.254-10.285,9.206-12.295,11.004
		c-14.124,12.633-55.255,49.459-61.489,55.054c-1.649,1.479-5.221,4.679-7.938,7.11c-2.716,2.431-6.606,5.912-8.643,7.734
		c-2.038,1.823-5.951,5.325-8.696,7.783c-2.745,2.457-6.636,5.939-8.646,7.736c-7.528,6.733-8.555,7.664-8.555,7.746
		c0,0.047,1.148,1.111,2.55,2.366c1.403,1.255,4.581,4.095,7.063,6.313c2.481,2.218,4.706,4.212,4.944,4.431
		c0.238,0.22,3.978,3.567,8.311,7.44c4.334,3.871,8.247,7.373,8.696,7.781c0.874,0.791,23.715,21.227,31.131,27.853
		c2.457,2.194,4.49,4.017,4.516,4.048c0.027,0.029,2.059,1.852,4.516,4.047c8.523,7.615,12.061,10.78,12.544,11.221
		c2.886,2.627,11.125,9.93,11.55,10.235c1.836,1.321,3.688,2.196,6.221,2.94c3.899,1.145,9.3,0.673,13.163-1.151
		c2.247-1.062,3.007-1.629,7.16-5.351c1.822-1.633,5.151-4.608,7.397-6.614c2.246-2.007,4.278-3.826,4.516-4.046
		c0.238-0.221,2.14-1.926,4.228-3.79c2.087-1.865,5.806-5.188,8.263-7.384s4.49-4.017,4.516-4.047
		c0.045-0.054,3.508-3.15,13.255-11.856c2.302-2.056,4.379-3.915,4.617-4.134c0.358-0.331,8.547-7.657,15.949-14.271
		c0.979-0.873,1.973-1.767,2.21-1.985c0.238-0.22,3.978-3.567,8.312-7.44c4.334-3.872,8.246-7.374,8.695-7.781
		c0.852-0.77,4.989-4.47,13.307-11.899c2.697-2.407,4.923-4.402,4.949-4.435c0.026-0.03,3.767-3.379,8.312-7.44
		c4.545-4.06,8.458-7.562,8.696-7.78c0.438-0.405,22.162-19.843,30.601-27.382c2.538-2.268,4.981-4.455,5.431-4.863
		c0.449-0.407,4.384-3.929,8.743-7.827c4.36-3.897,8.101-7.246,8.313-7.438c0.211-0.194,1.983-1.782,3.94-3.529
		c4.844-4.328,5.467-4.96,6.529-6.618c0.927-1.448,1.876-3.667,1.876-4.388c0-0.15,0.039-0.273,0.087-0.273
		c0.428,0,0.427-6.227-0.001-6.492c-0.047-0.029-0.086-0.177-0.086-0.33c0-0.557-0.836-2.642-1.483-3.699
		c-0.161-0.264-0.358-0.597-0.438-0.74c-0.665-1.2-1.916-2.441-7.306-7.25c-2.302-2.053-6.212-5.548-8.691-7.768
		c-6.302-5.642-12.12-10.846-17.397-15.562c-2.48-2.217-4.532-4.057-4.56-4.087c-0.026-0.031-2.078-1.87-4.559-4.088
		c-2.481-2.217-6.396-5.717-8.699-7.778c-2.304-2.061-6.4-5.726-9.103-8.143c-2.703-2.418-4.942-4.439-4.976-4.492
		c-0.161-0.262-0.618,0.079-3.188,2.381c-1.522,1.363-11.849,10.603-22.947,20.533c-11.098,9.931-20.631,18.465-21.186,18.966
		c-4.035,3.64-6.135,5.525-9.753,8.759c-6.239,5.577-11.44,10.23-12.299,11.005c-0.423,0.382-2.479,2.223-4.569,4.091
		c-2.09,1.869-9.935,8.888-17.433,15.6c-7.499,6.712-15.52,13.889-17.824,15.95c-2.305,2.061-6.219,5.563-8.698,7.782
		c-2.478,2.22-6.391,5.723-8.695,7.783c-2.304,2.062-8.271,7.401-13.26,11.866c-4.988,4.466-10.955,9.806-13.259,11.867
		c-2.305,2.062-7.86,7.033-12.345,11.049c-10.621,9.511-10.117,9.14-12.861,9.472c-5.759,0.698-10.375-4.9-7.832-9.5
		c0.71-1.287,0.586-1.162,5.606-5.642c4.237-3.78,4.297-3.833,4.411-3.942c0.058-0.055,1.359-1.218,2.892-2.584
		c1.532-1.365,2.981-2.662,3.219-2.881c0.237-0.218,1.448-1.306,2.69-2.416c1.242-1.109,3.706-3.314,5.477-4.899
		c1.77-1.585,4.645-4.154,6.389-5.71c1.744-1.555,3.193-2.854,3.219-2.883c0.027-0.031,1.691-1.522,3.7-3.315
		c4.2-3.749,6.369-5.69,6.918-6.192c0.211-0.193,2.005-1.796,3.987-3.562c1.982-1.767,3.625-3.235,3.651-3.267
		c0.027-0.029,1.064-0.963,2.306-2.071c1.242-1.11,3.339-2.985,4.66-4.165c1.322-1.182,2.576-2.305,2.787-2.499
		c0.211-0.193,2.006-1.798,3.987-3.563c1.982-1.767,3.625-3.236,3.652-3.267c0.026-0.03,1.064-0.962,2.306-2.073
		c1.242-1.11,4.117-3.682,6.389-5.715c2.273-2.034,5.148-4.603,6.39-5.711c1.242-1.107,2.28-2.037,2.306-2.067
		c0.026-0.03,1.691-1.521,3.699-3.313c2.008-1.793,4.473-3.998,5.477-4.901c1.004-0.903,3.447-3.087,5.429-4.853
		s3.625-3.236,3.651-3.266c0.026-0.03,1.086-0.982,2.354-2.115c5.079-4.538,5.959-5.326,6.005-5.376
		c0.026-0.028,0.415-0.376,0.864-0.772c0.449-0.397,0.838-0.745,0.865-0.774c0.026-0.029,1.67-1.497,3.651-3.263
		c1.981-1.765,3.625-3.235,3.651-3.266c0.026-0.031,1.69-1.523,3.699-3.316c2.008-1.792,4.688-4.191,5.957-5.33
		c1.268-1.139,3.516-3.151,4.995-4.471c1.479-1.32,2.759-2.465,2.843-2.545c0.082-0.079,0.299-0.274,0.48-0.433
		c0.301-0.264,1.145-1.018,6.768-6.048c1.004-0.898,1.998-1.791,2.209-1.985c0.211-0.193,2.071-1.855,4.133-3.692
		c3.724-3.321,5.033-4.495,5.955-5.337c0.266-0.242,1.931-1.732,3.701-3.31c1.771-1.579,3.391-3.029,3.603-3.222
		c0.378-0.346,3.586-3.213,6.655-5.948c0.857-0.765,1.557-1.413,1.554-1.441c-0.005-0.028-1.399-1.29-3.099-2.804
		c-3.832-3.41-10.5-9.369-11.596-10.362c-0.97-0.878-6.4-5.736-13.26-11.861c-2.723-2.43-4.971-4.444-4.996-4.475
		c-0.114-0.135-8.161-7.286-8.553-7.6c-1.844-1.48-4.795-2.831-7.35-3.366C216.264,68.103,213.313,67.876,212.348,67.988
		 M229.786,88.726c2.403,0.248,4.938,2.042,5.848,4.14c0.093,0.211,0.208,0.459,0.259,0.551s0.092,0.273,0.092,0.403
		c0,0.129,0.043,0.262,0.096,0.295c0.055,0.034,0.096,0.559,0.096,1.249c0,0.688-0.041,1.215-0.096,1.249
		c-0.053,0.033-0.096,0.154-0.096,0.27c0.004,1.043-1.094,2.486-3.582,4.712c-2.879,2.577-3.549,2.971-5.643,3.329
		c-6.566,1.123-11.465-5.896-7.428-10.642c0.586-0.689,4.777-4.443,4.961-4.443c0.038,0,0.23-0.102,0.428-0.226
		C225.909,88.862,227.838,88.525,229.786,88.726 M282.296,155.7c1.755,0.176,3.208,0.938,5.151,2.703
		c1.486,1.35,2.796,2.524,5.563,4.99c1.48,1.318,3.557,3.176,4.613,4.128c1.058,0.953,3.691,3.31,5.852,5.239
		c5.608,5.007,5.642,5.044,6.252,6.954c0.255,0.796,0.343,2.382,0.158,2.866c-0.046,0.122-0.163,0.48-0.26,0.797
		c-0.098,0.317-0.201,0.598-0.231,0.625c-0.029,0.026-0.102,0.156-0.159,0.288c-0.338,0.762-1.196,1.613-5.479,5.436
		c-2.475,2.21-4.521,4.044-4.549,4.075c-0.026,0.032-2.078,1.871-4.561,4.089c-4.791,4.282-10.883,9.731-16.006,14.317
		c-1.716,1.535-3.313,2.923-3.551,3.086c-2.797,1.909-6.742,1.802-9.412-0.256c-0.308-0.238-5.453-4.814-11.433-10.171
		c-10.94-9.801-11.824-10.638-11.824-11.223c0-0.071-0.032-0.129-0.073-0.129c-0.229,0-0.551-1.515-0.551-2.594
		c0-2.095,0.682-3.477,2.527-5.131c0.406-0.365,0.959-0.862,1.227-1.105c0.983-0.891,2.081-1.873,5.326-4.766
		c1.823-1.626,3.704-3.31,4.18-3.742c0.476-0.432,1.275-1.152,1.777-1.599c4.089-3.648,7.271-6.489,7.359-6.571
		c0.199-0.185,1.625-1.466,3.547-3.18c1.057-0.944,2.742-2.455,3.746-3.357c4.947-4.447,4.992-4.484,5.967-4.976
		C278.921,155.751,280.396,155.51,282.296,155.7 M280.327,172.702c-0.781,0.717-3.839,3.452-14.349,12.837
		c-3.226,2.88-5.867,5.285-5.871,5.344c-0.008,0.127,10.213,9.296,10.412,9.339c0.105,0.023,10.039-8.741,10.479-9.244
		c0.053-0.061,1.522-1.384,3.267-2.941c1.744-1.556,3.258-2.91,3.363-3.008c0.105-0.098,1.047-0.942,2.094-1.875
		c1.045-0.932,1.887-1.743,1.873-1.8c-0.015-0.058-2.123-1.979-4.688-4.269c-2.563-2.289-4.885-4.372-5.158-4.628
		C281.133,171.881,281.243,171.862,280.327,172.702 M181.36,246.636c2.476,0.576,4.377,2.071,5.343,4.201
		c0.153,0.337,0.278,0.69,0.278,0.787c0,0.096,0.045,0.221,0.101,0.276c0.303,0.303,0.008,2.949-0.433,3.897
		c-0.662,1.421,0.388,0.42-12.976,12.374c-2.274,2.035-8.435,7.547-13.69,12.251c-5.255,4.703-11.199,10.023-13.21,11.821
		c-2.01,1.798-7.576,6.779-12.368,11.068c-4.791,4.289-8.925,7.947-9.186,8.131c-3.74,2.629-9.259,1.513-11.412-2.31
		c-0.297-0.526-0.393-0.772-0.709-1.808c-0.139-0.457-0.092-2.104,0.078-2.729c0.499-1.834,0.892-2.281,6.017-6.841
		c1.744-1.551,3.219-2.864,3.277-2.919c0.341-0.314,1.745-1.572,7.292-6.529c1.004-0.898,1.847-1.656,1.874-1.685
		c0.026-0.029,0.415-0.376,0.865-0.772c0.449-0.396,0.838-0.744,0.864-0.773c0.027-0.029,1.67-1.497,3.652-3.264
		c1.981-1.765,3.624-3.234,3.651-3.266c0.05-0.059,8.747-7.841,14.172-12.681c1.744-1.556,3.193-2.854,3.219-2.886
		c0.027-0.031,0.653-0.598,1.393-1.256c2.867-2.554,7.802-6.967,8.168-7.304c6.582-6.059,8.452-7.473,10.233-7.735
		c0.237-0.035,0.497-0.102,0.576-0.147C178.625,246.427,180.764,246.497,181.36,246.636 M189.671,276.82
		c1.619,0.318,2.616,0.768,3.827,1.725c0.427,0.338,1.271,1.332,1.513,1.782c0.692,1.29,0.857,1.881,0.857,3.073
		c0,1.307-0.463,2.844-1.098,3.64c-1.166,1.463-4.837,4.649-6.048,5.251c-1.519,0.753-3.795,1.038-5.249,0.657
		c-1.939-0.509-3.015-1.111-4.144-2.319c-0.548-0.585-1.284-1.693-1.284-1.931c0-0.065-0.039-0.159-0.086-0.209
		c-0.542-0.576-0.485-3.229,0.096-4.534c0.1-0.225,0.182-0.43,0.182-0.458c0-0.854,5.44-5.638,7.113-6.253
		C186.612,276.78,188.518,276.593,189.671,276.82 M82.921,278.246c2.501,0.727,4.264,2.344,5.204,4.771
		c0.243,0.629,0.225,3.304-0.024,3.395c-0.048,0.018-0.088,0.111-0.088,0.209c0,0.964-2.845,4.099-5.604,6.175
		c-2.81,2.115-6.816,2.095-9.725-0.049c-0.785-0.579-2.062-2.125-2.062-2.498c0-0.072-0.043-0.175-0.097-0.228
		c-0.705-0.707-0.657-3.481,0.088-5.069c0.741-1.579,4.732-5.285,6.683-6.204C78.957,277.965,81.251,277.76,82.921,278.246
		 M28.057,282.965c0,0.354,4.108,8.133,6.32,11.967c16.011,27.748,38.686,50.998,66.04,67.715l1.978,1.209l0.616-0.155
		c0.535-0.136,1.566-0.16,7.799-0.185c3.95-0.017,7.182-0.063,7.182-0.104c0-0.041-0.095-0.155-0.212-0.255
		c-0.274-0.234-5.31-4.734-6.563-5.864c-0.529-0.477-1.303-1.17-1.721-1.54c-0.417-0.37-0.805-0.717-0.863-0.771
		c-0.058-0.053-1.143-1.025-2.412-2.158c-1.268-1.135-2.956-2.646-3.751-3.361c-0.794-0.716-1.764-1.582-2.154-1.925
		c-0.39-0.345-0.778-0.692-0.861-0.774c-0.083-0.084-1.362-1.229-2.842-2.543c-1.48-1.316-2.712-2.416-2.738-2.445
		c-0.027-0.028-0.437-0.397-0.911-0.819c-1.043-0.929-1.578-1.408-1.721-1.54c-0.059-0.055-1.339-1.198-2.845-2.543
		c-1.506-1.346-3.194-2.857-3.75-3.361c-0.556-0.503-1.33-1.195-1.721-1.539c-0.391-0.344-0.757-0.67-0.815-0.725
		c-0.057-0.055-1.336-1.198-2.842-2.54s-2.976-2.659-3.267-2.927c-0.507-0.467-1.75-1.578-2.224-1.988
		c-0.125-0.107-0.378-0.334-0.563-0.504s-1.59-1.428-3.122-2.796c-1.533-1.369-3.241-2.897-3.796-3.397
		c-0.555-0.502-1.16-1.047-1.345-1.212s-1.568-1.401-3.075-2.745c-1.506-1.345-3.171-2.834-3.7-3.312
		c-0.529-0.478-1.303-1.17-1.72-1.54s-0.806-0.717-0.864-0.77c-0.058-0.055-1.143-1.026-2.411-2.16
		c-1.269-1.133-2.957-2.646-3.751-3.36c-0.795-0.715-1.765-1.581-2.155-1.925c-0.39-0.344-0.777-0.692-0.861-0.775
		c-0.083-0.083-1.362-1.227-2.842-2.543c-1.479-1.316-2.712-2.416-2.738-2.443c-0.026-0.029-0.436-0.398-0.911-0.82
		c-1.09-0.971-1.585-1.414-1.721-1.54c-0.058-0.056-1.533-1.372-3.277-2.929c-1.744-1.556-3.193-2.852-3.219-2.879
		c-0.138-0.146-1.734-1.57-2.641-2.356c-0.06-0.054-0.313-0.289-0.56-0.525C28.259,283.025,28.057,282.893,28.057,282.965
		 M167.235,296.753c2.359,0.271,4.798,1.97,5.728,3.992c0.085,0.185,0.204,0.444,0.265,0.576c0.333,0.719,0.478,2.231,0.295,3.075
		c-0.052,0.237-0.121,0.594-0.153,0.793c-0.032,0.197-0.096,0.359-0.142,0.359s-0.084,0.063-0.084,0.141
		c0,0.172-0.401,0.908-0.806,1.482c-0.164,0.232-1.358,1.374-2.653,2.536c-1.294,1.162-2.7,2.424-3.122,2.806
		c-0.423,0.379-2.455,2.198-4.516,4.041c-5.473,4.895-11.674,10.443-12.72,11.383c-2.993,2.685-3.346,2.946-4.624,3.428
		c-6.078,2.292-12.381-3.221-9.963-8.713c0.564-1.282,0.643-1.36,9.524-9.305c4.646-4.158,8.494-7.604,8.551-7.658
		c0.809-0.776,8.406-7.493,8.714-7.705C163.062,296.934,165.057,296.503,167.235,296.753"/>
</g>
<path d="M266.855,126.016C255.745,57.586,229.537,9.54,199.039,9.54c-30.498,0-56.705,48.046-67.816,116.476H266.855z
	 M125.476,199.579c0,17.011,0.92,33.334,2.529,49.042h141.995c1.608-15.708,2.527-32.031,2.527-49.042
	c0-17.012-0.919-33.333-2.527-49.042H128.004C126.396,166.246,125.476,182.567,125.476,199.579z M374.289,126.016
	c-21.915-52.031-66.283-92.262-121.074-108.507c18.698,25.901,31.571,64.905,38.315,108.507H374.289z M144.787,17.509
	C90.073,33.754,45.629,73.984,23.789,126.016h82.759C113.215,82.414,126.089,43.41,144.787,17.509L144.787,17.509z M382.489,150.537
	h-87.894c1.61,16.092,2.527,32.567,2.527,49.042s-0.917,32.95-2.527,49.042h87.816c4.215-15.708,6.59-32.031,6.59-49.042
	C389.002,182.567,386.627,166.246,382.489,150.537z M100.955,199.579c0-16.476,0.92-32.95,2.529-49.042H15.59
	C11.452,166.246,9,182.567,9,199.579c0,17.011,2.452,33.334,6.59,49.042h87.816C101.875,232.529,100.955,216.055,100.955,199.579z
	 M131.223,273.143c11.111,68.431,37.319,116.477,67.816,116.477c30.498,0,56.706-48.046,67.816-116.477H131.223z M253.294,381.65
	c54.712-16.247,99.157-56.476,121.071-108.508h-82.758C284.863,316.745,271.99,355.749,253.294,381.65z M23.789,273.143
	c21.917,52.032,66.284,92.261,121.074,108.508c-18.698-25.901-31.571-64.905-38.314-108.508H23.789z"/>
</svg>
