<svg id="svg" xmlns="http://www.w3.org/2000/svg" xmlns:xlink="http://www.w3.org/1999/xlink" width="400" height="400" viewBox="0, 0, 400,400"><g id="svgg"><path id="path0" d="M194.378 10.021 C 194.352 10.045,193.323 10.095,192.090 10.132 C 190.858 10.170,189.755 10.215,189.640 10.233 C 189.525 10.251,188.847 10.292,188.134 10.325 C 187.420 10.358,186.663 10.403,186.452 10.426 C 186.241 10.448,185.700 10.491,185.251 10.521 C 184.802 10.551,184.218 10.595,183.954 10.619 C 183.690 10.643,182.738 10.729,181.840 10.811 C 109.002 17.442,45.826 66.133,20.584 135.095 C 19.338 138.498,16.623 146.812,16.623 147.223 C 16.623 147.263,17.071 146.955,17.618 146.539 C 24.325 141.442,32.796 138.254,41.028 137.729 C 41.583 137.693,42.167 137.652,42.325 137.637 C 42.484 137.622,64.415 137.606,91.062 137.601 L 139.511 137.593 139.542 105.141 C 139.575 69.442,139.525 72.485,140.143 68.847 C 143.445 49.409,159.337 34.930,179.870 32.652 C 180.622 32.569,194.022 32.532,232.380 32.508 C 260.706 32.491,285.222 32.465,286.860 32.452 L 289.839 32.429 285.707 30.356 C 261.722 18.327,235.076 11.271,209.705 10.231 C 208.912 10.199,208.134 10.150,207.975 10.124 C 207.610 10.062,194.442 9.963,194.378 10.021 M182.020 50.746 C 169.885 51.454,160.000 60.466,157.898 72.736 C 157.713 73.818,157.566 231.468,157.750 231.468 C 157.816 231.468,160.223 229.326,163.200 226.618 C 163.675 226.185,165.016 224.975,166.178 223.928 C 167.341 222.881,168.487 221.846,168.724 221.627 C 170.649 219.857,176.274 214.814,177.084 214.132 C 177.639 213.665,178.720 212.713,179.486 212.016 C 185.703 206.367,188.179 205.006,193.319 204.418 C 194.226 204.314,206.292 204.289,259.620 204.282 C 301.255 204.276,325.136 204.238,325.704 204.179 C 338.476 202.834,347.973 192.785,348.691 179.857 C 348.748 178.830,348.784 159.610,348.785 129.842 L 348.787 81.494 348.435 81.031 C 345.958 77.767,336.059 66.795,334.022 65.057 C 333.872 64.929,333.007 64.102,332.099 63.219 C 328.399 59.620,323.388 55.221,318.912 51.640 L 317.717 50.685 250.403 50.684 C 213.380 50.684,182.608 50.712,182.020 50.746 M255.825 84.215 C 275.703 85.834,287.445 108.453,276.549 124.137 C 274.432 127.184,271.920 129.719,266.368 134.409 C 261.389 138.614,260.293 139.843,260.293 141.219 C 260.293 146.450,254.815 150.643,249.434 149.529 C 244.590 148.527,241.791 144.580,242.211 139.344 C 242.753 132.585,245.800 127.979,254.630 120.574 C 261.190 115.072,262.457 113.518,262.453 110.978 C 262.442 103.268,252.702 99.422,247.192 104.951 C 245.466 106.683,244.700 108.503,244.536 111.266 C 244.091 118.785,236.609 122.840,230.447 118.902 C 227.699 117.145,226.427 114.559,226.433 110.737 C 226.455 97.254,237.207 85.567,250.781 84.274 C 252.606 84.100,254.193 84.082,255.825 84.215 M366.920 144.949 C 366.886 183.109,366.902 181.725,366.458 184.867 C 363.586 205.172,347.127 220.661,326.639 222.338 C 325.900 222.399,302.125 222.433,260.333 222.434 L 195.179 222.436 194.275 223.191 C 193.777 223.606,192.786 224.482,192.073 225.138 C 190.924 226.194,187.859 228.985,184.434 232.094 C 183.800 232.670,182.546 233.815,181.648 234.639 C 180.749 235.463,176.361 239.463,171.895 243.528 C 167.430 247.593,163.084 251.551,162.239 252.324 C 152.371 261.347,152.611 261.188,148.835 261.200 C 144.554 261.214,141.116 258.684,139.833 254.576 L 139.563 253.711 139.538 204.732 L 139.513 155.753 91.640 155.754 C 42.415 155.755,42.148 155.757,39.909 156.140 C 28.758 158.046,20.297 166.673,18.425 178.045 L 18.212 179.342 18.184 218.817 L 18.157 258.293 18.939 260.662 C 24.405 277.217,32.886 294.043,43.292 308.980 L 43.574 309.385 109.998 309.389 C 158.368 309.391,176.610 309.421,177.113 309.499 C 179.202 309.824,180.647 310.673,183.335 313.158 C 184.210 313.967,186.264 315.860,187.899 317.364 C 189.534 318.868,190.894 320.123,190.920 320.153 C 190.946 320.182,192.049 321.200,193.370 322.414 C 194.690 323.628,197.717 326.416,200.096 328.610 C 202.474 330.803,205.487 333.581,206.791 334.783 C 208.095 335.985,209.186 336.969,209.217 336.969 C 209.247 336.969,209.273 317.306,209.274 293.274 C 209.275 244.376,209.211 248.905,209.926 247.156 C 213.216 239.109,224.908 239.938,227.164 248.379 L 227.383 249.195 227.411 303.627 C 227.441 362.151,227.468 358.993,226.911 360.631 C 224.934 366.445,217.625 368.524,212.883 364.620 C 212.523 364.324,194.850 348.150,193.958 347.300 C 193.837 347.185,179.127 333.695,175.071 329.979 L 172.424 327.554 115.259 327.553 L 58.095 327.552 58.334 327.816 C 82.530 354.645,114.701 374.393,149.604 383.843 C 160.366 386.757,173.244 389.048,182.897 389.764 C 183.320 389.796,183.795 389.839,183.954 389.861 C 184.112 389.883,184.675 389.927,185.203 389.959 C 185.731 389.991,186.294 390.034,186.452 390.053 C 186.611 390.073,187.367 390.119,188.134 390.156 C 188.900 390.193,189.602 390.236,189.693 390.253 C 191.063 390.504,206.800 390.497,210.089 390.244 C 210.406 390.219,211.400 390.155,212.299 390.102 C 214.232 389.986,214.443 389.970,217.247 389.717 C 306.238 381.692,378.046 312.384,389.041 223.905 C 393.651 186.807,387.362 149.413,370.931 116.214 C 369.424 113.169,367.406 109.296,367.080 108.822 C 366.973 108.666,366.946 114.633,366.920 144.949 M253.045 158.256 C 261.062 159.676,263.304 170.247,256.547 174.767 C 250.458 178.840,242.705 174.659,242.670 167.283 C 242.643 161.476,247.477 157.270,253.045 158.256 M70.910 221.713 C 80.038 223.935,80.334 236.558,71.324 239.315 C 70.195 239.660,67.215 239.710,66.010 239.404 C 57.656 237.279,56.534 225.971,64.317 222.335 C 66.089 221.508,68.957 221.237,70.910 221.713 M102.065 221.631 C 108.836 222.811,111.856 230.830,107.569 236.248 C 105.124 239.338,100.475 240.510,96.469 239.046 C 92.767 237.694,90.266 233.632,90.708 229.689 C 91.329 224.139,96.283 220.624,102.065 221.631 " stroke="none" fill="#000000" fill-rule="evenodd"></path></g></svg>